<svg width="64" height="94" viewBox="0 0 64 94" fill="none" xmlns="http://www.w3.org/2000/svg">
<path d="M23.6591 92.5004C27.3125 92.5004 30.6706 91.8988 33.166 90.952C34.4074 90.481 35.5072 89.8976 36.3254 89.2022C37.1189 88.5278 37.8514 87.5653 37.8514 86.3463C37.8514 85.1055 37.0957 84.1622 36.2825 83.5213C35.4523 82.8671 34.3441 82.3435 33.1083 81.9316C30.621 81.1025 27.2804 80.6155 23.6591 80.6155C20.0379 80.6155 16.6972 81.1025 14.2099 81.9316C12.9742 82.3435 11.8659 82.8671 11.0358 83.5213C10.2225 84.1622 9.4668 85.1055 9.4668 86.3463C9.4668 87.5653 10.1994 88.5278 10.9928 89.2022C11.811 89.8976 12.9108 90.481 14.1522 90.952C16.6476 91.8988 20.0057 92.5004 23.6591 92.5004Z" fill="#C67906" stroke="white" stroke-width="3"/>
<mask id="path-2-outside-1_325_1087" maskUnits="userSpaceOnUse" x="0.0517578" y="15.2307" width="49" height="76" fill="black">
<rect fill="white" x="0.0517578" y="15.2307" width="49" height="76"/>
<path fill-rule="evenodd" clip-rule="evenodd" d="M44.5133 24.5769C44.5133 24.6319 44.511 24.6867 44.5065 24.7414L44.5133 24.7424L44.5022 24.7868C44.482 24.9765 44.4347 25.1641 44.3613 25.3493L29.1906 85.9231L29.1145 85.9231C28.5664 87.1529 26.6961 87.6154 23.7825 87.6154C20.8689 87.6154 18.9987 87.1529 18.4506 85.9231L18.3745 85.9231L3.47978 25.866C3.19918 25.4498 3.05176 25.0186 3.05176 24.5769C3.05176 21.072 12.3332 18.2307 23.7825 18.2307C35.2318 18.2307 44.5133 21.072 44.5133 24.5769Z"/>
</mask>
<path fill-rule="evenodd" clip-rule="evenodd" d="M44.5133 24.5769C44.5133 24.6319 44.511 24.6867 44.5065 24.7414L44.5133 24.7424L44.5022 24.7868C44.482 24.9765 44.4347 25.1641 44.3613 25.3493L29.1906 85.9231L29.1145 85.9231C28.5664 87.1529 26.6961 87.6154 23.7825 87.6154C20.8689 87.6154 18.9987 87.1529 18.4506 85.9231L18.3745 85.9231L3.47978 25.866C3.19918 25.4498 3.05176 25.0186 3.05176 24.5769C3.05176 21.072 12.3332 18.2307 23.7825 18.2307C35.2318 18.2307 44.5133 21.072 44.5133 24.5769Z" fill="#FFA010"/>
<path d="M44.5065 24.7414L41.5168 24.4929L41.283 27.306L44.0767 27.7104L44.5065 24.7414ZM44.5133 24.7424L47.4235 25.4711L48.2303 22.2492L44.9431 21.7733L44.5133 24.7424ZM44.5022 24.7868L41.5921 24.058L41.5411 24.2615L41.519 24.4701L44.5022 24.7868ZM44.3613 25.3493L41.5724 24.2438L41.4994 24.4281L41.4512 24.6204L44.3613 25.3493ZM29.1906 85.9231L29.1906 88.9231L31.5319 88.9231L32.1007 86.6519L29.1906 85.9231ZM29.1145 85.9231L29.1145 82.9231L27.1671 82.9231L26.3743 84.7018L29.1145 85.9231ZM18.4506 85.9231L21.1907 84.7018L20.398 82.9231L18.4506 82.9231L18.4506 85.9231ZM18.3745 85.9231L15.4627 86.6452L16.0276 88.9231L18.3745 88.9231L18.3745 85.9231ZM3.47978 25.866L6.39157 25.1439L6.26388 24.629L5.96739 24.1892L3.47978 25.866ZM47.4962 24.9899C47.5076 24.8528 47.5133 24.7151 47.5133 24.5769L41.5133 24.5769C41.5133 24.5487 41.5145 24.5206 41.5168 24.4929L47.4962 24.9899ZM44.9431 21.7733L44.9363 21.7723L44.0767 27.7104L44.0835 27.7114L44.9431 21.7733ZM47.4123 25.5156L47.4235 25.4711L41.6032 24.0136L41.5921 24.058L47.4123 25.5156ZM47.1502 26.4547C47.3174 26.033 47.4348 25.5806 47.4854 25.1035L41.519 24.4701C41.5293 24.3724 41.552 24.2953 41.5724 24.2438L47.1502 26.4547ZM32.1007 86.6519L47.2714 26.0781L41.4512 24.6204L26.2804 85.1942L32.1007 86.6519ZM29.1145 88.9231L29.1906 88.9231L29.1906 82.9231L29.1145 82.9231L29.1145 88.9231ZM26.3743 84.7018C26.606 84.1821 26.9704 84.2083 26.4757 84.3563C25.9891 84.5019 25.1336 84.6154 23.7825 84.6154L23.7825 90.6154C25.3451 90.6154 26.8815 90.4976 28.1955 90.1045C29.5013 89.7139 31.0749 88.8939 31.8547 87.1443L26.3743 84.7018ZM23.7825 84.6154C22.4315 84.6154 21.576 84.5019 21.0894 84.3563C20.5947 84.2083 20.9591 84.1821 21.1907 84.7018L15.7104 87.1443C16.4901 88.8939 18.0638 89.7139 19.3696 90.1045C20.6836 90.4976 22.22 90.6154 23.7825 90.6154L23.7825 84.6154ZM18.3745 88.9231L18.4506 88.9231L18.4506 82.9231L18.3745 82.9231L18.3745 88.9231ZM0.567995 26.5882L15.4627 86.6452L21.2863 85.2009L6.39157 25.1439L0.567995 26.5882ZM0.0517578 24.5769C0.0517578 25.7211 0.441559 26.726 0.992167 27.5429L5.96739 24.1892C5.95906 24.1768 5.98132 24.2067 6.0056 24.2793C6.03105 24.3554 6.05176 24.4581 6.05176 24.5769L0.0517578 24.5769ZM23.7825 15.2307C17.8455 15.2307 12.353 15.9635 8.24552 17.2209C6.21027 17.8439 4.34475 18.6466 2.92197 19.6764C1.56725 20.6569 0.0517578 22.2739 0.0517578 24.5769L6.05176 24.5769C6.05176 25.1274 5.69645 25.0749 6.4398 24.5369C7.11509 24.0482 8.28552 23.4835 10.0018 22.9581C13.3974 21.9186 18.2703 21.2307 23.7825 21.2307L23.7825 15.2307ZM47.5133 24.5769C47.5133 22.2739 45.9978 20.6569 44.6431 19.6764C43.2203 18.6466 41.3548 17.8439 39.3196 17.2209C35.212 15.9635 29.7196 15.2307 23.7825 15.2307L23.7825 21.2307C29.2948 21.2307 34.1677 21.9186 37.5633 22.9581C39.2796 23.4835 40.45 24.0482 41.1253 24.5369C41.8686 25.0749 41.5133 25.1274 41.5133 24.5769L47.5133 24.5769Z" fill="white" mask="url(#path-2-outside-1_325_1087)"/>
<path d="M44.3206 24.4165L44.3204 24.429C44.3069 25.2379 43.8938 25.856 43.4321 26.2737C42.989 26.6746 42.4303 26.9633 41.8704 27.1836C40.744 27.6268 39.2249 27.9402 37.4986 28.1709C34.0169 28.636 29.2972 28.8119 24.2251 28.8119C19.0756 28.8119 14.3451 28.2886 10.8835 27.6522C9.15754 27.3349 7.71346 26.9833 6.67579 26.6421C6.16623 26.4745 5.69637 26.2907 5.32731 26.0881C5.14826 25.9898 4.92424 25.8504 4.72475 25.6589C4.62546 25.5636 4.43723 25.3652 4.30689 25.0705C4.23964 24.9504 4.18107 24.8124 4.14139 24.6559C4.04499 24.2758 4.09006 23.9025 4.22358 23.586C4.45366 23.0406 4.9011 22.7542 5.1119 22.6331C5.60092 22.352 6.26511 22.1666 6.9316 22.0319C8.3342 21.7483 10.3893 21.569 12.8579 21.5818C12.858 21.5818 12.858 21.5818 12.858 21.5818M44.3206 24.4165L23.0277 23.0818C21.452 23.0818 20.3689 23.0854 19.381 23.0886C17.6367 23.0942 16.1892 23.0989 12.8503 23.0818L12.858 21.5818M44.3206 24.4165V24.404C44.3206 23.7946 43.9886 23.3948 43.8104 23.2211C43.6211 23.0366 43.4177 22.919 43.2807 22.8488C42.9977 22.7037 42.6666 22.5953 42.3571 22.5104C41.7162 22.3345 40.8558 22.1764 39.8776 22.0429C37.9068 21.7739 35.2854 21.5818 32.6065 21.5818H32.591H32.5756H32.5602H32.5449H32.5295H32.5142H32.4989H32.4836H32.4683H32.453H32.4378H32.4226H32.4074H32.3922H32.3771H32.3619H32.3468H32.3317H32.3166H32.3015H32.2865H32.2714H32.2564H32.2414H32.2264H32.2114H32.1965H32.1815H32.1666H32.1517H32.1368H32.1219H32.1071H32.0922H32.0774H32.0626H32.0478H32.033H32.0182H32.0034H31.9887H31.9739H31.9592H31.9445H31.9298H31.9151H31.9004H31.8857H31.8711H31.8564H31.8418H31.8272H31.8126H31.798H31.7834H31.7688H31.7542H31.7397H31.7251H31.7106H31.6961H31.6815H31.667H31.6525H31.638H31.6235H31.6091H31.5946H31.5801H31.5657H31.5512H31.5368H31.5223H31.5079H31.4935H31.4791H31.4646H31.4502H31.4358H31.4215H31.4071H31.3927H31.3783H31.3639H31.3496H31.3352H31.3208H31.3065H31.2921H31.2778H31.2634H31.2491H31.2347H31.2204H31.2061H31.1917H31.1774H31.1631H31.1487H31.1344H31.1201H31.1058H31.0914H31.0771H31.0628H31.0485H31.0342H31.0198H31.0055H30.9912H30.9769H30.9625H30.9482H30.9339H30.9196H30.9052H30.8909H30.8766H30.8622H30.8479H30.8336H30.8192H30.8049H30.7905H30.7762H30.7618H30.7474H30.7331H30.7187H30.7043H30.69H30.6756H30.6612H30.6468H30.6324H30.618H30.6036H30.5892H30.5747H30.5603H30.5459H30.5314H30.517H30.5025H30.4881H30.4736H30.4591H30.4446H30.4301H30.4156H30.4011H30.3866H30.372H30.3575H30.343H30.3284H30.3138H30.2992H30.2847H30.2701H30.2554H30.2408H30.2262H30.2115H30.1969H30.1822H30.1675H30.1529H30.1381H30.1234H30.1087H30.094H30.0792H30.0644H30.0497H30.0349H30.0201H30.0052H29.9904H29.9756H29.9607H29.9458H29.9309H29.916H29.9011H29.8861H29.8712H29.8562H29.8412H29.8262H29.8112H29.7961H29.7811H29.766H29.7509H29.7358H29.7207H29.7056H29.6904H29.6752H29.66H29.6448H29.6296H29.6143H29.599H29.5837H29.5684H29.5531H29.5377H29.5224H29.507H29.4915H29.4761H29.4606H29.4452H29.4297H29.4141H29.3986H29.383H29.3674H29.3518H29.3362H29.3205H29.3049H29.2892H29.2734H29.2577H29.2419H29.2261H29.2103H29.1944H29.1786H29.1627H29.1467H29.1308H29.1148H29.0988H29.0828H29.0667H29.0507H29.0346H29.0184H29.0023H28.9861H28.9699H28.9536H28.9374H28.9211H28.9047H28.8884H28.872H28.8556H28.8392H28.8227H28.8062H28.7897H28.7731H28.7565H28.7399H28.7233H28.7066H28.6899H28.6732H28.6564H28.6396H28.6228H28.6059H28.589H28.5721H28.5551H28.5381H28.5211H28.504H28.487H28.4698H28.4527H28.4355H28.4183H28.401H28.3837H28.3664H28.349H28.3316H28.3142H28.2967H28.2792H28.2617H28.2441H28.2265H28.2089H28.1912H28.1735H28.1557H28.1379H28.1201H28.1022H28.0843H28.0664H28.0484H28.0304H28.0123H27.9942H27.9761H27.9579H27.9397H27.9214H27.9031H27.8848H27.8664H27.848H27.8296H27.8111H27.7925H27.774H27.7553H27.7367H27.718H27.6992H27.6805H27.6616H27.6428H27.6239H27.6049H27.5859H27.5669H27.5478H27.5287H27.5095H27.4903H27.471H27.4517H27.4324H27.413H27.3935H27.3741H27.3545H27.335H27.3153H27.2957H27.276H27.2562H27.2364H27.2166H27.1967H27.1767H27.1567H27.1367H27.1166H27.0965H27.0763H27.056H27.0358H27.0154H26.9951H26.9746H26.9542H26.9336H26.9131H26.8924H26.8718H26.851H26.8303H26.8094H26.7885H26.7676H26.7466H26.7256H26.7045H26.6834H26.6622H26.641H26.6197H26.5983H26.5769H26.5555H26.534H26.5124H26.4908H26.4691H26.4474H26.4256H26.4038H26.3819H26.36H26.338H26.3159H26.2938H26.2717H26.2495H26.2272H26.2049H26.1825H26.16H26.1375H26.115H26.0924H26.0697H26.047H26.0242H26.0013H25.9784H25.9555H25.9325H25.9094H25.8863H25.8631H25.8398H25.8165H25.7931H25.7697H25.7462H25.7226H25.699H25.6753H25.6516H25.6278H25.6039H25.58H25.556H25.532H25.5079H25.4837H25.4595H25.4352H25.4108H25.3864H25.3619H25.3374H25.3127H25.2881H25.2633H25.2385H25.2136H25.1887H25.1637H25.1386H25.1135H25.0883H25.063H25.0377H25.0123H24.9869H24.9613H24.9357H24.9101H24.8843H24.8586H24.8327H24.8068H24.7808H24.7547H24.7286H24.7023H24.6761H24.6497H24.6233H24.5968H24.5703H24.5437H24.517H24.4902H24.4634H24.4365H24.4095H24.3825H24.3554H24.3282H24.3009H24.2736H24.2462H24.2187H24.1912H24.1635H24.1358H24.1081H24.0802H24.0523H24.0244H23.9963H23.9682H23.94H23.9117H23.8833H23.8549H23.8264H23.7978H23.7692H23.7404H23.7116H23.6827H23.6538H23.6247H23.5956H23.5664H23.5372H23.5078H23.4784H23.4489H23.4193H23.3897H23.36H23.3302H23.3003H23.2703H23.2403H23.2101H23.1799H23.1496H23.1193H23.0888H23.0583H23.0277H23.0277C21.4429 21.5818 20.3576 21.5854 19.3696 21.5886C17.63 21.5942 16.1917 21.5989 12.858 21.5818M44.3206 24.4165L12.858 21.5818M6.73046 23.4345C6.73049 23.4345 6.73145 23.4351 6.73326 23.4363C6.73133 23.4351 6.73043 23.4345 6.73046 23.4345Z" fill="#FFD845" stroke="white" stroke-width="3"/>
<path d="M48.999 38.8079L50.1469 39.8203L51.2817 38.7509C54.5235 35.6957 57.6231 30.3083 56.8566 24.8356L56.8486 24.7789L56.8355 24.7231C56.3301 22.5766 55.6516 20.9554 54.5995 19.482C53.5622 18.0293 52.2094 16.7899 50.492 15.368C46.8186 12.3265 41.9848 10.6165 37.0344 10.6393C32.0784 10.6622 27.405 12.4228 24.0695 15.5663L22.9692 16.6033L24.1168 17.5534L36.905 28.1416L48.999 38.8079Z" fill="#ED9510" stroke="white" stroke-width="3"/>
<path d="M23.7816 31.577C29.6049 31.577 34.9328 30.9044 38.8525 29.7845C40.8022 29.2274 42.489 28.5359 43.7229 27.7024C44.9044 26.9043 46.0123 25.733 46.0123 24.1539C46.0123 22.5749 44.9044 21.4035 43.7229 20.6054C42.489 19.7719 40.8022 19.0804 38.8525 18.5234C34.9328 17.4035 29.6049 16.7308 23.7816 16.7308C17.9583 16.7308 12.6303 17.4035 8.71061 18.5234C6.76094 19.0804 5.07412 19.7719 3.84027 20.6054C2.65877 21.4035 1.55078 22.5749 1.55078 24.1539C1.55078 25.733 2.65877 26.9043 3.84027 27.7024C5.07412 28.5359 6.76094 29.2274 8.71061 29.7845C12.6303 30.9044 17.9583 31.577 23.7816 31.577Z" fill="#FFDC54" stroke="white" stroke-width="3"/>
<path d="M47.6805 37.7172L48.8284 38.7296L49.9632 37.6602C52.8105 34.9768 55.541 30.2412 54.865 25.4146L54.857 25.3579L54.8439 25.302C54.4011 23.4215 53.8041 21.9908 52.8733 20.6874C51.9574 19.4046 50.7658 18.3146 49.2706 17.0767C46.0416 14.4031 41.7907 12.8983 37.4334 12.9184C33.0706 12.9385 28.9521 14.4887 26.0111 17.2604L24.9108 18.2973L26.0584 19.2475L37.1711 28.4485L47.6805 37.7172Z" fill="#FFF2B5" stroke="white" stroke-width="3"/>
<path d="M32.4263 28.3498L32.4263 28.3508C32.4265 28.9329 32.7949 29.3759 33.1477 29.6354C33.4814 29.8809 33.855 30.0134 34.1573 30.0889C34.7695 30.2419 35.4935 30.2614 36.2703 30.186C37.8504 30.0327 40.0556 29.4463 42.9451 28.1227C43.5853 27.8294 44.2079 27.5213 44.6266 27.1891C44.8339 27.0246 45.1388 26.7425 45.2799 26.3292C45.4528 25.8229 45.3213 25.2995 44.9745 24.8766C44.9736 24.8754 44.9719 24.8732 44.9695 24.8701C44.9209 24.8069 44.5716 24.3525 43.9228 24.1557C43.1821 23.9309 42.5769 24.1716 42.3946 24.245C42.1517 24.3428 41.8819 24.4885 41.6261 24.6292C41.5071 24.6947 41.373 24.7695 41.2261 24.8514C41.2008 24.8655 41.1752 24.8798 41.1492 24.8942C40.9912 24.9823 40.8159 25.0799 40.6195 25.1882C39.4356 25.6658 37.1741 26.3705 36.056 26.5938C35.3658 26.7317 34.8795 26.7845 34.4897 26.8268C34.4184 26.8345 34.3503 26.8419 34.2848 26.8494C34.2778 26.8502 34.2704 26.8511 34.2624 26.852C34.1012 26.8702 33.7538 26.9095 33.4467 27.0236C33.2534 27.0955 32.9713 27.2324 32.7463 27.4945C32.5058 27.7745 32.4264 28.0848 32.4263 28.3498ZM42.3436 25.1211C42.3439 25.1211 42.3406 25.1242 42.3328 25.1305C42.3394 25.1242 42.3433 25.121 42.3436 25.1211Z" fill="#FFFAE9" stroke="white" stroke-width="3"/>
<rect x="4.59679" y="3.26384" width="8.07693" height="25" rx="4.03846" transform="rotate(-15.0887 4.59679 3.26384)" fill="black" stroke="white" stroke-width="3"/>
<path d="M19.2934 66.941C20.0318 66.8039 20.5376 66.3354 20.8548 65.8872C21.1676 65.4453 21.3771 64.9182 21.5264 64.3955C21.8267 63.3441 21.9755 61.9748 22.0122 60.4354C22.0863 57.3314 21.71 53.203 20.8862 48.7677C20.0625 44.3324 18.9313 40.3442 17.7476 37.4738C17.1606 36.0502 16.53 34.8257 15.8722 33.9522C15.5452 33.5179 15.1604 33.1012 14.7098 32.8012C14.2528 32.4968 13.6125 32.2411 12.8741 32.3782C12.1357 32.5154 11.6299 32.9839 11.3127 33.4321C10.9999 33.874 10.7904 34.401 10.6411 34.9238C10.3408 35.9752 10.192 37.3445 10.1553 38.8839C10.0812 41.9879 10.4575 46.1163 11.2813 50.5516C12.105 54.9869 13.2362 58.9751 14.4199 61.8455C15.0069 63.269 15.6375 64.4936 16.2953 65.367C16.6223 65.8013 17.0071 66.218 17.4577 66.5181C17.9147 66.8225 18.555 67.0782 19.2934 66.941Z" fill="#FFDC54" stroke="white" stroke-width="3"/>
<path d="M36.3514 86.3463C36.3514 88.6828 30.6689 91.0004 23.6591 91.0004C16.6493 91.0004 10.9668 88.6828 10.9668 86.3463C10.9668 84.0097 16.6493 82.1155 23.6591 82.1155C30.6689 82.1155 36.3514 84.0097 36.3514 86.3463Z" fill="#C67906"/>
<path fill-rule="evenodd" clip-rule="evenodd" d="M44.5133 24.5769C44.5133 24.6319 44.511 24.6867 44.5065 24.7414L44.5133 24.7424L44.5022 24.7868C44.482 24.9765 44.4347 25.1641 44.3613 25.3493L29.1906 85.9231L29.1145 85.9231C28.5664 87.1529 26.6961 87.6154 23.7825 87.6154C20.8689 87.6154 18.9987 87.1529 18.4506 85.9231L18.3745 85.9231L3.20376 25.3493C3.13037 25.1641 3.08303 24.9765 3.06289 24.7868L3.05176 24.7424L3.05858 24.7413C3.05404 24.6867 3.05176 24.6318 3.05176 24.5769C3.05176 21.072 12.3332 18.2307 23.7825 18.2307C35.2318 18.2307 44.5133 21.072 44.5133 24.5769Z" fill="#FFA010"/>
<path d="M42.8206 24.404C42.7839 26.6069 34.3342 27.3119 24.2251 27.3119C14.1159 27.3119 5.66619 25.2544 5.66619 24.404C5.06776 23.7869 8.03687 23.0568 12.8503 23.0818C18.08 23.1086 18.6696 23.0819 23.0277 23.0818C28.2575 23.0818 29.9703 23.0818 32.6065 23.0818C37.8363 23.0818 42.8206 23.8339 42.8206 24.404Z" fill="#FFD845"/>
<path d="M50.1341 37.8007C53.1493 34.9591 55.9704 29.9777 55.2788 25.0395C54.3215 20.974 52.7881 19.2169 49.3918 16.4049C45.9954 13.5928 41.5404 12.0248 37.0068 12.0457C32.4732 12.0667 28.2323 13.6748 25.2171 16.5165L38.0229 27.1194L50.1341 37.8007Z" fill="#ED9510"/>
<path d="M43.5123 24.1539C43.5123 24.4642 43.2842 24.9818 42.3235 25.6308C41.3976 26.2562 39.9922 26.8588 38.1657 27.3806C34.5263 28.4205 29.4404 29.077 23.7816 29.077C18.1227 29.077 13.0368 28.4205 9.39741 27.3806C7.57091 26.8588 6.16549 26.2562 5.23967 25.6308C4.27894 24.9818 4.05078 24.4642 4.05078 24.1539C4.05078 23.8436 4.27894 23.326 5.23967 22.677C6.16549 22.0516 7.57091 21.449 9.39741 20.9272C13.0368 19.8874 18.1227 19.2308 23.7816 19.2308C29.4404 19.2308 34.5263 19.8874 38.1657 20.9272C39.9922 21.449 41.3976 22.0516 42.3235 22.677C43.2842 23.326 43.5123 23.8436 43.5123 24.1539Z" fill="#FFDE5B" stroke="#FFFAE9" stroke-width="2"/>
<path d="M48.8156 36.7101C51.4363 34.2402 53.8883 29.9106 53.2872 25.6185C52.4551 22.0849 51.1224 20.5577 48.1704 18.1136C45.2184 15.6695 41.3463 14.3066 37.4058 14.3248C33.4654 14.343 29.7793 15.7407 27.1586 18.2106L38.289 27.4262L48.8156 36.7101Z" fill="#FFD512"/>
<path d="M43.6645 25.6072C43.9437 25.9477 43.4111 26.3083 42.1039 26.9071C36.5244 29.4629 34.0453 28.9516 34.0451 28.4406C34.0453 28.1402 34.7101 28.2917 36.5246 27.9292C37.7973 27.675 40.2438 26.9068 41.4839 26.3958C43.3432 25.3731 43.3852 25.2667 43.6645 25.6072Z" fill="#FFFAE9"/>
<rect x="6.43555" y="4.32166" width="5.07693" height="22" rx="2.53846" transform="rotate(-15.0887 6.43555 4.32166)" fill="black"/>
<ellipse cx="16.0838" cy="49.6596" rx="3.38462" ry="16.0769" transform="rotate(-10.5215 16.0838 49.6596)" fill="#FFDC54"/>
</svg>
