<svg width="38" height="27" viewBox="0 0 38 27" fill="none" xmlns="http://www.w3.org/2000/svg">
<path d="M17.2005 11.155C18.2669 10.3555 19.7331 10.3555 20.7995 11.155L28.2511 16.7414C30.5581 18.4709 29.3349 22.1417 26.4515 22.1417H11.5485C8.66513 22.1417 7.44192 18.4709 9.74893 16.7414L17.2005 11.155Z" fill="white" stroke="white" stroke-width="5"/>
<path d="M17.2051 12.8491C18.27 12.0534 19.7315 12.0534 20.7964 12.8491L24.2941 15.4624C26.6059 17.1897 25.3842 20.8657 22.4984 20.8657H15.5031C12.6173 20.8657 11.3957 17.1897 13.7075 15.4624L17.2051 12.8491Z" fill="white" stroke="white" stroke-width="5"/>
<ellipse cx="19.0002" cy="9.52243" rx="0.850746" ry="1.98507" fill="#7D5100" stroke="white" stroke-width="5"/>
<circle cx="18.7167" cy="5.83582" r="2.83582" fill="#7D5100" stroke="white" stroke-width="5"/>
<circle cx="18.7161" cy="5.83577" r="1.70149" fill="white" stroke="white" stroke-width="5"/>
<path d="M17.2005 11.155C18.2669 10.3555 19.7331 10.3555 20.7995 11.155L28.2511 16.7414C30.5581 18.4709 29.3349 22.1417 26.4515 22.1417H11.5485C8.66513 22.1417 7.44192 18.4709 9.74893 16.7414L17.2005 11.155Z" fill="#7D5100"/>
<path d="M17.2051 12.8491C18.27 12.0534 19.7315 12.0534 20.7964 12.8491L24.2941 15.4624C26.6059 17.1897 25.3842 20.8657 22.4984 20.8657H15.5031C12.6173 20.8657 11.3957 17.1897 13.7075 15.4624L17.2051 12.8491Z" fill="white"/>
<ellipse cx="19.0002" cy="9.52243" rx="0.850746" ry="1.98507" fill="#7D5100"/>
<circle cx="18.7167" cy="5.83582" r="2.83582" fill="#7D5100"/>
<circle cx="18.7161" cy="5.83577" r="1.70149" fill="white"/>
<path d="M21.5518 7.53732C21.5518 8.47703 20.1339 9.49484 19.8503 9.49484C19.5667 6.9426 17.8652 7.90987 17.8652 6.97016C17.8652 6.03045 19.2831 5.55225 20.1339 5.55225C21.2682 8.0769 22.119 4.13434 21.5518 7.53732Z" fill="white"/>
</svg>
