<svg width="35" height="38" viewBox="0 0 35 38" fill="none" xmlns="http://www.w3.org/2000/svg">
<g filter="url(#filter0_d_464_54)">
<mask id="path-1-outside-1_464_54" maskUnits="userSpaceOnUse" x="4.67871" y="0" width="26" height="30" fill="black">
<rect fill="white" x="4.67871" width="26" height="30"/>
<path fill-rule="evenodd" clip-rule="evenodd" d="M14.0909 9.8016C15.2017 9.37911 16.408 9.14758 17.6689 9.14758C18.9299 9.14758 20.1364 9.37918 21.2474 9.80181C20.8518 8.19318 19.3998 7 17.6691 7C15.9385 7 14.4865 8.19308 14.0909 9.8016ZM10.195 12.479C10.0573 11.9034 9.98438 11.3026 9.98438 10.6847C9.98438 6.44057 13.4249 3 17.6691 3C21.9133 3 25.3538 6.44057 25.3538 10.6847C25.3538 11.3027 25.2809 11.9037 25.1431 12.4794C26.7084 14.2276 27.659 16.5287 27.659 19.0499C27.659 24.5188 23.1863 26.054 17.6689 26.054C12.1515 26.054 7.67871 24.5188 7.67871 19.0499C7.67871 16.5285 8.62945 14.2272 10.195 12.479Z"/>
</mask>
<path fill-rule="evenodd" clip-rule="evenodd" d="M14.0909 9.8016C15.2017 9.37911 16.408 9.14758 17.6689 9.14758C18.9299 9.14758 20.1364 9.37918 21.2474 9.80181C20.8518 8.19318 19.3998 7 17.6691 7C15.9385 7 14.4865 8.19308 14.0909 9.8016ZM10.195 12.479C10.0573 11.9034 9.98438 11.3026 9.98438 10.6847C9.98438 6.44057 13.4249 3 17.6691 3C21.9133 3 25.3538 6.44057 25.3538 10.6847C25.3538 11.3027 25.2809 11.9037 25.1431 12.4794C26.7084 14.2276 27.659 16.5287 27.659 19.0499C27.659 24.5188 23.1863 26.054 17.6689 26.054C12.1515 26.054 7.67871 24.5188 7.67871 19.0499C7.67871 16.5285 8.62945 14.2272 10.195 12.479Z" fill="#FFDC24"/>
<path d="M14.0909 9.8016L11.1777 9.08504L9.81162 14.6389L15.1574 12.6056L14.0909 9.8016ZM21.2474 9.80181L20.1807 12.6058L25.5263 14.6393L24.1606 9.08542L21.2474 9.80181ZM10.195 12.479L12.4298 14.4803L13.4783 13.3096L13.1127 11.7811L10.195 12.479ZM25.1431 12.4794L22.2255 11.7814L21.8598 13.3098L22.9081 14.4806L25.1431 12.4794ZM15.1574 12.6056C15.9325 12.3108 16.7777 12.1476 17.6689 12.1476V6.14758C16.0383 6.14758 14.4709 6.4474 13.0244 6.99757L15.1574 12.6056ZM17.6689 12.1476C18.5601 12.1476 19.4055 12.3109 20.1807 12.6058L22.314 6.99784C20.8673 6.4475 19.2997 6.14758 17.6689 6.14758V12.1476ZM24.1606 9.08542C23.443 6.16732 20.8129 4 17.6691 4V10C17.9867 10 18.2606 10.219 18.3342 10.5182L24.1606 9.08542ZM17.6691 4C14.5255 4 11.8954 6.16713 11.1777 9.08504L17.004 10.5182C17.0776 10.219 17.3515 10 17.6691 10V4ZM6.98438 10.6847C6.98438 11.5393 7.08531 12.3743 7.27727 13.1769L13.1127 11.7811C13.0293 11.4324 12.9844 11.0658 12.9844 10.6847H6.98438ZM17.6691 0C11.7681 0 6.98438 4.78371 6.98438 10.6847H12.9844C12.9844 8.09742 15.0818 6 17.6691 6V0ZM28.3538 10.6847C28.3538 4.78371 23.5701 0 17.6691 0V6C20.2564 6 22.3538 8.09742 22.3538 10.6847H28.3538ZM28.0608 13.1775C28.2528 12.3748 28.3538 11.5396 28.3538 10.6847H22.3538C22.3538 11.0659 22.3089 11.4326 22.2255 11.7814L28.0608 13.1775ZM22.9081 14.4806C24.002 15.7023 24.659 17.2984 24.659 19.0499H30.659C30.659 15.759 29.4148 12.7528 27.3781 10.4782L22.9081 14.4806ZM24.659 19.0499C24.659 20.7837 24.0505 21.5218 23.2077 22.0194C22.098 22.6747 20.2553 23.054 17.6689 23.054V29.054C20.5998 29.054 23.7522 28.6657 26.2582 27.1861C29.0311 25.5489 30.659 22.785 30.659 19.0499H24.659ZM17.6689 23.054C15.0824 23.054 13.2398 22.6747 12.13 22.0194C11.2872 21.5218 10.6787 20.7837 10.6787 19.0499H4.67871C4.67871 22.785 6.30658 25.5489 9.07949 27.1861C11.5855 28.6657 14.7379 29.054 17.6689 29.054V23.054ZM10.6787 19.0499C10.6787 17.2983 11.3358 15.702 12.4298 14.4803L7.9601 10.4777C5.92311 12.7523 4.67871 15.7587 4.67871 19.0499H10.6787Z" fill="#8C5828" mask="url(#path-1-outside-1_464_54)"/>
<mask id="path-3-outside-2_464_54" maskUnits="userSpaceOnUse" x="12" y="13.6071" width="11" height="9" fill="black">
<rect fill="white" x="12" y="13.6071" width="11" height="9"/>
<path d="M17.384 19.4871C17.976 19.7111 17.72 20.6631 17.12 20.4391C16.552 20.2151 16.016 19.8071 15.504 19.4791C15.248 19.3111 14.904 19.1511 14.6 18.9511C14.608 19.3191 14.608 19.6791 14.608 20.0471C14.608 20.6791 13.616 20.6791 13.616 20.0471C13.616 18.5031 13.592 16.9591 13.648 15.4151C13.672 14.7831 14.656 14.7831 14.632 15.4151C14.608 16.0311 14.6 16.6471 14.6 17.2631C14.816 17.0311 15.048 16.8071 15.24 16.5671C15.64 16.0711 16.104 15.6071 16.56 15.1591C17.016 14.7111 17.712 15.4071 17.264 15.8551C16.808 16.3031 16.36 16.7511 15.952 17.2391C15.704 17.5431 15.384 17.8311 15.128 18.1431C15.416 18.3431 15.888 18.5511 16.104 18.6951C16.496 18.9431 16.952 19.3191 17.384 19.4871ZM21.5158 14.8551C22.1478 14.8551 22.1478 15.8391 21.5158 15.8391C21.0678 15.8391 20.2838 15.7031 19.7798 15.8231C19.7558 16.4071 19.8038 17.0151 19.8198 17.5911C19.8438 18.4871 19.8038 19.3831 19.7958 20.2711C19.7958 20.9111 18.8038 20.9111 18.8118 20.2711C18.8278 18.7431 18.7558 17.1991 18.8118 15.6711C18.8518 14.4871 20.6998 14.8551 21.5158 14.8551Z"/>
</mask>
<path d="M17.384 19.4871C17.976 19.7111 17.72 20.6631 17.12 20.4391C16.552 20.2151 16.016 19.8071 15.504 19.4791C15.248 19.3111 14.904 19.1511 14.6 18.9511C14.608 19.3191 14.608 19.6791 14.608 20.0471C14.608 20.6791 13.616 20.6791 13.616 20.0471C13.616 18.5031 13.592 16.9591 13.648 15.4151C13.672 14.7831 14.656 14.7831 14.632 15.4151C14.608 16.0311 14.6 16.6471 14.6 17.2631C14.816 17.0311 15.048 16.8071 15.24 16.5671C15.64 16.0711 16.104 15.6071 16.56 15.1591C17.016 14.7111 17.712 15.4071 17.264 15.8551C16.808 16.3031 16.36 16.7511 15.952 17.2391C15.704 17.5431 15.384 17.8311 15.128 18.1431C15.416 18.3431 15.888 18.5511 16.104 18.6951C16.496 18.9431 16.952 19.3191 17.384 19.4871ZM21.5158 14.8551C22.1478 14.8551 22.1478 15.8391 21.5158 15.8391C21.0678 15.8391 20.2838 15.7031 19.7798 15.8231C19.7558 16.4071 19.8038 17.0151 19.8198 17.5911C19.8438 18.4871 19.8038 19.3831 19.7958 20.2711C19.7958 20.9111 18.8038 20.9111 18.8118 20.2711C18.8278 18.7431 18.7558 17.1991 18.8118 15.6711C18.8518 14.4871 20.6998 14.8551 21.5158 14.8551Z" fill="#FFB800"/>
<path d="M17.384 19.4871L17.0215 20.4191L17.0301 20.4223L17.384 19.4871ZM17.12 20.4391L16.7531 21.3693L16.7616 21.3727L16.7702 21.3759L17.12 20.4391ZM15.504 19.4791L14.9553 20.3152L14.9645 20.3211L15.504 19.4791ZM14.6 18.9511L15.1496 18.1156L13.5588 17.0691L13.6002 18.9728L14.6 18.9511ZM13.648 15.4151L12.6487 15.3771L12.6486 15.3788L13.648 15.4151ZM14.632 15.4151L15.6312 15.454L15.6312 15.453L14.632 15.4151ZM14.6 17.2631H13.6V19.8047L15.3319 17.9445L14.6 17.2631ZM15.24 16.5671L14.4615 15.9393L14.4591 15.9424L15.24 16.5671ZM16.56 15.1591L15.8591 14.4457V14.4457L16.56 15.1591ZM17.264 15.8551L17.9648 16.5684L17.9711 16.5622L17.264 15.8551ZM15.952 17.2391L15.1847 16.5976L15.1771 16.6069L15.952 17.2391ZM15.128 18.1431L14.3549 17.5087L13.6676 18.3464L14.5576 18.9644L15.128 18.1431ZM16.104 18.6951L15.5493 19.5271L15.5592 19.5337L15.5693 19.5401L16.104 18.6951ZM17.0301 20.4223C16.9163 20.3793 16.8106 20.2802 16.7566 20.1532C16.7107 20.0452 16.713 19.9458 16.7343 19.8676C16.7548 19.7925 16.8151 19.6625 16.9719 19.5656C17.1588 19.4501 17.3568 19.4601 17.4697 19.5022L16.7702 21.3759C17.1831 21.53 17.6381 21.505 18.0232 21.267C18.3783 21.0476 18.5781 20.7076 18.6636 20.3945C18.8305 19.7837 18.6278 18.8885 17.7379 18.5518L17.0301 20.4223ZM17.4868 19.5088C17.0395 19.3324 16.6569 19.03 16.0434 18.637L14.9645 20.3211C15.375 20.5841 16.0644 21.0977 16.7531 21.3693L17.4868 19.5088ZM16.0526 18.643C15.8853 18.5332 15.6967 18.4307 15.5527 18.3513C15.3938 18.2637 15.2644 18.1912 15.1496 18.1156L14.0504 19.7865C14.2395 19.9109 14.4342 20.0184 14.5872 20.1028C14.7552 20.1954 14.8666 20.2569 14.9553 20.3151L16.0526 18.643ZM13.6002 18.9728C13.6079 19.3282 13.608 19.6774 13.608 20.0471H15.608C15.608 19.6807 15.608 19.31 15.5997 18.9293L13.6002 18.9728ZM13.608 20.0471C13.608 19.9175 13.6704 19.7552 13.8056 19.6404C13.919 19.544 14.0348 19.5211 14.112 19.5211C14.1891 19.5211 14.3049 19.544 14.4184 19.6404C14.5535 19.7552 14.616 19.9175 14.616 20.0471H12.616C12.616 20.4927 12.8024 20.8919 13.1236 21.1647C13.423 21.4191 13.7868 21.5211 14.112 21.5211C14.4371 21.5211 14.8009 21.4191 15.1004 21.1647C15.4215 20.8919 15.608 20.4927 15.608 20.0471H13.608ZM14.616 20.0471C14.616 18.4823 14.5922 16.9712 14.6473 15.4513L12.6486 15.3788C12.5918 16.9469 12.616 18.5238 12.616 20.0471H14.616ZM14.6472 15.453C14.6425 15.5779 14.5782 15.7259 14.4536 15.8293C14.3481 15.9168 14.2388 15.9411 14.158 15.9411C14.0785 15.9411 13.9515 15.9169 13.8289 15.8084C13.6831 15.6793 13.6279 15.5039 13.6327 15.3771L15.6312 15.453C15.6481 15.0102 15.4788 14.5978 15.1545 14.3108C14.8534 14.0442 14.4834 13.9411 14.158 13.9411C13.5166 13.9411 12.6861 14.3925 12.6487 15.3771L14.6472 15.453ZM13.6327 15.3761C13.6081 16.0091 13.6 16.6388 13.6 17.2631H15.6C15.6 16.6554 15.6079 16.0531 15.6312 15.454L13.6327 15.3761ZM15.3319 17.9445C15.4966 17.7675 15.7985 17.4697 16.0208 17.1918L14.4591 15.9424C14.2974 16.1444 14.1353 16.2946 13.8681 16.5816L15.3319 17.9445ZM16.0184 17.1948C16.3778 16.7491 16.8035 16.3217 17.2608 15.8724L15.8591 14.4457C15.4045 14.8924 14.9021 15.393 14.4616 15.9393L16.0184 17.1948ZM17.2608 15.8724C17.1747 15.957 17.0228 16.026 16.85 16.013C16.7034 16.0019 16.6035 15.9374 16.5459 15.8802C16.4886 15.8232 16.4217 15.722 16.4101 15.5714C16.3963 15.3933 16.4682 15.2366 16.5569 15.1479L17.9711 16.5622C18.2837 16.2495 18.4366 15.8378 18.4041 15.4172C18.3737 15.0241 18.1884 14.6929 17.956 14.4619C17.7235 14.2307 17.3921 14.0482 17.0007 14.0186C16.5831 13.9871 16.1733 14.1371 15.8591 14.4457L17.2608 15.8724ZM16.5631 15.1417C16.1069 15.59 15.6274 16.0683 15.1848 16.5976L16.7192 17.8805C17.0926 17.4339 17.5091 17.0161 17.9648 16.5684L16.5631 15.1417ZM15.1771 16.6069C15.0831 16.7222 14.97 16.8408 14.8215 16.9956C14.6836 17.1392 14.5119 17.3174 14.3549 17.5087L15.901 18.7774C16.0001 18.6567 16.1163 18.5349 16.2645 18.3805C16.4019 18.2373 16.5729 18.0599 16.7268 17.8712L15.1771 16.6069ZM14.5576 18.9644C14.7605 19.1053 15.0051 19.2346 15.1782 19.3255C15.3918 19.4376 15.4975 19.4926 15.5493 19.5271L16.6587 17.863C16.4944 17.7535 16.2562 17.6325 16.1077 17.5546C15.9189 17.4555 15.7835 17.3808 15.6984 17.3217L14.5576 18.9644ZM15.5693 19.5401C15.7589 19.6601 15.895 19.7652 16.1707 19.9507C16.399 20.1043 16.697 20.2929 17.0215 20.4191L17.7464 18.5551C17.6389 18.5132 17.4929 18.4298 17.2872 18.2914C17.129 18.1849 16.8411 17.9781 16.6386 17.85L15.5693 19.5401ZM19.7798 15.8231L19.5482 14.8502L18.8118 15.0256L18.7807 15.782L19.7798 15.8231ZM19.8198 17.5911L20.8195 17.5643L20.8195 17.5633L19.8198 17.5911ZM19.7958 20.2711L18.7958 20.262V20.2711H19.7958ZM18.8118 20.2711L19.8118 20.2836L19.8118 20.2815L18.8118 20.2711ZM18.8118 15.6711L19.8112 15.7077L19.8113 15.7048L18.8118 15.6711ZM21.5158 15.8551C21.3892 15.8551 21.2276 15.7944 21.1118 15.6593C21.0141 15.5452 20.9898 15.4273 20.9898 15.3471C20.9898 15.2668 21.0141 15.1489 21.1118 15.0349C21.2276 14.8997 21.3892 14.8391 21.5158 14.8391V16.8391C21.9585 16.8391 22.3571 16.6554 22.6309 16.3358C22.8866 16.0372 22.9898 15.6733 22.9898 15.3471C22.9898 15.0208 22.8866 14.6569 22.6309 14.3584C22.3571 14.0387 21.9585 13.8551 21.5158 13.8551V15.8551ZM21.5158 14.8391C21.3271 14.8391 21.1288 14.812 20.7291 14.7879C20.4122 14.7688 19.958 14.7527 19.5482 14.8502L20.0115 16.7959C20.1057 16.7734 20.2955 16.7654 20.6086 16.7842C20.8388 16.7981 21.2566 16.8391 21.5158 16.8391V14.8391ZM18.7807 15.782C18.7549 16.4102 18.8062 17.115 18.8202 17.6188L20.8195 17.5633C20.8015 16.9151 20.7568 16.4039 20.779 15.8641L18.7807 15.782ZM18.8202 17.6178C18.8436 18.4929 18.8043 19.3236 18.7959 20.262L20.7958 20.2801C20.8033 19.4426 20.844 18.4812 20.8195 17.5643L18.8202 17.6178ZM18.7958 20.2711C18.7958 20.1481 18.8546 19.9886 18.9883 19.8734C19.1014 19.776 19.2191 19.7511 19.3008 19.7511C19.3824 19.7511 19.5031 19.776 19.6189 19.8769C19.7561 19.9964 19.8133 20.1604 19.8118 20.2836L17.8119 20.2586C17.8064 20.7017 17.9846 21.1057 18.3055 21.3852C18.6051 21.6461 18.9723 21.7511 19.3008 21.7511C19.6296 21.7511 19.9948 21.6461 20.2936 21.3887C20.6131 21.1135 20.7958 20.714 20.7958 20.2711H18.7958ZM19.8118 20.2815C19.8289 18.6518 19.7549 17.2433 19.8112 15.7077L17.8125 15.6344C17.7568 17.1548 17.8268 18.8343 17.8119 20.2606L19.8118 20.2815ZM19.8113 15.7048C19.8118 15.6905 19.8126 15.722 19.7852 15.7725C19.7575 15.8237 19.7222 15.8549 19.7037 15.8676C19.6895 15.8774 19.7502 15.836 19.9708 15.8142C20.1753 15.7941 20.4206 15.7991 20.6994 15.8145C20.9379 15.8277 21.2755 15.8551 21.5158 15.8551V13.8551C21.3482 13.8551 21.1488 13.8364 20.8101 13.8176C20.5116 13.801 20.1394 13.788 19.7749 13.8239C19.4264 13.8582 18.9667 13.9467 18.5692 14.2205C18.1115 14.5358 17.8329 15.0305 17.8124 15.6373L19.8113 15.7048Z" fill="#F19710" mask="url(#path-3-outside-2_464_54)"/>
<path d="M13.774 23.7338C15.3615 22.3692 15.044 23.3217 19.27 22.9352C25.3703 22.3772 24.3163 16.566 25.8196 18.4071C26.1761 19.3457 26.4733 23.9566 20.3834 24.761C15.3614 25.2265 12.7008 24.6564 13.774 23.7338Z" fill="#FFF9D7"/>
</g>
<defs>
<filter id="filter0_d_464_54" x="0.678711" y="0" width="33.9805" height="37.054" filterUnits="userSpaceOnUse" color-interpolation-filters="sRGB">
<feFlood flood-opacity="0" result="BackgroundImageFix"/>
<feColorMatrix in="SourceAlpha" type="matrix" values="0 0 0 0 0 0 0 0 0 0 0 0 0 0 0 0 0 0 127 0" result="hardAlpha"/>
<feOffset dy="4"/>
<feGaussianBlur stdDeviation="2"/>
<feComposite in2="hardAlpha" operator="out"/>
<feColorMatrix type="matrix" values="0 0 0 0 0 0 0 0 0 0 0 0 0 0 0 0 0 0 0.25 0"/>
<feBlend mode="normal" in2="BackgroundImageFix" result="effect1_dropShadow_464_54"/>
<feBlend mode="normal" in="SourceGraphic" in2="effect1_dropShadow_464_54" result="shape"/>
</filter>
</defs>
</svg>
