<svg width="68" height="86" viewBox="0 0 68 86" fill="none" xmlns="http://www.w3.org/2000/svg">
<rect x="0.5" y="0.5" width="61" height="79" rx="14.5" fill="#FFE4C4" stroke="#FF7F50"/>
<path d="M55.5029 76.9997L52.0034 78.4985L48.5034 78.9985L41.7778 78.9986L60.7757 58.0011L61.5005 58L61.0002 59.0001L61.0013 60.5011L61.0013 63.0011L61.0013 65.5011L61.0013 66.5011L61.0013 67.0011L61.0013 67.5011L61.0013 68.0011L60.5023 68.9997L60.0023 70.4997L59.5018 72.0011L59.0004 73.5003L55.5029 76.9997Z" fill="#FF9031"/>
<path d="M13.7286 58.5C14.5286 58.5 14.5286 59.73 13.7286 59.73C13.3386 59.73 12.9486 59.76 12.5586 59.78C12.5686 59.84 12.5686 59.9 12.5586 59.97C12.3486 61.56 10.7486 62.23 9.29863 62.06C7.85863 61.9 6.90863 60.57 6.70863 59.2C6.47863 57.69 6.97863 55.88 8.40863 55.13C9.72863 54.44 11.2186 54.83 12.3086 55.68C12.9386 56.17 12.0586 57.04 11.4386 56.55C10.7786 56.04 9.75863 55.83 8.98863 56.25C8.14863 56.7 7.88863 57.66 7.89863 58.56C7.89863 59.35 8.29863 60.43 9.06863 60.75C9.69863 61.01 11.2186 60.81 11.3286 59.97C11.3386 59.91 11.3586 59.85 11.3786 59.79C10.9086 59.77 10.4286 59.74 9.94863 59.73C9.14863 59.73 9.14863 58.5 9.94863 58.5C11.2186 58.5 12.4686 58.5 13.7286 58.5ZM18.2057 55.07C18.8057 54.56 19.6757 55.43 19.0757 55.95C18.5857 56.37 18.2357 56.95 17.8257 57.44C17.4657 57.86 17.1157 58.27 16.7557 58.69C16.7557 59.6 16.8157 60.5 16.7557 61.4C16.7057 62.19 15.4657 62.19 15.5257 61.4C15.5757 60.68 15.5457 59.96 15.5257 59.23C15.4557 59.19 15.3857 59.12 15.3257 59.03C14.6357 58 13.9457 56.98 13.2857 55.93C12.8657 55.25 13.9357 54.63 14.3557 55.31C14.8657 56.13 15.4057 56.94 15.9457 57.75C16.2857 57.35 16.6157 56.96 16.9557 56.56C17.3657 56.07 17.7157 55.49 18.2057 55.07ZM28.3474 58.99C28.3574 59.78 28.5374 60.87 28.2074 61.6C27.8774 62.32 26.8174 61.7 27.1374 60.98C27.2574 60.72 27.1074 59.77 27.1074 59.46C27.1074 58.84 27.1374 58.18 27.0074 57.58C26.8774 56.95 26.6674 56.48 25.9874 56.66C25.4174 56.81 24.9574 57.24 24.5174 57.62C24.4874 57.65 24.4574 57.67 24.4274 57.69C24.6574 58.84 24.5374 60.16 24.5374 61.23C24.5374 62.03 23.3074 62.03 23.3074 61.23C23.3074 60.33 23.3074 59.44 23.2474 58.54C23.2074 58.04 23.1674 57.03 22.5374 56.88C22.0874 56.78 21.5174 57.22 21.1374 57.46C21.0974 58.78 21.1074 60.1 21.1174 61.4C21.1174 62.2 19.8874 62.19 19.8774 61.4C19.8674 59.51 19.8574 57.56 19.9874 55.67C20.0474 54.88 21.2774 54.88 21.2174 55.67C21.2074 55.8 21.2074 55.92 21.1974 56.05C22.1974 55.6 23.3274 55.41 23.9874 56.47C25.0974 55.58 26.7874 54.62 27.7374 56.15C28.2874 57.02 28.3274 57.99 28.3474 58.99ZM37.9764 60.95C38.2964 61.67 37.2364 62.29 36.9164 61.57C36.5664 60.8 36.4164 59.89 36.1364 59.09C35.8664 58.27 35.6664 57.42 35.3864 56.6C34.9364 57.26 34.6764 58.23 34.4464 58.83C34.1064 59.68 33.8264 60.57 33.6064 61.46C33.4164 62.23 32.2364 61.9 32.4264 61.13C32.7264 59.9 33.1564 58.7 33.6464 57.54C34.0464 56.59 34.3764 55.53 35.3064 54.99C35.5664 54.83 36.0164 54.9 36.1564 55.21C36.5564 56.14 36.8064 57.15 37.1164 58.12C37.2964 58.69 37.5164 59.25 37.6964 59.83C37.7964 60.18 37.8264 60.61 37.9764 60.95ZM43.9343 61.02C44.3143 61.71 43.2543 62.33 42.8643 61.64C42.7343 61.4 42.6543 61.13 42.6143 60.86C41.9043 61.51 40.9643 61.9 40.0943 61.74C38.9643 61.52 38.7843 60.49 38.7143 59.51C38.6143 58.22 38.7143 56.91 38.7143 55.62C38.7143 54.82 39.9443 54.82 39.9443 55.62C39.9443 56.44 39.9443 57.25 39.9043 58.06C39.8843 58.6 39.8243 59.35 39.9743 59.87C40.4343 61.4 42.4643 59.7 42.5643 58.76C42.5743 58.7 42.5843 58.65 42.6043 58.61V55.65C42.6043 54.86 43.8343 54.86 43.8343 55.65V58.65C43.8343 59.3 43.6043 60.43 43.9343 61.02ZM48.1141 59.94C48.5641 59.29 49.6341 59.91 49.1741 60.56C48.3441 61.76 45.3841 63.12 45.0241 60.82C44.8641 59.78 45.2141 58.81 46.0541 58.16C46.4841 57.82 47.1741 57.56 47.4641 57.09C48.1341 56.02 46.3141 55.9 45.9741 56.76C45.6841 57.49 44.4941 57.17 44.7841 56.43C45.4641 54.7 48.6841 54.23 48.8441 56.53C48.9341 57.74 47.9241 58.34 47.0741 58.95C46.8741 59.09 46.6641 59.21 46.5141 59.41C46.3941 59.56 46.0441 60.47 46.2841 60.76C46.6941 61.25 47.9141 60.23 48.1141 59.94ZM56.0827 59.13C56.0827 59.86 56.0727 60.57 56.1427 61.29C56.2027 62.09 54.9727 62.08 54.9027 61.29C54.8827 61.06 54.8727 60.83 54.8627 60.6C54.7627 60.71 54.6627 60.81 54.5427 60.91C53.3827 61.88 51.2727 62.29 50.3327 60.81C49.3827 59.33 49.7527 57.15 51.0427 56.01C52.1027 55.08 53.8727 55.05 54.7827 56.17C54.8027 56.18 54.8327 56.2 54.8527 56.23C54.8727 56.02 54.8927 55.82 54.9227 55.61C55.0627 54.83 56.2527 55.17 56.1127 55.94C55.9427 56.96 56.0827 58.1 56.0827 59.13ZM51.1827 59.8C51.9627 61.95 55.9727 59.04 54.0127 57.12C53.9627 57.08 53.9327 57.03 53.9027 56.98C53.8527 56.94 53.8027 56.9 53.7527 56.84C53.2627 56.19 52.0927 56.66 51.6727 57.11C51.0427 57.79 50.8727 58.94 51.1827 59.8Z" fill="#FF7F50"/>
<path d="M39.4556 20.904C41.4716 23.316 41.8676 27.6 39.2036 29.724C37.4396 31.128 34.8476 31.308 32.4716 31.164C32.4716 31.632 32.5076 32.136 32.5076 32.604C32.5076 33.864 31.4996 34.8 30.2756 34.836C29.0876 34.908 28.0796 33.792 28.0796 32.604C28.0796 31.668 27.9716 30.696 27.9716 29.724C27.4676 28.356 28.6196 26.268 30.6356 26.556C32.1116 26.772 33.7316 26.844 35.2076 26.592C37.2236 26.232 36.7556 24.36 35.4956 23.136C34.1996 21.912 32.0396 21.732 30.3476 21.768C27.8636 21.804 26.5676 22.416 25.9916 24.9C25.3436 27.708 21.0596 26.52 21.7076 23.748C22.6796 19.644 25.3076 17.592 29.4836 17.34C33.1196 17.088 37.0436 17.988 39.4556 20.904ZM30.6716 36.492C31.3556 36.384 32.1116 36.636 32.6516 37.104C33.8036 38.148 33.6596 39.876 32.8676 41.064C32.0756 42.252 30.5996 42.864 29.1956 42.54C27.8636 42.216 26.9996 40.776 27.0356 39.444C27.0716 38.544 27.5036 37.824 28.1876 37.284C28.4756 37.068 28.6556 36.96 28.9436 36.816C29.1236 36.744 29.2316 36.708 29.4116 36.672C29.8076 36.456 30.2396 36.42 30.6716 36.492Z" fill="#FF7F50"/>
<line x1="40.6308" y1="79.6629" x2="61.6308" y2="56.6629" stroke="#FF7F50"/>
<rect x="0.5" y="0.5" width="61" height="79" rx="14.5" stroke="#FF7F50"/>
</svg>
