<svg width="40" height="44" viewBox="0 0 40 44" fill="none" xmlns="http://www.w3.org/2000/svg">
<path d="M11.2894 12.4398C11.7377 11.2866 12.8481 10.5269 14.0855 10.5269H26.0336C27.2709 10.5269 28.3813 11.2866 28.8297 12.4398L36.5301 32.2463C37.2946 34.2128 35.8439 36.3333 33.734 36.3333H6.3851C4.27513 36.3333 2.82441 34.2128 3.58898 32.2463L11.2894 12.4398Z" fill="#A1DCFF"/>
<path d="M26.0794 9.45161C26.0794 13.0147 23.3842 15.9032 20.0595 15.9032C16.7349 15.9032 14.0397 13.0147 14.0397 9.45161C14.0397 5.88849 16.7349 3 20.0595 3C23.3842 3 26.0794 5.88849 26.0794 9.45161ZM16.6116 9.45161C16.6116 11.4924 18.1553 13.1469 20.0595 13.1469C21.9638 13.1469 23.5075 11.4924 23.5075 9.45161C23.5075 7.41079 21.9638 5.75637 20.0595 5.75637C18.1553 5.75637 16.6116 7.41079 16.6116 9.45161Z" fill="#A1DCFF"/>
<path d="M6.60064 24.5L13 36.3333H6.31893C5.47956 36.3333 4.6798 35.9763 4.11935 35.3515C3.37579 34.5225 3.16149 33.3458 3.56502 32.3079L6.60064 24.5Z" fill="#51BEFE"/>
<path d="M33.9072 25.5L36.5426 32.2784C36.9705 33.3791 36.7072 34.6287 35.8715 35.4631C35.3134 36.0204 34.557 36.3333 33.7684 36.3333H29.8177L33.9072 25.5Z" fill="#51BEFE"/>
<path d="M26 10.5L26.0879 10.5024C26.6825 10.5183 27.259 10.7107 27.744 11.0551L27.7665 11.0711C28.245 11.4108 28.6133 11.8833 28.826 12.4302L32.222 21.1652L26 10.5Z" fill="#51BEFE"/>
<path d="M32.222 21.1652L33.9072 25.5L32.5 29.2279L28.7584 15.2283L32.222 21.1652Z" fill="#00A0FF"/>
<path d="M30.9474 33.3406L29.8177 36.3333H13L9.57499 30L30.9474 33.3406Z" fill="#00A0FF"/>
<path d="M35.5136 25.4921L37.9281 31.7027L37.9406 31.7348C38.5842 33.3903 38.1882 35.2696 36.9314 36.5246C36.0921 37.3626 34.9545 37.8333 33.7684 37.8333H33.734H30.8548H29.8177H27.6482H15.5165H13H12.1059H6.3851H6.31893C5.05344 37.8333 3.84767 37.2951 3.0027 36.353C1.88167 35.1032 1.55857 33.3292 2.16696 31.7644L2.18738 31.7119C2.18856 31.7088 2.18974 31.7058 2.19092 31.7027L9.8913 11.8963C10.3692 10.6671 11.3484 9.73605 12.541 9.3C12.617 5.07379 15.8604 1.5 20.0595 1.5C24.2534 1.5 27.494 5.06488 27.5777 9.28419C27.943 9.42022 28.291 9.60385 28.6123 9.83193C28.6123 9.83194 28.6123 9.83195 28.6123 9.83196L28.6348 9.84793L28.6349 9.84796C29.3526 10.3575 29.9051 11.0663 30.224 11.8867L30.2277 11.8963L35.5136 25.4921ZM35.5136 25.4921L35.3053 24.9565L33.8866 21.3074M35.5136 25.4921L33.8866 21.3074M33.8866 21.3074L33.62 20.6217L33.5772 20.5115L33.8866 21.3074ZM21.9723 9.02688H18.1468C18.329 7.95259 19.1898 7.25637 20.0595 7.25637C20.9293 7.25637 21.7901 7.95259 21.9723 9.02688Z" stroke="#38487C" stroke-width="3"/>
<mask id="path-3-outside-1_449_387" maskUnits="userSpaceOnUse" x="14.9766" y="16.4761" width="11" height="14" fill="black">
<rect fill="white" x="14.9766" y="16.4761" width="11" height="14"/>
<path d="M23.686 17.9761C23.986 17.9761 24.211 18.0711 24.361 18.2611C24.511 18.4511 24.586 18.6661 24.586 18.9061C24.586 19.1361 24.511 19.3461 24.361 19.5361C24.211 19.7261 23.986 19.8211 23.686 19.8211C23.246 19.8211 22.811 19.8211 22.381 19.8211C21.951 19.8211 21.511 19.8261 21.061 19.8361C20.981 20.5061 20.966 21.1911 21.016 21.8911C21.076 22.5811 21.111 23.2611 21.121 23.9311V27.5911C21.121 27.8911 21.021 28.1161 20.821 28.2661C20.631 28.4161 20.421 28.4911 20.191 28.4911C19.961 28.4911 19.746 28.4161 19.546 28.2661C19.356 28.1161 19.261 27.8911 19.261 27.5911C19.261 26.9611 19.246 26.3261 19.216 25.6861C19.186 25.0361 19.161 24.3861 19.141 23.7361C19.121 23.0761 19.111 22.4261 19.111 21.7861C19.121 21.1361 19.156 20.4961 19.216 19.8661C18.856 19.8761 18.496 19.8861 18.136 19.8961C17.776 19.8961 17.416 19.9061 17.056 19.9261C16.756 19.9361 16.531 19.8511 16.381 19.6711C16.241 19.4811 16.171 19.2711 16.171 19.0411C16.171 18.8111 16.241 18.5961 16.381 18.3961C16.531 18.1961 16.756 18.0911 17.056 18.0811C18.176 18.0311 19.281 18.0011 20.371 17.9911C21.461 17.9811 22.566 17.9761 23.686 17.9761Z"/>
</mask>
<path d="M23.686 17.9761C23.986 17.9761 24.211 18.0711 24.361 18.2611C24.511 18.4511 24.586 18.6661 24.586 18.9061C24.586 19.1361 24.511 19.3461 24.361 19.5361C24.211 19.7261 23.986 19.8211 23.686 19.8211C23.246 19.8211 22.811 19.8211 22.381 19.8211C21.951 19.8211 21.511 19.8261 21.061 19.8361C20.981 20.5061 20.966 21.1911 21.016 21.8911C21.076 22.5811 21.111 23.2611 21.121 23.9311V27.5911C21.121 27.8911 21.021 28.1161 20.821 28.2661C20.631 28.4161 20.421 28.4911 20.191 28.4911C19.961 28.4911 19.746 28.4161 19.546 28.2661C19.356 28.1161 19.261 27.8911 19.261 27.5911C19.261 26.9611 19.246 26.3261 19.216 25.6861C19.186 25.0361 19.161 24.3861 19.141 23.7361C19.121 23.0761 19.111 22.4261 19.111 21.7861C19.121 21.1361 19.156 20.4961 19.216 19.8661C18.856 19.8761 18.496 19.8861 18.136 19.8961C17.776 19.8961 17.416 19.9061 17.056 19.9261C16.756 19.9361 16.531 19.8511 16.381 19.6711C16.241 19.4811 16.171 19.2711 16.171 19.0411C16.171 18.8111 16.241 18.5961 16.381 18.3961C16.531 18.1961 16.756 18.0911 17.056 18.0811C18.176 18.0311 19.281 18.0011 20.371 17.9911C21.461 17.9811 22.566 17.9761 23.686 17.9761Z" fill="#74A1E4"/>
<path d="M21.061 19.8361L21.0387 18.8363L20.1709 18.8556L20.068 19.7175L21.061 19.8361ZM21.016 21.8911L20.0185 21.9623L20.019 21.97L20.0197 21.9777L21.016 21.8911ZM21.121 23.9311H22.121V23.9236L22.1208 23.9162L21.121 23.9311ZM20.821 28.2661L20.221 27.4661L20.211 27.4735L20.2013 27.4812L20.821 28.2661ZM19.546 28.2661L18.9263 29.051L18.936 29.0586L18.946 29.0661L19.546 28.2661ZM19.216 25.6861L18.217 25.7322L18.2171 25.7329L19.216 25.6861ZM19.141 23.7361L18.1414 23.7664L18.1414 23.7668L19.141 23.7361ZM19.111 21.7861L18.1111 21.7707L18.111 21.7784V21.7861H19.111ZM19.216 19.8661L20.2114 19.9609L20.3187 18.8351L19.1882 18.8665L19.216 19.8661ZM18.136 19.8961V20.8961H18.1498L18.1637 20.8957L18.136 19.8961ZM17.056 19.9261L17.0893 20.9255L17.1004 20.9251L17.1114 20.9245L17.056 19.9261ZM16.381 19.6711L15.5759 20.2643L15.5936 20.2883L15.6127 20.3113L16.381 19.6711ZM16.381 18.3961L15.581 17.7961L15.5711 17.8092L15.5617 17.8226L16.381 18.3961ZM17.056 18.0811L17.0893 19.0806L17.1006 19.0801L17.056 18.0811ZM20.371 17.9911L20.3618 16.9911H20.3618L20.371 17.9911ZM23.686 18.9761C23.732 18.9761 23.726 18.9835 23.6907 18.9686C23.6729 18.961 23.6514 18.9493 23.6293 18.9325C23.6072 18.9157 23.5894 18.8975 23.5761 18.8807L25.1458 17.6414C24.7613 17.1543 24.2113 16.9761 23.686 16.9761V18.9761ZM23.5761 18.8807C23.5817 18.8879 23.5844 18.8923 23.5852 18.8939C23.5861 18.8954 23.5859 18.8954 23.5855 18.8942C23.5851 18.893 23.5851 18.8925 23.5852 18.8934C23.5854 18.8944 23.586 18.8983 23.586 18.9061H25.586C25.586 18.4391 25.4339 18.0063 25.1458 17.6414L23.5761 18.8807ZM23.586 18.9061C23.586 18.909 23.5857 18.909 23.5861 18.9068C23.5865 18.9046 23.5872 18.902 23.588 18.8997C23.5888 18.8975 23.589 18.8974 23.5878 18.8996C23.5865 18.9018 23.5831 18.9075 23.5761 18.9164L25.1458 20.1557C25.4273 19.7992 25.586 19.3733 25.586 18.9061H23.586ZM23.5761 18.9164C23.5894 18.8996 23.6072 18.8814 23.6293 18.8646C23.6514 18.8478 23.6729 18.8361 23.6907 18.8286C23.726 18.8137 23.732 18.8211 23.686 18.8211V20.8211C24.2113 20.8211 24.7613 20.6429 25.1458 20.1557L23.5761 18.9164ZM23.686 18.8211C23.6851 18.8211 23.6842 18.8211 23.6834 18.8211C23.6825 18.8211 23.6817 18.8211 23.6808 18.8211C23.6799 18.8211 23.6791 18.8211 23.6782 18.8211C23.6774 18.8211 23.6765 18.8211 23.6756 18.8211C23.6748 18.8211 23.6739 18.8211 23.6731 18.8211C23.6722 18.8211 23.6713 18.8211 23.6705 18.8211C23.6696 18.8211 23.6688 18.8211 23.6679 18.8211C23.6671 18.8211 23.6662 18.8211 23.6653 18.8211C23.6645 18.8211 23.6636 18.8211 23.6628 18.8211C23.6619 18.8211 23.661 18.8211 23.6602 18.8211C23.6593 18.8211 23.6585 18.8211 23.6576 18.8211C23.6567 18.8211 23.6559 18.8211 23.655 18.8211C23.6542 18.8211 23.6533 18.8211 23.6524 18.8211C23.6516 18.8211 23.6507 18.8211 23.6499 18.8211C23.649 18.8211 23.6482 18.8211 23.6473 18.8211C23.6464 18.8211 23.6456 18.8211 23.6447 18.8211C23.6439 18.8211 23.643 18.8211 23.6421 18.8211C23.6413 18.8211 23.6404 18.8211 23.6396 18.8211C23.6387 18.8211 23.6378 18.8211 23.637 18.8211C23.6361 18.8211 23.6353 18.8211 23.6344 18.8211C23.6336 18.8211 23.6327 18.8211 23.6318 18.8211C23.631 18.8211 23.6301 18.8211 23.6293 18.8211C23.6284 18.8211 23.6275 18.8211 23.6267 18.8211C23.6258 18.8211 23.625 18.8211 23.6241 18.8211C23.6233 18.8211 23.6224 18.8211 23.6215 18.8211C23.6207 18.8211 23.6198 18.8211 23.619 18.8211C23.6181 18.8211 23.6172 18.8211 23.6164 18.8211C23.6155 18.8211 23.6147 18.8211 23.6138 18.8211C23.613 18.8211 23.6121 18.8211 23.6112 18.8211C23.6104 18.8211 23.6095 18.8211 23.6087 18.8211C23.6078 18.8211 23.6069 18.8211 23.6061 18.8211C23.6052 18.8211 23.6044 18.8211 23.6035 18.8211C23.6027 18.8211 23.6018 18.8211 23.6009 18.8211C23.6001 18.8211 23.5992 18.8211 23.5984 18.8211C23.5975 18.8211 23.5966 18.8211 23.5958 18.8211C23.5949 18.8211 23.5941 18.8211 23.5932 18.8211C23.5924 18.8211 23.5915 18.8211 23.5906 18.8211C23.5898 18.8211 23.5889 18.8211 23.5881 18.8211C23.5872 18.8211 23.5864 18.8211 23.5855 18.8211C23.5846 18.8211 23.5838 18.8211 23.5829 18.8211C23.5821 18.8211 23.5812 18.8211 23.5803 18.8211C23.5795 18.8211 23.5786 18.8211 23.5778 18.8211C23.5769 18.8211 23.5761 18.8211 23.5752 18.8211C23.5743 18.8211 23.5735 18.8211 23.5726 18.8211C23.5718 18.8211 23.5709 18.8211 23.5701 18.8211C23.5692 18.8211 23.5683 18.8211 23.5675 18.8211C23.5666 18.8211 23.5658 18.8211 23.5649 18.8211C23.5641 18.8211 23.5632 18.8211 23.5623 18.8211C23.5615 18.8211 23.5606 18.8211 23.5598 18.8211C23.5589 18.8211 23.558 18.8211 23.5572 18.8211C23.5563 18.8211 23.5555 18.8211 23.5546 18.8211C23.5538 18.8211 23.5529 18.8211 23.552 18.8211C23.5512 18.8211 23.5503 18.8211 23.5495 18.8211C23.5486 18.8211 23.5478 18.8211 23.5469 18.8211C23.546 18.8211 23.5452 18.8211 23.5443 18.8211C23.5435 18.8211 23.5426 18.8211 23.5418 18.8211C23.5409 18.8211 23.54 18.8211 23.5392 18.8211C23.5383 18.8211 23.5375 18.8211 23.5366 18.8211C23.5358 18.8211 23.5349 18.8211 23.534 18.8211C23.5332 18.8211 23.5323 18.8211 23.5315 18.8211C23.5306 18.8211 23.5298 18.8211 23.5289 18.8211C23.528 18.8211 23.5272 18.8211 23.5263 18.8211C23.5255 18.8211 23.5246 18.8211 23.5238 18.8211C23.5229 18.8211 23.522 18.8211 23.5212 18.8211C23.5203 18.8211 23.5195 18.8211 23.5186 18.8211C23.5178 18.8211 23.5169 18.8211 23.516 18.8211C23.5152 18.8211 23.5143 18.8211 23.5135 18.8211C23.5126 18.8211 23.5118 18.8211 23.5109 18.8211C23.51 18.8211 23.5092 18.8211 23.5083 18.8211C23.5075 18.8211 23.5066 18.8211 23.5058 18.8211C23.5049 18.8211 23.5041 18.8211 23.5032 18.8211C23.5023 18.8211 23.5015 18.8211 23.5006 18.8211C23.4998 18.8211 23.4989 18.8211 23.4981 18.8211C23.4972 18.8211 23.4963 18.8211 23.4955 18.8211C23.4946 18.8211 23.4938 18.8211 23.4929 18.8211C23.4921 18.8211 23.4912 18.8211 23.4903 18.8211C23.4895 18.8211 23.4886 18.8211 23.4878 18.8211C23.4869 18.8211 23.4861 18.8211 23.4852 18.8211C23.4844 18.8211 23.4835 18.8211 23.4826 18.8211C23.4818 18.8211 23.4809 18.8211 23.4801 18.8211C23.4792 18.8211 23.4784 18.8211 23.4775 18.8211C23.4766 18.8211 23.4758 18.8211 23.4749 18.8211C23.4741 18.8211 23.4732 18.8211 23.4724 18.8211C23.4715 18.8211 23.4707 18.8211 23.4698 18.8211C23.4689 18.8211 23.4681 18.8211 23.4672 18.8211C23.4664 18.8211 23.4655 18.8211 23.4647 18.8211C23.4638 18.8211 23.4629 18.8211 23.4621 18.8211C23.4612 18.8211 23.4604 18.8211 23.4595 18.8211C23.4587 18.8211 23.4578 18.8211 23.457 18.8211C23.4561 18.8211 23.4552 18.8211 23.4544 18.8211C23.4535 18.8211 23.4527 18.8211 23.4518 18.8211C23.451 18.8211 23.4501 18.8211 23.4493 18.8211C23.4484 18.8211 23.4475 18.8211 23.4467 18.8211C23.4458 18.8211 23.445 18.8211 23.4441 18.8211C23.4433 18.8211 23.4424 18.8211 23.4415 18.8211C23.4407 18.8211 23.4398 18.8211 23.439 18.8211C23.4381 18.8211 23.4373 18.8211 23.4364 18.8211C23.4356 18.8211 23.4347 18.8211 23.4338 18.8211C23.433 18.8211 23.4321 18.8211 23.4313 18.8211C23.4304 18.8211 23.4296 18.8211 23.4287 18.8211C23.4279 18.8211 23.427 18.8211 23.4261 18.8211C23.4253 18.8211 23.4244 18.8211 23.4236 18.8211C23.4227 18.8211 23.4219 18.8211 23.421 18.8211C23.4202 18.8211 23.4193 18.8211 23.4184 18.8211C23.4176 18.8211 23.4167 18.8211 23.4159 18.8211C23.415 18.8211 23.4142 18.8211 23.4133 18.8211C23.4125 18.8211 23.4116 18.8211 23.4107 18.8211C23.4099 18.8211 23.409 18.8211 23.4082 18.8211C23.4073 18.8211 23.4065 18.8211 23.4056 18.8211C23.4048 18.8211 23.4039 18.8211 23.4031 18.8211C23.4022 18.8211 23.4013 18.8211 23.4005 18.8211C23.3996 18.8211 23.3988 18.8211 23.3979 18.8211C23.3971 18.8211 23.3962 18.8211 23.3954 18.8211C23.3945 18.8211 23.3936 18.8211 23.3928 18.8211C23.3919 18.8211 23.3911 18.8211 23.3902 18.8211C23.3894 18.8211 23.3885 18.8211 23.3877 18.8211C23.3868 18.8211 23.386 18.8211 23.3851 18.8211C23.3842 18.8211 23.3834 18.8211 23.3825 18.8211C23.3817 18.8211 23.3808 18.8211 23.38 18.8211C23.3791 18.8211 23.3783 18.8211 23.3774 18.8211C23.3765 18.8211 23.3757 18.8211 23.3748 18.8211C23.374 18.8211 23.3731 18.8211 23.3723 18.8211C23.3714 18.8211 23.3706 18.8211 23.3697 18.8211C23.3689 18.8211 23.368 18.8211 23.3671 18.8211C23.3663 18.8211 23.3654 18.8211 23.3646 18.8211C23.3637 18.8211 23.3629 18.8211 23.362 18.8211C23.3612 18.8211 23.3603 18.8211 23.3595 18.8211C23.3586 18.8211 23.3577 18.8211 23.3569 18.8211C23.356 18.8211 23.3552 18.8211 23.3543 18.8211C23.3535 18.8211 23.3526 18.8211 23.3518 18.8211C23.3509 18.8211 23.3501 18.8211 23.3492 18.8211C23.3483 18.8211 23.3475 18.8211 23.3466 18.8211C23.3458 18.8211 23.3449 18.8211 23.3441 18.8211C23.3432 18.8211 23.3424 18.8211 23.3415 18.8211C23.3407 18.8211 23.3398 18.8211 23.3389 18.8211C23.3381 18.8211 23.3372 18.8211 23.3364 18.8211C23.3355 18.8211 23.3347 18.8211 23.3338 18.8211C23.333 18.8211 23.3321 18.8211 23.3313 18.8211C23.3304 18.8211 23.3296 18.8211 23.3287 18.8211C23.3278 18.8211 23.327 18.8211 23.3261 18.8211C23.3253 18.8211 23.3244 18.8211 23.3236 18.8211C23.3227 18.8211 23.3219 18.8211 23.321 18.8211C23.3202 18.8211 23.3193 18.8211 23.3185 18.8211C23.3176 18.8211 23.3167 18.8211 23.3159 18.8211C23.315 18.8211 23.3142 18.8211 23.3133 18.8211C23.3125 18.8211 23.3116 18.8211 23.3108 18.8211C23.3099 18.8211 23.3091 18.8211 23.3082 18.8211C23.3074 18.8211 23.3065 18.8211 23.3056 18.8211C23.3048 18.8211 23.3039 18.8211 23.3031 18.8211C23.3022 18.8211 23.3014 18.8211 23.3005 18.8211C23.2997 18.8211 23.2988 18.8211 23.298 18.8211C23.2971 18.8211 23.2963 18.8211 23.2954 18.8211C23.2945 18.8211 23.2937 18.8211 23.2928 18.8211C23.292 18.8211 23.2911 18.8211 23.2903 18.8211C23.2894 18.8211 23.2886 18.8211 23.2877 18.8211C23.2869 18.8211 23.286 18.8211 23.2852 18.8211C23.2843 18.8211 23.2835 18.8211 23.2826 18.8211C23.2817 18.8211 23.2809 18.8211 23.28 18.8211C23.2792 18.8211 23.2783 18.8211 23.2775 18.8211C23.2766 18.8211 23.2758 18.8211 23.2749 18.8211C23.2741 18.8211 23.2732 18.8211 23.2724 18.8211C23.2715 18.8211 23.2707 18.8211 23.2698 18.8211C23.2689 18.8211 23.2681 18.8211 23.2672 18.8211C23.2664 18.8211 23.2655 18.8211 23.2647 18.8211C23.2638 18.8211 23.263 18.8211 23.2621 18.8211C23.2613 18.8211 23.2604 18.8211 23.2596 18.8211C23.2587 18.8211 23.2579 18.8211 23.257 18.8211C23.2561 18.8211 23.2553 18.8211 23.2544 18.8211C23.2536 18.8211 23.2527 18.8211 23.2519 18.8211C23.251 18.8211 23.2502 18.8211 23.2493 18.8211C23.2485 18.8211 23.2476 18.8211 23.2468 18.8211C23.2459 18.8211 23.2451 18.8211 23.2442 18.8211C23.2434 18.8211 23.2425 18.8211 23.2417 18.8211C23.2408 18.8211 23.2399 18.8211 23.2391 18.8211C23.2382 18.8211 23.2374 18.8211 23.2365 18.8211C23.2357 18.8211 23.2348 18.8211 23.234 18.8211C23.2331 18.8211 23.2323 18.8211 23.2314 18.8211C23.2306 18.8211 23.2297 18.8211 23.2289 18.8211C23.228 18.8211 23.2272 18.8211 23.2263 18.8211C23.2255 18.8211 23.2246 18.8211 23.2237 18.8211C23.2229 18.8211 23.222 18.8211 23.2212 18.8211C23.2203 18.8211 23.2195 18.8211 23.2186 18.8211C23.2178 18.8211 23.2169 18.8211 23.2161 18.8211C23.2152 18.8211 23.2144 18.8211 23.2135 18.8211C23.2127 18.8211 23.2118 18.8211 23.211 18.8211C23.2101 18.8211 23.2093 18.8211 23.2084 18.8211C23.2075 18.8211 23.2067 18.8211 23.2058 18.8211C23.205 18.8211 23.2041 18.8211 23.2033 18.8211C23.2024 18.8211 23.2016 18.8211 23.2007 18.8211C23.1999 18.8211 23.199 18.8211 23.1982 18.8211C23.1973 18.8211 23.1965 18.8211 23.1956 18.8211C23.1948 18.8211 23.1939 18.8211 23.1931 18.8211C23.1922 18.8211 23.1914 18.8211 23.1905 18.8211C23.1897 18.8211 23.1888 18.8211 23.188 18.8211C23.1871 18.8211 23.1862 18.8211 23.1854 18.8211C23.1845 18.8211 23.1837 18.8211 23.1828 18.8211C23.182 18.8211 23.1811 18.8211 23.1803 18.8211C23.1794 18.8211 23.1786 18.8211 23.1777 18.8211C23.1769 18.8211 23.176 18.8211 23.1752 18.8211C23.1743 18.8211 23.1735 18.8211 23.1726 18.8211C23.1718 18.8211 23.1709 18.8211 23.1701 18.8211C23.1692 18.8211 23.1684 18.8211 23.1675 18.8211C23.1667 18.8211 23.1658 18.8211 23.165 18.8211C23.1641 18.8211 23.1632 18.8211 23.1624 18.8211C23.1615 18.8211 23.1607 18.8211 23.1598 18.8211C23.159 18.8211 23.1581 18.8211 23.1573 18.8211C23.1564 18.8211 23.1556 18.8211 23.1547 18.8211C23.1539 18.8211 23.153 18.8211 23.1522 18.8211C23.1513 18.8211 23.1505 18.8211 23.1496 18.8211C23.1488 18.8211 23.1479 18.8211 23.1471 18.8211C23.1462 18.8211 23.1454 18.8211 23.1445 18.8211C23.1437 18.8211 23.1428 18.8211 23.142 18.8211C23.1411 18.8211 23.1403 18.8211 23.1394 18.8211C23.1386 18.8211 23.1377 18.8211 23.1369 18.8211C23.136 18.8211 23.1352 18.8211 23.1343 18.8211C23.1335 18.8211 23.1326 18.8211 23.1317 18.8211C23.1309 18.8211 23.13 18.8211 23.1292 18.8211C23.1283 18.8211 23.1275 18.8211 23.1266 18.8211C23.1258 18.8211 23.1249 18.8211 23.1241 18.8211C23.1232 18.8211 23.1224 18.8211 23.1215 18.8211C23.1207 18.8211 23.1198 18.8211 23.119 18.8211C23.1181 18.8211 23.1173 18.8211 23.1164 18.8211C23.1156 18.8211 23.1147 18.8211 23.1139 18.8211C23.113 18.8211 23.1122 18.8211 23.1113 18.8211C23.1105 18.8211 23.1096 18.8211 23.1088 18.8211C23.1079 18.8211 23.1071 18.8211 23.1062 18.8211C23.1054 18.8211 23.1045 18.8211 23.1037 18.8211C23.1028 18.8211 23.102 18.8211 23.1011 18.8211C23.1003 18.8211 23.0994 18.8211 23.0986 18.8211C23.0977 18.8211 23.0969 18.8211 23.096 18.8211C23.0952 18.8211 23.0943 18.8211 23.0935 18.8211C23.0926 18.8211 23.0918 18.8211 23.0909 18.8211C23.0901 18.8211 23.0892 18.8211 23.0884 18.8211C23.0875 18.8211 23.0867 18.8211 23.0858 18.8211C23.085 18.8211 23.0841 18.8211 23.0833 18.8211C23.0824 18.8211 23.0816 18.8211 23.0807 18.8211C23.0799 18.8211 23.079 18.8211 23.0782 18.8211C23.0773 18.8211 23.0765 18.8211 23.0756 18.8211C23.0748 18.8211 23.0739 18.8211 23.0731 18.8211C23.0722 18.8211 23.0713 18.8211 23.0705 18.8211C23.0696 18.8211 23.0688 18.8211 23.0679 18.8211C23.0671 18.8211 23.0662 18.8211 23.0654 18.8211C23.0645 18.8211 23.0637 18.8211 23.0628 18.8211C23.062 18.8211 23.0611 18.8211 23.0603 18.8211C23.0594 18.8211 23.0586 18.8211 23.0577 18.8211C23.0569 18.8211 23.056 18.8211 23.0552 18.8211C23.0543 18.8211 23.0535 18.8211 23.0526 18.8211C23.0518 18.8211 23.0509 18.8211 23.0501 18.8211C23.0492 18.8211 23.0484 18.8211 23.0475 18.8211C23.0467 18.8211 23.0458 18.8211 23.045 18.8211C23.0441 18.8211 23.0433 18.8211 23.0424 18.8211C23.0416 18.8211 23.0407 18.8211 23.0399 18.8211C23.039 18.8211 23.0382 18.8211 23.0374 18.8211C23.0365 18.8211 23.0357 18.8211 23.0348 18.8211C23.034 18.8211 23.0331 18.8211 23.0323 18.8211C23.0314 18.8211 23.0306 18.8211 23.0297 18.8211C23.0289 18.8211 23.028 18.8211 23.0272 18.8211C23.0263 18.8211 23.0255 18.8211 23.0246 18.8211C23.0238 18.8211 23.0229 18.8211 23.0221 18.8211C23.0212 18.8211 23.0204 18.8211 23.0195 18.8211C23.0187 18.8211 23.0178 18.8211 23.017 18.8211C23.0161 18.8211 23.0153 18.8211 23.0144 18.8211C23.0136 18.8211 23.0127 18.8211 23.0119 18.8211C23.011 18.8211 23.0102 18.8211 23.0093 18.8211C23.0085 18.8211 23.0076 18.8211 23.0068 18.8211C23.0059 18.8211 23.0051 18.8211 23.0042 18.8211C23.0034 18.8211 23.0025 18.8211 23.0017 18.8211C23.0008 18.8211 23 18.8211 22.9991 18.8211C22.9983 18.8211 22.9974 18.8211 22.9966 18.8211C22.9957 18.8211 22.9949 18.8211 22.994 18.8211C22.9932 18.8211 22.9923 18.8211 22.9915 18.8211C22.9906 18.8211 22.9898 18.8211 22.9889 18.8211C22.9881 18.8211 22.9872 18.8211 22.9864 18.8211C22.9855 18.8211 22.9847 18.8211 22.9838 18.8211C22.983 18.8211 22.9821 18.8211 22.9813 18.8211C22.9804 18.8211 22.9796 18.8211 22.9787 18.8211C22.9779 18.8211 22.9771 18.8211 22.9762 18.8211C22.9754 18.8211 22.9745 18.8211 22.9737 18.8211C22.9728 18.8211 22.972 18.8211 22.9711 18.8211C22.9703 18.8211 22.9694 18.8211 22.9686 18.8211C22.9677 18.8211 22.9669 18.8211 22.966 18.8211C22.9652 18.8211 22.9643 18.8211 22.9635 18.8211C22.9626 18.8211 22.9618 18.8211 22.9609 18.8211C22.9601 18.8211 22.9592 18.8211 22.9584 18.8211C22.9575 18.8211 22.9567 18.8211 22.9558 18.8211C22.955 18.8211 22.9541 18.8211 22.9533 18.8211C22.9524 18.8211 22.9516 18.8211 22.9507 18.8211C22.9499 18.8211 22.949 18.8211 22.9482 18.8211C22.9474 18.8211 22.9465 18.8211 22.9457 18.8211C22.9448 18.8211 22.944 18.8211 22.9431 18.8211C22.9423 18.8211 22.9414 18.8211 22.9406 18.8211C22.9397 18.8211 22.9389 18.8211 22.938 18.8211C22.9372 18.8211 22.9363 18.8211 22.9355 18.8211C22.9346 18.8211 22.9338 18.8211 22.9329 18.8211C22.9321 18.8211 22.9312 18.8211 22.9304 18.8211C22.9295 18.8211 22.9287 18.8211 22.9278 18.8211C22.927 18.8211 22.9261 18.8211 22.9253 18.8211C22.9244 18.8211 22.9236 18.8211 22.9228 18.8211C22.9219 18.8211 22.9211 18.8211 22.9202 18.8211C22.9194 18.8211 22.9185 18.8211 22.9177 18.8211C22.9168 18.8211 22.916 18.8211 22.9151 18.8211C22.9143 18.8211 22.9134 18.8211 22.9126 18.8211C22.9117 18.8211 22.9109 18.8211 22.91 18.8211C22.9092 18.8211 22.9083 18.8211 22.9075 18.8211C22.9066 18.8211 22.9058 18.8211 22.9049 18.8211C22.9041 18.8211 22.9033 18.8211 22.9024 18.8211C22.9016 18.8211 22.9007 18.8211 22.8999 18.8211C22.899 18.8211 22.8982 18.8211 22.8973 18.8211C22.8965 18.8211 22.8956 18.8211 22.8948 18.8211C22.8939 18.8211 22.8931 18.8211 22.8922 18.8211C22.8914 18.8211 22.8905 18.8211 22.8897 18.8211C22.8888 18.8211 22.888 18.8211 22.8871 18.8211C22.8863 18.8211 22.8855 18.8211 22.8846 18.8211C22.8838 18.8211 22.8829 18.8211 22.8821 18.8211C22.8812 18.8211 22.8804 18.8211 22.8795 18.8211C22.8787 18.8211 22.8778 18.8211 22.877 18.8211C22.8761 18.8211 22.8753 18.8211 22.8744 18.8211C22.8736 18.8211 22.8727 18.8211 22.8719 18.8211C22.871 18.8211 22.8702 18.8211 22.8694 18.8211C22.8685 18.8211 22.8677 18.8211 22.8668 18.8211C22.866 18.8211 22.8651 18.8211 22.8643 18.8211C22.8634 18.8211 22.8626 18.8211 22.8617 18.8211C22.8609 18.8211 22.86 18.8211 22.8592 18.8211C22.8583 18.8211 22.8575 18.8211 22.8566 18.8211C22.8558 18.8211 22.855 18.8211 22.8541 18.8211C22.8533 18.8211 22.8524 18.8211 22.8516 18.8211C22.8507 18.8211 22.8499 18.8211 22.849 18.8211C22.8482 18.8211 22.8473 18.8211 22.8465 18.8211C22.8456 18.8211 22.8448 18.8211 22.8439 18.8211C22.8431 18.8211 22.8423 18.8211 22.8414 18.8211C22.8406 18.8211 22.8397 18.8211 22.8389 18.8211C22.838 18.8211 22.8372 18.8211 22.8363 18.8211C22.8355 18.8211 22.8346 18.8211 22.8338 18.8211C22.8329 18.8211 22.8321 18.8211 22.8312 18.8211C22.8304 18.8211 22.8295 18.8211 22.8287 18.8211C22.8279 18.8211 22.827 18.8211 22.8262 18.8211C22.8253 18.8211 22.8245 18.8211 22.8236 18.8211C22.8228 18.8211 22.8219 18.8211 22.8211 18.8211C22.8202 18.8211 22.8194 18.8211 22.8185 18.8211C22.8177 18.8211 22.8169 18.8211 22.816 18.8211C22.8152 18.8211 22.8143 18.8211 22.8135 18.8211C22.8126 18.8211 22.8118 18.8211 22.8109 18.8211C22.8101 18.8211 22.8092 18.8211 22.8084 18.8211C22.8075 18.8211 22.8067 18.8211 22.8058 18.8211C22.805 18.8211 22.8042 18.8211 22.8033 18.8211C22.8025 18.8211 22.8016 18.8211 22.8008 18.8211C22.7999 18.8211 22.7991 18.8211 22.7982 18.8211C22.7974 18.8211 22.7965 18.8211 22.7957 18.8211C22.7948 18.8211 22.794 18.8211 22.7932 18.8211C22.7923 18.8211 22.7915 18.8211 22.7906 18.8211C22.7898 18.8211 22.7889 18.8211 22.7881 18.8211C22.7872 18.8211 22.7864 18.8211 22.7855 18.8211C22.7847 18.8211 22.7839 18.8211 22.783 18.8211C22.7822 18.8211 22.7813 18.8211 22.7805 18.8211C22.7796 18.8211 22.7788 18.8211 22.7779 18.8211C22.7771 18.8211 22.7762 18.8211 22.7754 18.8211C22.7745 18.8211 22.7737 18.8211 22.7729 18.8211C22.772 18.8211 22.7712 18.8211 22.7703 18.8211C22.7695 18.8211 22.7686 18.8211 22.7678 18.8211C22.7669 18.8211 22.7661 18.8211 22.7652 18.8211C22.7644 18.8211 22.7636 18.8211 22.7627 18.8211C22.7619 18.8211 22.761 18.8211 22.7602 18.8211C22.7593 18.8211 22.7585 18.8211 22.7576 18.8211C22.7568 18.8211 22.7559 18.8211 22.7551 18.8211C22.7543 18.8211 22.7534 18.8211 22.7526 18.8211C22.7517 18.8211 22.7509 18.8211 22.75 18.8211C22.7492 18.8211 22.7483 18.8211 22.7475 18.8211C22.7466 18.8211 22.7458 18.8211 22.745 18.8211C22.7441 18.8211 22.7433 18.8211 22.7424 18.8211C22.7416 18.8211 22.7407 18.8211 22.7399 18.8211C22.739 18.8211 22.7382 18.8211 22.7373 18.8211C22.7365 18.8211 22.7357 18.8211 22.7348 18.8211C22.734 18.8211 22.7331 18.8211 22.7323 18.8211C22.7314 18.8211 22.7306 18.8211 22.7297 18.8211C22.7289 18.8211 22.728 18.8211 22.7272 18.8211C22.7264 18.8211 22.7255 18.8211 22.7247 18.8211C22.7238 18.8211 22.723 18.8211 22.7221 18.8211C22.7213 18.8211 22.7204 18.8211 22.7196 18.8211C22.7188 18.8211 22.7179 18.8211 22.7171 18.8211C22.7162 18.8211 22.7154 18.8211 22.7145 18.8211C22.7137 18.8211 22.7128 18.8211 22.712 18.8211C22.7111 18.8211 22.7103 18.8211 22.7095 18.8211C22.7086 18.8211 22.7078 18.8211 22.7069 18.8211C22.7061 18.8211 22.7052 18.8211 22.7044 18.8211C22.7035 18.8211 22.7027 18.8211 22.7019 18.8211C22.701 18.8211 22.7002 18.8211 22.6993 18.8211C22.6985 18.8211 22.6976 18.8211 22.6968 18.8211C22.6959 18.8211 22.6951 18.8211 22.6943 18.8211C22.6934 18.8211 22.6926 18.8211 22.6917 18.8211C22.6909 18.8211 22.69 18.8211 22.6892 18.8211C22.6883 18.8211 22.6875 18.8211 22.6867 18.8211C22.6858 18.8211 22.685 18.8211 22.6841 18.8211C22.6833 18.8211 22.6824 18.8211 22.6816 18.8211C22.6807 18.8211 22.6799 18.8211 22.6791 18.8211C22.6782 18.8211 22.6774 18.8211 22.6765 18.8211C22.6757 18.8211 22.6748 18.8211 22.674 18.8211C22.6731 18.8211 22.6723 18.8211 22.6715 18.8211C22.6706 18.8211 22.6698 18.8211 22.6689 18.8211C22.6681 18.8211 22.6672 18.8211 22.6664 18.8211C22.6655 18.8211 22.6647 18.8211 22.6639 18.8211C22.663 18.8211 22.6622 18.8211 22.6613 18.8211C22.6605 18.8211 22.6596 18.8211 22.6588 18.8211C22.658 18.8211 22.6571 18.8211 22.6563 18.8211C22.6554 18.8211 22.6546 18.8211 22.6537 18.8211C22.6529 18.8211 22.652 18.8211 22.6512 18.8211C22.6504 18.8211 22.6495 18.8211 22.6487 18.8211C22.6478 18.8211 22.647 18.8211 22.6461 18.8211C22.6453 18.8211 22.6444 18.8211 22.6436 18.8211C22.6428 18.8211 22.6419 18.8211 22.6411 18.8211C22.6402 18.8211 22.6394 18.8211 22.6385 18.8211C22.6377 18.8211 22.6369 18.8211 22.636 18.8211C22.6352 18.8211 22.6343 18.8211 22.6335 18.8211C22.6326 18.8211 22.6318 18.8211 22.6309 18.8211C22.6301 18.8211 22.6293 18.8211 22.6284 18.8211C22.6276 18.8211 22.6267 18.8211 22.6259 18.8211C22.625 18.8211 22.6242 18.8211 22.6234 18.8211C22.6225 18.8211 22.6217 18.8211 22.6208 18.8211C22.62 18.8211 22.6191 18.8211 22.6183 18.8211C22.6175 18.8211 22.6166 18.8211 22.6158 18.8211C22.6149 18.8211 22.6141 18.8211 22.6132 18.8211C22.6124 18.8211 22.6115 18.8211 22.6107 18.8211C22.6099 18.8211 22.609 18.8211 22.6082 18.8211C22.6073 18.8211 22.6065 18.8211 22.6056 18.8211C22.6048 18.8211 22.604 18.8211 22.6031 18.8211C22.6023 18.8211 22.6014 18.8211 22.6006 18.8211C22.5997 18.8211 22.5989 18.8211 22.5981 18.8211C22.5972 18.8211 22.5964 18.8211 22.5955 18.8211C22.5947 18.8211 22.5938 18.8211 22.593 18.8211C22.5922 18.8211 22.5913 18.8211 22.5905 18.8211C22.5896 18.8211 22.5888 18.8211 22.5879 18.8211C22.5871 18.8211 22.5863 18.8211 22.5854 18.8211C22.5846 18.8211 22.5837 18.8211 22.5829 18.8211C22.582 18.8211 22.5812 18.8211 22.5804 18.8211C22.5795 18.8211 22.5787 18.8211 22.5778 18.8211C22.577 18.8211 22.5761 18.8211 22.5753 18.8211C22.5745 18.8211 22.5736 18.8211 22.5728 18.8211C22.5719 18.8211 22.5711 18.8211 22.5702 18.8211C22.5694 18.8211 22.5686 18.8211 22.5677 18.8211C22.5669 18.8211 22.566 18.8211 22.5652 18.8211C22.5643 18.8211 22.5635 18.8211 22.5627 18.8211C22.5618 18.8211 22.561 18.8211 22.5601 18.8211C22.5593 18.8211 22.5584 18.8211 22.5576 18.8211C22.5568 18.8211 22.5559 18.8211 22.5551 18.8211C22.5542 18.8211 22.5534 18.8211 22.5525 18.8211C22.5517 18.8211 22.5509 18.8211 22.55 18.8211C22.5492 18.8211 22.5483 18.8211 22.5475 18.8211C22.5466 18.8211 22.5458 18.8211 22.545 18.8211C22.5441 18.8211 22.5433 18.8211 22.5424 18.8211C22.5416 18.8211 22.5408 18.8211 22.5399 18.8211C22.5391 18.8211 22.5382 18.8211 22.5374 18.8211C22.5365 18.8211 22.5357 18.8211 22.5349 18.8211C22.534 18.8211 22.5332 18.8211 22.5323 18.8211C22.5315 18.8211 22.5306 18.8211 22.5298 18.8211C22.529 18.8211 22.5281 18.8211 22.5273 18.8211C22.5264 18.8211 22.5256 18.8211 22.5248 18.8211C22.5239 18.8211 22.5231 18.8211 22.5222 18.8211C22.5214 18.8211 22.5205 18.8211 22.5197 18.8211C22.5189 18.8211 22.518 18.8211 22.5172 18.8211C22.5163 18.8211 22.5155 18.8211 22.5146 18.8211C22.5138 18.8211 22.513 18.8211 22.5121 18.8211C22.5113 18.8211 22.5104 18.8211 22.5096 18.8211C22.5088 18.8211 22.5079 18.8211 22.5071 18.8211C22.5062 18.8211 22.5054 18.8211 22.5045 18.8211C22.5037 18.8211 22.5029 18.8211 22.502 18.8211C22.5012 18.8211 22.5003 18.8211 22.4995 18.8211C22.4987 18.8211 22.4978 18.8211 22.497 18.8211C22.4961 18.8211 22.4953 18.8211 22.4944 18.8211C22.4936 18.8211 22.4928 18.8211 22.4919 18.8211C22.4911 18.8211 22.4902 18.8211 22.4894 18.8211C22.4886 18.8211 22.4877 18.8211 22.4869 18.8211C22.486 18.8211 22.4852 18.8211 22.4844 18.8211C22.4835 18.8211 22.4827 18.8211 22.4818 18.8211C22.481 18.8211 22.4801 18.8211 22.4793 18.8211C22.4785 18.8211 22.4776 18.8211 22.4768 18.8211C22.4759 18.8211 22.4751 18.8211 22.4743 18.8211C22.4734 18.8211 22.4726 18.8211 22.4717 18.8211C22.4709 18.8211 22.47 18.8211 22.4692 18.8211C22.4684 18.8211 22.4675 18.8211 22.4667 18.8211C22.4658 18.8211 22.465 18.8211 22.4642 18.8211C22.4633 18.8211 22.4625 18.8211 22.4616 18.8211C22.4608 18.8211 22.46 18.8211 22.4591 18.8211C22.4583 18.8211 22.4574 18.8211 22.4566 18.8211C22.4557 18.8211 22.4549 18.8211 22.4541 18.8211C22.4532 18.8211 22.4524 18.8211 22.4515 18.8211C22.4507 18.8211 22.4499 18.8211 22.449 18.8211C22.4482 18.8211 22.4473 18.8211 22.4465 18.8211C22.4457 18.8211 22.4448 18.8211 22.444 18.8211C22.4431 18.8211 22.4423 18.8211 22.4415 18.8211C22.4406 18.8211 22.4398 18.8211 22.4389 18.8211C22.4381 18.8211 22.4373 18.8211 22.4364 18.8211C22.4356 18.8211 22.4347 18.8211 22.4339 18.8211C22.433 18.8211 22.4322 18.8211 22.4314 18.8211C22.4305 18.8211 22.4297 18.8211 22.4288 18.8211C22.428 18.8211 22.4272 18.8211 22.4263 18.8211C22.4255 18.8211 22.4246 18.8211 22.4238 18.8211C22.423 18.8211 22.4221 18.8211 22.4213 18.8211C22.4204 18.8211 22.4196 18.8211 22.4188 18.8211C22.4179 18.8211 22.4171 18.8211 22.4162 18.8211C22.4154 18.8211 22.4146 18.8211 22.4137 18.8211C22.4129 18.8211 22.412 18.8211 22.4112 18.8211C22.4104 18.8211 22.4095 18.8211 22.4087 18.8211C22.4078 18.8211 22.407 18.8211 22.4062 18.8211C22.4053 18.8211 22.4045 18.8211 22.4036 18.8211C22.4028 18.8211 22.402 18.8211 22.4011 18.8211C22.4003 18.8211 22.3994 18.8211 22.3986 18.8211C22.3978 18.8211 22.3969 18.8211 22.3961 18.8211C22.3952 18.8211 22.3944 18.8211 22.3936 18.8211C22.3927 18.8211 22.3919 18.8211 22.391 18.8211C22.3902 18.8211 22.3894 18.8211 22.3885 18.8211C22.3877 18.8211 22.3868 18.8211 22.386 18.8211C22.3852 18.8211 22.3843 18.8211 22.3835 18.8211C22.3826 18.8211 22.3818 18.8211 22.381 18.8211V20.8211C22.3818 20.8211 22.3826 20.8211 22.3835 20.8211C22.3843 20.8211 22.3852 20.8211 22.386 20.8211C22.3868 20.8211 22.3877 20.8211 22.3885 20.8211C22.3894 20.8211 22.3902 20.8211 22.391 20.8211C22.3919 20.8211 22.3927 20.8211 22.3936 20.8211C22.3944 20.8211 22.3952 20.8211 22.3961 20.8211C22.3969 20.8211 22.3978 20.8211 22.3986 20.8211C22.3994 20.8211 22.4003 20.8211 22.4011 20.8211C22.402 20.8211 22.4028 20.8211 22.4036 20.8211C22.4045 20.8211 22.4053 20.8211 22.4062 20.8211C22.407 20.8211 22.4078 20.8211 22.4087 20.8211C22.4095 20.8211 22.4104 20.8211 22.4112 20.8211C22.412 20.8211 22.4129 20.8211 22.4137 20.8211C22.4146 20.8211 22.4154 20.8211 22.4162 20.8211C22.4171 20.8211 22.4179 20.8211 22.4188 20.8211C22.4196 20.8211 22.4204 20.8211 22.4213 20.8211C22.4221 20.8211 22.423 20.8211 22.4238 20.8211C22.4246 20.8211 22.4255 20.8211 22.4263 20.8211C22.4272 20.8211 22.428 20.8211 22.4288 20.8211C22.4297 20.8211 22.4305 20.8211 22.4314 20.8211C22.4322 20.8211 22.433 20.8211 22.4339 20.8211C22.4347 20.8211 22.4356 20.8211 22.4364 20.8211C22.4373 20.8211 22.4381 20.8211 22.4389 20.8211C22.4398 20.8211 22.4406 20.8211 22.4415 20.8211C22.4423 20.8211 22.4431 20.8211 22.444 20.8211C22.4448 20.8211 22.4457 20.8211 22.4465 20.8211C22.4473 20.8211 22.4482 20.8211 22.449 20.8211C22.4499 20.8211 22.4507 20.8211 22.4515 20.8211C22.4524 20.8211 22.4532 20.8211 22.4541 20.8211C22.4549 20.8211 22.4557 20.8211 22.4566 20.8211C22.4574 20.8211 22.4583 20.8211 22.4591 20.8211C22.46 20.8211 22.4608 20.8211 22.4616 20.8211C22.4625 20.8211 22.4633 20.8211 22.4642 20.8211C22.465 20.8211 22.4658 20.8211 22.4667 20.8211C22.4675 20.8211 22.4684 20.8211 22.4692 20.8211C22.47 20.8211 22.4709 20.8211 22.4717 20.8211C22.4726 20.8211 22.4734 20.8211 22.4743 20.8211C22.4751 20.8211 22.4759 20.8211 22.4768 20.8211C22.4776 20.8211 22.4785 20.8211 22.4793 20.8211C22.4801 20.8211 22.481 20.8211 22.4818 20.8211C22.4827 20.8211 22.4835 20.8211 22.4844 20.8211C22.4852 20.8211 22.486 20.8211 22.4869 20.8211C22.4877 20.8211 22.4886 20.8211 22.4894 20.8211C22.4902 20.8211 22.4911 20.8211 22.4919 20.8211C22.4928 20.8211 22.4936 20.8211 22.4944 20.8211C22.4953 20.8211 22.4961 20.8211 22.497 20.8211C22.4978 20.8211 22.4987 20.8211 22.4995 20.8211C22.5003 20.8211 22.5012 20.8211 22.502 20.8211C22.5029 20.8211 22.5037 20.8211 22.5045 20.8211C22.5054 20.8211 22.5062 20.8211 22.5071 20.8211C22.5079 20.8211 22.5088 20.8211 22.5096 20.8211C22.5104 20.8211 22.5113 20.8211 22.5121 20.8211C22.513 20.8211 22.5138 20.8211 22.5146 20.8211C22.5155 20.8211 22.5163 20.8211 22.5172 20.8211C22.518 20.8211 22.5189 20.8211 22.5197 20.8211C22.5205 20.8211 22.5214 20.8211 22.5222 20.8211C22.5231 20.8211 22.5239 20.8211 22.5248 20.8211C22.5256 20.8211 22.5264 20.8211 22.5273 20.8211C22.5281 20.8211 22.529 20.8211 22.5298 20.8211C22.5306 20.8211 22.5315 20.8211 22.5323 20.8211C22.5332 20.8211 22.534 20.8211 22.5349 20.8211C22.5357 20.8211 22.5365 20.8211 22.5374 20.8211C22.5382 20.8211 22.5391 20.8211 22.5399 20.8211C22.5408 20.8211 22.5416 20.8211 22.5424 20.8211C22.5433 20.8211 22.5441 20.8211 22.545 20.8211C22.5458 20.8211 22.5466 20.8211 22.5475 20.8211C22.5483 20.8211 22.5492 20.8211 22.55 20.8211C22.5509 20.8211 22.5517 20.8211 22.5525 20.8211C22.5534 20.8211 22.5542 20.8211 22.5551 20.8211C22.5559 20.8211 22.5568 20.8211 22.5576 20.8211C22.5584 20.8211 22.5593 20.8211 22.5601 20.8211C22.561 20.8211 22.5618 20.8211 22.5627 20.8211C22.5635 20.8211 22.5643 20.8211 22.5652 20.8211C22.566 20.8211 22.5669 20.8211 22.5677 20.8211C22.5686 20.8211 22.5694 20.8211 22.5702 20.8211C22.5711 20.8211 22.5719 20.8211 22.5728 20.8211C22.5736 20.8211 22.5745 20.8211 22.5753 20.8211C22.5761 20.8211 22.577 20.8211 22.5778 20.8211C22.5787 20.8211 22.5795 20.8211 22.5804 20.8211C22.5812 20.8211 22.582 20.8211 22.5829 20.8211C22.5837 20.8211 22.5846 20.8211 22.5854 20.8211C22.5863 20.8211 22.5871 20.8211 22.5879 20.8211C22.5888 20.8211 22.5896 20.8211 22.5905 20.8211C22.5913 20.8211 22.5922 20.8211 22.593 20.8211C22.5938 20.8211 22.5947 20.8211 22.5955 20.8211C22.5964 20.8211 22.5972 20.8211 22.5981 20.8211C22.5989 20.8211 22.5997 20.8211 22.6006 20.8211C22.6014 20.8211 22.6023 20.8211 22.6031 20.8211C22.604 20.8211 22.6048 20.8211 22.6056 20.8211C22.6065 20.8211 22.6073 20.8211 22.6082 20.8211C22.609 20.8211 22.6099 20.8211 22.6107 20.8211C22.6115 20.8211 22.6124 20.8211 22.6132 20.8211C22.6141 20.8211 22.6149 20.8211 22.6158 20.8211C22.6166 20.8211 22.6175 20.8211 22.6183 20.8211C22.6191 20.8211 22.62 20.8211 22.6208 20.8211C22.6217 20.8211 22.6225 20.8211 22.6234 20.8211C22.6242 20.8211 22.625 20.8211 22.6259 20.8211C22.6267 20.8211 22.6276 20.8211 22.6284 20.8211C22.6293 20.8211 22.6301 20.8211 22.6309 20.8211C22.6318 20.8211 22.6326 20.8211 22.6335 20.8211C22.6343 20.8211 22.6352 20.8211 22.636 20.8211C22.6369 20.8211 22.6377 20.8211 22.6385 20.8211C22.6394 20.8211 22.6402 20.8211 22.6411 20.8211C22.6419 20.8211 22.6428 20.8211 22.6436 20.8211C22.6444 20.8211 22.6453 20.8211 22.6461 20.8211C22.647 20.8211 22.6478 20.8211 22.6487 20.8211C22.6495 20.8211 22.6504 20.8211 22.6512 20.8211C22.652 20.8211 22.6529 20.8211 22.6537 20.8211C22.6546 20.8211 22.6554 20.8211 22.6563 20.8211C22.6571 20.8211 22.658 20.8211 22.6588 20.8211C22.6596 20.8211 22.6605 20.8211 22.6613 20.8211C22.6622 20.8211 22.663 20.8211 22.6639 20.8211C22.6647 20.8211 22.6655 20.8211 22.6664 20.8211C22.6672 20.8211 22.6681 20.8211 22.6689 20.8211C22.6698 20.8211 22.6706 20.8211 22.6715 20.8211C22.6723 20.8211 22.6731 20.8211 22.674 20.8211C22.6748 20.8211 22.6757 20.8211 22.6765 20.8211C22.6774 20.8211 22.6782 20.8211 22.6791 20.8211C22.6799 20.8211 22.6807 20.8211 22.6816 20.8211C22.6824 20.8211 22.6833 20.8211 22.6841 20.8211C22.685 20.8211 22.6858 20.8211 22.6867 20.8211C22.6875 20.8211 22.6883 20.8211 22.6892 20.8211C22.69 20.8211 22.6909 20.8211 22.6917 20.8211C22.6926 20.8211 22.6934 20.8211 22.6943 20.8211C22.6951 20.8211 22.6959 20.8211 22.6968 20.8211C22.6976 20.8211 22.6985 20.8211 22.6993 20.8211C22.7002 20.8211 22.701 20.8211 22.7019 20.8211C22.7027 20.8211 22.7035 20.8211 22.7044 20.8211C22.7052 20.8211 22.7061 20.8211 22.7069 20.8211C22.7078 20.8211 22.7086 20.8211 22.7095 20.8211C22.7103 20.8211 22.7111 20.8211 22.712 20.8211C22.7128 20.8211 22.7137 20.8211 22.7145 20.8211C22.7154 20.8211 22.7162 20.8211 22.7171 20.8211C22.7179 20.8211 22.7188 20.8211 22.7196 20.8211C22.7204 20.8211 22.7213 20.8211 22.7221 20.8211C22.723 20.8211 22.7238 20.8211 22.7247 20.8211C22.7255 20.8211 22.7264 20.8211 22.7272 20.8211C22.728 20.8211 22.7289 20.8211 22.7297 20.8211C22.7306 20.8211 22.7314 20.8211 22.7323 20.8211C22.7331 20.8211 22.734 20.8211 22.7348 20.8211C22.7357 20.8211 22.7365 20.8211 22.7373 20.8211C22.7382 20.8211 22.739 20.8211 22.7399 20.8211C22.7407 20.8211 22.7416 20.8211 22.7424 20.8211C22.7433 20.8211 22.7441 20.8211 22.745 20.8211C22.7458 20.8211 22.7466 20.8211 22.7475 20.8211C22.7483 20.8211 22.7492 20.8211 22.75 20.8211C22.7509 20.8211 22.7517 20.8211 22.7526 20.8211C22.7534 20.8211 22.7543 20.8211 22.7551 20.8211C22.7559 20.8211 22.7568 20.8211 22.7576 20.8211C22.7585 20.8211 22.7593 20.8211 22.7602 20.8211C22.761 20.8211 22.7619 20.8211 22.7627 20.8211C22.7636 20.8211 22.7644 20.8211 22.7652 20.8211C22.7661 20.8211 22.7669 20.8211 22.7678 20.8211C22.7686 20.8211 22.7695 20.8211 22.7703 20.8211C22.7712 20.8211 22.772 20.8211 22.7729 20.8211C22.7737 20.8211 22.7745 20.8211 22.7754 20.8211C22.7762 20.8211 22.7771 20.8211 22.7779 20.8211C22.7788 20.8211 22.7796 20.8211 22.7805 20.8211C22.7813 20.8211 22.7822 20.8211 22.783 20.8211C22.7839 20.8211 22.7847 20.8211 22.7855 20.8211C22.7864 20.8211 22.7872 20.8211 22.7881 20.8211C22.7889 20.8211 22.7898 20.8211 22.7906 20.8211C22.7915 20.8211 22.7923 20.8211 22.7932 20.8211C22.794 20.8211 22.7948 20.8211 22.7957 20.8211C22.7965 20.8211 22.7974 20.8211 22.7982 20.8211C22.7991 20.8211 22.7999 20.8211 22.8008 20.8211C22.8016 20.8211 22.8025 20.8211 22.8033 20.8211C22.8042 20.8211 22.805 20.8211 22.8058 20.8211C22.8067 20.8211 22.8075 20.8211 22.8084 20.8211C22.8092 20.8211 22.8101 20.8211 22.8109 20.8211C22.8118 20.8211 22.8126 20.8211 22.8135 20.8211C22.8143 20.8211 22.8152 20.8211 22.816 20.8211C22.8169 20.8211 22.8177 20.8211 22.8185 20.8211C22.8194 20.8211 22.8202 20.8211 22.8211 20.8211C22.8219 20.8211 22.8228 20.8211 22.8236 20.8211C22.8245 20.8211 22.8253 20.8211 22.8262 20.8211C22.827 20.8211 22.8279 20.8211 22.8287 20.8211C22.8295 20.8211 22.8304 20.8211 22.8312 20.8211C22.8321 20.8211 22.8329 20.8211 22.8338 20.8211C22.8346 20.8211 22.8355 20.8211 22.8363 20.8211C22.8372 20.8211 22.838 20.8211 22.8389 20.8211C22.8397 20.8211 22.8406 20.8211 22.8414 20.8211C22.8423 20.8211 22.8431 20.8211 22.8439 20.8211C22.8448 20.8211 22.8456 20.8211 22.8465 20.8211C22.8473 20.8211 22.8482 20.8211 22.849 20.8211C22.8499 20.8211 22.8507 20.8211 22.8516 20.8211C22.8524 20.8211 22.8533 20.8211 22.8541 20.8211C22.855 20.8211 22.8558 20.8211 22.8566 20.8211C22.8575 20.8211 22.8583 20.8211 22.8592 20.8211C22.86 20.8211 22.8609 20.8211 22.8617 20.8211C22.8626 20.8211 22.8634 20.8211 22.8643 20.8211C22.8651 20.8211 22.866 20.8211 22.8668 20.8211C22.8677 20.8211 22.8685 20.8211 22.8694 20.8211C22.8702 20.8211 22.871 20.8211 22.8719 20.8211C22.8727 20.8211 22.8736 20.8211 22.8744 20.8211C22.8753 20.8211 22.8761 20.8211 22.877 20.8211C22.8778 20.8211 22.8787 20.8211 22.8795 20.8211C22.8804 20.8211 22.8812 20.8211 22.8821 20.8211C22.8829 20.8211 22.8838 20.8211 22.8846 20.8211C22.8855 20.8211 22.8863 20.8211 22.8871 20.8211C22.888 20.8211 22.8888 20.8211 22.8897 20.8211C22.8905 20.8211 22.8914 20.8211 22.8922 20.8211C22.8931 20.8211 22.8939 20.8211 22.8948 20.8211C22.8956 20.8211 22.8965 20.8211 22.8973 20.8211C22.8982 20.8211 22.899 20.8211 22.8999 20.8211C22.9007 20.8211 22.9016 20.8211 22.9024 20.8211C22.9033 20.8211 22.9041 20.8211 22.9049 20.8211C22.9058 20.8211 22.9066 20.8211 22.9075 20.8211C22.9083 20.8211 22.9092 20.8211 22.91 20.8211C22.9109 20.8211 22.9117 20.8211 22.9126 20.8211C22.9134 20.8211 22.9143 20.8211 22.9151 20.8211C22.916 20.8211 22.9168 20.8211 22.9177 20.8211C22.9185 20.8211 22.9194 20.8211 22.9202 20.8211C22.9211 20.8211 22.9219 20.8211 22.9228 20.8211C22.9236 20.8211 22.9244 20.8211 22.9253 20.8211C22.9261 20.8211 22.927 20.8211 22.9278 20.8211C22.9287 20.8211 22.9295 20.8211 22.9304 20.8211C22.9312 20.8211 22.9321 20.8211 22.9329 20.8211C22.9338 20.8211 22.9346 20.8211 22.9355 20.8211C22.9363 20.8211 22.9372 20.8211 22.938 20.8211C22.9389 20.8211 22.9397 20.8211 22.9406 20.8211C22.9414 20.8211 22.9423 20.8211 22.9431 20.8211C22.944 20.8211 22.9448 20.8211 22.9457 20.8211C22.9465 20.8211 22.9474 20.8211 22.9482 20.8211C22.949 20.8211 22.9499 20.8211 22.9507 20.8211C22.9516 20.8211 22.9524 20.8211 22.9533 20.8211C22.9541 20.8211 22.955 20.8211 22.9558 20.8211C22.9567 20.8211 22.9575 20.8211 22.9584 20.8211C22.9592 20.8211 22.9601 20.8211 22.9609 20.8211C22.9618 20.8211 22.9626 20.8211 22.9635 20.8211C22.9643 20.8211 22.9652 20.8211 22.966 20.8211C22.9669 20.8211 22.9677 20.8211 22.9686 20.8211C22.9694 20.8211 22.9703 20.8211 22.9711 20.8211C22.972 20.8211 22.9728 20.8211 22.9737 20.8211C22.9745 20.8211 22.9754 20.8211 22.9762 20.8211C22.9771 20.8211 22.9779 20.8211 22.9787 20.8211C22.9796 20.8211 22.9804 20.8211 22.9813 20.8211C22.9821 20.8211 22.983 20.8211 22.9838 20.8211C22.9847 20.8211 22.9855 20.8211 22.9864 20.8211C22.9872 20.8211 22.9881 20.8211 22.9889 20.8211C22.9898 20.8211 22.9906 20.8211 22.9915 20.8211C22.9923 20.8211 22.9932 20.8211 22.994 20.8211C22.9949 20.8211 22.9957 20.8211 22.9966 20.8211C22.9974 20.8211 22.9983 20.8211 22.9991 20.8211C23 20.8211 23.0008 20.8211 23.0017 20.8211C23.0025 20.8211 23.0034 20.8211 23.0042 20.8211C23.0051 20.8211 23.0059 20.8211 23.0068 20.8211C23.0076 20.8211 23.0085 20.8211 23.0093 20.8211C23.0102 20.8211 23.011 20.8211 23.0119 20.8211C23.0127 20.8211 23.0136 20.8211 23.0144 20.8211C23.0153 20.8211 23.0161 20.8211 23.017 20.8211C23.0178 20.8211 23.0187 20.8211 23.0195 20.8211C23.0204 20.8211 23.0212 20.8211 23.0221 20.8211C23.0229 20.8211 23.0238 20.8211 23.0246 20.8211C23.0255 20.8211 23.0263 20.8211 23.0272 20.8211C23.028 20.8211 23.0289 20.8211 23.0297 20.8211C23.0306 20.8211 23.0314 20.8211 23.0323 20.8211C23.0331 20.8211 23.034 20.8211 23.0348 20.8211C23.0357 20.8211 23.0365 20.8211 23.0374 20.8211C23.0382 20.8211 23.039 20.8211 23.0399 20.8211C23.0407 20.8211 23.0416 20.8211 23.0424 20.8211C23.0433 20.8211 23.0441 20.8211 23.045 20.8211C23.0458 20.8211 23.0467 20.8211 23.0475 20.8211C23.0484 20.8211 23.0492 20.8211 23.0501 20.8211C23.0509 20.8211 23.0518 20.8211 23.0526 20.8211C23.0535 20.8211 23.0543 20.8211 23.0552 20.8211C23.056 20.8211 23.0569 20.8211 23.0577 20.8211C23.0586 20.8211 23.0594 20.8211 23.0603 20.8211C23.0611 20.8211 23.062 20.8211 23.0628 20.8211C23.0637 20.8211 23.0645 20.8211 23.0654 20.8211C23.0662 20.8211 23.0671 20.8211 23.0679 20.8211C23.0688 20.8211 23.0696 20.8211 23.0705 20.8211C23.0713 20.8211 23.0722 20.8211 23.0731 20.8211C23.0739 20.8211 23.0748 20.8211 23.0756 20.8211C23.0765 20.8211 23.0773 20.8211 23.0782 20.8211C23.079 20.8211 23.0799 20.8211 23.0807 20.8211C23.0816 20.8211 23.0824 20.8211 23.0833 20.8211C23.0841 20.8211 23.085 20.8211 23.0858 20.8211C23.0867 20.8211 23.0875 20.8211 23.0884 20.8211C23.0892 20.8211 23.0901 20.8211 23.0909 20.8211C23.0918 20.8211 23.0926 20.8211 23.0935 20.8211C23.0943 20.8211 23.0952 20.8211 23.096 20.8211C23.0969 20.8211 23.0977 20.8211 23.0986 20.8211C23.0994 20.8211 23.1003 20.8211 23.1011 20.8211C23.102 20.8211 23.1028 20.8211 23.1037 20.8211C23.1045 20.8211 23.1054 20.8211 23.1062 20.8211C23.1071 20.8211 23.1079 20.8211 23.1088 20.8211C23.1096 20.8211 23.1105 20.8211 23.1113 20.8211C23.1122 20.8211 23.113 20.8211 23.1139 20.8211C23.1147 20.8211 23.1156 20.8211 23.1164 20.8211C23.1173 20.8211 23.1181 20.8211 23.119 20.8211C23.1198 20.8211 23.1207 20.8211 23.1215 20.8211C23.1224 20.8211 23.1232 20.8211 23.1241 20.8211C23.1249 20.8211 23.1258 20.8211 23.1266 20.8211C23.1275 20.8211 23.1283 20.8211 23.1292 20.8211C23.13 20.8211 23.1309 20.8211 23.1317 20.8211C23.1326 20.8211 23.1335 20.8211 23.1343 20.8211C23.1352 20.8211 23.136 20.8211 23.1369 20.8211C23.1377 20.8211 23.1386 20.8211 23.1394 20.8211C23.1403 20.8211 23.1411 20.8211 23.142 20.8211C23.1428 20.8211 23.1437 20.8211 23.1445 20.8211C23.1454 20.8211 23.1462 20.8211 23.1471 20.8211C23.1479 20.8211 23.1488 20.8211 23.1496 20.8211C23.1505 20.8211 23.1513 20.8211 23.1522 20.8211C23.153 20.8211 23.1539 20.8211 23.1547 20.8211C23.1556 20.8211 23.1564 20.8211 23.1573 20.8211C23.1581 20.8211 23.159 20.8211 23.1598 20.8211C23.1607 20.8211 23.1615 20.8211 23.1624 20.8211C23.1632 20.8211 23.1641 20.8211 23.165 20.8211C23.1658 20.8211 23.1667 20.8211 23.1675 20.8211C23.1684 20.8211 23.1692 20.8211 23.1701 20.8211C23.1709 20.8211 23.1718 20.8211 23.1726 20.8211C23.1735 20.8211 23.1743 20.8211 23.1752 20.8211C23.176 20.8211 23.1769 20.8211 23.1777 20.8211C23.1786 20.8211 23.1794 20.8211 23.1803 20.8211C23.1811 20.8211 23.182 20.8211 23.1828 20.8211C23.1837 20.8211 23.1845 20.8211 23.1854 20.8211C23.1862 20.8211 23.1871 20.8211 23.188 20.8211C23.1888 20.8211 23.1897 20.8211 23.1905 20.8211C23.1914 20.8211 23.1922 20.8211 23.1931 20.8211C23.1939 20.8211 23.1948 20.8211 23.1956 20.8211C23.1965 20.8211 23.1973 20.8211 23.1982 20.8211C23.199 20.8211 23.1999 20.8211 23.2007 20.8211C23.2016 20.8211 23.2024 20.8211 23.2033 20.8211C23.2041 20.8211 23.205 20.8211 23.2058 20.8211C23.2067 20.8211 23.2075 20.8211 23.2084 20.8211C23.2093 20.8211 23.2101 20.8211 23.211 20.8211C23.2118 20.8211 23.2127 20.8211 23.2135 20.8211C23.2144 20.8211 23.2152 20.8211 23.2161 20.8211C23.2169 20.8211 23.2178 20.8211 23.2186 20.8211C23.2195 20.8211 23.2203 20.8211 23.2212 20.8211C23.222 20.8211 23.2229 20.8211 23.2237 20.8211C23.2246 20.8211 23.2255 20.8211 23.2263 20.8211C23.2272 20.8211 23.228 20.8211 23.2289 20.8211C23.2297 20.8211 23.2306 20.8211 23.2314 20.8211C23.2323 20.8211 23.2331 20.8211 23.234 20.8211C23.2348 20.8211 23.2357 20.8211 23.2365 20.8211C23.2374 20.8211 23.2382 20.8211 23.2391 20.8211C23.2399 20.8211 23.2408 20.8211 23.2417 20.8211C23.2425 20.8211 23.2434 20.8211 23.2442 20.8211C23.2451 20.8211 23.2459 20.8211 23.2468 20.8211C23.2476 20.8211 23.2485 20.8211 23.2493 20.8211C23.2502 20.8211 23.251 20.8211 23.2519 20.8211C23.2527 20.8211 23.2536 20.8211 23.2544 20.8211C23.2553 20.8211 23.2561 20.8211 23.257 20.8211C23.2579 20.8211 23.2587 20.8211 23.2596 20.8211C23.2604 20.8211 23.2613 20.8211 23.2621 20.8211C23.263 20.8211 23.2638 20.8211 23.2647 20.8211C23.2655 20.8211 23.2664 20.8211 23.2672 20.8211C23.2681 20.8211 23.2689 20.8211 23.2698 20.8211C23.2707 20.8211 23.2715 20.8211 23.2724 20.8211C23.2732 20.8211 23.2741 20.8211 23.2749 20.8211C23.2758 20.8211 23.2766 20.8211 23.2775 20.8211C23.2783 20.8211 23.2792 20.8211 23.28 20.8211C23.2809 20.8211 23.2817 20.8211 23.2826 20.8211C23.2835 20.8211 23.2843 20.8211 23.2852 20.8211C23.286 20.8211 23.2869 20.8211 23.2877 20.8211C23.2886 20.8211 23.2894 20.8211 23.2903 20.8211C23.2911 20.8211 23.292 20.8211 23.2928 20.8211C23.2937 20.8211 23.2945 20.8211 23.2954 20.8211C23.2963 20.8211 23.2971 20.8211 23.298 20.8211C23.2988 20.8211 23.2997 20.8211 23.3005 20.8211C23.3014 20.8211 23.3022 20.8211 23.3031 20.8211C23.3039 20.8211 23.3048 20.8211 23.3056 20.8211C23.3065 20.8211 23.3074 20.8211 23.3082 20.8211C23.3091 20.8211 23.3099 20.8211 23.3108 20.8211C23.3116 20.8211 23.3125 20.8211 23.3133 20.8211C23.3142 20.8211 23.315 20.8211 23.3159 20.8211C23.3167 20.8211 23.3176 20.8211 23.3185 20.8211C23.3193 20.8211 23.3202 20.8211 23.321 20.8211C23.3219 20.8211 23.3227 20.8211 23.3236 20.8211C23.3244 20.8211 23.3253 20.8211 23.3261 20.8211C23.327 20.8211 23.3278 20.8211 23.3287 20.8211C23.3296 20.8211 23.3304 20.8211 23.3313 20.8211C23.3321 20.8211 23.333 20.8211 23.3338 20.8211C23.3347 20.8211 23.3355 20.8211 23.3364 20.8211C23.3372 20.8211 23.3381 20.8211 23.3389 20.8211C23.3398 20.8211 23.3407 20.8211 23.3415 20.8211C23.3424 20.8211 23.3432 20.8211 23.3441 20.8211C23.3449 20.8211 23.3458 20.8211 23.3466 20.8211C23.3475 20.8211 23.3483 20.8211 23.3492 20.8211C23.3501 20.8211 23.3509 20.8211 23.3518 20.8211C23.3526 20.8211 23.3535 20.8211 23.3543 20.8211C23.3552 20.8211 23.356 20.8211 23.3569 20.8211C23.3577 20.8211 23.3586 20.8211 23.3595 20.8211C23.3603 20.8211 23.3612 20.8211 23.362 20.8211C23.3629 20.8211 23.3637 20.8211 23.3646 20.8211C23.3654 20.8211 23.3663 20.8211 23.3671 20.8211C23.368 20.8211 23.3689 20.8211 23.3697 20.8211C23.3706 20.8211 23.3714 20.8211 23.3723 20.8211C23.3731 20.8211 23.374 20.8211 23.3748 20.8211C23.3757 20.8211 23.3765 20.8211 23.3774 20.8211C23.3783 20.8211 23.3791 20.8211 23.38 20.8211C23.3808 20.8211 23.3817 20.8211 23.3825 20.8211C23.3834 20.8211 23.3842 20.8211 23.3851 20.8211C23.386 20.8211 23.3868 20.8211 23.3877 20.8211C23.3885 20.8211 23.3894 20.8211 23.3902 20.8211C23.3911 20.8211 23.3919 20.8211 23.3928 20.8211C23.3936 20.8211 23.3945 20.8211 23.3954 20.8211C23.3962 20.8211 23.3971 20.8211 23.3979 20.8211C23.3988 20.8211 23.3996 20.8211 23.4005 20.8211C23.4013 20.8211 23.4022 20.8211 23.4031 20.8211C23.4039 20.8211 23.4048 20.8211 23.4056 20.8211C23.4065 20.8211 23.4073 20.8211 23.4082 20.8211C23.409 20.8211 23.4099 20.8211 23.4107 20.8211C23.4116 20.8211 23.4125 20.8211 23.4133 20.8211C23.4142 20.8211 23.415 20.8211 23.4159 20.8211C23.4167 20.8211 23.4176 20.8211 23.4184 20.8211C23.4193 20.8211 23.4202 20.8211 23.421 20.8211C23.4219 20.8211 23.4227 20.8211 23.4236 20.8211C23.4244 20.8211 23.4253 20.8211 23.4261 20.8211C23.427 20.8211 23.4279 20.8211 23.4287 20.8211C23.4296 20.8211 23.4304 20.8211 23.4313 20.8211C23.4321 20.8211 23.433 20.8211 23.4338 20.8211C23.4347 20.8211 23.4356 20.8211 23.4364 20.8211C23.4373 20.8211 23.4381 20.8211 23.439 20.8211C23.4398 20.8211 23.4407 20.8211 23.4415 20.8211C23.4424 20.8211 23.4433 20.8211 23.4441 20.8211C23.445 20.8211 23.4458 20.8211 23.4467 20.8211C23.4475 20.8211 23.4484 20.8211 23.4493 20.8211C23.4501 20.8211 23.451 20.8211 23.4518 20.8211C23.4527 20.8211 23.4535 20.8211 23.4544 20.8211C23.4552 20.8211 23.4561 20.8211 23.457 20.8211C23.4578 20.8211 23.4587 20.8211 23.4595 20.8211C23.4604 20.8211 23.4612 20.8211 23.4621 20.8211C23.4629 20.8211 23.4638 20.8211 23.4647 20.8211C23.4655 20.8211 23.4664 20.8211 23.4672 20.8211C23.4681 20.8211 23.4689 20.8211 23.4698 20.8211C23.4707 20.8211 23.4715 20.8211 23.4724 20.8211C23.4732 20.8211 23.4741 20.8211 23.4749 20.8211C23.4758 20.8211 23.4766 20.8211 23.4775 20.8211C23.4784 20.8211 23.4792 20.8211 23.4801 20.8211C23.4809 20.8211 23.4818 20.8211 23.4826 20.8211C23.4835 20.8211 23.4844 20.8211 23.4852 20.8211C23.4861 20.8211 23.4869 20.8211 23.4878 20.8211C23.4886 20.8211 23.4895 20.8211 23.4903 20.8211C23.4912 20.8211 23.4921 20.8211 23.4929 20.8211C23.4938 20.8211 23.4946 20.8211 23.4955 20.8211C23.4963 20.8211 23.4972 20.8211 23.4981 20.8211C23.4989 20.8211 23.4998 20.8211 23.5006 20.8211C23.5015 20.8211 23.5023 20.8211 23.5032 20.8211C23.5041 20.8211 23.5049 20.8211 23.5058 20.8211C23.5066 20.8211 23.5075 20.8211 23.5083 20.8211C23.5092 20.8211 23.51 20.8211 23.5109 20.8211C23.5118 20.8211 23.5126 20.8211 23.5135 20.8211C23.5143 20.8211 23.5152 20.8211 23.516 20.8211C23.5169 20.8211 23.5178 20.8211 23.5186 20.8211C23.5195 20.8211 23.5203 20.8211 23.5212 20.8211C23.522 20.8211 23.5229 20.8211 23.5238 20.8211C23.5246 20.8211 23.5255 20.8211 23.5263 20.8211C23.5272 20.8211 23.528 20.8211 23.5289 20.8211C23.5298 20.8211 23.5306 20.8211 23.5315 20.8211C23.5323 20.8211 23.5332 20.8211 23.534 20.8211C23.5349 20.8211 23.5358 20.8211 23.5366 20.8211C23.5375 20.8211 23.5383 20.8211 23.5392 20.8211C23.54 20.8211 23.5409 20.8211 23.5418 20.8211C23.5426 20.8211 23.5435 20.8211 23.5443 20.8211C23.5452 20.8211 23.546 20.8211 23.5469 20.8211C23.5478 20.8211 23.5486 20.8211 23.5495 20.8211C23.5503 20.8211 23.5512 20.8211 23.552 20.8211C23.5529 20.8211 23.5538 20.8211 23.5546 20.8211C23.5555 20.8211 23.5563 20.8211 23.5572 20.8211C23.558 20.8211 23.5589 20.8211 23.5598 20.8211C23.5606 20.8211 23.5615 20.8211 23.5623 20.8211C23.5632 20.8211 23.5641 20.8211 23.5649 20.8211C23.5658 20.8211 23.5666 20.8211 23.5675 20.8211C23.5683 20.8211 23.5692 20.8211 23.5701 20.8211C23.5709 20.8211 23.5718 20.8211 23.5726 20.8211C23.5735 20.8211 23.5743 20.8211 23.5752 20.8211C23.5761 20.8211 23.5769 20.8211 23.5778 20.8211C23.5786 20.8211 23.5795 20.8211 23.5803 20.8211C23.5812 20.8211 23.5821 20.8211 23.5829 20.8211C23.5838 20.8211 23.5846 20.8211 23.5855 20.8211C23.5864 20.8211 23.5872 20.8211 23.5881 20.8211C23.5889 20.8211 23.5898 20.8211 23.5906 20.8211C23.5915 20.8211 23.5924 20.8211 23.5932 20.8211C23.5941 20.8211 23.5949 20.8211 23.5958 20.8211C23.5966 20.8211 23.5975 20.8211 23.5984 20.8211C23.5992 20.8211 23.6001 20.8211 23.6009 20.8211C23.6018 20.8211 23.6027 20.8211 23.6035 20.8211C23.6044 20.8211 23.6052 20.8211 23.6061 20.8211C23.6069 20.8211 23.6078 20.8211 23.6087 20.8211C23.6095 20.8211 23.6104 20.8211 23.6112 20.8211C23.6121 20.8211 23.613 20.8211 23.6138 20.8211C23.6147 20.8211 23.6155 20.8211 23.6164 20.8211C23.6172 20.8211 23.6181 20.8211 23.619 20.8211C23.6198 20.8211 23.6207 20.8211 23.6215 20.8211C23.6224 20.8211 23.6233 20.8211 23.6241 20.8211C23.625 20.8211 23.6258 20.8211 23.6267 20.8211C23.6275 20.8211 23.6284 20.8211 23.6293 20.8211C23.6301 20.8211 23.631 20.8211 23.6318 20.8211C23.6327 20.8211 23.6336 20.8211 23.6344 20.8211C23.6353 20.8211 23.6361 20.8211 23.637 20.8211C23.6378 20.8211 23.6387 20.8211 23.6396 20.8211C23.6404 20.8211 23.6413 20.8211 23.6421 20.8211C23.643 20.8211 23.6439 20.8211 23.6447 20.8211C23.6456 20.8211 23.6464 20.8211 23.6473 20.8211C23.6482 20.8211 23.649 20.8211 23.6499 20.8211C23.6507 20.8211 23.6516 20.8211 23.6524 20.8211C23.6533 20.8211 23.6542 20.8211 23.655 20.8211C23.6559 20.8211 23.6567 20.8211 23.6576 20.8211C23.6585 20.8211 23.6593 20.8211 23.6602 20.8211C23.661 20.8211 23.6619 20.8211 23.6628 20.8211C23.6636 20.8211 23.6645 20.8211 23.6653 20.8211C23.6662 20.8211 23.6671 20.8211 23.6679 20.8211C23.6688 20.8211 23.6696 20.8211 23.6705 20.8211C23.6713 20.8211 23.6722 20.8211 23.6731 20.8211C23.6739 20.8211 23.6748 20.8211 23.6756 20.8211C23.6765 20.8211 23.6774 20.8211 23.6782 20.8211C23.6791 20.8211 23.6799 20.8211 23.6808 20.8211C23.6817 20.8211 23.6825 20.8211 23.6834 20.8211C23.6842 20.8211 23.6851 20.8211 23.686 20.8211V18.8211ZM22.381 18.8211C21.9432 18.8211 21.4958 18.8262 21.0387 18.8363L21.0832 20.8358C21.5261 20.826 21.9587 20.8211 22.381 20.8211V18.8211ZM20.068 19.7175C19.9802 20.453 19.9642 21.2016 20.0185 21.9623L22.0134 21.8198C21.9678 21.1806 21.9817 20.5592 22.0539 19.9546L20.068 19.7175ZM20.0197 21.9777C20.0777 22.6446 20.1114 23.3007 20.1211 23.946L22.1208 23.9162C22.1105 23.2214 22.0742 22.5175 22.0122 21.8044L20.0197 21.9777ZM20.121 23.9311V27.5911H22.121V23.9311H20.121ZM20.121 27.5911C20.121 27.631 20.1143 27.6188 20.1321 27.5787C20.141 27.5587 20.154 27.5365 20.1713 27.5148C20.1886 27.4932 20.2063 27.4771 20.221 27.4661L21.421 29.0661C21.9245 28.6884 22.121 28.1351 22.121 27.5911H20.121ZM20.2013 27.4812C20.1924 27.4882 20.1867 27.4917 20.1844 27.4929C20.1822 27.4942 20.1824 27.4939 20.1846 27.4931C20.1869 27.4923 20.1894 27.4916 20.1917 27.4912C20.1939 27.4909 20.1939 27.4911 20.191 27.4911V29.4911C20.6582 29.4911 21.0841 29.3324 21.4406 29.051L20.2013 27.4812ZM20.191 27.4911C20.1881 27.4911 20.1871 27.4909 20.1875 27.4909C20.1878 27.491 20.1877 27.491 20.1866 27.4906C20.1852 27.4901 20.1717 27.4854 20.146 27.4661L18.946 29.0661C19.3031 29.3339 19.7255 29.4911 20.191 29.4911V27.4911ZM20.1656 27.4812C20.1824 27.4945 20.2006 27.5123 20.2174 27.5344C20.2342 27.5565 20.2459 27.578 20.2535 27.5959C20.2683 27.6311 20.261 27.6371 20.261 27.5911H18.261C18.261 28.1164 18.4392 28.6664 18.9263 29.051L20.1656 27.4812ZM20.261 27.5911C20.261 26.9452 20.2456 26.2946 20.2149 25.6393L18.2171 25.7329C18.2463 26.3576 18.261 26.977 18.261 27.5911H20.261ZM20.2149 25.64C20.1851 24.9951 20.1603 24.3502 20.1405 23.7053L18.1414 23.7668C18.1616 24.422 18.1868 25.0771 18.217 25.7322L20.2149 25.64ZM20.1405 23.7058C20.1208 23.0556 20.111 22.4157 20.111 21.7861H18.111C18.111 22.4365 18.1211 23.0966 18.1414 23.7664L20.1405 23.7058ZM20.1108 21.8015C20.1204 21.1773 20.154 20.5638 20.2114 19.9609L18.2205 19.7713C18.1579 20.4284 18.1215 21.0949 18.1111 21.7707L20.1108 21.8015ZM19.1882 18.8665C18.8282 18.8765 18.4682 18.8865 18.1082 18.8965L18.1637 20.8957C18.5237 20.8857 18.8837 20.8757 19.2437 20.8657L19.1882 18.8665ZM18.136 18.8961C17.7574 18.8961 17.3789 18.9066 17.0005 18.9276L17.1114 20.9245C17.453 20.9056 17.7945 20.8961 18.136 20.8961V18.8961ZM17.0226 18.9266C16.9729 18.9283 16.9782 18.9202 17.0156 18.9344C17.0349 18.9416 17.059 18.9535 17.0846 18.9716C17.1103 18.9898 17.1321 19.0104 17.1492 19.0309L15.6127 20.3113C16.0138 20.7926 16.5757 20.9426 17.0893 20.9255L17.0226 18.9266ZM17.186 19.0779C17.1797 19.0693 17.1762 19.0633 17.1745 19.06C17.1728 19.0568 17.1722 19.0552 17.1721 19.0548C17.172 19.0546 17.1719 19.054 17.1717 19.0527C17.1714 19.0513 17.171 19.0477 17.171 19.0411H15.171C15.171 19.4905 15.3128 19.9072 15.5759 20.2643L17.186 19.0779ZM17.171 19.0411C17.171 19.0292 17.1702 19.0124 17.2002 18.9695L15.5617 17.8226C15.3117 18.1798 15.171 18.593 15.171 19.0411H17.171ZM17.181 18.9961C17.1712 19.0091 17.1571 19.0246 17.1385 19.0397C17.1199 19.0548 17.1013 19.066 17.0851 19.0735C17.0526 19.0887 17.0465 19.0819 17.0893 19.0805L17.0226 17.0816C16.4872 17.0995 15.9498 17.3043 15.581 17.7961L17.181 18.9961ZM17.1006 19.0801C18.2091 19.0306 19.3023 19.0009 20.3801 18.991L20.3618 16.9911C19.2596 17.0012 18.1428 17.0316 17.0114 17.0821L17.1006 19.0801ZM20.3801 18.991C21.467 18.9811 22.5689 18.9761 23.686 18.9761V16.9761C22.563 16.9761 21.4549 16.9811 20.3618 16.9911L20.3801 18.991Z" fill="#38487C" mask="url(#path-3-outside-1_449_387)"/>
<path d="M10.3365 3.92606C10.4908 3.47528 11.1283 3.47529 11.2826 3.92606L12.5672 7.67925L13.0403 7.51734L12.5672 7.67926C12.7087 8.09271 13.0235 8.42389 13.4293 8.5862L17.1124 10.0596C17.5314 10.2272 17.5314 10.8204 17.1124 10.988L13.4293 12.4614C13.0235 12.6237 12.7087 12.9549 12.5672 13.3684L13.0403 13.5303L12.5672 13.3684L11.2826 17.1216C11.1283 17.5723 10.4908 17.5723 10.3365 17.1216L9.05182 13.3684C8.91031 12.9549 8.59552 12.6237 8.18978 12.4614L4.50666 10.988C4.08761 10.8204 4.08761 10.2272 4.50666 10.0596L8.18978 8.5862C8.59552 8.42389 8.9103 8.09271 9.05182 7.67925L10.3365 3.92606Z" fill="white" stroke="#38487C"/>
<path d="M26.0271 32.9149C26.1818 32.4648 26.8182 32.4648 26.9729 32.9149L27.6336 34.8378C27.7756 35.2511 28.0909 35.582 28.4969 35.7438L30.4838 36.5355C30.9036 36.7028 30.9036 37.2972 30.4838 37.4645L28.4969 38.2562C28.0909 38.418 27.7756 38.7489 27.6336 39.1622L26.9729 41.0851C26.8182 41.5352 26.1818 41.5352 26.0271 41.0851L25.3664 39.1622C25.2244 38.7489 24.9091 38.418 24.5031 38.2562L22.5162 37.4645C22.0964 37.2972 22.0964 36.7028 22.5162 36.5355L24.5031 35.7438C24.9091 35.582 25.2244 35.2511 25.3664 34.8378L26.0271 32.9149Z" fill="white" stroke="#38487C"/>
</svg>
