<svg width="42" height="47" viewBox="0 0 42 47" fill="none" xmlns="http://www.w3.org/2000/svg">
<g filter="url(#filter0_d_191_18)">
<mask id="path-1-outside-1_191_18" maskUnits="userSpaceOnUse" x="2" y="0" width="38" height="43" fill="black">
<rect fill="white" x="2" width="38" height="43"/>
<path fill-rule="evenodd" clip-rule="evenodd" d="M13.6717 14.3371C15.7953 13.2781 18.1941 12.6819 20.7333 12.6819C23.2728 12.6819 25.6717 13.2782 27.7954 14.3374C27.4137 10.7746 24.3977 8 20.7335 8C17.0695 8 14.0535 10.7745 13.6717 14.3371ZM8.96271 17.9286C8.74583 17.0219 8.63098 16.0757 8.63098 15.1026C8.63098 8.4185 14.0495 3 20.7335 3C27.4176 3 32.8361 8.4185 32.8361 15.1026C32.8361 16.0758 32.7212 17.0222 32.5043 17.929C34.9695 20.6821 36.4667 24.3062 36.4667 28.2769C36.4667 36.8898 29.4226 39.3075 20.7333 39.3075C12.0441 39.3075 5 36.8898 5 28.2769C5 24.306 6.49726 20.6818 8.96271 17.9286Z"/>
</mask>
<path fill-rule="evenodd" clip-rule="evenodd" d="M13.6717 14.3371C15.7953 13.2781 18.1941 12.6819 20.7333 12.6819C23.2728 12.6819 25.6717 13.2782 27.7954 14.3374C27.4137 10.7746 24.3977 8 20.7335 8C17.0695 8 14.0535 10.7745 13.6717 14.3371ZM8.96271 17.9286C8.74583 17.0219 8.63098 16.0757 8.63098 15.1026C8.63098 8.4185 14.0495 3 20.7335 3C27.4176 3 32.8361 8.4185 32.8361 15.1026C32.8361 16.0758 32.7212 17.0222 32.5043 17.929C34.9695 20.6821 36.4667 24.3062 36.4667 28.2769C36.4667 36.8898 29.4226 39.3075 20.7333 39.3075C12.0441 39.3075 5 36.8898 5 28.2769C5 24.306 6.49726 20.6818 8.96271 17.9286Z" fill="#A2DCFF"/>
<path d="M13.6717 14.3371L10.6888 14.0175L10.1048 19.4683L15.0106 17.0218L13.6717 14.3371ZM27.7954 14.3374L26.4565 17.022L31.3622 19.4686L30.7783 14.0178L27.7954 14.3374ZM8.96271 17.9286L11.1976 19.9299L12.246 18.7591L11.8804 17.2306L8.96271 17.9286ZM32.5043 17.929L29.5866 17.2309L29.221 18.7594L30.2693 19.9302L32.5043 17.929ZM15.0106 17.0218C16.727 16.1659 18.6683 15.6819 20.7333 15.6819V9.68188C17.7198 9.68188 14.8636 10.3904 12.3329 11.6524L15.0106 17.0218ZM20.7333 15.6819C22.7985 15.6819 24.74 16.1659 26.4565 17.022L29.1343 11.6527C26.6035 10.3905 23.7471 9.68188 20.7333 9.68188V15.6819ZM30.7783 14.0178C30.2351 8.947 25.9473 5 20.7335 5V11C22.848 11 24.5923 12.6022 24.8124 14.6569L30.7783 14.0178ZM20.7335 5C15.5199 5 11.2322 8.94684 10.6888 14.0175L16.6547 14.6568C16.8748 12.6021 18.6191 11 20.7335 11V5ZM5.63098 15.1026C5.63098 16.3125 5.77386 17.493 6.04502 18.6265L11.8804 17.2306C11.7178 16.5509 11.631 15.8389 11.631 15.1026H5.63098ZM20.7335 0C12.3926 0 5.63098 6.76165 5.63098 15.1026H11.631C11.631 10.0754 15.7063 6 20.7335 6V0ZM35.8361 15.1026C35.8361 6.76165 29.0745 0 20.7335 0V6C25.7608 6 29.8361 10.0754 29.8361 15.1026H35.8361ZM35.422 18.627C35.6932 17.4933 35.8361 16.3126 35.8361 15.1026H29.8361C29.8361 15.839 29.7493 16.5511 29.5866 17.2309L35.422 18.627ZM30.2693 19.9302C32.2632 22.1569 33.4667 25.0759 33.4667 28.2769H39.4667C39.4667 23.5365 37.6759 19.2073 34.7393 15.9277L30.2693 19.9302ZM33.4667 28.2769C33.4667 31.5827 32.2153 33.3275 30.3332 34.4387C28.1842 35.7076 24.9057 36.3075 20.7333 36.3075V42.3075C25.2502 42.3075 29.8384 41.6986 33.3837 39.6054C37.196 37.3545 39.4667 33.584 39.4667 28.2769H33.4667ZM20.7333 36.3075C16.5609 36.3075 13.2825 35.7076 11.1334 34.4387C9.25133 33.3275 8 31.5827 8 28.2769H2C2 33.584 4.27069 37.3545 8.08292 39.6054C11.6282 41.6986 16.2165 42.3075 20.7333 42.3075V36.3075ZM8 28.2769C8 25.0758 9.2036 22.1566 11.1976 19.9299L6.72781 15.9273C3.79091 19.207 2 23.5363 2 28.2769H8Z" fill="#38487C" mask="url(#path-1-outside-1_191_18)"/>
<mask id="path-3-outside-2_191_18" maskUnits="userSpaceOnUse" x="12.2612" y="20.1538" width="16" height="13" fill="black">
<rect fill="white" x="12.2612" y="20.1538" width="16" height="13"/>
<path d="M19.4905 29.3338C20.4525 29.6978 20.0365 31.2448 19.0615 30.8808C18.1385 30.5168 17.2675 29.8538 16.4355 29.3208C16.0195 29.0478 15.4605 28.7878 14.9665 28.4628C14.9795 29.0608 14.9795 29.6458 14.9795 30.2438C14.9795 31.2708 13.3675 31.2708 13.3675 30.2438C13.3675 27.7348 13.3285 25.2258 13.4195 22.7168C13.4585 21.6898 15.0575 21.6898 15.0185 22.7168C14.9795 23.7178 14.9665 24.7188 14.9665 25.7198C15.3175 25.3428 15.6945 24.9788 16.0065 24.5888C16.6565 23.7828 17.4105 23.0288 18.1515 22.3008C18.8925 21.5728 20.0235 22.7038 19.2955 23.4318C18.5545 24.1598 17.8265 24.8878 17.1635 25.6808C16.7605 26.1748 16.2405 26.6428 15.8245 27.1498C16.2925 27.4748 17.0595 27.8128 17.4105 28.0468C18.0475 28.4498 18.7885 29.0608 19.4905 29.3338ZM25.8923 21.8068C26.9193 21.8068 26.9193 23.4058 25.8923 23.4058C25.1643 23.4058 23.8903 23.1848 23.0713 23.3798C23.0323 24.3288 23.1103 25.3168 23.1363 26.2528C23.1753 27.7088 23.1103 29.1648 23.0973 30.6078C23.0973 31.6478 21.4853 31.6478 21.4983 30.6078C21.5243 28.1248 21.4073 25.6158 21.4983 23.1328C21.5633 21.2088 24.5663 21.8068 25.8923 21.8068Z"/>
</mask>
<path d="M19.4905 29.3338C20.4525 29.6978 20.0365 31.2448 19.0615 30.8808C18.1385 30.5168 17.2675 29.8538 16.4355 29.3208C16.0195 29.0478 15.4605 28.7878 14.9665 28.4628C14.9795 29.0608 14.9795 29.6458 14.9795 30.2438C14.9795 31.2708 13.3675 31.2708 13.3675 30.2438C13.3675 27.7348 13.3285 25.2258 13.4195 22.7168C13.4585 21.6898 15.0575 21.6898 15.0185 22.7168C14.9795 23.7178 14.9665 24.7188 14.9665 25.7198C15.3175 25.3428 15.6945 24.9788 16.0065 24.5888C16.6565 23.7828 17.4105 23.0288 18.1515 22.3008C18.8925 21.5728 20.0235 22.7038 19.2955 23.4318C18.5545 24.1598 17.8265 24.8878 17.1635 25.6808C16.7605 26.1748 16.2405 26.6428 15.8245 27.1498C16.2925 27.4748 17.0595 27.8128 17.4105 28.0468C18.0475 28.4498 18.7885 29.0608 19.4905 29.3338ZM25.8923 21.8068C26.9193 21.8068 26.9193 23.4058 25.8923 23.4058C25.1643 23.4058 23.8903 23.1848 23.0713 23.3798C23.0323 24.3288 23.1103 25.3168 23.1363 26.2528C23.1753 27.7088 23.1103 29.1648 23.0973 30.6078C23.0973 31.6478 21.4853 31.6478 21.4983 30.6078C21.5243 28.1248 21.4073 25.6158 21.4983 23.1328C21.5633 21.2088 24.5663 21.8068 25.8923 21.8068Z" fill="#74A1E4"/>
<path d="M19.4905 29.3338L19.128 30.2659L19.1366 30.2691L19.4905 29.3338ZM19.0615 30.8808L18.6946 31.8111L18.7031 31.8144L18.7117 31.8176L19.0615 30.8808ZM16.4355 29.3208L15.8868 30.1569L15.896 30.1628L16.4355 29.3208ZM14.9665 28.4628L15.5161 27.6274L13.9253 26.5808L13.9667 28.4845L14.9665 28.4628ZM13.4195 22.7168L12.4202 22.6789L12.4201 22.6806L13.4195 22.7168ZM15.0185 22.7168L16.0177 22.7557L16.0177 22.7548L15.0185 22.7168ZM14.9665 25.7198H13.9665V28.2614L15.6984 26.4012L14.9665 25.7198ZM16.0065 24.5888L15.228 23.9611L15.2256 23.9641L16.0065 24.5888ZM18.1515 22.3008L17.4506 21.5875L17.4506 21.5875L18.1515 22.3008ZM19.2955 23.4318L19.9963 24.1452L20.0026 24.1389L19.2955 23.4318ZM17.1635 25.6808L16.3962 25.0393L16.3886 25.0487L17.1635 25.6808ZM15.8245 27.1498L15.0514 26.5155L14.3641 27.3531L15.2541 27.9712L15.8245 27.1498ZM17.4105 28.0468L16.8558 28.8789L16.8657 28.8855L16.8758 28.8919L17.4105 28.0468ZM19.1366 30.2691C19.1336 30.268 19.1147 30.2596 19.092 30.2375C19.0699 30.2161 19.0549 30.1922 19.0462 30.1717C19.0314 30.1369 19.0366 30.1206 19.0377 30.1168C19.0379 30.1161 19.0546 30.0517 19.1495 29.9931C19.2001 29.9618 19.2601 29.9417 19.32 29.9369C19.3788 29.9322 19.412 29.9442 19.4112 29.944L18.7117 31.8176C19.2184 32.0068 19.7537 31.9708 20.2008 31.6945C20.6178 31.4369 20.8612 31.0312 20.967 30.6438C21.1745 29.8842 20.9193 28.8053 19.8444 28.3985L19.1366 30.2691ZM19.4283 29.9505C18.626 29.6341 17.9084 29.0768 16.9749 28.4788L15.896 30.1628C16.6265 30.6308 17.6509 31.3995 18.6946 31.8111L19.4283 29.9505ZM16.9841 28.4848C16.7368 28.3225 16.4545 28.1687 16.213 28.0356C15.9565 27.8942 15.7259 27.7654 15.5161 27.6274L14.4169 29.2982C14.701 29.4852 14.9969 29.6489 15.2474 29.7871C15.513 29.9334 15.7181 30.0462 15.8868 30.1569L16.9841 28.4848ZM13.9667 28.4845C13.9794 29.0699 13.9795 29.6441 13.9795 30.2438H15.9795C15.9795 29.6475 15.9795 29.0517 15.9662 28.4411L13.9667 28.4845ZM13.9795 30.2438C13.9795 30.2389 13.9811 30.208 14.001 30.1645C14.0207 30.1214 14.0497 30.0853 14.0802 30.0594C14.1091 30.0348 14.134 30.0237 14.1477 30.0191C14.1611 30.0145 14.1694 30.0141 14.1735 30.0141C14.1776 30.0141 14.1858 30.0145 14.1992 30.0191C14.2129 30.0237 14.2378 30.0348 14.2668 30.0594C14.2973 30.0853 14.3262 30.1214 14.346 30.1645C14.3659 30.208 14.3675 30.2389 14.3675 30.2438H12.3675C12.3675 30.7882 12.5927 31.2615 12.9719 31.5836C13.3295 31.8874 13.7708 32.0141 14.1735 32.0141C14.5761 32.0141 15.0174 31.8874 15.375 31.5836C15.7542 31.2615 15.9795 30.7882 15.9795 30.2438H13.9795ZM14.3675 30.2438C14.3675 27.714 14.3287 25.238 14.4188 22.7531L12.4201 22.6806C12.3283 25.2137 12.3675 27.7556 12.3675 30.2438H14.3675ZM14.4187 22.7548C14.4186 22.7584 14.4163 22.7846 14.3982 22.8213C14.3804 22.8576 14.3553 22.8875 14.3296 22.9088C14.2836 22.947 14.2522 22.9466 14.2482 22.9466C14.2456 22.9466 14.1946 22.9471 14.1278 22.8879C14.0916 22.8559 14.0597 22.8129 14.0393 22.764C14.019 22.7153 14.0191 22.6821 14.0192 22.6789L16.0177 22.7548C16.0383 22.2132 15.8335 21.7268 15.4534 21.3903C15.0965 21.0744 14.6506 20.9466 14.2482 20.9466C13.4531 20.9466 12.4651 21.4967 12.4202 22.6789L14.4187 22.7548ZM14.0192 22.6779C13.9796 23.6958 13.9665 24.7105 13.9665 25.7198H15.9665C15.9665 24.7271 15.9794 23.7398 16.0177 22.7557L14.0192 22.6779ZM15.6984 26.4012C15.9981 26.0793 16.445 25.6414 16.7873 25.2135L15.2256 23.9641C14.9439 24.3162 14.6368 24.6064 14.2346 25.0384L15.6984 26.4012ZM16.7849 25.2166C17.3943 24.4609 18.11 23.7434 18.8523 23.0141L17.4506 21.5875C16.7109 22.3142 15.9186 23.1048 15.2281 23.9611L16.7849 25.2166ZM18.8523 23.0141C18.8527 23.0138 18.8479 23.0185 18.837 23.0255C18.8261 23.0326 18.8109 23.0407 18.7916 23.0479C18.7511 23.0629 18.7082 23.0681 18.6698 23.0652C18.5997 23.0599 18.5722 23.0323 18.5693 23.0294C18.5666 23.0268 18.5368 22.9975 18.531 22.9227C18.5279 22.8818 18.5333 22.8359 18.5497 22.7923C18.5662 22.7486 18.5862 22.7269 18.5884 22.7247L20.0026 24.1389C20.3852 23.7563 20.5635 23.2649 20.5251 22.7685C20.4888 22.2996 20.2664 21.8966 19.9794 21.6112C19.6922 21.3255 19.2884 21.1062 18.8206 21.0709C18.3265 21.0335 17.836 21.2089 17.4506 21.5875L18.8523 23.0141ZM18.5946 22.7185C17.8534 23.4467 17.0939 24.205 16.3963 25.0394L17.9307 26.3222C18.5591 25.5706 19.2556 24.8729 19.9963 24.1451L18.5946 22.7185ZM16.3886 25.0487C16.2171 25.2589 16.0153 25.4701 15.7774 25.718C15.5501 25.9547 15.2884 26.2267 15.0514 26.5155L16.5975 27.7841C16.7766 27.5659 16.9828 27.3504 17.2203 27.1029C17.4472 26.8665 17.7069 26.5967 17.9383 26.3129L16.3886 25.0487ZM15.2541 27.9712C15.547 28.1746 15.9103 28.3676 16.1966 28.5179C16.5233 28.6893 16.7365 28.7994 16.8558 28.8789L17.9652 27.2148C17.7334 27.0603 17.3877 26.8843 17.1261 26.747C16.8241 26.5885 16.57 26.45 16.3949 26.3284L15.2541 27.9712ZM16.8758 28.8919C17.1879 29.0893 17.4565 29.2919 17.8679 29.5687C18.2318 29.8136 18.6685 30.0871 19.128 30.2658L19.8529 28.4018C19.6104 28.3075 19.3256 28.139 18.9843 27.9094C18.6905 27.7117 18.2701 27.4073 17.9451 27.2017L16.8758 28.8919ZM23.0713 23.3798L22.8396 22.407L22.1032 22.5823L22.0721 23.3387L23.0713 23.3798ZM23.1363 26.2528L24.1359 26.226L24.1359 26.225L23.1363 26.2528ZM23.0973 30.6078L22.0973 30.5988V30.6078H23.0973ZM21.4983 30.6078L22.4982 30.6203L22.4982 30.6183L21.4983 30.6078ZM21.4983 23.1328L22.4976 23.1694L22.4977 23.1666L21.4983 23.1328ZM25.8923 22.8068C25.8885 22.8068 25.8586 22.8055 25.8158 22.786C25.7732 22.7667 25.7369 22.738 25.7104 22.7071C25.6621 22.6507 25.6625 22.6097 25.6625 22.6063C25.6625 22.603 25.6621 22.5619 25.7104 22.5055C25.7369 22.4746 25.7732 22.4459 25.8158 22.4266C25.8586 22.4071 25.8885 22.4058 25.8923 22.4058V24.4058C26.4337 24.4058 26.9064 24.1838 27.2295 23.8064C27.5346 23.4502 27.6625 23.0094 27.6625 22.6063C27.6625 22.2032 27.5346 21.7624 27.2295 21.4062C26.9064 21.0289 26.4337 20.8068 25.8923 20.8068V22.8068ZM25.8923 22.4058C25.5635 22.4058 25.1728 22.3575 24.5761 22.3215C24.0623 22.2905 23.407 22.2719 22.8396 22.407L23.3029 24.3526C23.5546 24.2927 23.9457 24.2871 24.4557 24.3179C24.8828 24.3436 25.493 24.4058 25.8923 24.4058V22.4058ZM22.0721 23.3387C22.0313 24.332 22.1127 25.4168 22.1367 26.2806L24.1359 26.225C24.1079 25.2168 24.0332 24.3257 24.0704 23.4209L22.0721 23.3387ZM22.1366 26.2796C22.1751 27.7147 22.1108 29.1053 22.0973 30.5988L24.0972 30.6168C24.1098 29.2243 24.1755 27.7029 24.1359 26.226L22.1366 26.2796ZM22.0973 30.6078C22.0973 30.608 22.0973 30.6007 22.1 30.5874C22.1028 30.574 22.1079 30.5568 22.1167 30.5373C22.1352 30.4964 22.1628 30.4611 22.193 30.4351C22.2479 30.3878 22.2883 30.3878 22.2929 30.3878C22.2972 30.3878 22.3409 30.3878 22.3993 30.4386C22.4312 30.4664 22.4599 30.5038 22.4788 30.5468C22.4878 30.5673 22.4929 30.5853 22.4956 30.5992C22.4983 30.613 22.4982 30.6205 22.4982 30.6203L20.4983 30.5953C20.4916 31.1385 20.7075 31.6175 21.0859 31.947C21.443 32.2578 21.8872 32.3878 22.2929 32.3878C22.6988 32.3878 23.1414 32.2578 23.4982 31.9505C23.8758 31.6253 24.0973 31.1508 24.0973 30.6078H22.0973ZM22.4982 30.6183C22.5253 28.0336 22.4063 25.6601 22.4976 23.1694L20.4989 23.0962C20.4082 25.5715 20.5233 28.216 20.4983 30.5973L22.4982 30.6183ZM22.4977 23.1666C22.5034 22.9964 22.5478 22.9687 22.5931 22.9375C22.6986 22.8648 22.922 22.7827 23.3203 22.7435C23.7026 22.7059 24.1409 22.7164 24.6001 22.7419C25.019 22.7651 25.5244 22.8068 25.8923 22.8068V20.8068C25.5971 20.8068 25.2299 20.7737 24.7108 20.745C24.232 20.7184 23.6668 20.6997 23.1244 20.7531C22.5982 20.8049 21.9758 20.9341 21.4585 21.2904C20.881 21.6882 20.5256 22.3073 20.4988 23.099L22.4977 23.1666Z" fill="#4E5A84" mask="url(#path-3-outside-2_191_18)"/>
</g>
<defs>
<filter id="filter0_d_191_18" x="0" y="0" width="41.4668" height="46.3076" filterUnits="userSpaceOnUse" color-interpolation-filters="sRGB">
<feFlood flood-opacity="0" result="BackgroundImageFix"/>
<feColorMatrix in="SourceAlpha" type="matrix" values="0 0 0 0 0 0 0 0 0 0 0 0 0 0 0 0 0 0 127 0" result="hardAlpha"/>
<feOffset dy="2"/>
<feGaussianBlur stdDeviation="1"/>
<feComposite in2="hardAlpha" operator="out"/>
<feColorMatrix type="matrix" values="0 0 0 0 0 0 0 0 0 0 0 0 0 0 0 0 0 0 0.25 0"/>
<feBlend mode="normal" in2="BackgroundImageFix" result="effect1_dropShadow_191_18"/>
<feBlend mode="normal" in="SourceGraphic" in2="effect1_dropShadow_191_18" result="shape"/>
</filter>
</defs>
</svg>
