<svg width="42" height="47" viewBox="0 0 42 47" fill="none" xmlns="http://www.w3.org/2000/svg">
<g filter="url(#filter0_d_293_524)">
<mask id="path-1-outside-1_293_524" maskUnits="userSpaceOnUse" x="2" y="0" width="38" height="43" fill="black">
<rect fill="white" x="2" width="38" height="43"/>
<path fill-rule="evenodd" clip-rule="evenodd" d="M13.6717 14.3371C15.7953 13.2782 18.1941 12.6819 20.7333 12.6819C23.2699 12.6819 25.6691 13.2769 27.795 14.3337C27.4117 10.7727 24.3964 8 20.7335 8C17.0695 8 14.0535 10.7745 13.6717 14.3371ZM8.96271 17.9286C8.74583 17.0219 8.63098 16.0757 8.63098 15.1026C8.63098 8.4185 14.0495 3 20.7335 3C27.4176 3 32.8361 8.4185 32.8361 15.1026C32.8361 16.07 32.7226 17.0108 32.5082 17.9126C34.9898 20.6678 36.5 24.2983 36.5 28.2769C36.5 36.8898 29.4226 39.5 20.7333 39.5C12.0441 39.5 5 36.8898 5 28.2769C5 24.306 6.49726 20.6818 8.96271 17.9286Z"/>
</mask>
<path fill-rule="evenodd" clip-rule="evenodd" d="M13.6717 14.3371C15.7953 13.2782 18.1941 12.6819 20.7333 12.6819C23.2699 12.6819 25.6691 13.2769 27.795 14.3337C27.4117 10.7727 24.3964 8 20.7335 8C17.0695 8 14.0535 10.7745 13.6717 14.3371ZM8.96271 17.9286C8.74583 17.0219 8.63098 16.0757 8.63098 15.1026C8.63098 8.4185 14.0495 3 20.7335 3C27.4176 3 32.8361 8.4185 32.8361 15.1026C32.8361 16.07 32.7226 17.0108 32.5082 17.9126C34.9898 20.6678 36.5 24.2983 36.5 28.2769C36.5 36.8898 29.4226 39.5 20.7333 39.5C12.0441 39.5 5 36.8898 5 28.2769C5 24.306 6.49726 20.6818 8.96271 17.9286Z" fill="#A2DCFF"/>
<path d="M13.6717 14.3371L10.6888 14.0175L10.1048 19.4683L15.0106 17.0218L13.6717 14.3371ZM27.795 14.3337L26.4595 17.0201L31.3639 19.4583L30.7778 14.0127L27.795 14.3337ZM8.96271 17.9286L11.1976 19.9299L12.246 18.7591L11.8804 17.2306L8.96271 17.9286ZM32.5082 17.9126L29.5896 17.2187L29.2253 18.7505L30.2791 19.9204L32.5082 17.9126ZM15.0106 17.0218C16.727 16.1659 18.6683 15.6819 20.7333 15.6819V9.68188C17.7198 9.68188 14.8636 10.3904 12.3329 11.6524L15.0106 17.0218ZM20.7333 15.6819C22.7963 15.6819 24.7394 16.1649 26.4595 17.0201L29.1305 11.6474C26.5988 10.3888 23.7435 9.68188 20.7333 9.68188V15.6819ZM30.7778 14.0127C30.2322 8.94434 25.9455 5 20.7335 5V11C22.8473 11 24.5912 12.6011 24.8122 14.6548L30.7778 14.0127ZM20.7335 5C15.5199 5 11.2322 8.94684 10.6888 14.0175L16.6547 14.6568C16.8748 12.6021 18.6191 11 20.7335 11V5ZM5.63098 15.1026C5.63098 16.3125 5.77386 17.493 6.04502 18.6265L11.8804 17.2306C11.7178 16.5509 11.631 15.8389 11.631 15.1026H5.63098ZM20.7335 0C12.3926 0 5.63098 6.76165 5.63098 15.1026H11.631C11.631 10.0754 15.7063 6 20.7335 6V0ZM35.8361 15.1026C35.8361 6.76165 29.0745 0 20.7335 0V6C25.7608 6 29.8361 10.0754 29.8361 15.1026H35.8361ZM35.4268 18.6066C35.6949 17.4791 35.8361 16.3054 35.8361 15.1026H29.8361C29.8361 15.8345 29.7503 16.5426 29.5896 17.2187L35.4268 18.6066ZM30.2791 19.9204C32.2876 22.1502 33.5 25.0737 33.5 28.2769H39.5C39.5 23.523 37.6921 19.1853 34.7373 15.9048L30.2791 19.9204ZM33.5 28.2769C33.5 31.5853 32.2359 33.3926 30.3212 34.5521C28.1615 35.86 24.8764 36.5 20.7333 36.5V42.5C25.2795 42.5 29.8778 41.8349 33.4291 39.6845C37.2254 37.3856 39.5 33.5814 39.5 28.2769H33.5ZM20.7333 36.5C16.5899 36.5 13.3153 35.8598 11.1655 34.5541C9.26098 33.3975 8 31.5914 8 28.2769H2C2 33.5753 4.26105 37.3808 8.05091 39.6824C11.5954 41.8351 16.1875 42.5 20.7333 42.5V36.5ZM8 28.2769C8 25.0758 9.2036 22.1566 11.1976 19.9299L6.72781 15.9273C3.79091 19.207 2 23.5363 2 28.2769H8Z" fill="#38487C" mask="url(#path-1-outside-1_293_524)"/>
<mask id="path-3-outside-2_293_524" maskUnits="userSpaceOnUse" x="12.2617" y="20.1538" width="16" height="13" fill="black">
<rect fill="white" x="12.2617" y="20.1538" width="16" height="13"/>
<path d="M19.491 29.3338C20.453 29.6978 20.037 31.2448 19.062 30.8808C18.139 30.5168 17.268 29.8538 16.436 29.3208C16.02 29.0478 15.461 28.7878 14.967 28.4628C14.98 29.0608 14.98 29.6458 14.98 30.2438C14.98 31.2708 13.368 31.2708 13.368 30.2438C13.368 27.7348 13.329 25.2258 13.42 22.7168C13.459 21.6898 15.058 21.6898 15.019 22.7168C14.98 23.7178 14.967 24.7188 14.967 25.7198C15.318 25.3428 15.695 24.9788 16.007 24.5888C16.657 23.7828 17.411 23.0288 18.152 22.3008C18.893 21.5728 20.024 22.7038 19.296 23.4318C18.555 24.1598 17.827 24.8878 17.164 25.6808C16.761 26.1748 16.241 26.6428 15.825 27.1498C16.293 27.4748 17.06 27.8128 17.411 28.0468C18.048 28.4498 18.789 29.0608 19.491 29.3338ZM25.8928 21.8068C26.9198 21.8068 26.9198 23.4058 25.8928 23.4058C25.1648 23.4058 23.8908 23.1848 23.0718 23.3798C23.0328 24.3288 23.1108 25.3168 23.1368 26.2528C23.1758 27.7088 23.1108 29.1648 23.0978 30.6078C23.0978 31.6478 21.4858 31.6478 21.4988 30.6078C21.5248 28.1248 21.4078 25.6158 21.4988 23.1328C21.5638 21.2088 24.5668 21.8068 25.8928 21.8068Z"/>
</mask>
<path d="M19.491 29.3338C20.453 29.6978 20.037 31.2448 19.062 30.8808C18.139 30.5168 17.268 29.8538 16.436 29.3208C16.02 29.0478 15.461 28.7878 14.967 28.4628C14.98 29.0608 14.98 29.6458 14.98 30.2438C14.98 31.2708 13.368 31.2708 13.368 30.2438C13.368 27.7348 13.329 25.2258 13.42 22.7168C13.459 21.6898 15.058 21.6898 15.019 22.7168C14.98 23.7178 14.967 24.7188 14.967 25.7198C15.318 25.3428 15.695 24.9788 16.007 24.5888C16.657 23.7828 17.411 23.0288 18.152 22.3008C18.893 21.5728 20.024 22.7038 19.296 23.4318C18.555 24.1598 17.827 24.8878 17.164 25.6808C16.761 26.1748 16.241 26.6428 15.825 27.1498C16.293 27.4748 17.06 27.8128 17.411 28.0468C18.048 28.4498 18.789 29.0608 19.491 29.3338ZM25.8928 21.8068C26.9198 21.8068 26.9198 23.4058 25.8928 23.4058C25.1648 23.4058 23.8908 23.1848 23.0718 23.3798C23.0328 24.3288 23.1108 25.3168 23.1368 26.2528C23.1758 27.7088 23.1108 29.1648 23.0978 30.6078C23.0978 31.6478 21.4858 31.6478 21.4988 30.6078C21.5248 28.1248 21.4078 25.6158 21.4988 23.1328C21.5638 21.2088 24.5668 21.8068 25.8928 21.8068Z" fill="#74A1E4"/>
<path d="M19.491 29.3338L19.1285 30.2659L19.1371 30.2691L19.491 29.3338ZM19.062 30.8808L18.6951 31.8111L18.7036 31.8144L18.7122 31.8176L19.062 30.8808ZM16.436 29.3208L15.8873 30.1569L15.8965 30.1628L16.436 29.3208ZM14.967 28.4628L15.5166 27.6274L13.9258 26.5808L13.9672 28.4845L14.967 28.4628ZM13.42 22.7168L12.4207 22.6789L12.4206 22.6806L13.42 22.7168ZM15.019 22.7168L16.0182 22.7557L16.0182 22.7548L15.019 22.7168ZM14.967 25.7198H13.967V28.2614L15.6989 26.4012L14.967 25.7198ZM16.007 24.5888L15.2285 23.9611L15.2261 23.9641L16.007 24.5888ZM18.152 22.3008L17.4511 21.5875L17.4511 21.5875L18.152 22.3008ZM19.296 23.4318L19.9968 24.1452L20.0031 24.1389L19.296 23.4318ZM17.164 25.6808L16.3967 25.0393L16.3891 25.0487L17.164 25.6808ZM15.825 27.1498L15.0519 26.5155L14.3646 27.3531L15.2546 27.9712L15.825 27.1498ZM17.411 28.0468L16.8563 28.8789L16.8662 28.8855L16.8763 28.8919L17.411 28.0468ZM19.1371 30.2691C19.1341 30.268 19.1152 30.2596 19.0924 30.2375C19.0704 30.2161 19.0554 30.1922 19.0467 30.1717C19.0319 30.1369 19.0371 30.1206 19.0382 30.1168C19.0384 30.1161 19.0551 30.0517 19.1499 29.9931C19.2006 29.9618 19.2606 29.9417 19.3205 29.9369C19.3793 29.9322 19.4124 29.9442 19.4117 29.944L18.7122 31.8176C19.2188 32.0068 19.7541 31.9708 20.2013 31.6945C20.6182 31.4369 20.8617 31.0312 20.9675 30.6438C21.1749 29.8842 20.9198 28.8053 19.8448 28.3985L19.1371 30.2691ZM19.4288 29.9505C18.6265 29.6341 17.9089 29.0768 16.9754 28.4788L15.8965 30.1628C16.627 30.6308 17.6514 31.3995 18.6951 31.8111L19.4288 29.9505ZM16.9846 28.4848C16.7373 28.3225 16.455 28.1687 16.2135 28.0356C15.957 27.8942 15.7264 27.7654 15.5166 27.6274L14.4173 29.2982C14.7015 29.4852 14.9974 29.6489 15.2479 29.7871C15.5135 29.9334 15.7186 30.0462 15.8873 30.1569L16.9846 28.4848ZM13.9672 28.4845C13.9799 29.0699 13.98 29.6441 13.98 30.2438H15.98C15.98 29.6475 15.98 29.0517 15.9667 28.4411L13.9672 28.4845ZM13.98 30.2438C13.98 30.2389 13.9816 30.208 14.0014 30.1645C14.0212 30.1214 14.0502 30.0853 14.0807 30.0594C14.1096 30.0348 14.1345 30.0237 14.1482 30.0191C14.1616 30.0145 14.1699 30.0141 14.174 30.0141C14.178 30.0141 14.1863 30.0145 14.1997 30.0191C14.2134 30.0237 14.2383 30.0348 14.2672 30.0594C14.2978 30.0853 14.3267 30.1214 14.3465 30.1645C14.3664 30.208 14.368 30.2389 14.368 30.2438H12.368C12.368 30.7882 12.5932 31.2615 12.9724 31.5836C13.33 31.8874 13.7713 32.0141 14.174 32.0141C14.5766 32.0141 15.0179 31.8874 15.3755 31.5836C15.7547 31.2615 15.98 30.7882 15.98 30.2438H13.98ZM14.368 30.2438C14.368 27.714 14.3292 25.238 14.4193 22.7531L12.4206 22.6806C12.3287 25.2137 12.368 27.7556 12.368 30.2438H14.368ZM14.4192 22.7548C14.4191 22.7584 14.4168 22.7846 14.3987 22.8213C14.3809 22.8576 14.3558 22.8875 14.3301 22.9088C14.2841 22.947 14.2526 22.9466 14.2487 22.9466C14.2461 22.9466 14.1951 22.9471 14.1283 22.8879C14.0921 22.8559 14.0602 22.8129 14.0398 22.764C14.0195 22.7153 14.0196 22.6821 14.0197 22.6789L16.0182 22.7548C16.0388 22.2132 15.834 21.7268 15.4539 21.3903C15.097 21.0744 14.651 20.9466 14.2487 20.9466C13.4536 20.9466 12.4656 21.4967 12.4207 22.6789L14.4192 22.7548ZM14.0197 22.6779C13.9801 23.6958 13.967 24.7105 13.967 25.7198H15.967C15.967 24.7271 15.9799 23.7398 16.0182 22.7557L14.0197 22.6779ZM15.6989 26.4012C15.9986 26.0793 16.4455 25.6414 16.7878 25.2135L15.2261 23.9641C14.9444 24.3162 14.6373 24.6064 14.2351 25.0384L15.6989 26.4012ZM16.7854 25.2166C17.3948 24.4609 18.1105 23.7434 18.8528 23.0141L17.4511 21.5875C16.7114 22.3142 15.9191 23.1048 15.2285 23.9611L16.7854 25.2166ZM18.8528 23.0141C18.8532 23.0138 18.8484 23.0185 18.8375 23.0255C18.8266 23.0326 18.8114 23.0407 18.7921 23.0479C18.7516 23.0629 18.7087 23.0681 18.6703 23.0652C18.6002 23.0599 18.5727 23.0323 18.5698 23.0294C18.5671 23.0268 18.5373 22.9975 18.5315 22.9227C18.5284 22.8818 18.5338 22.8359 18.5502 22.7923C18.5667 22.7486 18.5866 22.7269 18.5889 22.7247L20.0031 24.1389C20.3857 23.7563 20.5639 23.2649 20.5256 22.7685C20.4893 22.2996 20.2669 21.8966 19.9799 21.6112C19.6926 21.3255 19.2889 21.1062 18.8211 21.0709C18.327 21.0335 17.8365 21.2089 17.4511 21.5875L18.8528 23.0141ZM18.5951 22.7185C17.8539 23.4467 17.0944 24.205 16.3968 25.0394L17.9311 26.3222C18.5596 25.5706 19.2561 24.8729 19.9968 24.1451L18.5951 22.7185ZM16.3891 25.0487C16.2176 25.2589 16.0158 25.4701 15.7778 25.718C15.5506 25.9547 15.2889 26.2267 15.0519 26.5155L16.598 27.7841C16.7771 27.5659 16.9833 27.3504 17.2208 27.1029C17.4476 26.8665 17.7073 26.5967 17.9388 26.3129L16.3891 25.0487ZM15.2546 27.9712C15.5474 28.1746 15.9108 28.3676 16.1971 28.5179C16.5238 28.6893 16.737 28.7994 16.8563 28.8789L17.9657 27.2148C17.7339 27.0603 17.3881 26.8843 17.1266 26.747C16.8246 26.5885 16.5705 26.45 16.3954 26.3284L15.2546 27.9712ZM16.8763 28.8919C17.1884 29.0893 17.4569 29.2919 17.8684 29.5687C18.2323 29.8136 18.669 30.0871 19.1285 30.2658L19.8534 28.4018C19.6109 28.3075 19.3261 28.139 18.9848 27.9094C18.691 27.7117 18.2705 27.4073 17.9456 27.2017L16.8763 28.8919ZM23.0718 23.3798L22.8401 22.407L22.1037 22.5823L22.0726 23.3387L23.0718 23.3798ZM23.1368 26.2528L24.1364 26.226L24.1364 26.225L23.1368 26.2528ZM23.0978 30.6078L22.0978 30.5988V30.6078H23.0978ZM21.4988 30.6078L22.4987 30.6203L22.4987 30.6183L21.4988 30.6078ZM21.4988 23.1328L22.4981 23.1694L22.4982 23.1666L21.4988 23.1328ZM25.8928 22.8068C25.889 22.8068 25.8591 22.8055 25.8163 22.786C25.7737 22.7667 25.7374 22.738 25.7109 22.7071C25.6626 22.6507 25.663 22.6097 25.663 22.6063C25.663 22.603 25.6626 22.5619 25.7109 22.5055C25.7374 22.4746 25.7737 22.4459 25.8163 22.4266C25.8591 22.4071 25.889 22.4058 25.8928 22.4058V24.4058C26.4341 24.4058 26.9068 24.1838 27.23 23.8064C27.5351 23.4502 27.663 23.0094 27.663 22.6063C27.663 22.2032 27.5351 21.7624 27.23 21.4062C26.9068 21.0289 26.4341 20.8068 25.8928 20.8068V22.8068ZM25.8928 22.4058C25.564 22.4058 25.1732 22.3575 24.5766 22.3215C24.0628 22.2905 23.4074 22.2719 22.8401 22.407L23.3034 24.3526C23.5551 24.2927 23.9462 24.2871 24.4562 24.3179C24.8833 24.3436 25.4935 24.4058 25.8928 24.4058V22.4058ZM22.0726 23.3387C22.0318 24.332 22.1131 25.4168 22.1371 26.2806L24.1364 26.225C24.1084 25.2168 24.0337 24.3257 24.0709 23.4209L22.0726 23.3387ZM22.1371 26.2796C22.1756 27.7147 22.1112 29.1053 22.0978 30.5988L24.0977 30.6168C24.1103 29.2243 24.176 27.7029 24.1364 26.226L22.1371 26.2796ZM22.0978 30.6078C22.0978 30.608 22.0978 30.6007 22.1005 30.5874C22.1033 30.574 22.1084 30.5568 22.1172 30.5373C22.1357 30.4964 22.1633 30.4611 22.1934 30.4351C22.2484 30.3878 22.2888 30.3878 22.2934 30.3878C22.2977 30.3878 22.3414 30.3878 22.3998 30.4386C22.4317 30.4664 22.4604 30.5038 22.4793 30.5468C22.4882 30.5673 22.4934 30.5853 22.4961 30.5992C22.4988 30.613 22.4987 30.6205 22.4987 30.6203L20.4988 30.5953C20.492 31.1385 20.708 31.6175 21.0864 31.947C21.4434 32.2578 21.8877 32.3878 22.2934 32.3878C22.6993 32.3878 23.1419 32.2578 23.4987 31.9505C23.8763 31.6253 24.0978 31.1508 24.0978 30.6078H22.0978ZM22.4987 30.6183C22.5258 28.0336 22.4068 25.6601 22.4981 23.1694L20.4994 23.0962C20.4087 25.5715 20.5237 28.216 20.4988 30.5973L22.4987 30.6183ZM22.4982 23.1666C22.5039 22.9964 22.5482 22.9687 22.5935 22.9375C22.6991 22.8648 22.9225 22.7827 23.3208 22.7435C23.7031 22.7059 24.1414 22.7164 24.6006 22.7419C25.0195 22.7651 25.5249 22.8068 25.8928 22.8068V20.8068C25.5976 20.8068 25.2304 20.7737 24.7113 20.745C24.2325 20.7184 23.6673 20.6997 23.1249 20.7531C22.5987 20.8049 21.9762 20.9341 21.459 21.2904C20.8815 21.6882 20.5261 22.3073 20.4993 23.099L22.4982 23.1666Z" fill="#4E5A84" mask="url(#path-3-outside-2_293_524)"/>
<mask id="path-5-outside-3_293_524" maskUnits="userSpaceOnUse" x="2" y="0" width="38" height="43" fill="black">
<rect fill="white" x="2" width="38" height="43"/>
<path fill-rule="evenodd" clip-rule="evenodd" d="M13.6717 14.3371C15.7953 13.2782 18.1941 12.6819 20.7333 12.6819C23.2699 12.6819 25.6691 13.2769 27.795 14.3337C27.4117 10.7727 24.3964 8 20.7335 8C17.0695 8 14.0535 10.7745 13.6717 14.3371ZM8.96271 17.9286C8.74583 17.0219 8.63098 16.0757 8.63098 15.1026C8.63098 8.4185 14.0495 3 20.7335 3C27.4176 3 32.8361 8.4185 32.8361 15.1026C32.8361 16.07 32.7226 17.0108 32.5082 17.9126C34.9898 20.6678 36.5 24.2983 36.5 28.2769C36.5 36.8898 29.4226 39.5 20.7333 39.5C12.0441 39.5 5 36.8898 5 28.2769C5 24.306 6.49726 20.6818 8.96271 17.9286Z"/>
</mask>
<path d="M13.6717 14.3371L10.6888 14.0175L10.1048 19.4683L15.0106 17.0218L13.6717 14.3371ZM27.795 14.3337L26.4595 17.0201L31.3639 19.4583L30.7778 14.0127L27.795 14.3337ZM8.96271 17.9286L11.1976 19.9299L12.246 18.7591L11.8804 17.2306L8.96271 17.9286ZM32.5082 17.9126L29.5896 17.2187L29.2253 18.7505L30.2791 19.9204L32.5082 17.9126ZM15.0106 17.0218C16.727 16.1659 18.6683 15.6819 20.7333 15.6819V9.68188C17.7198 9.68188 14.8636 10.3904 12.3329 11.6524L15.0106 17.0218ZM20.7333 15.6819C22.7963 15.6819 24.7394 16.1649 26.4595 17.0201L29.1305 11.6474C26.5988 10.3888 23.7435 9.68188 20.7333 9.68188V15.6819ZM30.7778 14.0127C30.2322 8.94434 25.9455 5 20.7335 5V11C22.8473 11 24.5912 12.6011 24.8122 14.6548L30.7778 14.0127ZM20.7335 5C15.5199 5 11.2322 8.94684 10.6888 14.0175L16.6547 14.6568C16.8748 12.6021 18.6191 11 20.7335 11V5ZM5.63098 15.1026C5.63098 16.3125 5.77386 17.493 6.04502 18.6265L11.8804 17.2306C11.7178 16.5509 11.631 15.8389 11.631 15.1026H5.63098ZM20.7335 0C12.3926 0 5.63098 6.76165 5.63098 15.1026H11.631C11.631 10.0754 15.7063 6 20.7335 6V0ZM35.8361 15.1026C35.8361 6.76165 29.0745 0 20.7335 0V6C25.7608 6 29.8361 10.0754 29.8361 15.1026H35.8361ZM35.4268 18.6066C35.6949 17.4791 35.8361 16.3054 35.8361 15.1026H29.8361C29.8361 15.8345 29.7503 16.5426 29.5896 17.2187L35.4268 18.6066ZM30.2791 19.9204C32.2876 22.1502 33.5 25.0737 33.5 28.2769H39.5C39.5 23.523 37.6921 19.1853 34.7373 15.9048L30.2791 19.9204ZM33.5 28.2769C33.5 31.5853 32.2359 33.3926 30.3212 34.5521C28.1615 35.86 24.8764 36.5 20.7333 36.5V42.5C25.2795 42.5 29.8778 41.8349 33.4291 39.6845C37.2254 37.3856 39.5 33.5814 39.5 28.2769H33.5ZM20.7333 36.5C16.5899 36.5 13.3153 35.8598 11.1655 34.5541C9.26098 33.3975 8 31.5914 8 28.2769H2C2 33.5753 4.26105 37.3808 8.05091 39.6824C11.5954 41.8351 16.1875 42.5 20.7333 42.5V36.5ZM8 28.2769C8 25.0758 9.2036 22.1566 11.1976 19.9299L6.72781 15.9273C3.79091 19.207 2 23.5363 2 28.2769H8Z" fill="#38487C" mask="url(#path-5-outside-3_293_524)"/>
</g>
<path d="M20.5 25L7 19.5L16.5 12L24 11.5L34.5 19.5L20.5 25Z" fill="#94D7FF"/>
<path d="M24 26.5L27.5 14L38 22L38 30L29.5 40.5L24 26.5Z" fill="#51BEFE"/>
<path d="M18 27.5L14 14L8.5 18L4 23L4 31L12.5 41.5L18 27.5Z" fill="#51BEFE"/>
<path d="M21.5 27L4 30.5L8.5 38.5L17 41H25L34 37.5L39.5 30L21.5 27Z" fill="#85D1FF"/>
<path d="M26.5 18L15 18L12 28.8387L16.5 34H25.5L30 28.3226L26.5 18Z" fill="#D4EFFF"/>
<mask id="path-12-outside-4_293_524" maskUnits="userSpaceOnUse" x="2" y="0" width="38" height="43" fill="black">
<rect fill="white" x="2" width="38" height="43"/>
<path fill-rule="evenodd" clip-rule="evenodd" d="M13.6717 14.3371C15.7953 13.2782 18.1941 12.6819 20.7333 12.6819C23.2699 12.6819 25.6691 13.2769 27.795 14.3337C27.4117 10.7727 24.3964 8 20.7335 8C17.0695 8 14.0535 10.7745 13.6717 14.3371ZM8.96271 17.9286C8.74583 17.0219 8.63098 16.0757 8.63098 15.1026C8.63098 8.4185 14.0495 3 20.7335 3C27.4176 3 32.8361 8.4185 32.8361 15.1026C32.8361 16.07 32.7226 17.0108 32.5082 17.9126C34.9898 20.6678 36.5 24.2983 36.5 28.2769C36.5 36.8898 29.4226 39.5 20.7333 39.5C12.0441 39.5 5 36.8898 5 28.2769C5 24.306 6.49726 20.6818 8.96271 17.9286Z"/>
</mask>
<path d="M13.6717 14.3371L10.6888 14.0175L10.1048 19.4683L15.0106 17.0218L13.6717 14.3371ZM27.795 14.3337L26.4595 17.0201L31.3639 19.4583L30.7778 14.0127L27.795 14.3337ZM8.96271 17.9286L11.1976 19.9299L12.246 18.7591L11.8804 17.2306L8.96271 17.9286ZM32.5082 17.9126L29.5896 17.2187L29.2253 18.7505L30.2791 19.9204L32.5082 17.9126ZM15.0106 17.0218C16.727 16.1659 18.6683 15.6819 20.7333 15.6819V9.68188C17.7198 9.68188 14.8636 10.3904 12.3329 11.6524L15.0106 17.0218ZM20.7333 15.6819C22.7963 15.6819 24.7394 16.1649 26.4595 17.0201L29.1305 11.6474C26.5988 10.3888 23.7435 9.68188 20.7333 9.68188V15.6819ZM30.7778 14.0127C30.2322 8.94434 25.9455 5 20.7335 5V11C22.8473 11 24.5912 12.6011 24.8122 14.6548L30.7778 14.0127ZM20.7335 5C15.5199 5 11.2322 8.94684 10.6888 14.0175L16.6547 14.6568C16.8748 12.6021 18.6191 11 20.7335 11V5ZM5.63098 15.1026C5.63098 16.3125 5.77386 17.493 6.04502 18.6265L11.8804 17.2306C11.7178 16.5509 11.631 15.8389 11.631 15.1026H5.63098ZM20.7335 0C12.3926 0 5.63098 6.76165 5.63098 15.1026H11.631C11.631 10.0754 15.7063 6 20.7335 6V0ZM35.8361 15.1026C35.8361 6.76165 29.0745 0 20.7335 0V6C25.7608 6 29.8361 10.0754 29.8361 15.1026H35.8361ZM35.4268 18.6066C35.6949 17.4791 35.8361 16.3054 35.8361 15.1026H29.8361C29.8361 15.8345 29.7503 16.5426 29.5896 17.2187L35.4268 18.6066ZM30.2791 19.9204C32.2876 22.1502 33.5 25.0737 33.5 28.2769H39.5C39.5 23.523 37.6921 19.1853 34.7373 15.9048L30.2791 19.9204ZM33.5 28.2769C33.5 31.5853 32.2359 33.3926 30.3212 34.5521C28.1615 35.86 24.8764 36.5 20.7333 36.5V42.5C25.2795 42.5 29.8778 41.8349 33.4291 39.6845C37.2254 37.3856 39.5 33.5814 39.5 28.2769H33.5ZM20.7333 36.5C16.5899 36.5 13.3153 35.8598 11.1655 34.5541C9.26098 33.3975 8 31.5914 8 28.2769H2C2 33.5753 4.26105 37.3808 8.05091 39.6824C11.5954 41.8351 16.1875 42.5 20.7333 42.5V36.5ZM8 28.2769C8 25.0758 9.2036 22.1566 11.1976 19.9299L6.72781 15.9273C3.79091 19.207 2 23.5363 2 28.2769H8Z" fill="#38487C" mask="url(#path-12-outside-4_293_524)"/>
<mask id="path-14-outside-5_293_524" maskUnits="userSpaceOnUse" x="14" y="20" width="16" height="13" fill="black">
<rect fill="white" x="14" y="20" width="16" height="13"/>
<path d="M21.2292 29.18C22.1912 29.544 21.7752 31.091 20.8002 30.727C19.8772 30.363 19.0062 29.7 18.1742 29.167C17.7582 28.894 17.1992 28.634 16.7052 28.309C16.7182 28.907 16.7182 29.492 16.7182 30.09C16.7182 31.117 15.1062 31.117 15.1062 30.09C15.1062 27.581 15.0672 25.072 15.1582 22.563C15.1972 21.536 16.7962 21.536 16.7572 22.563C16.7182 23.564 16.7052 24.565 16.7052 25.566C17.0562 25.189 17.4332 24.825 17.7452 24.435C18.3952 23.629 19.1492 22.875 19.8902 22.147C20.6312 21.419 21.7622 22.55 21.0342 23.278C20.2932 24.006 19.5652 24.734 18.9022 25.527C18.4992 26.021 17.9792 26.489 17.5632 26.996C18.0312 27.321 18.7982 27.659 19.1492 27.893C19.7862 28.296 20.5272 28.907 21.2292 29.18ZM27.631 21.653C28.658 21.653 28.658 23.252 27.631 23.252C26.903 23.252 25.629 23.031 24.81 23.226C24.771 24.175 24.849 25.163 24.875 26.099C24.914 27.555 24.849 29.011 24.836 30.454C24.836 31.494 23.224 31.494 23.237 30.454C23.263 27.971 23.146 25.462 23.237 22.979C23.302 21.055 26.305 21.653 27.631 21.653Z"/>
</mask>
<path d="M21.2292 29.18C22.1912 29.544 21.7752 31.091 20.8002 30.727C19.8772 30.363 19.0062 29.7 18.1742 29.167C17.7582 28.894 17.1992 28.634 16.7052 28.309C16.7182 28.907 16.7182 29.492 16.7182 30.09C16.7182 31.117 15.1062 31.117 15.1062 30.09C15.1062 27.581 15.0672 25.072 15.1582 22.563C15.1972 21.536 16.7962 21.536 16.7572 22.563C16.7182 23.564 16.7052 24.565 16.7052 25.566C17.0562 25.189 17.4332 24.825 17.7452 24.435C18.3952 23.629 19.1492 22.875 19.8902 22.147C20.6312 21.419 21.7622 22.55 21.0342 23.278C20.2932 24.006 19.5652 24.734 18.9022 25.527C18.4992 26.021 17.9792 26.489 17.5632 26.996C18.0312 27.321 18.7982 27.659 19.1492 27.893C19.7862 28.296 20.5272 28.907 21.2292 29.18ZM27.631 21.653C28.658 21.653 28.658 23.252 27.631 23.252C26.903 23.252 25.629 23.031 24.81 23.226C24.771 24.175 24.849 25.163 24.875 26.099C24.914 27.555 24.849 29.011 24.836 30.454C24.836 31.494 23.224 31.494 23.237 30.454C23.263 27.971 23.146 25.462 23.237 22.979C23.302 21.055 26.305 21.653 27.631 21.653Z" fill="#86CCFF"/>
<path d="M21.2292 29.18L20.8668 30.112L20.8753 30.1153L21.2292 29.18ZM20.8002 30.727L20.4334 31.6573L20.4419 31.6606L20.4505 31.6638L20.8002 30.727ZM18.1742 29.167L17.6255 30.0031L17.6348 30.009L18.1742 29.167ZM16.7052 28.309L17.2549 27.4736L15.6641 26.427L15.7055 28.3307L16.7052 28.309ZM15.1582 22.563L14.159 22.5251L14.1589 22.5268L15.1582 22.563ZM16.7572 22.563L17.7565 22.6019L17.7565 22.6009L16.7572 22.563ZM16.7052 25.566H15.7052V28.1076L17.4371 26.2474L16.7052 25.566ZM17.7452 24.435L16.9668 23.8072L16.9644 23.8103L17.7452 24.435ZM19.8902 22.147L19.1894 21.4337L19.1894 21.4337L19.8902 22.147ZM21.0342 23.278L21.7351 23.9914L21.7413 23.9851L21.0342 23.278ZM18.9022 25.527L18.135 24.8855L18.1274 24.8949L18.9022 25.527ZM17.5632 26.996L16.7902 26.3617L16.1029 27.1993L16.9928 27.8174L17.5632 26.996ZM19.1492 27.893L18.5945 28.7251L18.6045 28.7317L18.6146 28.7381L19.1492 27.893ZM20.8753 30.1153C20.8724 30.1142 20.8535 30.1057 20.8307 30.0837C20.8087 30.0623 20.7937 30.0384 20.785 30.0179C20.7702 29.9831 20.7754 29.9668 20.7764 29.963C20.7766 29.9623 20.7934 29.8979 20.8882 29.8393C20.9389 29.808 20.9988 29.7879 21.0588 29.7831C21.1175 29.7784 21.1507 29.7904 21.15 29.7902L20.4505 31.6638C20.9571 31.853 21.4924 31.817 21.9395 31.5407C22.3565 31.2831 22.6 30.8774 22.7058 30.49C22.9132 29.7304 22.6581 28.6515 21.5831 28.2447L20.8753 30.1153ZM21.1671 29.7967C20.3648 29.4803 19.6472 28.923 18.7137 28.325L17.6348 30.009C18.3653 30.477 19.3897 31.2457 20.4334 31.6573L21.1671 29.7967ZM18.7229 28.331C18.4756 28.1686 18.1932 28.0149 17.9518 27.8818C17.6953 27.7404 17.4647 27.6116 17.2549 27.4736L16.1556 29.1444C16.4398 29.3314 16.7357 29.4951 16.9862 29.6332C17.2517 29.7796 17.4569 29.8924 17.6256 30.003L18.7229 28.331ZM15.7055 28.3307C15.7182 28.9161 15.7182 29.4903 15.7182 30.09H17.7182C17.7182 29.4937 17.7183 28.8979 17.705 28.2873L15.7055 28.3307ZM15.7182 30.09C15.7182 30.0851 15.7198 30.0542 15.7397 30.0107C15.7595 29.9676 15.7884 29.9315 15.819 29.9055C15.8479 29.881 15.8728 29.8699 15.8865 29.8653C15.8999 29.8607 15.9081 29.8603 15.9122 29.8603C15.9163 29.8603 15.9246 29.8607 15.938 29.8653C15.9517 29.8699 15.9766 29.881 16.0055 29.9055C16.036 29.9315 16.065 29.9676 16.0847 30.0107C16.1046 30.0542 16.1062 30.0851 16.1062 30.09H14.1062C14.1062 30.6344 14.3315 31.1077 14.7107 31.4298C15.0683 31.7336 15.5096 31.8603 15.9122 31.8603C16.3149 31.8603 16.7562 31.7336 17.1138 31.4298C17.493 31.1077 17.7182 30.6344 17.7182 30.09H15.7182ZM16.1062 30.09C16.1062 27.5602 16.0675 25.0842 16.1576 22.5992L14.1589 22.5268C14.067 25.0598 14.1062 27.6018 14.1062 30.09H16.1062ZM16.1575 22.6009C16.1574 22.6045 16.1551 22.6308 16.137 22.6675C16.1192 22.7038 16.0941 22.7337 16.0684 22.755C16.0224 22.7932 15.9909 22.7927 15.987 22.7927C15.9844 22.7927 15.9334 22.7933 15.8665 22.7341C15.8303 22.7021 15.7984 22.6591 15.7781 22.6102C15.7578 22.5615 15.7578 22.5283 15.758 22.5251L17.7565 22.6009C17.7771 22.0594 17.5722 21.573 17.1921 21.2365C16.8352 20.9206 16.3893 20.7927 15.987 20.7927C15.1918 20.7927 14.2038 21.3429 14.159 22.5251L16.1575 22.6009ZM15.758 22.5241C15.7183 23.542 15.7052 24.5567 15.7052 25.566H17.7052C17.7052 24.5733 17.7181 23.586 17.7565 22.6019L15.758 22.5241ZM17.4371 26.2474C17.7369 25.9255 18.1838 25.4876 18.5261 25.0597L16.9644 23.8103C16.6827 24.1624 16.3756 24.4525 15.9733 24.8846L17.4371 26.2474ZM18.5237 25.0628C19.1331 24.3071 19.8488 23.5896 20.5911 22.8603L19.1894 21.4337C18.4497 22.1604 17.6574 22.9509 16.9668 23.8072L18.5237 25.0628ZM20.5911 22.8603C20.5915 22.8599 20.5866 22.8647 20.5758 22.8717C20.5649 22.8788 20.5497 22.8869 20.5304 22.8941C20.4899 22.9091 20.447 22.9143 20.4086 22.9114C20.3385 22.9061 20.3109 22.8785 20.308 22.8756C20.3054 22.873 20.2756 22.8437 20.2698 22.7689C20.2666 22.728 20.2721 22.6821 20.2885 22.6385C20.3049 22.5948 20.3249 22.5731 20.3271 22.5709L21.7413 23.9851C22.124 23.6024 22.3022 23.1111 22.2638 22.6147C22.2276 22.1458 22.0052 21.7427 21.7182 21.4574C21.4309 21.1717 21.0272 20.9524 20.5593 20.9171C20.0652 20.8797 19.5748 21.055 19.1894 21.4337L20.5911 22.8603ZM20.3334 22.5647C19.5921 23.2929 18.8326 24.0512 18.135 24.8856L19.6694 26.1684C20.2978 25.4168 20.9943 24.7191 21.7351 23.9913L20.3334 22.5647ZM18.1274 24.8949C17.9559 25.1051 17.7541 25.3163 17.5161 25.5642C17.2889 25.8009 17.0271 26.0729 16.7902 26.3617L18.3363 27.6303C18.5153 27.4121 18.7216 27.1966 18.9591 26.9491C19.1859 26.7127 19.4456 26.4429 19.6771 26.1591L18.1274 24.8949ZM16.9928 27.8174C17.2857 28.0208 17.6491 28.2138 17.9354 28.3641C18.2621 28.5355 18.4753 28.6455 18.5945 28.7251L19.7039 27.0609C19.4722 26.9064 19.1264 26.7305 18.8649 26.5932C18.5629 26.4347 18.3087 26.2962 18.1336 26.1746L16.9928 27.8174ZM18.6146 28.7381C18.9267 28.9355 19.1952 29.1381 19.6066 29.4149C19.9706 29.6598 20.4073 29.9333 20.8668 30.112L21.5917 28.248C21.3492 28.1537 21.0644 27.9852 20.7231 27.7556C20.4292 27.5579 20.0088 27.2535 19.6839 27.0479L18.6146 28.7381ZM24.81 23.226L24.5784 22.2532L23.842 22.4285L23.8109 23.1849L24.81 23.226ZM24.875 26.099L25.8747 26.0722L25.8746 26.0712L24.875 26.099ZM24.836 30.454L23.836 30.445V30.454H24.836ZM23.237 30.454L24.237 30.4665L24.237 30.4645L23.237 30.454ZM23.237 22.979L24.2364 23.0156L24.2365 23.0128L23.237 22.979ZM27.631 22.653C27.6273 22.653 27.5974 22.6517 27.5545 22.6322C27.512 22.6129 27.4757 22.5842 27.4492 22.5533C27.4009 22.4969 27.4013 22.4559 27.4013 22.4525C27.4013 22.4491 27.4009 22.4081 27.4492 22.3517C27.4757 22.3208 27.512 22.2921 27.5545 22.2728C27.5974 22.2533 27.6273 22.252 27.631 22.252V24.252C28.1724 24.252 28.6451 24.0299 28.9683 23.6526C29.2733 23.2964 29.4013 22.8556 29.4013 22.4525C29.4013 22.0494 29.2733 21.6086 28.9683 21.2524C28.6451 20.875 28.1724 20.653 27.631 20.653V22.653ZM27.631 22.252C27.3023 22.252 26.9115 22.2037 26.3149 22.1677C25.8011 22.1367 25.1457 22.1181 24.5784 22.2532L25.0417 24.1988C25.2933 24.1389 25.6845 24.1333 26.1945 24.1641C26.6215 24.1898 27.2318 24.252 27.631 24.252V22.252ZM23.8109 23.1849C23.7701 24.1782 23.8514 25.263 23.8754 26.1268L25.8746 26.0712C25.8466 25.063 25.772 24.1718 25.8092 23.2671L23.8109 23.1849ZM23.8754 26.1258C23.9138 27.5609 23.8495 28.9515 23.8361 30.445L25.836 30.463C25.8485 29.0705 25.9142 27.5491 25.8747 26.0722L23.8754 26.1258ZM23.836 30.454C23.836 30.4542 23.836 30.4469 23.8388 30.4336C23.8416 30.4202 23.8467 30.403 23.8555 30.3835C23.874 30.3426 23.9016 30.3073 23.9317 30.2813C23.9867 30.234 24.0271 30.234 24.0317 30.234C24.036 30.234 24.0797 30.234 24.1381 30.2848C24.1699 30.3126 24.1987 30.35 24.2176 30.393C24.2265 30.4135 24.2316 30.4315 24.2344 30.4454C24.237 30.4592 24.237 30.4667 24.237 30.4665L22.2371 30.4415C22.2303 30.9847 22.4463 31.4637 22.8247 31.7932C23.1817 32.104 23.6259 32.234 24.0317 32.234C24.4376 32.234 24.8802 32.104 25.237 31.7967C25.6145 31.4715 25.836 30.997 25.836 30.454H23.836ZM24.237 30.4645C24.264 27.8798 24.1451 25.5063 24.2364 23.0156L22.2377 22.9424C22.147 25.4177 22.262 28.0622 22.2371 30.4435L24.237 30.4645ZM24.2365 23.0128C24.2422 22.8425 24.2865 22.8149 24.3318 22.7836C24.4374 22.711 24.6607 22.6289 25.0591 22.5897C25.4414 22.5521 25.8796 22.5626 26.3389 22.5881C26.7578 22.6113 27.2632 22.653 27.631 22.653V20.653C27.3359 20.653 26.9687 20.6199 26.4496 20.5912C25.9707 20.5646 25.4056 20.5459 24.8632 20.5993C24.337 20.6511 23.7145 20.7803 23.1973 21.1366C22.6198 21.5344 22.2644 22.1535 22.2376 22.9452L24.2365 23.0128Z" fill="#3D9CD2" mask="url(#path-14-outside-5_293_524)"/>
<path d="M32.0311 14.708C32.1922 14.2727 32.8078 14.2727 32.9689 14.708L33.6271 16.4867C33.779 16.8973 34.1027 17.221 34.5133 17.3729L36.292 18.0311C36.7273 18.1922 36.7273 18.8078 36.292 18.9689L34.5133 19.6271C34.1027 19.779 33.779 20.1027 33.6271 20.5133L32.9689 22.292C32.8078 22.7273 32.1922 22.7273 32.0311 22.292L31.3729 20.5133C31.221 20.1027 30.8973 19.779 30.4867 19.6271L28.708 18.9689C28.2727 18.8078 28.2727 18.1922 28.708 18.0311L30.4867 17.3729C30.8973 17.221 31.221 16.8973 31.3729 16.4867L32.0311 14.708Z" fill="white" stroke="#38487C"/>
<defs>
<filter id="filter0_d_293_524" x="0" y="0" width="41.5" height="46.5" filterUnits="userSpaceOnUse" color-interpolation-filters="sRGB">
<feFlood flood-opacity="0" result="BackgroundImageFix"/>
<feColorMatrix in="SourceAlpha" type="matrix" values="0 0 0 0 0 0 0 0 0 0 0 0 0 0 0 0 0 0 127 0" result="hardAlpha"/>
<feOffset dy="2"/>
<feGaussianBlur stdDeviation="1"/>
<feComposite in2="hardAlpha" operator="out"/>
<feColorMatrix type="matrix" values="0 0 0 0 0 0 0 0 0 0 0 0 0 0 0 0 0 0 0.25 0"/>
<feBlend mode="normal" in2="BackgroundImageFix" result="effect1_dropShadow_293_524"/>
<feBlend mode="normal" in="SourceGraphic" in2="effect1_dropShadow_293_524" result="shape"/>
</filter>
</defs>
</svg>
