<svg width="46" height="51" viewBox="0 0 46 51" fill="none" xmlns="http://www.w3.org/2000/svg">
<g filter="url(#filter0_d_191_17)">
<mask id="path-1-outside-1_191_17" maskUnits="userSpaceOnUse" x="4" y="0" width="38" height="43" fill="black">
<rect fill="white" x="4" width="38" height="43"/>
<path fill-rule="evenodd" clip-rule="evenodd" d="M15.6717 14.3371C17.7953 13.2782 20.1941 12.6819 22.7333 12.6819C25.2728 12.6819 27.6717 13.2782 29.7954 14.3374C29.4137 10.7746 26.3977 8 22.7335 8C19.0695 8 16.0535 10.7745 15.6717 14.3371ZM10.9627 17.9286C8.49726 20.6818 7 24.306 7 28.2769C7 36.8898 14.0441 39.3075 22.7333 39.3075C31.4226 39.3075 38.4667 36.8898 38.4667 28.2769C38.4667 24.3062 36.9695 20.6821 34.5043 17.929C34.7212 17.0222 34.8361 16.0758 34.8361 15.1026C34.8361 8.4185 29.4176 3 22.7335 3C16.0495 3 10.631 8.4185 10.631 15.1026C10.631 16.0757 10.7458 17.0219 10.9627 17.9286Z"/>
</mask>
<path fill-rule="evenodd" clip-rule="evenodd" d="M15.6717 14.3371C17.7953 13.2782 20.1941 12.6819 22.7333 12.6819C25.2728 12.6819 27.6717 13.2782 29.7954 14.3374C29.4137 10.7746 26.3977 8 22.7335 8C19.0695 8 16.0535 10.7745 15.6717 14.3371ZM10.9627 17.9286C8.49726 20.6818 7 24.306 7 28.2769C7 36.8898 14.0441 39.3075 22.7333 39.3075C31.4226 39.3075 38.4667 36.8898 38.4667 28.2769C38.4667 24.3062 36.9695 20.6821 34.5043 17.929C34.7212 17.0222 34.8361 16.0758 34.8361 15.1026C34.8361 8.4185 29.4176 3 22.7335 3C16.0495 3 10.631 8.4185 10.631 15.1026C10.631 16.0757 10.7458 17.0219 10.9627 17.9286Z" fill="#FFDC24"/>
<path d="M15.6717 14.3371L12.6888 14.0175L12.1048 19.4683L17.0106 17.0218L15.6717 14.3371ZM29.7954 14.3374L28.4565 17.022L33.3622 19.4686L32.7783 14.0178L29.7954 14.3374ZM10.9627 17.9286L13.1976 19.9299L14.246 18.7591L13.8804 17.2307L10.9627 17.9286ZM34.5043 17.929L31.5866 17.2309L31.221 18.7594L32.2693 19.9302L34.5043 17.929ZM17.0106 17.0218C18.727 16.1659 20.6683 15.6819 22.7333 15.6819V9.68188C19.7198 9.68188 16.8636 10.3904 14.3329 11.6524L17.0106 17.0218ZM22.7333 15.6819C24.7985 15.6819 26.74 16.1659 28.4565 17.022L31.1343 11.6527C28.6035 10.3905 25.7471 9.68188 22.7333 9.68188V15.6819ZM32.7783 14.0178C32.2351 8.947 27.9473 5 22.7335 5V11C24.848 11 26.5923 12.6022 26.8124 14.6569L32.7783 14.0178ZM22.7335 5C17.5199 5 13.2322 8.94684 12.6888 14.0175L18.6547 14.6568C18.8748 12.6021 20.6191 11 22.7335 11V5ZM10 28.2769C10 25.0758 11.2036 22.1566 13.1976 19.9299L8.72781 15.9273C5.79091 19.207 4 23.5363 4 28.2769H10ZM22.7333 36.3075C18.5609 36.3075 15.2825 35.7076 13.1334 34.4387C11.2513 33.3275 10 31.5827 10 28.2769H4C4 33.584 6.2707 37.3545 10.0829 39.6054C13.6282 41.6986 18.2165 42.3075 22.7333 42.3075V36.3075ZM35.4667 28.2769C35.4667 31.5827 34.2153 33.3275 32.3332 34.4387C30.1842 35.7076 26.9057 36.3075 22.7333 36.3075V42.3075C27.2502 42.3075 31.8384 41.6986 35.3837 39.6054C39.196 37.3545 41.4667 33.584 41.4667 28.2769H35.4667ZM32.2693 19.9302C34.2632 22.1569 35.4667 25.0759 35.4667 28.2769H41.4667C41.4667 23.5365 39.6759 19.2073 36.7393 15.9277L32.2693 19.9302ZM37.422 18.627C37.6932 17.4933 37.8361 16.3126 37.8361 15.1026H31.8361C31.8361 15.839 31.7493 16.5511 31.5866 17.2309L37.422 18.627ZM37.8361 15.1026C37.8361 6.76165 31.0745 0 22.7335 0V6C27.7607 6 31.8361 10.0754 31.8361 15.1026H37.8361ZM22.7335 0C14.3926 0 7.63098 6.76165 7.63098 15.1026H13.631C13.631 10.0754 17.7063 6 22.7335 6V0ZM7.63098 15.1026C7.63098 16.3125 7.77386 17.493 8.04502 18.6265L13.8804 17.2307C13.7178 16.5509 13.631 15.8389 13.631 15.1026H7.63098Z" fill="#8C5828" mask="url(#path-1-outside-1_191_17)"/>
<mask id="path-3-outside-2_191_17" maskUnits="userSpaceOnUse" x="14.2612" y="20.1538" width="16" height="13" fill="black">
<rect fill="white" x="14.2612" y="20.1538" width="16" height="13"/>
<path d="M21.4905 29.3338C22.4525 29.6978 22.0365 31.2448 21.0615 30.8808C20.1385 30.5168 19.2675 29.8538 18.4355 29.3208C18.0195 29.0478 17.4605 28.7878 16.9665 28.4628C16.9795 29.0608 16.9795 29.6458 16.9795 30.2438C16.9795 31.2708 15.3675 31.2708 15.3675 30.2438C15.3675 27.7348 15.3285 25.2258 15.4195 22.7168C15.4585 21.6898 17.0575 21.6898 17.0185 22.7168C16.9795 23.7178 16.9665 24.7188 16.9665 25.7198C17.3175 25.3428 17.6945 24.9788 18.0065 24.5888C18.6565 23.7828 19.4105 23.0288 20.1515 22.3008C20.8925 21.5728 22.0235 22.7038 21.2955 23.4318C20.5545 24.1598 19.8265 24.8878 19.1635 25.6808C18.7605 26.1748 18.2405 26.6428 17.8245 27.1498C18.2925 27.4748 19.0595 27.8128 19.4105 28.0468C20.0475 28.4498 20.7885 29.0608 21.4905 29.3338ZM27.8923 21.8068C28.9193 21.8068 28.9193 23.4058 27.8923 23.4058C27.1643 23.4058 25.8903 23.1848 25.0713 23.3798C25.0323 24.3288 25.1103 25.3168 25.1363 26.2528C25.1753 27.7088 25.1103 29.1648 25.0973 30.6078C25.0973 31.6478 23.4853 31.6478 23.4983 30.6078C23.5243 28.1248 23.4073 25.6158 23.4983 23.1328C23.5633 21.2088 26.5663 21.8068 27.8923 21.8068Z"/>
</mask>
<path d="M21.4905 29.3338C22.4525 29.6978 22.0365 31.2448 21.0615 30.8808C20.1385 30.5168 19.2675 29.8538 18.4355 29.3208C18.0195 29.0478 17.4605 28.7878 16.9665 28.4628C16.9795 29.0608 16.9795 29.6458 16.9795 30.2438C16.9795 31.2708 15.3675 31.2708 15.3675 30.2438C15.3675 27.7348 15.3285 25.2258 15.4195 22.7168C15.4585 21.6898 17.0575 21.6898 17.0185 22.7168C16.9795 23.7178 16.9665 24.7188 16.9665 25.7198C17.3175 25.3428 17.6945 24.9788 18.0065 24.5888C18.6565 23.7828 19.4105 23.0288 20.1515 22.3008C20.8925 21.5728 22.0235 22.7038 21.2955 23.4318C20.5545 24.1598 19.8265 24.8878 19.1635 25.6808C18.7605 26.1748 18.2405 26.6428 17.8245 27.1498C18.2925 27.4748 19.0595 27.8128 19.4105 28.0468C20.0475 28.4498 20.7885 29.0608 21.4905 29.3338ZM27.8923 21.8068C28.9193 21.8068 28.9193 23.4058 27.8923 23.4058C27.1643 23.4058 25.8903 23.1848 25.0713 23.3798C25.0323 24.3288 25.1103 25.3168 25.1363 26.2528C25.1753 27.7088 25.1103 29.1648 25.0973 30.6078C25.0973 31.6478 23.4853 31.6478 23.4983 30.6078C23.5243 28.1248 23.4073 25.6158 23.4983 23.1328C23.5633 21.2088 26.5663 21.8068 27.8923 21.8068Z" fill="#F19710"/>
<path d="M21.4905 29.3338L21.128 30.2659L21.1366 30.2691L21.4905 29.3338ZM21.0615 30.8808L20.6946 31.8111L20.7031 31.8144L20.7117 31.8176L21.0615 30.8808ZM18.4355 29.3208L17.8868 30.1569L17.896 30.1628L18.4355 29.3208ZM16.9665 28.4628L17.5161 27.6274L15.9253 26.5808L15.9667 28.4845L16.9665 28.4628ZM15.4195 22.7168L14.4202 22.6789L14.4201 22.6806L15.4195 22.7168ZM17.0185 22.7168L18.0177 22.7557L18.0177 22.7548L17.0185 22.7168ZM16.9665 25.7198H15.9665V28.2614L17.6984 26.4012L16.9665 25.7198ZM18.0065 24.5888L17.228 23.9611L17.2256 23.9641L18.0065 24.5888ZM20.1515 22.3008L19.4506 21.5875L19.4506 21.5875L20.1515 22.3008ZM21.2955 23.4318L21.9963 24.1452L22.0026 24.1389L21.2955 23.4318ZM19.1635 25.6808L18.3962 25.0393L18.3886 25.0487L19.1635 25.6808ZM17.8245 27.1498L17.0514 26.5155L16.3641 27.3531L17.2541 27.9712L17.8245 27.1498ZM19.4105 28.0468L18.8558 28.8789L18.8657 28.8855L18.8758 28.8919L19.4105 28.0468ZM21.1366 30.2691C21.1336 30.268 21.1147 30.2596 21.092 30.2375C21.0699 30.2161 21.0549 30.1922 21.0462 30.1717C21.0314 30.1369 21.0366 30.1206 21.0377 30.1168C21.0379 30.1161 21.0546 30.0517 21.1495 29.9931C21.2001 29.9618 21.2601 29.9417 21.32 29.9369C21.3788 29.9322 21.412 29.9442 21.4112 29.944L20.7117 31.8176C21.2184 32.0068 21.7537 31.9708 22.2008 31.6945C22.6178 31.4369 22.8612 31.0312 22.967 30.6438C23.1745 29.8842 22.9193 28.8053 21.8444 28.3985L21.1366 30.2691ZM21.4283 29.9505C20.626 29.6341 19.9084 29.0768 18.9749 28.4788L17.896 30.1628C18.6265 30.6308 19.6509 31.3995 20.6946 31.8111L21.4283 29.9505ZM18.9841 28.4848C18.7368 28.3225 18.4545 28.1687 18.213 28.0356C17.9565 27.8942 17.7259 27.7654 17.5161 27.6274L16.4169 29.2982C16.701 29.4852 16.9969 29.6489 17.2474 29.7871C17.513 29.9334 17.7181 30.0462 17.8868 30.1569L18.9841 28.4848ZM15.9667 28.4845C15.9794 29.0699 15.9795 29.6441 15.9795 30.2438H17.9795C17.9795 29.6475 17.9795 29.0517 17.9662 28.4411L15.9667 28.4845ZM15.9795 30.2438C15.9795 30.2389 15.9811 30.208 16.001 30.1645C16.0207 30.1214 16.0497 30.0853 16.0802 30.0594C16.1091 30.0348 16.134 30.0237 16.1477 30.0191C16.1611 30.0145 16.1694 30.0141 16.1735 30.0141C16.1776 30.0141 16.1858 30.0145 16.1992 30.0191C16.2129 30.0237 16.2378 30.0348 16.2668 30.0594C16.2973 30.0853 16.3262 30.1214 16.346 30.1645C16.3659 30.208 16.3675 30.2389 16.3675 30.2438H14.3675C14.3675 30.7882 14.5927 31.2615 14.9719 31.5836C15.3295 31.8874 15.7708 32.0141 16.1735 32.0141C16.5761 32.0141 17.0174 31.8874 17.375 31.5836C17.7542 31.2615 17.9795 30.7882 17.9795 30.2438H15.9795ZM16.3675 30.2438C16.3675 27.714 16.3287 25.238 16.4188 22.7531L14.4201 22.6806C14.3283 25.2137 14.3675 27.7556 14.3675 30.2438H16.3675ZM16.4187 22.7548C16.4186 22.7584 16.4163 22.7846 16.3982 22.8213C16.3804 22.8576 16.3553 22.8875 16.3296 22.9088C16.2836 22.947 16.2522 22.9466 16.2482 22.9466C16.2456 22.9466 16.1946 22.9471 16.1278 22.8879C16.0916 22.8559 16.0597 22.8129 16.0393 22.764C16.019 22.7153 16.0191 22.6821 16.0192 22.6789L18.0177 22.7548C18.0383 22.2132 17.8335 21.7268 17.4534 21.3903C17.0965 21.0744 16.6506 20.9466 16.2482 20.9466C15.4531 20.9466 14.4651 21.4967 14.4202 22.6789L16.4187 22.7548ZM16.0192 22.6779C15.9796 23.6958 15.9665 24.7105 15.9665 25.7198H17.9665C17.9665 24.7271 17.9794 23.7398 18.0177 22.7557L16.0192 22.6779ZM17.6984 26.4012C17.9981 26.0793 18.445 25.6414 18.7873 25.2135L17.2256 23.9641C16.9439 24.3162 16.6368 24.6064 16.2346 25.0384L17.6984 26.4012ZM18.7849 25.2166C19.3943 24.4609 20.11 23.7434 20.8523 23.0141L19.4506 21.5875C18.7109 22.3142 17.9186 23.1048 17.2281 23.9611L18.7849 25.2166ZM20.8523 23.0141C20.8527 23.0138 20.8479 23.0185 20.837 23.0255C20.8261 23.0326 20.8109 23.0407 20.7916 23.0479C20.7511 23.0629 20.7082 23.0681 20.6698 23.0652C20.5997 23.0599 20.5722 23.0323 20.5693 23.0294C20.5666 23.0268 20.5368 22.9975 20.531 22.9227C20.5279 22.8818 20.5333 22.8359 20.5497 22.7923C20.5662 22.7486 20.5862 22.7269 20.5884 22.7247L22.0026 24.1389C22.3852 23.7563 22.5635 23.2649 22.5251 22.7685C22.4888 22.2996 22.2664 21.8966 21.9794 21.6112C21.6922 21.3255 21.2884 21.1062 20.8206 21.0709C20.3265 21.0335 19.836 21.2089 19.4506 21.5875L20.8523 23.0141ZM20.5946 22.7185C19.8534 23.4467 19.0939 24.205 18.3963 25.0394L19.9307 26.3222C20.5591 25.5706 21.2556 24.8729 21.9963 24.1451L20.5946 22.7185ZM18.3886 25.0487C18.2171 25.2589 18.0153 25.4701 17.7774 25.718C17.5501 25.9547 17.2884 26.2267 17.0514 26.5155L18.5975 27.7841C18.7766 27.5659 18.9828 27.3504 19.2203 27.1029C19.4472 26.8665 19.7069 26.5967 19.9383 26.3129L18.3886 25.0487ZM17.2541 27.9712C17.547 28.1746 17.9103 28.3676 18.1966 28.5179C18.5233 28.6893 18.7365 28.7994 18.8558 28.8789L19.9652 27.2148C19.7334 27.0603 19.3877 26.8843 19.1261 26.747C18.8241 26.5885 18.57 26.45 18.3949 26.3284L17.2541 27.9712ZM18.8758 28.8919C19.1879 29.0893 19.4565 29.2919 19.8679 29.5687C20.2318 29.8136 20.6685 30.0871 21.128 30.2658L21.8529 28.4018C21.6104 28.3075 21.3256 28.139 20.9843 27.9094C20.6905 27.7117 20.2701 27.4073 19.9451 27.2017L18.8758 28.8919ZM25.0713 23.3798L24.8396 22.407L24.1032 22.5823L24.0721 23.3387L25.0713 23.3798ZM25.1363 26.2528L26.1359 26.226L26.1359 26.225L25.1363 26.2528ZM25.0973 30.6078L24.0973 30.5988V30.6078H25.0973ZM23.4983 30.6078L24.4982 30.6203L24.4982 30.6183L23.4983 30.6078ZM23.4983 23.1328L24.4976 23.1694L24.4977 23.1666L23.4983 23.1328ZM27.8923 22.8068C27.8885 22.8068 27.8586 22.8055 27.8158 22.786C27.7732 22.7667 27.7369 22.738 27.7104 22.7071C27.6621 22.6507 27.6625 22.6097 27.6625 22.6063C27.6625 22.603 27.6621 22.5619 27.7104 22.5055C27.7369 22.4746 27.7732 22.4459 27.8158 22.4266C27.8586 22.4071 27.8885 22.4058 27.8923 22.4058V24.4058C28.4337 24.4058 28.9064 24.1838 29.2295 23.8064C29.5346 23.4502 29.6625 23.0094 29.6625 22.6063C29.6625 22.2032 29.5346 21.7624 29.2295 21.4062C28.9064 21.0289 28.4337 20.8068 27.8923 20.8068V22.8068ZM27.8923 22.4058C27.5635 22.4058 27.1728 22.3575 26.5761 22.3215C26.0623 22.2905 25.407 22.2719 24.8396 22.407L25.3029 24.3526C25.5546 24.2927 25.9457 24.2871 26.4557 24.3179C26.8828 24.3436 27.493 24.4058 27.8923 24.4058V22.4058ZM24.0721 23.3387C24.0313 24.332 24.1127 25.4168 24.1367 26.2806L26.1359 26.225C26.1079 25.2168 26.0332 24.3257 26.0704 23.4209L24.0721 23.3387ZM24.1366 26.2796C24.1751 27.7147 24.1108 29.1053 24.0973 30.5988L26.0972 30.6168C26.1098 29.2243 26.1755 27.7029 26.1359 26.226L24.1366 26.2796ZM24.0973 30.6078C24.0973 30.608 24.0973 30.6007 24.1 30.5874C24.1028 30.574 24.1079 30.5568 24.1167 30.5373C24.1352 30.4964 24.1628 30.4611 24.193 30.4351C24.2479 30.3878 24.2883 30.3878 24.2929 30.3878C24.2972 30.3878 24.3409 30.3878 24.3993 30.4386C24.4312 30.4664 24.4599 30.5038 24.4788 30.5468C24.4878 30.5673 24.4929 30.5853 24.4956 30.5992C24.4983 30.613 24.4982 30.6205 24.4982 30.6203L22.4983 30.5953C22.4916 31.1385 22.7075 31.6175 23.0859 31.947C23.443 32.2578 23.8872 32.3878 24.2929 32.3878C24.6988 32.3878 25.1414 32.2578 25.4982 31.9505C25.8758 31.6253 26.0973 31.1508 26.0973 30.6078H24.0973ZM24.4982 30.6183C24.5253 28.0336 24.4063 25.6601 24.4976 23.1694L22.4989 23.0962C22.4082 25.5715 22.5233 28.216 22.4983 30.5973L24.4982 30.6183ZM24.4977 23.1666C24.5034 22.9964 24.5478 22.9687 24.5931 22.9375C24.6986 22.8648 24.922 22.7827 25.3203 22.7435C25.7026 22.7059 26.1409 22.7164 26.6001 22.7419C27.019 22.7651 27.5244 22.8068 27.8923 22.8068V20.8068C27.5971 20.8068 27.2299 20.7737 26.7108 20.745C26.232 20.7184 25.6668 20.6997 25.1244 20.7531C24.5982 20.8049 23.9758 20.9341 23.4585 21.2904C22.881 21.6882 22.5256 22.3073 22.4988 23.099L24.4977 23.1666Z" fill="#B35F45" mask="url(#path-3-outside-2_191_17)"/>
</g>
<defs>
<filter id="filter0_d_191_17" x="0" y="0" width="45.4668" height="50.3076" filterUnits="userSpaceOnUse" color-interpolation-filters="sRGB">
<feFlood flood-opacity="0" result="BackgroundImageFix"/>
<feColorMatrix in="SourceAlpha" type="matrix" values="0 0 0 0 0 0 0 0 0 0 0 0 0 0 0 0 0 0 127 0" result="hardAlpha"/>
<feOffset dy="4"/>
<feGaussianBlur stdDeviation="2"/>
<feComposite in2="hardAlpha" operator="out"/>
<feColorMatrix type="matrix" values="0 0 0 0 0 0 0 0 0 0 0 0 0 0 0 0 0 0 0.25 0"/>
<feBlend mode="normal" in2="BackgroundImageFix" result="effect1_dropShadow_191_17"/>
<feBlend mode="normal" in="SourceGraphic" in2="effect1_dropShadow_191_17" result="shape"/>
</filter>
</defs>
</svg>
