<svg width="37" height="37" viewBox="0 0 37 37" fill="none" xmlns="http://www.w3.org/2000/svg">
<g filter="url(#filter0_d_293_480)">
<rect x="3.5" y="1.5" width="30" height="30" rx="8.5" fill="#4DE220" stroke="#2B6F22" stroke-width="3"/>
<path d="M25.5439 13.592C28.4239 13.592 28.3879 18.02 25.5439 18.02H20.6119C20.6119 19.676 20.6479 21.332 20.8279 22.952C21.1519 25.796 16.7239 25.76 16.3999 22.952C16.1839 21.332 16.1839 19.676 16.1839 18.02H10.8919C8.04794 18.02 8.04794 13.592 10.8919 13.592H16.1479C16.1119 12.332 15.9679 11.072 15.6799 9.848C15.0679 7.076 19.3519 5.888 19.9639 8.66C20.3239 10.28 20.4679 11.936 20.5399 13.592H25.5439Z" fill="white"/>
</g>
<defs>
<filter id="filter0_d_293_480" x="0" y="0" width="37" height="37" filterUnits="userSpaceOnUse" color-interpolation-filters="sRGB">
<feFlood flood-opacity="0" result="BackgroundImageFix"/>
<feColorMatrix in="SourceAlpha" type="matrix" values="0 0 0 0 0 0 0 0 0 0 0 0 0 0 0 0 0 0 127 0" result="hardAlpha"/>
<feOffset dy="2"/>
<feGaussianBlur stdDeviation="1"/>
<feComposite in2="hardAlpha" operator="out"/>
<feColorMatrix type="matrix" values="0 0 0 0 0 0 0 0 0 0 0 0 0 0 0 0 0 0 0.25 0"/>
<feBlend mode="normal" in2="BackgroundImageFix" result="effect1_dropShadow_293_480"/>
<feBlend mode="normal" in="SourceGraphic" in2="effect1_dropShadow_293_480" result="shape"/>
</filter>
</defs>
</svg>
