<svg width="64" height="55" viewBox="0 0 64 55" fill="none" xmlns="http://www.w3.org/2000/svg">
<path d="M45.4523 27.0976C46.6261 25.2097 49.3739 25.2097 50.5477 27.0976L52.7165 30.5858C53.1295 31.25 53.7856 31.7267 54.5449 31.9142L58.5325 32.899C60.6908 33.4319 61.5399 36.0452 60.1071 37.745L57.4599 40.8855C56.9558 41.4835 56.7052 42.2548 56.7615 43.035L57.0572 47.1317C57.2172 49.3491 54.9943 50.9641 52.9349 50.1267L49.1301 48.5795C48.4055 48.2849 47.5945 48.2849 46.8699 48.5795L43.0651 50.1267C41.0057 50.9641 38.7828 49.3491 38.9428 47.1317L39.2385 43.035C39.2948 42.2548 39.0442 41.4835 38.5401 40.8855L35.8929 37.745C34.4601 36.0452 35.3092 33.4319 37.4675 32.899L41.4551 31.9142C42.2144 31.7267 42.8705 31.25 43.2835 30.5858L45.4523 27.0976Z" fill="#FFDC24"/>
<path d="M13.4523 27.0976C14.6261 25.2097 17.3739 25.2097 18.5477 27.0976L20.7165 30.5858C21.1295 31.25 21.7856 31.7267 22.5449 31.9142L26.5325 32.899C28.6908 33.4319 29.5399 36.0452 28.1071 37.745L25.4599 40.8855C24.9558 41.4835 24.7052 42.2548 24.7615 43.035L25.0572 47.1317C25.2172 49.3491 22.9943 50.9641 20.9349 50.1267L17.1301 48.5795C16.4055 48.2849 15.5945 48.2849 14.8699 48.5795L11.0651 50.1267C9.00574 50.9641 6.78277 49.3491 6.94282 47.1317L7.23854 43.035C7.29485 42.2548 7.04424 41.4835 6.54012 40.8855L3.89288 37.745C2.46008 36.0452 3.30918 33.4319 5.46745 32.899L9.45506 31.9142C10.2144 31.7267 10.8705 31.25 11.2835 30.5858L13.4523 27.0976Z" fill="#FFDC24"/>
<path d="M29.9523 4.09762C31.1261 2.20968 33.8739 2.20968 35.0477 4.09762L40.0643 12.1661C40.4773 12.8303 41.1334 13.307 41.8928 13.4945L51.1165 15.7723C53.2748 16.3053 54.1239 18.9185 52.6911 20.6183L46.5677 27.8827C46.0636 28.4807 45.813 29.252 45.8693 30.0322L46.5534 39.5084C46.7134 41.7257 44.4904 43.3408 42.4311 42.5034L33.6301 38.9245C32.9055 38.6299 32.0945 38.6299 31.3699 38.9245L22.5689 42.5034C20.5096 43.3408 18.2866 41.7257 18.4466 39.5084L19.1307 30.0322C19.187 29.252 18.9364 28.4807 18.4323 27.8827L12.3089 20.6183C10.8761 18.9185 11.7252 16.3053 13.8835 15.7723L23.1072 13.4945C23.8666 13.307 24.5227 12.8303 24.9357 12.1661L29.9523 4.09762Z" fill="#FFA800"/>
</svg>
