<svg width="64" height="56" viewBox="0 0 64 56" fill="none" xmlns="http://www.w3.org/2000/svg">
<path d="M51.8216 27.3056C50.0608 24.4737 45.9392 24.4737 44.1784 27.3056L42.0097 30.7937C41.8032 31.1259 41.4751 31.3642 41.0954 31.458L37.1078 32.4427C33.8704 33.2422 32.5968 37.1621 34.746 39.7117L37.3932 42.8522C37.6453 43.1513 37.7706 43.5369 37.7424 43.927L37.4467 48.0237C37.2066 51.3497 40.5411 53.7724 43.6301 52.5162L47.435 50.969C47.7973 50.8217 48.2027 50.8217 48.565 50.969L52.3699 52.5162C55.4589 53.7724 58.7934 51.3497 58.5533 48.0237L58.2576 43.927C58.2294 43.5369 58.3547 43.1513 58.6068 42.8522L61.254 39.7117C63.4032 37.1621 62.1296 33.2422 58.8922 32.4427L54.9046 31.458C54.5249 31.3642 54.1968 31.1259 53.9903 30.7937L51.8216 27.3056Z" fill="#FFDC24" stroke="#333432" stroke-width="3"/>
<path d="M19.8216 27.3056C18.0608 24.4737 13.9392 24.4737 12.1784 27.3056L10.0097 30.7937C9.80318 31.1259 9.47513 31.3642 9.09544 31.458L5.10784 32.4427C1.87042 33.2422 0.596774 37.1621 2.74598 39.7117L5.39322 42.8522C5.64528 43.1513 5.77058 43.5369 5.74243 43.927L5.44671 48.0237C5.20663 51.3497 8.54109 53.7724 11.6301 52.5162L15.435 50.969C15.7973 50.8217 16.2027 50.8217 16.565 50.969L20.3699 52.5162C23.4589 53.7724 26.7934 51.3497 26.5533 48.0237L26.2576 43.927C26.2294 43.5369 26.3547 43.1513 26.6068 42.8522L29.254 39.7117C31.4032 37.1621 30.1296 33.2422 26.8922 32.4427L22.9046 31.458C22.5249 31.3642 22.1968 31.1259 21.9903 30.7937L19.8216 27.3056Z" fill="#FFDC24" stroke="#333432" stroke-width="3"/>
<path d="M13.5239 15.3161L13.8835 16.7723L13.5239 15.3161C10.2864 16.1155 9.01279 20.0354 11.162 22.5851L17.2854 29.8494C17.5374 30.1485 17.6627 30.5341 17.6346 30.9242L16.9505 40.4004C16.7105 43.7264 20.0449 46.149 23.134 44.8929L31.935 41.314C32.2973 41.1667 32.7027 41.1667 33.065 41.314L41.866 44.8929C44.9551 46.149 48.2895 43.7264 48.0495 40.4004L47.3654 30.9242C47.3373 30.5341 47.4626 30.1485 47.7146 29.8494L53.838 22.5851C55.9872 20.0354 54.7136 16.1155 51.4761 15.3161L42.2524 13.0383C41.8727 12.9445 41.5446 12.7062 41.3381 12.3741L36.3216 4.3056C34.5608 1.47369 30.4392 1.47369 28.6784 4.3056L23.6619 12.3741C23.4554 12.7062 23.1273 12.9445 22.7476 13.0383L13.5239 15.3161Z" fill="#FFA800" stroke="#333432" stroke-width="3"/>
</svg>
