<svg width="78" height="84" viewBox="0 0 78 84" fill="none" xmlns="http://www.w3.org/2000/svg">
<circle cx="39.111" cy="8.35714" r="8.35714" fill="white"/>
<circle cx="39" cy="44.5714" r="39" fill="white"/>
<path d="M15.5197 21.0915C21.7469 14.8642 30.1929 11.3657 38.9996 11.3657L38.9997 44.5714L15.5197 21.0915Z" fill="#FF9EC3"/>
<path d="M38.9997 11.3657C43.3603 11.3657 47.6782 12.2246 51.7069 13.8934C55.7356 15.5621 59.3962 18.008 62.4797 21.0915L38.9997 44.5714V11.3657Z" fill="#FA4346"/>
<path d="M5.79395 44.5714C5.79395 40.2108 6.65284 35.8929 8.32158 31.8642C9.99033 27.8355 12.4362 24.1749 15.5197 21.0914L38.9997 44.5714L5.79395 44.5714Z" fill="#EA3AFA"/>
<path d="M15.5197 68.0514C12.4362 64.968 9.99032 61.3074 8.32158 57.2787C6.65284 53.25 5.79394 48.9321 5.79395 44.5714L38.9997 44.5714L15.5197 68.0514Z" fill="#2377FF"/>
<path d="M38.9997 77.7772C34.639 77.7772 30.3211 76.9183 26.2924 75.2495C22.2637 73.5808 18.6031 71.1349 15.5197 68.0514L38.9997 44.5714V77.7772Z" fill="#3BC7FF"/>
<path d="M62.4796 68.0514C59.3962 71.1349 55.7356 73.5808 51.7069 75.2495C47.6782 76.9183 43.3603 77.7772 38.9997 77.7772L38.9997 44.5714L62.4796 68.0514Z" fill="#62DC28"/>
<path d="M72.2054 44.5714C72.2054 48.9321 71.3465 53.25 69.6777 57.2787C68.009 61.3074 65.5631 64.968 62.4796 68.0514L38.9997 44.5714H72.2054Z" fill="#FFA800"/>
<path d="M62.4796 21.0914C68.7069 27.3187 72.2054 35.7647 72.2054 44.5714L38.9997 44.5714L62.4796 21.0914Z" fill="#FFDC24"/>
<circle cx="39.1109" cy="44.4601" r="11.4771" fill="white" fill-opacity="0.4"/>
<circle cx="39.1106" cy="44.4598" r="5.68286" fill="#FFF0EA"/>
<circle cx="39.1106" cy="44.4598" r="4.56857" fill="#F27420"/>
<mask id="path-14-inside-1_369_3" fill="white">
<path fill-rule="evenodd" clip-rule="evenodd" d="M43.0232 11.4025C43.7073 10.5319 44.1153 9.43417 44.1153 8.24111C44.1153 5.4128 41.8225 3.12 38.9942 3.12C36.1658 3.12 33.873 5.4128 33.873 8.24111C33.873 9.46322 34.3011 10.5853 35.0155 11.4657C35.064 11.8259 35.1632 12.1884 35.3181 12.5452C36.7262 15.7877 41.3287 15.7762 42.7207 12.5268C42.88 12.1549 42.9789 11.7772 43.0232 11.4025Z"/>
</mask>
<path fill-rule="evenodd" clip-rule="evenodd" d="M43.0232 11.4025C43.7073 10.5319 44.1153 9.43417 44.1153 8.24111C44.1153 5.4128 41.8225 3.12 38.9942 3.12C36.1658 3.12 33.873 5.4128 33.873 8.24111C33.873 9.46322 34.3011 10.5853 35.0155 11.4657C35.064 11.8259 35.1632 12.1884 35.3181 12.5452C36.7262 15.7877 41.3287 15.7762 42.7207 12.5268C42.88 12.1549 42.9789 11.7772 43.0232 11.4025Z" fill="#FFDC25"/>
<path d="M43.0232 11.4025L42.2369 10.7847L42.0632 11.0058L42.0302 11.285L43.0232 11.4025ZM35.0155 11.4657L36.0066 11.3323L35.9691 11.0538L35.792 10.8356L35.0155 11.4657ZM35.3181 12.5452L36.2354 12.1469L36.2354 12.1469L35.3181 12.5452ZM42.7207 12.5268L41.8015 12.1331V12.1331L42.7207 12.5268ZM43.1153 8.24111C43.1153 9.20223 42.7875 10.084 42.2369 10.7847L43.8096 12.0204C44.6271 10.9799 45.1153 9.66611 45.1153 8.24111H43.1153ZM38.9942 4.12C41.2702 4.12 43.1153 5.96508 43.1153 8.24111H45.1153C45.1153 4.86051 42.3748 2.12 38.9942 2.12V4.12ZM34.873 8.24111C34.873 5.96508 36.7181 4.12 38.9942 4.12V2.12C35.6136 2.12 32.873 4.86051 32.873 8.24111H34.873ZM35.792 10.8356C35.2169 10.1269 34.873 9.22551 34.873 8.24111H32.873C32.873 9.70092 33.3853 11.0438 34.239 12.0958L35.792 10.8356ZM36.2354 12.1469C36.1171 11.8746 36.0428 11.6012 36.0066 11.3323L34.0245 11.5991C34.0852 12.0505 34.2092 12.5021 34.4009 12.9435L36.2354 12.1469ZM41.8015 12.1331C40.7548 14.5763 37.2942 14.5849 36.2354 12.1469L34.4009 12.9435C36.1583 16.9904 41.9026 16.9761 43.6399 12.9206L41.8015 12.1331ZM42.0302 11.285C41.9971 11.5647 41.923 11.8494 41.8015 12.1331L43.6399 12.9206C43.837 12.4605 43.9607 11.9897 44.0163 11.5201L42.0302 11.285Z" fill="#D1A100" mask="url(#path-14-inside-1_369_3)"/>
<circle cx="38.9999" cy="8.02293" r="1.5" fill="white" stroke="#D1A100" stroke-width="1.01143"/>
</svg>
