<svg width="91" height="87" viewBox="0 0 91 87" fill="none" xmlns="http://www.w3.org/2000/svg">
<path d="M79.4214 49.1095C75.1231 62.3675 47.0335 73.9154 29.1502 63.4522C2.05837 47.6013 6.75217 32.6739 10.684 28.6652C14.6155 24.6563 22.7427 38.0301 38.6166 47.3176C55.8118 57.3781 92.1014 9.99876 79.4214 49.1095Z" fill="#F3E603" stroke="white" stroke-width="6"/>
<path d="M81.9629 45.7441C81.8894 59.6794 58.6242 79.1839 38.4069 74.6237C7.77911 67.7154 7.72294 52.0695 10.2536 47.0596C12.7839 42.0495 24.5869 52.3354 42.5326 56.3832C61.9721 60.7678 82.1797 4.63522 81.9629 45.7441Z" fill="#F3E603" stroke="white" stroke-width="6"/>
<path d="M81.9602 45.7444C81.8867 59.6797 58.6215 79.1841 38.4041 74.624C7.77638 67.7157 7.72021 52.0698 10.2509 47.0598C13.6276 52.8108 29.9812 64.3785 46.3339 63.0176C66.1943 61.3648 82.177 4.63548 81.9602 45.7444Z" fill="#FFC80F" stroke="white" stroke-width="6"/>
<path d="M87.219 46.0063C92.3994 59.3958 70.8654 83.4314 50.1388 83.4314C18.7395 83.4314 15.2328 68.1823 16.596 62.7387C23.1675 66.4201 34.7513 74.5855 53.1491 74.5855C60.5309 74.5855 71.6371 68.8739 75.6352 59.6152C83.6022 41.1656 75.6352 16.0662 87.219 46.0063Z" fill="#FFC80F" stroke="white" stroke-width="6"/>
<path d="M18.5467 63.0176C19.217 63.0176 20.7398 62.3373 19.7605 61.6567C19.7605 60.9051 21.4102 60.9763 20.7398 60.9763C20.0695 60.9763 17.3328 60.9051 17.3328 61.6567C17.3328 62.4084 17.8763 63.0176 18.5467 63.0176Z" stroke="white" stroke-width="6"/>
<path d="M19.0786 61.6567C19.0786 62.4083 18.7214 63.1963 17.7163 63.6982C16.3535 64.3786 16.3535 63.7693 16.3535 63.0177C16.3535 62.3372 17.6445 60.9763 18.3972 60.9763C19.1498 60.9763 19.0786 61.4016 19.0786 61.6567Z" fill="#927B28" stroke="white" stroke-width="6"/>
<path d="M12.7701 46.6753C12.5788 47.4022 12.0328 48.0737 10.9331 48.304C9.44184 48.6163 10.03 47.4136 10.2213 46.6866C10.3944 46.0285 11.5563 45.6533 12.2842 45.8443C13.0122 46.0353 12.835 46.4286 12.7701 46.6753Z" fill="#927B28" stroke="white" stroke-width="6"/>
<path d="M76.8125 21.0967C76.8125 20.2379 77.5741 19.5784 78.4241 19.7012C79.2236 19.8166 79.7625 20.5789 79.6046 21.3711L77.6878 30.9917C77.6819 31.0213 77.6729 31.0502 77.6612 31.078C77.4731 31.5212 76.8125 31.387 76.8125 30.9057L76.8125 21.0967Z" fill="#F3E603" stroke="white" stroke-width="6"/>
<path d="M77.5939 21.4751C77.6417 20.5994 78.3659 19.9138 79.2429 19.9138C80.3238 19.9137 81.1126 20.9351 80.8395 21.9809L78.3713 31.4318C78.3239 31.6134 78.202 31.7666 78.0357 31.8537C77.578 32.0934 77.0336 31.7435 77.0617 31.2277L77.5939 21.4751Z" fill="#FFC80F" stroke="white" stroke-width="6"/>
<rect x="77.6787" y="19.4685" width="4.08839" height="14.97" rx="2.0442" fill="#F3E603" stroke="white" stroke-width="6"/>
<path d="M79.7236 21.5459C79.7236 20.4711 80.7068 19.6649 81.7608 19.8754C82.5572 20.0344 83.1306 20.7337 83.1306 21.5459V26.9535V36.0533C83.1306 36.7039 82.6878 37.2709 82.0566 37.4285C81.1974 37.643 80.354 37.0257 80.2987 36.1418L79.7236 26.9535V21.5459Z" fill="#FFC80F" stroke="white" stroke-width="6"/>
<rect x="76.3164" y="16.7467" width="6.81399" height="8.16545" rx="2" fill="#FFD030" stroke="white" stroke-width="6"/>
<path d="M79.6662 16.7467C79.7042 16.7467 79.7422 16.7505 79.7794 16.7579L81.5221 17.1059C82.4572 17.2927 83.1304 18.1136 83.1304 19.0672V24.5619C83.1304 25.9144 81.6553 26.7502 80.4951 26.055C80.0111 25.765 79.6976 25.2582 79.6543 24.6956L79.0899 17.3691C79.0641 17.0334 79.3295 16.7467 79.6662 16.7467Z" fill="#FFC80F" stroke="white" stroke-width="6"/>
<path d="M79.4214 49.0823C75.1231 62.3403 47.0335 73.8882 29.1502 63.425C2.05837 47.5741 6.75217 32.6467 10.684 28.638C14.6155 24.6291 22.7427 38.0029 38.6166 47.2903C55.8118 57.3509 92.1014 9.97154 79.4214 49.0823Z" fill="#F3E603"/>
<path d="M76.9982 44.6182C72.6998 57.8762 47.0355 73.888 29.1522 63.4248C2.06037 47.5738 6.75416 32.6465 10.686 28.6378C20.443 40.5354 19.1893 48.1357 36.7964 53.464C59.2824 60.2687 89.6782 5.50746 76.9982 44.6182Z" fill="#FFC80F"/>
<path d="M81.9629 45.7171C81.8894 59.6524 58.6242 79.1569 38.4069 74.5967C7.77911 67.6884 7.72294 52.0425 10.2536 47.0326C12.7839 42.0226 24.5869 52.3085 42.5326 56.3562C61.9721 60.7409 82.1797 4.60824 81.9629 45.7171Z" fill="#F3E603"/>
<path d="M81.9602 45.7173C81.8867 59.6526 58.6215 79.157 38.4041 74.5969C7.77638 67.6886 7.72021 52.0427 10.2509 47.0327C13.6276 52.7837 29.9812 64.3514 46.3339 62.9905C66.1943 61.3377 82.177 4.60838 81.9602 45.7173Z" fill="#FFC80F"/>
<path d="M85.8562 45.2986C88.859 58.9077 70.8654 83.4042 50.1388 83.4042C18.7395 83.4042 15.2328 68.1551 16.596 62.7114C17.9588 57.2678 31.741 64.7042 50.1388 64.7041C70.068 64.7041 76.998 5.15217 85.8562 45.2986Z" fill="#F3E603"/>
<path d="M87.219 45.9793C92.3994 59.3689 70.8654 83.4044 50.1388 83.4044C18.7395 83.4044 15.2328 68.1554 16.596 62.7117C23.1675 66.3931 34.7513 74.5585 53.1491 74.5585C60.5309 74.5585 71.6371 68.8469 75.6352 59.5882C83.6022 41.1386 75.6352 16.0392 87.219 45.9793Z" fill="#FFC80F"/>
<path d="M19.0786 61.6296C19.0786 62.3812 18.7214 63.1692 17.7163 63.6711C16.3535 64.3515 16.3535 63.7422 16.3535 62.9906C16.3535 62.3101 17.6445 60.9492 18.3972 60.9492C19.1498 60.9492 19.0786 61.3745 19.0786 61.6296Z" fill="#927B28"/>
<path d="M13.2636 28.8079C12.9628 29.4968 12.3199 30.0766 11.1978 30.1354C9.67623 30.2151 9.9201 29.6566 10.2209 28.9677C10.4933 28.3439 12.2214 27.6118 12.9113 27.9122C13.6013 28.2126 13.3657 28.574 13.2636 28.8079Z" fill="#927B28"/>
<path d="M12.7701 46.6481C12.5788 47.375 12.0328 48.0465 10.9331 48.2768C9.44184 48.5891 10.03 47.3864 10.2213 46.6594C10.3944 46.0013 11.5563 45.6261 12.2842 45.8171C13.0122 46.0081 12.835 46.4014 12.7701 46.6481Z" fill="#927B28"/>
<path d="M76.8125 21.0697C76.8125 20.2109 77.5741 19.5515 78.4241 19.6742C79.2236 19.7896 79.7625 20.5519 79.6046 21.3441L77.6878 30.9647C77.6819 30.9943 77.6729 31.0233 77.6612 31.051C77.4731 31.4942 76.8125 31.3601 76.8125 30.8787L76.8125 21.0697Z" fill="#F3E603"/>
<path d="M77.5939 21.448C77.6417 20.5723 78.3659 19.8867 79.2429 19.8867C80.3238 19.8866 81.1126 20.908 80.8395 21.9538L78.3713 31.4047C78.3239 31.5863 78.202 31.7395 78.0357 31.8266C77.578 32.0663 77.0336 31.7164 77.0617 31.2006L77.5939 21.448Z" fill="#FFC80F"/>
<rect x="77.6787" y="19.4415" width="4.08839" height="14.97" rx="2.0442" fill="#F3E603"/>
<path d="M79.7236 21.5189C79.7236 20.4441 80.7068 19.6379 81.7608 19.8484C82.5572 20.0075 83.1306 20.7067 83.1306 21.5189V26.9265V36.0263C83.1306 36.6769 82.6878 37.2439 82.0566 37.4015C81.1974 37.616 80.354 36.9987 80.2987 36.1149L79.7236 26.9265V21.5189Z" fill="#FFC80F"/>
<rect x="76.3164" y="16.7197" width="6.81399" height="8.16545" rx="2" fill="#FFD030"/>
<path d="M79.6662 16.7197C79.7042 16.7197 79.7422 16.7235 79.7794 16.7309L81.5221 17.079C82.4572 17.2657 83.1304 18.0867 83.1304 19.0402V24.5349C83.1304 25.8874 81.6553 26.7232 80.4951 26.028C80.0111 25.738 79.6976 25.2313 79.6543 24.6686L79.0899 17.3421C79.0641 17.0064 79.3295 16.7197 79.6662 16.7197Z" fill="#FFC80F"/>
</svg>
