<svg width="72" height="40" viewBox="0 0 72 40" fill="none" xmlns="http://www.w3.org/2000/svg">
<mask id="path-1-outside-1_783_91" maskUnits="userSpaceOnUse" x="0" y="8.57458" width="72" height="31" fill="black">
<rect fill="white" y="8.57458" width="72" height="31"/>
<path fill-rule="evenodd" clip-rule="evenodd" d="M5.42821 14.5746C5.42821 12.9177 6.77135 11.5746 8.42821 11.5746L64.9669 11.5746C66.6238 11.5746 67.9669 12.9177 67.9669 14.5746V15.7372C67.9669 16.8811 67.3267 17.8755 66.385 18.3815C66.5122 18.478 66.6472 18.5764 66.7848 18.6767C67.567 19.2469 68.4337 19.8787 68.4337 20.5661C68.4337 23.2163 66.4522 23.2163 65.5856 23.2163C64.7226 23.2163 63.7818 22.8164 62.9179 22.1876C62.7207 22.4916 62.4965 22.798 62.248 23.1022C62.8024 23.736 62.9013 24.6903 62.9117 25.7011C62.9142 25.7493 62.9155 25.7978 62.9155 25.8466C62.9155 25.8891 62.9146 25.9313 62.9126 25.9733C62.9122 26.1281 62.9106 26.2836 62.9089 26.439C62.907 26.6153 62.9052 26.7915 62.9052 26.966C62.9052 27.1627 62.8595 27.3506 62.7738 27.5314H63.9626C64.4143 27.1301 64.7504 26.8084 64.8837 26.6472C64.8876 26.9563 64.6998 27.2522 64.3918 27.5314H65.214C66.8709 27.5314 68.214 28.8745 68.214 30.5314V32.8566C68.214 34.5135 66.8709 35.8566 65.214 35.8566H8.0808C6.42395 35.8566 5.0808 34.5135 5.0808 32.8566V30.5314C5.0808 29.4813 5.62033 28.5572 6.43732 28.0212C5.88751 27.608 5.5319 26.9504 5.53189 26.2097C5.53188 24.959 6.54578 23.9451 7.79649 23.9451L8.89489 23.9451C8.41717 23.6297 8.03875 23.1702 7.82186 22.6301C7.16416 23.0571 6.4959 23.5392 5.8481 24.0976C4.27514 24.0976 3 22.9811 3 21.1515C3 19.3219 4.27514 17.8387 5.8481 17.8387C5.9661 17.8387 6.10807 17.8321 6.26975 17.8207C5.74872 17.2811 5.42821 16.5466 5.42821 15.7372V14.5746Z"/>
</mask>
<path d="M8.42821 11.5746L8.42821 14.5746L8.42821 11.5746ZM5.42821 14.5746L2.42821 14.5746V14.5746H5.42821ZM64.9669 11.5746V14.5746V11.5746ZM66.385 18.3815L64.9649 15.7389L60.851 17.9497L64.5722 20.7718L66.385 18.3815ZM66.7848 18.6767L68.552 16.2525V16.2525L66.7848 18.6767ZM62.9179 22.1876L64.6835 19.7621L62.1244 17.8993L60.4014 20.5546L62.9179 22.1876ZM62.248 23.1022L59.9248 21.2042L58.3202 23.1683L59.9899 25.0773L62.248 23.1022ZM62.9117 25.7011L59.9118 25.732L59.9125 25.7958L59.9159 25.8596L62.9117 25.7011ZM62.9126 25.9733L59.9158 25.8353L59.9128 25.9006L59.9126 25.966L62.9126 25.9733ZM62.9089 26.439L65.9087 26.4711V26.4711L62.9089 26.439ZM62.7738 27.5314L60.0628 26.2466L58.0323 30.5314H62.7738V27.5314ZM63.9626 27.5314V30.5314H65.1028L65.9552 29.7741L63.9626 27.5314ZM64.8837 26.6472L67.8834 26.6093L67.7801 18.4375L62.5718 24.7353L64.8837 26.6472ZM64.3918 27.5314L62.377 25.3086L56.6148 30.5314H64.3918V27.5314ZM6.43732 28.0212L8.08295 30.5296L11.6526 28.1877L8.2396 25.6229L6.43732 28.0212ZM5.53189 26.2097L2.53189 26.2097V26.2097L5.53189 26.2097ZM7.79649 23.9451L7.7965 20.9451H7.7965L7.79649 23.9451ZM8.89489 23.9451L8.89489 26.9451L18.8857 26.9451L10.5475 21.4413L8.89489 23.9451ZM7.82186 22.6301L10.6057 21.512L9.24665 18.1281L6.18816 20.114L7.82186 22.6301ZM5.8481 24.0976V27.0976H6.96266L7.80685 26.3699L5.8481 24.0976ZM6.26975 17.8207L6.48033 20.8133L12.8935 20.362L8.42798 15.7369L6.26975 17.8207ZM8.42821 8.57459C5.1145 8.57459 2.42821 11.2609 2.42821 14.5746L8.42821 14.5746V14.5746L8.42821 8.57459ZM64.9669 8.57458L8.42821 8.57459L8.42821 14.5746L64.9669 14.5746V8.57458ZM70.9669 14.5746C70.9669 11.2609 68.2806 8.57458 64.9669 8.57458V14.5746V14.5746H70.9669ZM70.9669 15.7372V14.5746H64.9669V15.7372H70.9669ZM67.8051 21.0241C69.6808 20.0161 70.9669 18.0291 70.9669 15.7372H64.9669C64.9669 15.7401 64.9667 15.7412 64.9667 15.741C64.9668 15.7408 64.9669 15.74 64.9672 15.7388C64.9675 15.7377 64.9679 15.7368 64.9682 15.736C64.9685 15.7353 64.9688 15.735 64.9688 15.735C64.9686 15.7351 64.9679 15.7362 64.9665 15.7375C64.9652 15.7388 64.9644 15.7392 64.9649 15.7389L67.8051 21.0241ZM68.552 16.2525C68.4098 16.1488 68.2983 16.0674 68.1978 15.9912L64.5722 20.7718C64.726 20.8885 64.8846 21.004 65.0175 21.1009L68.552 16.2525ZM71.4337 20.5661C71.4337 18.9735 70.4677 17.9009 70.0262 17.4585C69.5132 16.9444 68.8942 16.5019 68.552 16.2525L65.0175 21.1009C65.2207 21.249 65.3778 21.3639 65.5197 21.4754C65.6615 21.5867 65.74 21.6575 65.7789 21.6964C65.8241 21.7418 65.7608 21.6897 65.6766 21.5412C65.5861 21.3817 65.4337 21.0418 65.4337 20.5661H71.4337ZM65.5856 26.2163C65.9304 26.2163 67.4055 26.2681 68.7778 25.5151C69.542 25.0958 70.2576 24.4449 70.756 23.513C71.2407 22.6066 71.4337 21.597 71.4337 20.5661H65.4337C65.4337 20.8602 65.379 20.8445 65.465 20.6835C65.5076 20.604 65.5709 20.5157 65.6554 20.4323C65.7386 20.3504 65.8223 20.2929 65.8914 20.255C66.0169 20.1861 66.0771 20.1908 65.996 20.2017C65.9621 20.2063 65.9133 20.2107 65.8436 20.2133C65.7704 20.216 65.6975 20.2163 65.5856 20.2163V26.2163ZM61.1524 24.6131C62.2969 25.4462 63.8511 26.2163 65.5856 26.2163V20.2163C65.6114 20.2163 65.5379 20.2203 65.3564 20.1484C65.1783 20.0779 64.9472 19.9541 64.6835 19.7621L61.1524 24.6131ZM64.5713 25.0002C64.8847 24.6166 65.1741 24.222 65.4345 23.8207L60.4014 20.5546C60.2673 20.7612 60.1084 20.9794 59.9248 21.2042L64.5713 25.0002ZM65.9115 25.6703C65.9018 24.7286 65.8711 22.6877 64.5062 21.1272L59.9899 25.0773C59.8252 24.889 59.8225 24.7585 59.8506 24.8898C59.8638 24.9513 59.8793 25.0498 59.8912 25.1979C59.9031 25.3456 59.9097 25.5198 59.9118 25.732L65.9115 25.6703ZM65.9155 25.8466C65.9155 25.745 65.9128 25.6436 65.9075 25.5427L59.9159 25.8596C59.9156 25.855 59.9155 25.8507 59.9155 25.8466H65.9155ZM65.9094 26.1114C65.9135 26.0234 65.9155 25.9351 65.9155 25.8466H59.9155C59.9155 25.8431 59.9156 25.8393 59.9158 25.8353L65.9094 26.1114ZM65.9087 26.4711C65.9104 26.3178 65.9122 26.1499 65.9126 25.9807L59.9126 25.966C59.9123 26.1063 59.9108 26.2495 59.9091 26.407L65.9087 26.4711ZM65.9052 26.966C65.9052 26.8102 65.9068 26.6502 65.9087 26.4711L59.9091 26.407C59.9072 26.5805 59.9052 26.7727 59.9052 26.966H65.9052ZM65.4848 28.8161C65.7436 28.2699 65.9052 27.6453 65.9052 26.966H59.9052C59.9052 26.68 59.9753 26.4314 60.0628 26.2466L65.4848 28.8161ZM63.9626 24.5314H62.7738V30.5314H63.9626V24.5314ZM65.9552 29.7741C66.3771 29.3993 66.8906 28.9278 67.1955 28.5591L62.5718 24.7353C62.61 24.6891 62.625 24.6758 62.5935 24.7084C62.5682 24.7344 62.5266 24.7759 62.4658 24.8342C62.3443 24.9508 62.1771 25.1047 61.97 25.2887L65.9552 29.7741ZM61.8839 26.6851C61.8777 26.1959 62.0293 25.8215 62.1551 25.6032C62.2162 25.4971 62.2734 25.4231 62.3103 25.3796C62.3474 25.3358 62.3725 25.3127 62.377 25.3086L66.4065 29.7542C66.9446 29.2665 67.9037 28.2066 67.8834 26.6093L61.8839 26.6851ZM65.214 24.5314H64.3918V30.5314H65.214V24.5314ZM71.214 30.5314C71.214 27.2177 68.5277 24.5314 65.214 24.5314V30.5314L65.214 30.5314H71.214ZM71.214 32.8566V30.5314H65.214V32.8566H71.214ZM65.214 38.8566C68.5277 38.8566 71.214 36.1703 71.214 32.8566H65.214V32.8566V38.8566ZM8.0808 38.8566H65.214V32.8566H8.0808V38.8566ZM2.0808 32.8566C2.0808 36.1704 4.7671 38.8566 8.0808 38.8566V32.8566H8.0808H2.0808ZM2.0808 30.5314V32.8566H8.0808V30.5314H2.0808ZM4.79169 25.5128C3.16536 26.5798 2.0808 28.4282 2.0808 30.5314H8.0808C8.0808 30.53 8.08084 30.529 8.08088 30.5285C8.08092 30.5279 8.08095 30.5276 8.08095 30.5276C8.08096 30.5276 8.08093 30.5277 8.08087 30.5281C8.08081 30.5284 8.08072 30.5288 8.0806 30.5292C8.08004 30.5314 8.07931 30.5329 8.07901 30.5335C8.07882 30.5338 8.07918 30.5331 8.08031 30.5319C8.08146 30.5306 8.08251 30.5299 8.08295 30.5296L4.79169 25.5128ZM2.53189 26.2097C2.53191 27.9336 3.36365 29.4641 4.63504 30.4195L8.2396 25.6229C8.41138 25.752 8.53189 25.9672 8.53189 26.2097L2.53189 26.2097ZM7.7965 20.9451C4.88892 20.9451 2.53186 23.3021 2.53189 26.2097L8.53189 26.2097C8.5319 26.6158 8.20265 26.9451 7.79649 26.9451L7.7965 20.9451ZM8.8949 20.9451L7.7965 20.9451L7.79649 26.9451L8.89489 26.9451L8.8949 20.9451ZM5.038 23.7482C5.48374 24.858 6.2586 25.7995 7.24225 26.4488L10.5475 21.4413C10.5634 21.4518 10.5746 21.4625 10.5827 21.4725C10.591 21.4826 10.5991 21.4955 10.6057 21.512L5.038 23.7482ZM7.80685 26.3699C8.32924 25.9196 8.88334 25.5178 9.45556 25.1463L6.18816 20.114C5.44499 20.5965 4.66256 21.1588 3.88935 21.8253L7.80685 26.3699ZM0 21.1515C0 22.7923 0.588133 24.3239 1.72862 25.4476C2.85419 26.5566 4.34505 27.0976 5.8481 27.0976V21.0976C5.81023 21.0976 5.80787 21.0911 5.83217 21.1006C5.85768 21.1106 5.89849 21.133 5.93975 21.1737C5.98221 21.2155 6.00372 21.2556 6.01101 21.2739C6.01785 21.2911 6 21.2579 6 21.1515H0ZM5.8481 14.8387C2.20882 14.8387 0 18.1065 0 21.1515H6C6 20.9273 6.07885 20.7998 6.10906 20.7647C6.12202 20.7496 6.11187 20.7672 6.06383 20.7909C6.0114 20.8166 5.93465 20.8387 5.8481 20.8387V14.8387ZM6.05917 14.8281C5.93032 14.8372 5.86642 14.8387 5.8481 14.8387V20.8387C6.06578 20.8387 6.28582 20.827 6.48033 20.8133L6.05917 14.8281ZM2.42821 15.7372C2.42821 17.3547 3.07227 18.8281 4.11152 19.9045L8.42798 15.7369L8.42821 15.7372H2.42821ZM2.42821 14.5746V15.7372H8.42821V14.5746H2.42821Z" fill="white" mask="url(#path-1-outside-1_783_91)"/>
<path d="M5.08105 30.5314C5.08105 28.8745 6.4242 27.5314 8.08105 27.5314H65.2143C66.8711 27.5314 68.2143 28.8745 68.2143 30.5314V32.8566C68.2143 34.5135 66.8711 35.8566 65.2143 35.8566H8.08106C6.4242 35.8566 5.08105 34.5135 5.08105 32.8566V30.5314Z" fill="#E27D24"/>
<path d="M28.5602 27.8919C28.5602 32.6489 19.7667 35.1809 14.8893 35.1809C8.59746 35.1809 5.77539 36.6249 5.77539 31.8678C5.77539 27.1108 17.1418 25.905 23.4336 25.905C29.7255 25.905 28.5602 23.1349 28.5602 27.8919Z" fill="#A4C92B"/>
<path d="M59.232 22.8058C59.232 25.192 54.3841 33.5277 49.5363 32.0641C44.6885 30.6006 30.751 31.3642 30.751 28.978C30.751 26.5917 37.1814 22.4174 42.8708 22.4174C48.5603 22.4174 59.232 20.4195 59.232 22.8058Z" fill="#A1CC27"/>
<path d="M36.6256 24.8848C34.3471 26.8725 23.7626 34.1607 21.2459 34.1607C17.8282 36.1484 25.2331 28.1088 25.2331 25.5473C25.2331 22.9859 30.6909 20.2468 33.2077 20.2468C35.7244 20.2468 38.2687 23.4514 36.6256 24.8848Z" fill="#799C2B"/>
<path d="M62.9058 26.966C62.9058 29.1615 57.2096 30.2788 53.7919 32.2665C50.3742 33.5916 48.0957 29.8243 48.0957 27.6288C48.0957 25.4332 57.2096 25.6408 60.0577 22.328C63.2036 22.328 62.9058 24.7704 62.9058 26.966Z" fill="#A1CC27"/>
<path d="M54.5705 27.7167C55.9325 29.3183 49.5322 29.0887 43.3664 29.6003C37.6768 29.5479 34.9132 28.8591 34.9132 28.8591C35.0869 28.1624 39.6608 26.6282 43.8472 27.6717C48.2043 27.4179 54.7442 27.0201 54.5705 27.7167Z" fill="#96862E"/>
<path d="M63.8815 19.1503C64.3315 22.0305 58.7553 28.2115 52.4891 27.5488C43.8102 26.6309 42.4842 25.0863 43.3757 24.8979C42.9257 22.0177 49.0914 20.001 53.1152 19.1504C57.139 18.2998 63.4315 16.2701 63.8815 19.1503Z" fill="#799C2B"/>
<path d="M53.2177 27.6535C50.0121 27.9036 34.6414 30.5394 32.7237 28.6331C29.6854 25.6129 37.277 23.0969 38.2958 21.7083C39.3147 20.3198 41.6951 20.7397 43.6128 22.646C45.5305 24.5523 54.2366 26.2649 53.2177 27.6535Z" fill="#799C2B"/>
<path d="M36.8069 29.6926C35.6045 29.4152 28.7298 29.2692 28.2627 28.3674C27.5227 26.9388 30.9175 26.9959 31.4603 26.6155C32.003 26.2351 32.8215 26.6578 33.2886 27.5596C33.7558 28.4613 37.3496 29.3122 36.8069 29.6926Z" fill="#799C2B"/>
<path d="M5.53228 26.2096C5.53227 24.9589 6.54617 23.945 7.79688 23.945L33.8902 23.9451C35.1409 23.9451 36.1548 24.959 36.1548 26.2097C36.1547 27.4604 35.1409 28.4742 33.8902 28.4742L7.79688 28.4742C6.54619 28.4742 5.5323 27.4603 5.53228 26.2096Z" fill="#EFA703"/>
<path d="M7.62005 21.5362C7.64329 20.0898 8.77091 18.9401 10.1969 18.909L33.0131 18.4112C34.8226 18.3717 36.2684 20.0065 36.028 21.8202C35.8397 23.2411 34.6614 24.2878 33.2429 24.2943L10.4113 24.3993C8.86647 24.4064 7.5949 23.1021 7.62005 21.5362Z" fill="#E51A1D"/>
<path d="M34.6784 25.8038C34.7019 24.3237 35.9083 23.1362 37.3886 23.1362L60.2051 23.1362C61.702 23.1362 62.9155 24.3497 62.9155 25.8467C62.9155 27.3436 61.702 28.5571 60.2051 28.5571L37.3885 28.5571C35.8748 28.5571 34.6545 27.3173 34.6784 25.8038Z" fill="#E51A1D"/>
<path d="M63.0141 19.5535C62.4948 22.0432 63.4425 25.2401 47.3106 25.1751C36.1798 26.9355 33.5917 21.2821 34.4278 17.2733C35.5109 14.6608 42.3129 14.9355 49.1912 16.1591C56.0695 17.3827 63.5334 17.0638 63.0141 19.5535Z" fill="#F37366"/>
<path d="M13.2534 18.5013C13.2534 20.3309 9.26601 21.1514 5.84829 24.0975C4.27533 24.0975 3.00019 22.981 3.00019 21.1514C3.00019 19.3218 4.27533 17.8386 5.84829 17.8386C7.42126 17.8386 13.2534 16.6716 13.2534 18.5013Z" fill="#A4C92B"/>
<path d="M22.2717 18.2193C22.2717 19.3171 21.0561 22.1947 18.854 22.1947C16.6518 22.1947 12.0186 20.6423 12.0186 19.5445C12.0186 18.4467 13.8037 17.5568 16.0059 17.5568C18.208 17.5568 22.2717 17.1216 22.2717 18.2193Z" fill="#849312"/>
<path d="M33.3733 17.5256C33.3733 18.6234 32.1577 21.501 29.9556 21.501C27.7534 21.501 23.1201 19.9485 23.1201 18.8508C23.1201 17.753 24.9053 16.8631 27.1075 16.8631C29.3096 16.8631 33.3733 16.4278 33.3733 17.5256Z" fill="#849312"/>
<path d="M50.4175 16.5982C50.4175 18.0619 47.5527 22.5614 44.7213 22.5614C41.89 22.5614 35.6074 20.0497 35.6074 18.586C35.6074 17.1223 39.0419 17.2609 41.8732 17.2609C44.7046 17.2609 50.4175 15.1345 50.4175 16.5982Z" fill="#838F07"/>
<path d="M60.8238 15.9043C60.8238 17.368 57.9589 21.8676 55.1276 21.8676C52.2963 21.8676 46.0137 19.3559 46.0137 17.8922C46.0137 16.4285 49.4482 16.567 52.2795 16.567C55.1108 16.567 60.8238 14.4406 60.8238 15.9043Z" fill="#838F07"/>
<path d="M65.5858 17.2532C65.2124 18.122 68.4339 19.2409 68.4339 20.566C68.4339 23.2163 66.4525 23.2163 65.5858 23.2163C63.0691 23.2163 59.8896 19.8147 59.8896 17.2532C59.8896 14.6917 61.9299 12.6152 64.4466 12.6152C66.9633 12.6152 66.1555 14.6029 65.5858 17.2532Z" fill="#A1CC27"/>
<path d="M5.42834 14.5745C5.42834 12.9177 6.77149 11.5745 8.42834 11.5745L64.967 11.5745C66.6239 11.5745 67.967 12.9177 67.967 14.5745L67.967 15.7371C67.967 17.394 66.6239 18.7371 64.967 18.7371L8.42834 18.7371C6.77149 18.7371 5.42834 17.394 5.42834 15.7371L5.42834 14.5745Z" fill="#E36E0E"/>
</svg>
