<svg width="88" height="81" viewBox="0 0 88 81" fill="none" xmlns="http://www.w3.org/2000/svg">
<path d="M15.3995 4.30688C16.4587 3.03282 18.3502 2.85867 19.6243 3.91789L70.2818 46.0334C71.5559 47.0926 71.7301 48.9841 70.6708 50.2582L59.1895 64.0682C58.1303 65.3423 56.2388 65.5164 54.9647 64.4572L4.30717 22.3417C3.03311 21.2824 2.85895 19.391 3.91817 18.1169L15.3995 4.30688Z" fill="#BF580D" stroke="white" stroke-width="6"/>
<path d="M33.4155 15.0779C34.1183 14.2257 35.3788 14.1046 36.2309 14.8074L78.3482 49.5425C78.7221 49.8509 79.1952 50.013 79.6797 49.9987L82.7808 49.9072C84.4987 49.8566 85.4762 51.853 84.3827 53.1789L64.6363 77.1219C63.5775 78.4058 61.5053 77.9104 61.1417 76.2865L60.464 73.2603C60.3669 72.8265 60.1279 72.4373 59.7849 72.1544L17.6169 37.3775C16.7647 36.6747 16.6436 35.4141 17.3464 34.562L33.4155 15.0779Z" fill="#7C0087" stroke="white" stroke-width="6"/>
<path d="M10.7405 18.2128C9.11924 19.8662 9.94706 22.7318 9.00225 21.8054C8.05745 20.8789 8.52006 18.668 10.1413 17.0146C11.7626 15.3612 14.5867 14.8906 15.5315 15.8171C19.1849 14.6183 12.3618 16.5594 10.7405 18.2128Z" fill="#9B4507" stroke="white" stroke-width="6"/>
<path d="M16.7307 12.2229C15.1095 13.8763 15.9373 16.7419 14.9925 15.8155C14.0477 14.889 14.5103 12.6782 16.1316 11.0248C17.7529 9.37135 20.577 8.90074 21.5218 9.82718C25.1751 8.6284 18.352 10.5695 16.7307 12.2229Z" fill="#9B4507" stroke="white" stroke-width="6"/>
<path d="M21.6761 22.5435C20.5407 23.9508 21.1204 26.3898 20.4587 25.6013C19.797 24.8127 20.121 22.931 21.2565 21.5237C22.392 20.1165 24.3699 19.7159 25.0316 20.5044C27.5902 19.4841 22.8116 21.1362 21.6761 22.5435Z" fill="#9B4507" stroke="white" stroke-width="6"/>
<path d="M25.8715 17.4454C24.736 18.8526 25.3157 21.2916 24.654 20.5031C23.9923 19.7146 24.3163 17.8328 25.4518 16.4256C26.5873 15.0183 28.5652 14.6178 29.2269 15.4063C31.7856 14.386 27.0069 16.0381 25.8715 17.4454Z" fill="#9B4507" stroke="white" stroke-width="6"/>
<path d="M13.6771 23.4018C12.5416 24.6714 13.1214 26.8718 12.4597 26.1604C11.798 25.449 12.122 23.7514 13.2575 22.4817C14.393 21.2121 16.3709 20.8508 17.0326 21.5622C19.5912 20.6416 14.8126 22.1322 13.6771 23.4018Z" fill="#9B4507" stroke="white" stroke-width="6"/>
<path d="M17.8705 18.8023C16.735 20.0719 17.3148 22.2723 16.6531 21.5609C15.9914 20.8495 16.3154 19.1519 17.4508 17.8823C18.5863 16.6126 20.5642 16.2513 21.2259 16.9627C23.7846 16.0422 19.006 17.5327 17.8705 18.8023Z" fill="#9B4507" stroke="white" stroke-width="6"/>
<path d="M17.8705 18.8023C16.735 20.0719 17.3148 22.2723 16.6531 21.5609C15.9914 20.8495 16.3154 19.1519 17.4508 17.8823C18.5863 16.6126 20.5642 16.2513 21.2259 16.9627C23.7846 16.0422 19.006 17.5327 17.8705 18.8023Z" fill="#9B4507" stroke="white" stroke-width="6"/>
<path d="M22.0629 14.0105C20.9274 15.2801 21.5071 17.4806 20.8454 16.7692C20.1837 16.0578 20.5077 14.3601 21.6432 13.0905C22.7787 11.8209 24.7566 11.4595 25.4183 12.1709C27.977 11.2504 23.1983 12.7409 22.0629 14.0105Z" fill="#9B4507" stroke="white" stroke-width="6"/>
<path d="M15.3995 4.30688C16.4587 3.03282 18.3502 2.85867 19.6243 3.91789L70.2818 46.0334C71.5559 47.0926 71.7301 48.9841 70.6708 50.2582L59.1895 64.0682C58.1303 65.3423 56.2388 65.5164 54.9647 64.4572L4.30717 22.3417C3.03311 21.2824 2.85895 19.391 3.91817 18.1169L15.3995 4.30688Z" fill="#BF580D"/>
<path d="M33.4155 15.0779C34.1183 14.2257 35.3788 14.1046 36.2309 14.8074L78.3482 49.5425C78.7221 49.8509 79.1952 50.013 79.6797 49.9987L82.7808 49.9072C84.4987 49.8566 85.4762 51.853 84.3827 53.1789L64.6363 77.1219C63.5775 78.4058 61.5053 77.9104 61.1417 76.2865L60.464 73.2603C60.3669 72.8265 60.1279 72.4373 59.7849 72.1544L17.6169 37.3775C16.7647 36.6747 16.6436 35.4141 17.3464 34.562L33.4155 15.0779Z" fill="#7C0087"/>
<path d="M10.7405 18.2128C9.11924 19.8662 9.94706 22.7318 9.00225 21.8054C8.05745 20.8789 8.52006 18.668 10.1413 17.0146C11.7626 15.3612 14.5867 14.8906 15.5315 15.8171C19.1849 14.6183 12.3618 16.5594 10.7405 18.2128Z" fill="#9B4507"/>
<path d="M16.7307 12.2229C15.1095 13.8763 15.9373 16.7419 14.9925 15.8155C14.0477 14.889 14.5103 12.6782 16.1316 11.0248C17.7529 9.37135 20.577 8.90074 21.5218 9.82718C25.1751 8.6284 18.352 10.5695 16.7307 12.2229Z" fill="#9B4507"/>
<path d="M21.6761 22.5435C20.5407 23.9508 21.1204 26.3898 20.4587 25.6013C19.797 24.8127 20.121 22.931 21.2565 21.5237C22.392 20.1165 24.3699 19.7159 25.0316 20.5044C27.5902 19.4841 22.8116 21.1362 21.6761 22.5435Z" fill="#9B4507"/>
<path d="M25.8715 17.4454C24.736 18.8526 25.3157 21.2916 24.654 20.5031C23.9923 19.7146 24.3163 17.8328 25.4518 16.4256C26.5873 15.0183 28.5652 14.6178 29.2269 15.4063C31.7856 14.386 27.0069 16.0381 25.8715 17.4454Z" fill="#9B4507"/>
<path d="M13.6771 23.4018C12.5416 24.6714 13.1214 26.8718 12.4597 26.1604C11.798 25.449 12.122 23.7514 13.2575 22.4817C14.393 21.2121 16.3709 20.8508 17.0326 21.5622C19.5912 20.6416 14.8126 22.1322 13.6771 23.4018Z" fill="#9B4507"/>
<path d="M17.8705 18.8023C16.735 20.0719 17.3148 22.2723 16.6531 21.5609C15.9914 20.8495 16.3154 19.1519 17.4508 17.8823C18.5863 16.6126 20.5642 16.2513 21.2259 16.9627C23.7846 16.0422 19.006 17.5327 17.8705 18.8023Z" fill="#9B4507"/>
<path d="M17.8705 18.8023C16.735 20.0719 17.3148 22.2723 16.6531 21.5609C15.9914 20.8495 16.3154 19.1519 17.4508 17.8823C18.5863 16.6126 20.5642 16.2513 21.2259 16.9627C23.7846 16.0422 19.006 17.5327 17.8705 18.8023Z" fill="#9B4507"/>
<path d="M22.0629 14.0105C20.9274 15.2801 21.5071 17.4806 20.8454 16.7692C20.1837 16.0578 20.5077 14.3601 21.6432 13.0905C22.7787 11.8209 24.7566 11.4595 25.4183 12.1709C27.977 11.2504 23.1983 12.7409 22.0629 14.0105Z" fill="#9B4507"/>
</svg>
