<svg width="51" height="96" viewBox="0 0 51 96" fill="none" xmlns="http://www.w3.org/2000/svg">
<path fill-rule="evenodd" clip-rule="evenodd" d="M46.1706 28.4473C46.1751 28.3976 46.1773 28.3477 46.1773 28.2977C46.1773 25.1095 36.9606 22.525 25.5911 22.525C14.2217 22.525 5.00488 25.1095 5.00488 28.2977C5.00488 28.3477 5.00715 28.3976 5.01166 28.4473L5.00488 28.4482L7.30902 82L44.051 82L46.1773 28.4482L46.1706 28.4473Z" fill="#A834B3"/>
<path d="M46.1706 28.4473L42.1869 28.0861L41.8403 31.9082L45.6448 32.4126L46.1706 28.4473ZM5.01166 28.4473L5.58278 32.4063L9.33795 31.8646L8.99531 28.086L5.01166 28.4473ZM5.00488 28.4482L4.43376 24.4892L0.853065 25.0058L1.00858 28.6202L5.00488 28.4482ZM7.30902 82L3.31271 82.1719L3.47742 86L7.30902 86L7.30902 82ZM44.051 82L44.051 86L47.8954 86L48.0479 82.1587L44.051 82ZM46.1773 28.4482L50.1742 28.6069L50.3189 24.9624L46.7031 24.4829L46.1773 28.4482ZM42.1773 28.2977C42.1773 28.2266 42.1806 28.1559 42.1869 28.0861L50.1542 28.8086C50.1696 28.6393 50.1773 28.4689 50.1773 28.2977L42.1773 28.2977ZM25.5911 26.525C31.0179 26.525 35.784 27.1464 39.0678 28.0672C40.7375 28.5355 41.7984 29.0194 42.3493 29.3846C43.055 29.8524 42.1773 29.566 42.1773 28.2977L50.1773 28.2977C50.1773 25.4353 48.1476 23.6303 46.7698 22.7169C45.2373 21.7008 43.2834 20.9408 41.2278 20.3644C37.0608 19.1959 31.5338 18.525 25.5911 18.525L25.5911 26.525ZM9.00488 28.2977C9.00488 29.566 8.12724 29.8524 8.83293 29.3846C9.38378 29.0194 10.4447 28.5355 12.1145 28.0672C15.3982 27.1464 20.1643 26.525 25.5911 26.525L25.5911 18.525C19.6484 18.525 14.1214 19.1959 9.95445 20.3644C7.89878 20.9408 5.94496 21.7008 4.41238 22.7169C3.03462 23.6303 1.00488 25.4353 1.00488 28.2977L9.00488 28.2977ZM8.99531 28.086C9.00165 28.156 9.00488 28.2266 9.00488 28.2977L1.00488 28.2977C1.00488 28.4688 1.01265 28.6392 1.028 28.8085L8.99531 28.086ZM5.57601 32.4072L5.58278 32.4063L4.44053 24.4882L4.43376 24.4892L5.57601 32.4072ZM11.3053 81.828L9.00119 28.2763L1.00858 28.6202L3.31271 82.1719L11.3053 81.828ZM44.051 78L7.30902 78L7.30902 86L44.051 86L44.051 78ZM42.1805 28.2895L40.0542 81.8413L48.0479 82.1587L50.1742 28.6069L42.1805 28.2895ZM45.6448 32.4126L45.6516 32.4135L46.7031 24.4829L46.6963 24.482L45.6448 32.4126Z" fill="white"/>
<path d="M44.6188 24.2703C44.582 26.418 36.0967 27.1055 25.945 27.1055C15.7934 27.1055 7.30811 25.0994 7.30811 24.2703C6.70716 23.6685 9.68877 22.9567 14.5224 22.9811C19.7742 23.0072 20.3662 22.9812 24.7427 22.9811C29.9944 22.9811 31.7144 22.9811 34.3617 22.9811C39.6135 22.9811 44.6188 23.7144 44.6188 24.2703Z" fill="#FFD845" stroke="white" stroke-width="8"/>
<path d="M46.3176 24.0263C46.3176 27.2158 36.9971 29.8013 25.4996 29.8013C14.0022 29.8013 4.68164 27.2158 4.68164 24.0263C4.68164 20.8369 14.0022 18.2513 25.4996 18.2513C36.9971 18.2513 46.3176 20.8369 46.3176 24.0263Z" fill="#D954E4" stroke="white" stroke-width="8"/>
<path d="M45.468 25.4435C45.7484 25.7755 45.2136 26.1271 43.9009 26.7109C38.2979 29.2028 35.8084 28.7043 35.8082 28.2061C35.8084 27.9132 36.4759 28.0609 38.2981 27.7075C39.5761 27.4596 42.033 26.7106 43.2783 26.2124C45.1454 25.2153 45.1876 25.1115 45.468 25.4435Z" fill="#FFFAE9" stroke="white" stroke-width="8"/>
<rect width="5.06843" height="21.4877" rx="2.53421" transform="matrix(0.967143 -0.254232 0.266521 0.963829 8 5.28857)" fill="black" stroke="white" stroke-width="8"/>
<path d="M20.264 53.4213C21.8854 61.9329 21.7099 69.1026 19.872 69.4354C18.0342 69.7682 15.2299 63.138 13.6086 54.6265C11.9872 46.115 12.1627 38.9453 14.0006 38.6125C15.8384 38.2797 18.6426 44.9098 20.264 53.4213Z" fill="#E35BEE" stroke="white" stroke-width="8"/>
<ellipse cx="25.5" cy="83.5" rx="18.5" ry="8.5" fill="#A834B2" stroke="white" stroke-width="8"/>
<path d="M44 82C44 86.6944 35.7173 90.5 25.5 90.5C15.2827 90.5 7 86.6944 7 82C7 82 15.2827 88.5001 25.5 88.5001C35.7173 88.5001 44 82 44 82Z" fill="#A220AD" stroke="white" stroke-width="8"/>
<path fill-rule="evenodd" clip-rule="evenodd" d="M46.1344 25.1274C46.139 25.0727 46.1412 25.0179 46.1412 24.9629C46.1412 21.458 36.8598 18.6167 25.4105 18.6167C13.9612 18.6167 4.67969 21.458 4.67969 24.9629C4.67969 25.0178 4.68197 25.0726 4.68651 25.1273L4.67969 25.1284L7 84L44 84L46.1412 25.1284L46.1344 25.1274Z" fill="#A834B3"/>
<path d="M44.4486 24.79C44.4119 26.9929 35.9621 27.6979 25.853 27.6979C15.7439 27.6979 7.29412 25.6404 7.29412 24.79C6.69569 24.1729 9.6648 23.4428 14.4782 23.4678C19.708 23.4946 20.2975 23.4679 24.6556 23.4678C29.8854 23.4678 31.5982 23.4678 34.2344 23.4678C39.4642 23.4678 44.4486 24.2199 44.4486 24.79Z" fill="#FFD845"/>
<path d="M45.1403 24.5399C45.1403 24.8502 44.9121 25.3678 43.9514 26.0168C43.0256 26.6422 41.6201 27.2448 39.7936 27.7666C36.1543 28.8065 31.0684 29.463 25.4095 29.463C19.7506 29.463 14.6647 28.8065 11.0253 27.7666C9.19884 27.2448 7.79342 26.6422 6.8676 26.0168C5.90687 25.3678 5.67871 24.8502 5.67871 24.5399C5.67871 24.2296 5.90687 23.712 6.8676 23.063C7.79342 22.4376 9.19884 21.835 11.0253 21.3132C14.6647 20.2733 19.7506 19.6168 25.4095 19.6168C31.0684 19.6168 36.1543 20.2733 39.7936 21.3132C41.6201 21.835 43.0256 22.4376 43.9514 23.063C44.9121 23.712 45.1403 24.2296 45.1403 24.5399Z" fill="#D954E4" stroke="#FDE0FF" stroke-width="2"/>
<path d="M45.2934 25.9933C45.5726 26.3338 45.04 26.6944 43.7328 27.2932C38.1533 29.849 35.6742 29.3378 35.6741 28.8267C35.6742 28.5263 36.339 28.6778 38.1535 28.3153C39.4262 28.0611 41.8727 27.2929 43.1129 26.7819C44.9721 25.7592 45.0142 25.6528 45.2934 25.9933Z" fill="#FFFAE9"/>
<rect x="8" y="5.32166" width="5.07693" height="22" rx="2.53846" transform="rotate(-15.0887 8 5.32166)" fill="black"/>
<path d="M20.264 54.6887C21.8854 63.4184 21.7099 70.772 19.872 71.1134C18.0342 71.4547 15.2299 64.6545 13.6086 55.9248C11.9872 47.195 12.1627 39.8415 14.0006 39.5001C15.8384 39.1588 18.6426 45.9589 20.264 54.6887Z" fill="#E35BEE"/>
<ellipse cx="25.5" cy="83.5" rx="18.5" ry="8.5" fill="#A834B2"/>
<path d="M44 82C44 86.6944 35.7173 90.5 25.5 90.5C15.2827 90.5 7 86.6944 7 82C7 82 15.2827 88.5001 25.5 88.5001C35.7173 88.5001 44 82 44 82Z" fill="#A220AD"/>
<path d="M44 83.5C44 88.1944 35.7173 92 25.5 92C15.2827 92 7 88.1944 7 83.5C7 83.5 15.2827 90.0001 25.5 90.0001C35.7173 90.0001 44 83.5 44 83.5Z" fill="#E872F1"/>
</svg>
