<svg width="41" height="37" viewBox="0 0 41 37" fill="none" xmlns="http://www.w3.org/2000/svg">
<path d="M18.3162 4.55132C18.1582 4.49864 17.9176 4.34544 17.6144 4.04394C17.3238 3.75486 17.0365 3.391 16.7757 3.01629C15.9827 1.87699 14.6784 1 13.1459 1H12.3058C11.602 1 10.9107 1.18568 10.3016 1.53829L10.7989 2.39724L10.3016 1.53829L3.40125 5.53325C1.89129 6.40744 1.12216 8.15947 1.50065 9.86268L2.68586 15.1961C2.985 16.5423 4.17894 17.5 5.5579 17.5C6.07821 17.5 6.5 17.9218 6.5 18.4421V32C6.5 34.2091 8.29086 36 10.5 36H30.5C32.7091 36 34.5 34.2091 34.5 32V18.4421C34.5 17.9218 34.9218 17.5 35.4421 17.5C36.8211 17.5 38.015 16.5423 38.3141 15.1961L39.4994 9.86268C39.8778 8.15947 39.1087 6.40744 37.5988 5.53325L30.6984 1.53829C30.0893 1.18568 29.398 1 28.6942 1H27.6056C26.2584 1 25.0578 1.67905 24.2645 2.65649C23.9236 3.07666 23.5306 3.5206 23.1371 3.88469C22.7232 4.26771 22.3942 4.48118 22.1838 4.55132C21.462 4.79191 21.0158 4.90023 20.7106 4.95111C20.4198 4.99957 20.2371 5 20 5C19.7705 5 19.7451 4.99926 19.6175 4.96736C19.4153 4.91679 19.0895 4.80908 18.3162 4.55132Z" fill="white" stroke="#333432" stroke-width="2"/>
</svg>
