<svg width="31" height="38" viewBox="0 0 31 38" fill="none" xmlns="http://www.w3.org/2000/svg">
<rect x="2" y="2" width="4" height="11.9459" rx="2" fill="white" stroke="#333432" stroke-width="4"/>
<rect x="7" y="2" width="4" height="11.9459" rx="2" fill="white" stroke="#333432" stroke-width="4"/>
<rect x="12" y="2" width="4" height="11.9459" rx="2" fill="white" stroke="#333432" stroke-width="4"/>
<path d="M16 12.1081C16 12.7115 15.8189 13.309 15.4672 13.8664C15.1154 14.4239 14.5998 14.9304 13.9497 15.357C13.2997 15.7837 12.5281 16.1221 11.6788 16.353C10.8295 16.5839 9.91925 16.7027 9 16.7027C8.08075 16.7027 7.17049 16.5839 6.32122 16.353C5.47194 16.1221 4.70026 15.7837 4.05025 15.357C3.40024 14.9304 2.88463 14.4239 2.53284 13.8664C2.18106 13.309 2 12.7115 2 12.1081L9 12.1081H16Z" fill="white" stroke="#333432" stroke-width="4"/>
<rect x="7" y="14.8649" width="4" height="21.1351" rx="2" fill="white" stroke="#333432" stroke-width="4"/>
<path d="M19 3C19 2.44772 19.4516 1.99716 20.0034 2.02025C26.1478 2.27738 27.5497 4.96224 28.5 8.89189C29.3355 12.3468 28.7749 21.5748 28.5678 24.5174C28.5312 25.0372 28.0985 25.4324 27.5774 25.4324H20C19.4477 25.4324 19 24.9847 19 24.4324V3Z" fill="white" stroke="#333432" stroke-width="4"/>
<path d="M19 24.6757C19 23.5711 19.8954 22.6757 21 22.6757C22.1046 22.6757 23 23.5711 23 24.6757V33.5405C23 34.6451 22.1046 35.5405 21 35.5405C19.8954 35.5405 19 34.6451 19 33.5405V24.6757Z" fill="white" stroke="#333432" stroke-width="4"/>
<rect x="2" y="2" width="4" height="11.9459" rx="2" fill="white"/>
<rect x="7" y="2" width="4" height="11.9459" rx="2" fill="white"/>
<rect x="12" y="2" width="4" height="11.9459" rx="2" fill="white"/>
<path d="M16 12.1081C16 12.7115 15.8189 13.309 15.4672 13.8664C15.1154 14.4239 14.5998 14.9304 13.9497 15.357C13.2997 15.7837 12.5281 16.1221 11.6788 16.353C10.8295 16.5839 9.91925 16.7027 9 16.7027C8.08075 16.7027 7.17049 16.5839 6.32122 16.353C5.47194 16.1221 4.70026 15.7837 4.05025 15.357C3.40024 14.9304 2.88463 14.4239 2.53284 13.8664C2.18106 13.309 2 12.7115 2 12.1081L9 12.1081H16Z" fill="white"/>
<rect x="7" y="14.8649" width="4" height="21.1351" rx="2" fill="white"/>
<path d="M19 3C19 2.44772 19.4516 1.99716 20.0034 2.02025C26.1478 2.27738 27.5497 4.96224 28.5 8.89189C29.3355 12.3468 28.7749 21.5748 28.5678 24.5174C28.5312 25.0372 28.0985 25.4324 27.5774 25.4324H20C19.4477 25.4324 19 24.9847 19 24.4324V3Z" fill="white"/>
<path d="M19 24.6757C19 23.5711 19.8954 22.6757 21 22.6757C22.1046 22.6757 23 23.5711 23 24.6757V33.5405C23 34.6451 22.1046 35.5405 21 35.5405C19.8954 35.5405 19 34.6451 19 33.5405V24.6757Z" fill="white"/>
</svg>
