<svg width="43" height="43" viewBox="0 0 43 43" fill="none" xmlns="http://www.w3.org/2000/svg">
<path d="M19.1933 1.5H18.1965L17.8104 2.41895L15.751 7.32025C15.6709 7.35646 15.5932 7.39342 15.518 7.43049L10.6858 5.40015L9.75669 5.00977L9.04408 5.72238L5.72238 9.04408L5.00977 9.75669L5.40015 10.6858L7.44209 15.5456C7.41194 15.6089 7.38197 15.6728 7.35214 15.7376L2.41895 17.8104L1.5 18.1965V19.1933V23.8067V24.8035L2.41895 25.1896L7.35214 27.2624C7.38197 27.3272 7.41194 27.3911 7.44209 27.4544L5.40015 32.3142L5.00977 33.2433L5.72238 33.9559L9.04408 37.2776L9.75669 37.9902L10.6858 37.5998L15.556 35.5535C15.5597 35.5553 15.5634 35.5571 15.5671 35.559C15.6205 35.5849 15.6762 35.6119 15.7341 35.6394L17.8104 40.581L18.1965 41.5H19.1933H23.8067H24.8035L25.1896 40.581L27.2637 35.6449C27.3263 35.6171 27.3907 35.5883 27.456 35.5586L32.3142 37.5998L33.2433 37.9902L33.9559 37.2776L37.2776 33.9559L37.9902 33.2433L37.5998 32.3142L35.5498 27.4351C35.5551 27.4239 35.5604 27.4127 35.5657 27.4015L35.5697 27.3931C35.5887 27.353 35.608 27.3122 35.6275 27.2709L40.581 25.1896L41.5 24.8035V23.8067V19.1933V18.1965L40.581 17.8104L35.6688 15.7464C35.6352 15.6722 35.6008 15.5988 35.5659 15.5266L37.5998 10.6858L37.9902 9.75669L37.2776 9.04408L33.9559 5.72238L33.2433 5.00977L32.3142 5.40015L27.4351 7.45021C27.4239 7.44493 27.4127 7.43962 27.4015 7.43429L27.393 7.43027C27.3529 7.4113 27.3122 7.392 27.2709 7.3725L25.1896 2.41895L24.8035 1.5H23.8067H19.1933ZM21.5 16.0337C24.5008 16.0337 26.9202 18.4531 26.9202 21.4539C26.9202 24.4546 24.5008 26.8741 21.5 26.8741C18.4993 26.8741 16.0798 24.4546 16.0798 21.4539C16.0798 18.4531 18.4993 16.0337 21.5 16.0337Z" fill="white" stroke="#333432" stroke-width="3"/>
</svg>
