<svg width="83" height="80" viewBox="0 0 83 80" fill="none" xmlns="http://www.w3.org/2000/svg">
<path d="M76.8445 45.8672L76.8445 57.3867L22.0271 66.712L9.19099 62.1601L76.8445 45.8672Z" fill="#E27D24"/>
<path d="M29.2006 59.5388C29.2006 64.689 18.1268 67.4304 11.9847 67.4304C4.06121 67.4304 0.507324 68.9936 0.507324 63.8434C0.507324 58.6932 14.8212 57.3877 22.7447 57.3877C30.6681 57.3877 29.2006 54.3885 29.2006 59.5388Z" fill="#A4C92B"/>
<path d="M75.1098 47.1777C75.1098 49.7612 69.0049 58.7859 62.8999 57.2014C56.7949 55.6169 39.2432 56.4436 39.2432 53.8601C39.2432 51.2767 47.3411 46.7573 54.5059 46.7573C61.6707 46.7573 75.1098 44.5943 75.1098 47.1777Z" fill="#A1CC27"/>
<path d="M44.2646 54.5174C41.3952 56.6694 28.066 64.5601 24.8966 64.5601C20.5926 66.7121 29.9178 58.008 29.9178 55.2348C29.9178 52.4616 36.7909 49.4961 39.9603 49.4961C43.1297 49.4961 46.3337 52.9656 44.2646 54.5174Z" fill="#799C2B"/>
<path d="M81.5657 49.4959C81.5657 51.873 74.3924 53.0826 70.0884 55.2346C65.7844 56.6693 62.915 52.5906 62.915 50.2135C62.915 47.8365 74.3924 48.0613 77.979 44.4746C81.9408 44.4746 81.5657 47.1189 81.5657 49.4959Z" fill="#A1CC27"/>
<path d="M29.2003 56.0608C31.3523 57.3868 23.4617 58.8214 16.0834 60.9733C9.11499 62.4081 5.52832 62.4081 5.52832 62.4081C5.52832 61.6308 10.6501 58.8214 16.0834 58.8214C21.3301 57.4139 29.2003 55.2836 29.2003 56.0608Z" fill="#96862E"/>
<path d="M75.1093 44.0643C75.676 47.1826 68.6538 53.8745 60.7626 53.157C49.8332 52.1632 48.1633 50.491 49.286 50.287C48.7193 47.1687 56.4839 44.9853 61.5511 44.0644C66.6183 43.1435 74.5426 40.946 75.1093 44.0643Z" fill="#799C2B"/>
<path d="M76.329 48.9759C72.5834 49.716 65.609 54.0642 63.1097 52.423C59.15 49.8227 63.2641 46.6799 64.2899 45.1177C65.3158 43.5555 68.1733 43.6198 70.6726 45.261C73.1718 46.9023 77.3549 47.4137 76.329 48.9759Z" fill="#799C2B"/>
<path d="M60.0459 53.0827C56.0045 53.2999 36.5991 55.8964 34.2215 53.8007C30.4546 50.4805 40.0625 47.8837 41.3724 46.3976C42.6823 44.9114 45.6714 45.4058 48.049 47.5015C50.4267 49.5972 61.3558 51.5966 60.0459 53.0827Z" fill="#799C2B"/>
<path d="M48.5684 55.9519C47.0542 55.6516 38.3968 55.4935 37.8086 54.5172C36.8766 52.9705 41.1518 53.0323 41.8353 52.6205C42.5188 52.2086 43.5496 52.6663 44.1378 53.6426C44.7261 54.6189 49.2519 55.5401 48.5684 55.9519Z" fill="#799C2B"/>
<path d="M40.5581 37.3013L42.1124 48.8665L4.81104 57.2894L40.5581 37.3013Z" fill="#FDC617"/>
<path d="M4.81104 57.2896L42.1124 48.8667V53.9204L5.58815 62.4083L4.81104 57.2896Z" fill="#EFA703"/>
<path d="M41.3582 47.4385L77.19 42.373L77.2609 48.8684L42.2144 53.2915L41.3582 47.4385Z" fill="#E51A1D"/>
<path d="M58.2045 44.7985C59.6327 44.9415 77.1906 42.3729 77.1906 42.3729L77.262 48.8683C77.262 48.8683 60.1146 51.0182 58.2748 51.2938C56.4349 51.5694 57.7531 50.1712 57.7754 49.0811C57.7974 47.991 56.7763 44.6556 58.2045 44.7985Z" fill="#F13833"/>
<path d="M77.2205 42.7063C76.7287 41.006 74.3747 39.6684 70.6762 38.9878C66.9777 38.3073 62.2378 38.3394 57.4991 39.0772C52.7605 39.8151 48.4112 41.1981 45.4082 42.9222C42.4052 44.6462 40.9944 46.57 41.4861 48.2703L59.3533 45.4883L77.2205 42.7063Z" fill="#CC1412"/>
<path d="M71.7787 43.6124C60.3329 43.5685 61.824 39.2993 60.1312 39.9438C58.6321 40.5146 58.0607 46.2248 56.3142 42.065C55.796 40.8307 53.6747 39.6307 53.4219 42.1559C52.9611 46.7597 52.9418 41.4415 49.9671 41.2545C47.9996 42.2761 48.2197 46.2059 48.5215 47.1778L60.1501 45.3951L71.7787 43.6124Z" fill="#E51A1D"/>
<path d="M51.4753 44.9093C51.5257 45.202 51.3293 45.4802 51.0366 45.5306C50.744 45.581 50.4658 45.3846 50.4154 45.0919C50.365 44.7992 50.4697 43.9912 50.7623 43.9408C51.055 43.8904 51.4249 44.6167 51.4753 44.9093Z" fill="#FF7068"/>
<path d="M55.9925 44.1719C56.0448 44.4643 55.8503 44.7437 55.558 44.7961C55.2656 44.8485 54.9862 44.6539 54.9338 44.3616C54.8814 44.0693 54.9806 43.2606 55.2729 43.2082C55.5653 43.1559 55.9401 43.8796 55.9925 44.1719Z" fill="#FF7069"/>
<path d="M61.8499 43.3182C61.9023 43.6105 61.7077 43.8899 61.4154 43.9423C61.1231 43.9947 60.8436 43.8002 60.7912 43.5078C60.7389 43.2155 60.838 42.4068 61.1304 42.3545C61.4227 42.3021 61.7975 43.0258 61.8499 43.3182Z" fill="#FF6F66"/>
<path d="M9.11523 48.8016L44.2646 40.1936L44.9819 46.6496L10.5499 54.5403L9.11523 48.8016Z" fill="#E51A1D"/>
<path d="M25.6143 44.4976C27.0496 44.4976 44.2646 40.1936 44.2646 40.1936L44.9823 46.6496C44.9823 46.6496 28.1342 50.4962 26.331 50.9536C24.5277 51.411 25.7001 49.8885 25.6137 48.8016C25.5271 47.7147 24.179 44.4976 25.6143 44.4976Z" fill="#F13833"/>
<path d="M44.328 40.522C43.6694 38.879 41.1939 37.7825 37.446 37.4735C33.6982 37.1646 28.985 37.6685 24.3433 38.8745C19.7017 40.0805 15.5118 41.8897 12.6953 43.9042C9.8789 45.9187 8.66664 47.9734 9.32525 49.6163L26.8266 45.0691L44.328 40.522Z" fill="#CC1412"/>
<path d="M39.0037 41.9656C27.6104 43.0615 28.669 38.665 27.0488 39.4749C25.614 40.1921 25.614 45.9308 23.462 41.9656C22.8235 40.789 20.5932 39.8062 20.5931 42.344C20.593 46.9708 20.0443 41.681 17.0657 41.7911C15.2098 43.0035 15.8201 46.8918 16.2171 47.8289L27.6104 44.8972L39.0037 41.9656Z" fill="#E51A1D"/>
<path d="M18.9296 45.2776C19.0088 45.5638 18.8411 45.8601 18.5549 45.9394C18.2687 46.0187 17.9724 45.851 17.8931 45.5648C17.8138 45.2786 17.8375 44.4642 18.1237 44.3849C18.4099 44.3056 18.8503 44.9914 18.9296 45.2776Z" fill="#FF7068"/>
<path d="M23.3516 44.0939C23.4328 44.3795 23.2671 44.6769 22.9814 44.7582C22.6957 44.8394 22.3983 44.6737 22.3171 44.388C22.2359 44.1023 22.254 43.2878 22.5397 43.2066C22.8254 43.1254 23.2704 43.8082 23.3516 44.0939Z" fill="#FF7069"/>
<path d="M29.0943 42.6615C29.1755 42.9471 29.0097 43.2446 28.7241 43.3258C28.4384 43.407 28.141 43.2413 28.0598 42.9556C27.9785 42.67 27.9967 41.8554 28.2824 41.7742C28.568 41.693 29.013 42.3758 29.0943 42.6615Z" fill="#FF6F66"/>
<path d="M79.3794 31.6775C79.6494 34.4212 82.1079 37.4283 60.9848 42.5169C47.0984 47.8971 41.558 42.8709 41.1231 38.4532C41.5436 35.4021 50.5443 33.5126 60.0067 32.5811C69.4691 31.6496 79.1093 28.9339 79.3794 31.6775Z" fill="#F37366"/>
<path d="M79.2684 31.1549C79.4461 32.9594 81.7927 34.8651 60.6022 38.9302C46.6039 42.9475 41.7534 44.8581 41.0695 37.903C40.851 35.6814 50.5111 33.3259 59.9589 32.3958C69.4068 31.4658 79.0908 29.3505 79.2684 31.1549Z" fill="#D74D51"/>
<path d="M12.9122 44.8715C12.9122 46.8524 7.89091 47.7407 3.58691 50.9304C1.60605 50.9304 0.00024491 49.7216 0.00024491 47.7407C0.00024491 45.7599 1.60605 44.1541 3.58691 44.1541C5.56777 44.1541 12.9122 42.8907 12.9122 44.8715Z" fill="#A4C92B"/>
<path d="M20.5917 42.3224C20.5917 43.5109 19.0609 46.6264 16.2877 46.6264C13.5145 46.6264 7.67969 44.9456 7.67969 43.7571C7.67969 42.5686 9.92781 41.6051 12.701 41.6051C15.4742 41.6051 20.5917 41.1339 20.5917 42.3224Z" fill="#849312"/>
<path d="M36.3729 38.1105C36.3729 39.299 34.8421 42.4145 32.0689 42.4145C29.2957 42.4145 23.4609 40.7337 23.4609 39.5452C23.4609 38.3567 25.7091 37.3932 28.4823 37.3932C31.2555 37.3932 36.3729 36.922 36.3729 38.1105Z" fill="#849312"/>
<path d="M60.7625 35.1491C60.7625 36.7338 57.1547 41.6053 53.5891 41.6053C50.0236 41.6053 42.1118 38.886 42.1118 37.3013C42.1118 35.7166 46.4369 35.8666 50.0025 35.8666C53.568 35.8666 60.7625 33.5644 60.7625 35.1491Z" fill="#838F07"/>
<path d="M73.6746 32.1191C73.6746 33.7038 70.0668 38.5753 66.5013 38.5753C62.9357 38.5753 55.0239 35.8559 55.0239 34.2713C55.0239 32.6866 59.349 32.8365 62.9146 32.8365C66.4801 32.8365 73.6746 30.5344 73.6746 32.1191Z" fill="#838F07"/>
<path d="M79.4131 32.2799C78.9427 33.2205 82.9997 34.4319 82.9997 35.8665C82.9997 38.7359 80.5044 38.7359 79.4131 38.7359C76.2437 38.7359 72.2397 35.0531 72.2397 32.2799C72.2397 29.5067 74.809 27.2585 77.9784 27.2585C81.1478 27.2585 80.1304 29.4105 79.4131 32.2799Z" fill="#A1CC27"/>
<path d="M3.87399 35.5644L46.9146 11.1747L80.6297 24.087C80.6297 24.087 65.5267 26.9062 51.218 29.5572C38.5205 31.9097 30.4153 33.4124 26.1113 34.1297C21.8073 34.8471 3.87399 35.5644 3.87399 35.5644Z" fill="#FFD733"/>
<path d="M3.87402 35.5645L80.6287 24.0872L79.9113 31.9778L6.74336 44.1725L3.87402 35.5645Z" fill="#E36E0E"/>
<path d="M81.4634 50.0015C81.4844 51.429 77.1131 52.5961 75.3295 53.2126C74.2211 53.5957 71.521 54.7309 70.0891 55.2343C68.9306 55.6691 68.7201 55.7941 69.3707 55.2347C69.3707 55.2347 69.3719 55.2344 70.5545 54.846C71.0259 54.6999 71.4699 54.5595 71.5237 54.517C72.2411 54.517 73.5386 53.3775 75.3229 52.7612C77.1064 52.1447 80.7869 50.7048 81.4634 50.0015Z" fill="#799C2B"/>
</svg>
