<svg width="101" height="100" viewBox="0 0 101 100" fill="none" xmlns="http://www.w3.org/2000/svg">
<path d="M72.8722 83.8814C72.8722 90.9955 66.3738 96.7627 51.4708 96.7627C36.5678 96.7627 31 90.9955 31 83.8814C31 76.7672 36.5678 71 51.4708 71C66.3738 71 72.8722 76.7672 72.8722 83.8814Z" fill="white" stroke="white" stroke-width="6"/>
<path d="M97.8816 48.1179C97.8816 66.348 71.4963 87.567 50.4265 87.567C29.3567 87.567 5.79102 66.348 5.79102 48.1179C5.79102 29.8878 29.3567 22.9323 50.4265 22.9323C71.4963 22.9323 97.8816 29.8878 97.8816 48.1179Z" fill="white" stroke="white" stroke-width="6"/>
<path d="M92.2583 44.3776C92.2583 54.6042 74.3447 55.6571 52.2472 55.6571C30.1496 55.6571 10.375 54.6042 10.375 44.3776C10.375 34.1509 30.1496 27.4791 52.2472 27.4791C74.3447 27.4791 92.2583 34.1509 92.2583 44.3776Z" fill="white"/>
<path d="M81.1615 47.0846C81.1615 47.5292 80.7449 47.8897 80.231 47.8897C79.7171 47.8897 79.3005 47.5292 79.3005 47.0846C79.3005 46.64 79.7171 46.2795 80.231 46.2795C80.7449 46.2795 81.1615 46.64 81.1615 47.0846Z" fill="white"/>
<path d="M92.2583 44.3776C92.2583 54.6042 74.3447 55.6571 52.2472 55.6571C30.1496 55.6571 10.375 54.6042 10.375 44.3776C10.375 34.1509 30.1496 27.4791 52.2472 27.4791C74.3447 27.4791 92.2583 34.1509 92.2583 44.3776Z" stroke="white" stroke-width="6"/>
<path d="M81.1615 47.0846C81.1615 47.5292 80.7449 47.8897 80.231 47.8897C79.7171 47.8897 79.3005 47.5292 79.3005 47.0846C79.3005 46.64 79.7171 46.2795 80.231 46.2795C80.7449 46.2795 81.1615 46.64 81.1615 47.0846Z" stroke="white" stroke-width="6"/>
<rect width="4.04426" height="8.35246" transform="matrix(0.905276 -0.424823 0.531131 0.84729 9.5127 11.7694)" fill="white" stroke="white" stroke-width="6"/>
<path d="M12.3049 12.4659C12.3049 14.6891 10.2219 14.0761 7.65246 14.0761C5.08298 14.0761 3 12.2738 3 10.0507C3 7.82748 5.08298 6.83032 7.65246 6.83032C10.2219 6.83032 12.3049 10.2427 12.3049 12.4659Z" fill="white" stroke="white" stroke-width="6"/>
<path d="M13.5071 11.7111C11.201 12.6916 10.9182 10.8037 9.78498 8.80843C8.65174 6.81315 9.60251 4.4008 11.9086 3.42029C14.2147 2.43978 16.1677 3.61749 17.3009 5.61277C18.4342 7.60805 15.8132 10.7305 13.5071 11.7111Z" fill="white" stroke="white" stroke-width="6"/>
<path d="M37.663 27.5578C42.225 34.5202 44.4614 41.7738 35.8006 44.1323C27.1399 46.4908 18.4782 44.472 15.9748 39.2252C9.46138 31.1742 10.6955 13.3241 17.2096 15.4513C20.0007 16.3628 33.1011 20.5953 37.663 27.5578Z" fill="white" stroke="white" stroke-width="6"/>
<path d="M67.2035 42.9393C70.8334 44.517 76.5085 45.4744 81.161 43.8643C84.8829 42.2541 86.1791 40.7367 87.9905 37.6169C89.8019 34.4971 90.0971 30.8783 88.8113 27.5567C87.5255 24.235 84.7639 21.4826 81.1341 19.9049L74.3043 31.6682L67.2035 42.9393Z" fill="white" stroke="white" stroke-width="6"/>
<path d="M67.9067 41.728C71.0616 43.0993 75.9942 43.9315 80.038 42.532C83.273 41.1325 84.3995 39.8136 85.9739 37.102C87.5483 34.3904 87.8049 31.2451 86.6873 28.358C85.5697 25.471 83.1695 23.0787 80.0146 21.7074L74.0784 31.9316L67.9067 41.728Z" fill="white" stroke="white" stroke-width="6"/>
<path d="M69.0629 41.2074C71.5825 42.3025 75.5868 42.8555 78.9723 41.4692C81.6946 40.1127 82.6837 38.9055 84.1088 36.4509C85.534 33.9962 85.8999 31.2071 85.1259 28.697C84.352 26.1869 82.5017 24.1615 79.9821 23.0664L74.6085 32.3215L69.0629 41.2074Z" fill="white" stroke="white" stroke-width="6"/>
<ellipse cx="4.60284" cy="1.06684" rx="4.60284" ry="1.06684" transform="matrix(0.994943 -0.100437 0.133637 0.99103 75.9092 28.8359)" fill="white" stroke="white" stroke-width="6"/>
<ellipse cx="5.046" cy="0.806898" rx="5.046" ry="0.806898" transform="matrix(0.994943 -0.100437 0.133637 0.99103 75.6953 28.7758)" fill="white" stroke="white" stroke-width="6"/>
<ellipse cx="5.29552" cy="1.11583" rx="5.29552" ry="1.11583" transform="matrix(0.958876 0.283825 -0.367695 0.929946 75.2578 30.9829)" fill="white" stroke="white" stroke-width="6"/>
<ellipse cx="6.00822" cy="0.831542" rx="6.00822" ry="0.831542" transform="matrix(0.958876 0.283825 -0.367695 0.929946 74.8936 30.8776)" fill="white" stroke="white" stroke-width="6"/>
<ellipse cx="4.78769" cy="1.12843" rx="4.78769" ry="1.12843" transform="matrix(0.710753 0.703442 -0.797546 0.603259 74.5996 32.9812)" fill="white" stroke="white" stroke-width="6"/>
<ellipse cx="5.63847" cy="0.891683" rx="5.63847" ry="0.891683" transform="matrix(0.710753 0.703442 -0.797546 0.603259 74.208 32.5928)" fill="white" stroke="white" stroke-width="6"/>
<path d="M81.1248 8.82946L85.7773 12.0498C85.7773 12.0498 73.7163 23.7373 71.8554 26.1525C69.9944 28.5678 63.4452 41.8379 63.4452 41.8379L58.7928 41.8379C58.7928 41.8379 65.3416 27.3467 67.2026 24.9315C69.0636 22.5162 81.1248 8.82946 81.1248 8.82946Z" fill="white" stroke="white" stroke-width="6"/>
<path d="M81.1281 8.83062L85.7806 12.0509C85.7806 12.0509 82.9865 14.0761 80.2307 16.4917C77.4749 18.9073 75.5801 20.5183 75.5801 20.5183L73.718 20.5179C73.718 20.5179 74.6477 17.2968 76.5087 14.8816C78.3697 12.4663 81.1281 8.83062 81.1281 8.83062Z" fill="white" stroke="white" stroke-width="6"/>
<path d="M78.3649 12.4631L82.0865 14.8785C82.0865 14.8785 70.8037 25.3531 69.2669 27.5384C67.7301 29.7237 70.9206 25.663 70.9206 25.663L66.7187 27.1799C66.7187 27.1799 65.1823 30.7531 66.7191 28.5678C68.2559 26.3825 78.3649 12.4631 78.3649 12.4631Z" fill="white" stroke="white" stroke-width="6"/>
<path d="M72.787 21.323L83.9519 11.6612C83.9519 11.6612 69.9089 26.626 68.5036 28.6514C67.0982 30.6767 62.5505 41.9414 62.5505 41.9414L58.8771 41.9414C58.8771 41.9414 64.9455 30.4377 66.3508 28.4124C67.7561 26.387 72.787 21.323 72.787 21.323Z" fill="white" stroke="white" stroke-width="6"/>
<rect x="67.2041" y="42.2542" width="18.6099" height="3.22034" fill="white" stroke="white" stroke-width="6"/>
<ellipse cx="33.7067" cy="49.4998" rx="1.86099" ry="0.805085" fill="white" stroke="white" stroke-width="6"/>
<path d="M57.8996 84.1187C65.6081 84.1187 82.0924 73.1001 82.0924 70.4323C75.579 58.3559 56.9691 72.8478 56.9691 72.8478C49.2607 72.8478 43.0117 75.0105 43.0117 77.6783C43.0117 80.3461 50.1911 84.1187 57.8996 84.1187Z" stroke="white" stroke-width="6"/>
<path d="M72.8722 83.8814C72.8722 90.9955 66.3738 96.7627 51.4708 96.7627C36.5678 96.7627 31 90.9955 31 83.8814C31 76.7672 36.5678 71 51.4708 71C66.3738 71 72.8722 76.7672 72.8722 83.8814Z" fill="#BF580D"/>
<path d="M97.8816 48.1179C97.8816 66.348 71.4963 87.567 50.4265 87.567C29.3567 87.567 5.79102 66.348 5.79102 48.1179C5.79102 29.8878 29.3567 22.9323 50.4265 22.9323C71.4963 22.9323 97.8816 29.8878 97.8816 48.1179Z" fill="#BF580D"/>
<path d="M92.2583 44.3776C92.2583 54.6042 74.3447 55.6571 52.2472 55.6571C30.1496 55.6571 10.375 54.6042 10.375 44.3776C10.375 34.1509 30.1496 27.4791 52.2472 27.4791C74.3447 27.4791 92.2583 34.1509 92.2583 44.3776Z" fill="#FDBA3A"/>
<path d="M81.1615 47.0846C81.1615 47.5292 80.7449 47.8897 80.231 47.8897C79.7171 47.8897 79.3005 47.5292 79.3005 47.0846C79.3005 46.64 79.7171 46.2795 80.231 46.2795C80.7449 46.2795 81.1615 46.64 81.1615 47.0846Z" fill="#B39E33"/>
<rect width="4.04426" height="8.35246" transform="matrix(0.905276 -0.424823 0.531131 0.84729 9.5127 11.7694)" fill="#D0AB6E"/>
<path d="M12.3049 12.4659C12.3049 14.6891 10.2219 14.0761 7.65246 14.0761C5.08298 14.0761 3 12.2738 3 10.0507C3 7.82748 5.08298 6.83032 7.65246 6.83032C10.2219 6.83032 12.3049 10.2427 12.3049 12.4659Z" fill="#D0AB6E"/>
<path d="M13.5071 11.7111C11.201 12.6916 10.9182 10.8037 9.78498 8.80843C8.65174 6.81315 9.60251 4.4008 11.9086 3.42029C14.2147 2.43978 16.1677 3.61749 17.3009 5.61277C18.4342 7.60805 15.8132 10.7305 13.5071 11.7111Z" fill="#D0AB6E"/>
<path d="M37.663 27.5578C42.225 34.5202 44.4614 41.7738 35.8006 44.1323C27.1399 46.4908 18.4782 44.472 15.9748 39.2252C9.46138 31.1742 10.6955 13.3241 17.2096 15.4513C20.0007 16.3628 33.1011 20.5953 37.663 27.5578Z" fill="#95672A"/>
<path d="M58.245 48.0376C58.5224 48.801 56.9294 50.3155 54.844 50.8828C52.7586 51.45 51.3518 51.2228 51.0744 50.4595C50.7971 49.6962 52.2628 48.6176 54.3483 48.0503C56.4337 47.4831 57.9677 47.2743 58.245 48.0376Z" fill="#BA4917"/>
<path d="M74.5325 46.9943C74.8716 47.8338 72.5239 48.0621 67.7698 49.4999C63.0156 50.9376 62.5742 51.5527 62.2351 50.7132C61.896 49.8738 63.0156 48.7715 67.7698 47.3338C72.5239 45.896 74.1934 46.1548 74.5325 46.9943Z" fill="#FE8104"/>
<path d="M67.2035 42.9393C70.8334 44.517 76.5085 45.4744 81.161 43.8643C84.8829 42.2541 86.1791 40.7367 87.9905 37.6169C89.8019 34.4971 90.0971 30.8783 88.8113 27.5567C87.5255 24.235 84.7639 21.4826 81.1341 19.9049L74.3043 31.6682L67.2035 42.9393Z" fill="#E4AD35"/>
<path d="M67.9067 41.728C71.0616 43.0993 75.9942 43.9315 80.038 42.532C83.273 41.1325 84.3995 39.8136 85.9739 37.102C87.5483 34.3904 87.8049 31.2451 86.6873 28.358C85.5697 25.471 83.1695 23.0787 80.0146 21.7074L74.0784 31.9316L67.9067 41.728Z" fill="#FFF2B5"/>
<path d="M69.0629 41.2074C71.5825 42.3025 75.5868 42.8555 78.9723 41.4692C81.6946 40.1127 82.6837 38.9055 84.1088 36.4509C85.534 33.9962 85.8999 31.2071 85.1259 28.697C84.352 26.1869 82.5017 24.1615 79.9821 23.0664L74.6085 32.3215L69.0629 41.2074Z" fill="#EDBD58"/>
<ellipse cx="4.60284" cy="1.06684" rx="4.60284" ry="1.06684" transform="matrix(0.994943 -0.100437 0.133637 0.99103 75.9092 28.8359)" fill="#D7AA4C"/>
<ellipse cx="5.046" cy="0.806898" rx="5.046" ry="0.806898" transform="matrix(0.994943 -0.100437 0.133637 0.99103 75.6953 28.7758)" fill="#FFF2B5"/>
<ellipse cx="5.29552" cy="1.11583" rx="5.29552" ry="1.11583" transform="matrix(0.958876 0.283825 -0.367695 0.929946 75.2578 30.9829)" fill="#D7AA4C"/>
<ellipse cx="6.00822" cy="0.831542" rx="6.00822" ry="0.831542" transform="matrix(0.958876 0.283825 -0.367695 0.929946 74.8936 30.8776)" fill="#FFF2B5"/>
<ellipse cx="4.78769" cy="1.12843" rx="4.78769" ry="1.12843" transform="matrix(0.710753 0.703442 -0.797546 0.603259 74.5996 32.9812)" fill="#D7AA4C"/>
<ellipse cx="5.63847" cy="0.891683" rx="5.63847" ry="0.891683" transform="matrix(0.710753 0.703442 -0.797546 0.603259 74.208 32.5928)" fill="#FFF2B5"/>
<path d="M81.1248 8.82946L85.7773 12.0498C85.7773 12.0498 73.7163 23.7373 71.8554 26.1525C69.9944 28.5678 63.4452 41.8379 63.4452 41.8379L58.7928 41.8379C58.7928 41.8379 65.3416 27.3467 67.2026 24.9315C69.0636 22.5162 81.1248 8.82946 81.1248 8.82946Z" fill="#70934D"/>
<path d="M81.1281 8.83062L85.7806 12.0509C85.7806 12.0509 82.9865 14.0761 80.2307 16.4917C77.4749 18.9073 75.5801 20.5183 75.5801 20.5183L73.718 20.5179C73.718 20.5179 74.6477 17.2968 76.5087 14.8816C78.3697 12.4663 81.1281 8.83062 81.1281 8.83062Z" fill="#3B7B08"/>
<path d="M78.3649 12.4631L82.0865 14.8785C82.0865 14.8785 70.8037 25.3531 69.2669 27.5384C67.7301 29.7237 70.9206 25.663 70.9206 25.663L66.7187 27.1799C66.7187 27.1799 65.1823 30.7531 66.7191 28.5678C68.2559 26.3825 78.3649 12.4631 78.3649 12.4631Z" fill="#577737"/>
<path d="M72.787 21.323L83.9519 11.6612C83.9519 11.6612 69.9089 26.626 68.5036 28.6514C67.0982 30.6767 62.5505 41.9414 62.5505 41.9414L58.8771 41.9414C58.8771 41.9414 64.9455 30.4377 66.3508 28.4124C67.7561 26.387 72.787 21.323 72.787 21.323Z" fill="#ADC984"/>
<rect x="67.2041" y="42.2542" width="18.6099" height="3.22034" fill="#FDBA3A"/>
<ellipse cx="45.8026" cy="41.4492" rx="0.930493" ry="0.805085" fill="#B3A039"/>
<path d="M45.2584 43.1062C43.5207 45.31 44.5701 47.4777 43.7211 46.9766C42.8721 46.4754 41.9834 44.4025 43.7211 42.1988C45.4589 39.995 49.2761 40.8397 50.1251 41.3409C50.9741 41.8421 46.9961 40.9025 45.2584 43.1062Z" fill="#686E2E"/>
<ellipse cx="33.7067" cy="49.4998" rx="1.86099" ry="0.805085" fill="#778651"/>
<path d="M62.5516 42.2542C61.6031 46.2761 60.4139 42.5782 60.4106 43.3832C58.5566 41.7667 59.7425 42.5744 60.6906 38.5524C62.5663 35.3387 70.6461 22.4509 73.4371 21.6458C67.855 28.0865 64.4125 38.2288 62.5516 42.2542Z" fill="#D9D9D9"/>
<path d="M57.8984 40.6442H65.3424V43.8645L61.6204 44.6696L57.8984 43.8645V40.6442Z" fill="#FDBA3A"/>
</svg>
