<svg width="60" height="66" viewBox="0 0 60 66" fill="none" xmlns="http://www.w3.org/2000/svg">
<path d="M42.9 56.9459C42.9 61.8793 38.7958 65.8786 29.3835 65.8786C19.9711 65.8786 16.4546 61.8793 16.4546 56.9459C16.4546 52.0125 19.9711 48.0132 29.3835 48.0132C38.7958 48.0132 42.9 52.0125 42.9 56.9459Z" fill="#BF580D"/>
<path d="M42.9004 56.9459C42.9004 61.8793 38.1788 65.8786 32.3223 65.8786C26.4657 65.8786 35.8489 65.7873 35.8489 60.8539C34.0859 56.3876 28.6335 48.0132 34.4901 48.0132C40.3467 48.0132 42.9004 52.0125 42.9004 56.9459Z" fill="#883A02"/>
<path d="M42.9008 53.1667C42.9008 56.2975 38.2195 61.4122 28.8027 61.4122C19.3858 61.4122 15.8677 55.2668 15.8677 52.136C15.8677 49.0052 19.3858 48.0132 28.8027 48.0132C38.2195 48.0132 42.9008 50.0359 42.9008 53.1667Z" fill="#883A02"/>
<path d="M59.9248 31.9808C59.9248 44.6226 43.2605 59.3372 29.9534 59.3372C16.6462 59.3372 1.7627 44.6226 1.7627 31.9808C1.7627 19.339 16.6462 14.5156 29.9534 14.5156C43.2605 14.5156 59.9248 19.339 59.9248 31.9808Z" fill="#BF580D"/>
<path d="M12.3412 45.5378C14.4588 54.6356 34.6729 59.7372 25.8577 58.0624C14.1042 54.1543 2.93836 45.5378 2.93848 35.9469C2.93848 27.9147 2.92922 37.4058 12.3412 37.4056C13.5166 37.4055 10.5783 37.9638 12.3412 45.5378Z" fill="#CF5F0E"/>
<path d="M20.4646 49.2208C24.3092 58.6441 27.6205 56.3877 25.8574 57.5043C15.1111 54.5595 11.1747 51.6814 11.1749 41.5639C11.1749 35.1726 10.5778 38.6196 18.9361 38.6196C21.3241 38.6196 17.3676 41.6297 20.4646 49.2208Z" fill="#D16F2A"/>
<path d="M40.5497 39.6395C40.5497 39.9479 34.7612 40.1978 27.6208 40.1978C20.4804 40.1978 9.40283 37.1555 9.40283 36.8472C9.40283 36.5388 20.4804 39.0812 27.6208 39.0812C34.7612 39.0812 40.5497 39.3312 40.5497 39.6395Z" fill="#AA4801"/>
<path d="M59.9427 30.7061C61.118 43.5468 43.8658 59.7373 30.5587 59.7373C18.2176 57.5041 43.4856 62.3298 43.4856 49.688C43.4856 37.0462 24.6821 40.197 36.4342 39.0804C48.1862 37.9639 54.6536 39.0804 59.9427 30.7061Z" fill="#A64003"/>
<path d="M55.8288 27.6855C48.2748 33.3663 44.9689 35.7309 30.8558 35.7309C16.7428 35.7309 4.11328 34.9799 4.11328 27.6855C4.11328 20.3911 16.7428 15.6323 30.8558 15.6323C44.9689 15.6323 55.8288 20.3911 55.8288 27.6855Z" fill="#893A00"/>
<ellipse cx="1.4507" cy="1.72203" rx="1.4507" ry="1.72203" transform="matrix(0.70503 -0.709178 0.744321 0.667822 5.11914 24.1023)" fill="#3A1800"/>
<path d="M56.3732 29.3871C56.3732 36.4788 45.0594 37.209 31.1031 37.209C17.1469 37.209 4.65771 36.4788 4.65771 29.3871C4.65771 22.2953 17.1469 17.6687 31.1031 17.6687C45.0594 17.6687 56.3732 22.2953 56.3732 29.3871Z" fill="#FDBA3A"/>
<path d="M49.3647 31.2643C49.3647 31.5726 49.1016 31.8226 48.777 31.8226C48.4525 31.8226 48.1894 31.5726 48.1894 31.2643C48.1894 30.9559 48.4525 30.706 48.777 30.706C49.1016 30.706 49.3647 30.9559 49.3647 31.2643Z" fill="#B39E33"/>
<path d="M55.8287 31.8213C53.1102 37.8449 29.4464 37.0298 25.1518 36.451C20.5157 36.451 32.5142 30.6635 34.3556 26.6119C32.5141 17.9305 44.5892 19.6666 47.8526 21.9819C53.1112 23.7182 55.8287 26.3599 55.8287 31.8213Z" fill="#FFCB62"/>
<path d="M53.5017 32.4522C53.5017 32.6896 53.6095 32.4522 53.5017 32.4522C53.3939 32.4522 53.1112 32.6896 53.1112 32.4522C53.1112 32.2147 53.1986 32.0222 53.3065 32.0222C53.4143 32.0222 53.5017 32.2147 53.5017 32.4522Z" fill="#B3A039"/>
<path d="M24.0946 26.7978C24.0946 28.7203 19.6667 30.1476 15.2795 30.1476C10.8923 30.1476 6.46436 27.0456 6.46436 25.1232C6.46436 23.2007 11.7637 24.302 16.1509 24.302C20.5381 24.302 24.0946 24.8754 24.0946 26.7978Z" fill="#6E4901"/>
<rect width="2.6012" height="5.65106" transform="matrix(0.888937 -0.458029 0.495805 0.868434 4.11328 6.77466)" fill="#D0AB6E"/>
<ellipse cx="0.580012" cy="1.69875" rx="0.580012" ry="1.69875" transform="matrix(0.868199 -0.496215 0.535026 0.844836 5.63965 7.22705)" fill="#FBF7F2"/>
<path d="M5.87676 7.25766C5.87676 8.79934 4.5612 8.37425 2.93838 8.37425C1.31556 8.37425 0 7.12446 0 5.58278C0 4.0411 1.31556 3.34961 2.93838 3.34961C4.5612 3.34961 5.87676 5.71598 5.87676 7.25766Z" fill="#D0AB6E"/>
<path d="M6.63617 6.73421C5.17971 7.41415 5.0011 6.105 4.28537 4.72136C3.56965 3.33772 4.17013 1.66485 5.6266 0.984913C7.08306 0.304972 8.31654 1.12166 9.03226 2.50531C9.74799 3.88895 8.09264 6.05427 6.63617 6.73421Z" fill="#D0AB6E"/>
<path d="M21.8924 17.7232C24.7736 22.5514 26.1861 27.5815 20.7162 29.217C15.2463 30.8525 9.77578 29.4525 8.1947 25.8141C4.08095 20.2311 4.86038 7.85278 8.97452 9.32789C10.7374 9.95995 19.0112 12.8951 21.8924 17.7232Z" fill="#95672A"/>
<path d="M20.5586 18.9809C22.317 21.9275 25.259 27.9131 19.3823 29.588C13.5057 31.2628 16.4431 27.3556 17.0313 23.4468C17.7878 18.4236 12.0495 12.2461 14.0934 13.3978C15.1504 13.9933 18.8002 16.0343 20.5586 18.9809Z" fill="#6D461C"/>
<path d="M34.8918 31.9252C35.067 32.4546 34.0609 33.5048 32.7438 33.8982C31.4267 34.2915 30.5382 34.134 30.3631 33.6047C30.1879 33.0754 31.1136 32.3274 32.4307 31.934C33.7478 31.5407 34.7167 31.3959 34.8918 31.9252Z" fill="#BA4917"/>
<path d="M34.0535 31.9115C34.165 32.2484 33.4052 32.9527 32.439 33.2413C31.4729 33.5298 30.8334 33.4516 30.7219 33.1146C30.6104 32.7776 31.3032 32.2705 32.2694 31.982C33.2356 31.6934 33.942 31.5745 34.0535 31.9115Z" fill="#DC622C"/>
<path d="M45.178 31.2017C45.3921 31.7838 43.9094 31.9422 40.9068 32.9392C37.9042 33.9362 37.6254 34.3628 37.4112 33.7806C37.1971 33.1985 37.9042 32.4341 40.9068 31.4371C43.9094 30.4401 44.9638 30.6196 45.178 31.2017Z" fill="#FE8104"/>
<path d="M53.6839 24C55.2629 25 54.1826 25.5211 53.1576 26.5C52.2121 27.5673 50.8607 28.111 50.4485 27.7216C50.0363 27.3321 50.533 26.2228 51.5579 25.2438C52.5829 24.2649 53.2718 23.6105 53.6839 24Z" fill="#CC942A"/>
<path d="M45.2305 31.3433C45.3606 31.6971 43.9208 31.9722 40.9182 32.9692C37.9156 33.9662 37.5939 34.276 37.4637 33.9222C37.3336 33.5683 38.1088 32.989 41.1114 31.992C44.114 30.995 45.1003 30.9894 45.2305 31.3433Z" fill="#EC7B0A"/>
<path d="M7.05214 2.23322C7.05214 3.88761 6.85333 3.99286 6.21373 3.88761C5.57412 3.78236 5.24574 2.65436 5.35653 2.04674C5.46732 1.43911 6.07563 1.03186 6.71524 1.13711C7.35484 1.24236 7.05214 1.61655 7.05214 2.23322Z" fill="#FAF0E1"/>
<path d="M2.89857 4.68222C2.18308 5.31204 1.49384 6.33569 0.957874 6.24749C0.421911 6.1593 0.865275 4.87195 0.958091 4.3629C1.05091 3.85386 1.64711 3.82068 2.18308 3.90887C2.71904 3.99707 2.99138 4.17318 2.89857 4.68222Z" fill="#FAF0E1"/>
<path d="M40.5496 28.3897C42.8421 29.4837 46.4264 30.1477 49.3648 29.0311C51.7155 27.9145 52.5341 26.8623 53.6781 24.6988C54.8222 22.5354 55.0086 20.0259 54.1965 17.7225C53.3844 15.4191 51.6403 13.5104 49.3478 12.4163L45.0343 20.5737L40.5496 28.3897Z" fill="#E4AD35"/>
<path d="M40.9933 27.5497C42.9859 28.5006 46.1012 29.0777 48.6551 28.1072C50.6983 27.1367 51.4098 26.2221 52.4041 24.3417C53.3985 22.4613 53.5606 20.2802 52.8547 18.2782C52.1489 16.2761 50.6329 14.6172 48.6404 13.6663L44.8912 20.7563L40.9933 27.5497Z" fill="#FFF2B5"/>
<path d="M41.7241 27.1887C43.3155 27.9481 45.8445 28.3316 47.9827 27.3702C49.702 26.4296 50.3267 25.5924 51.2268 23.8902C52.1269 22.1881 52.3579 20.2539 51.8692 18.5133C51.3804 16.7726 50.2118 15.3681 48.6204 14.6087L45.2266 21.0267L41.7241 27.1887Z" fill="#EDBD58"/>
<ellipse cx="2.91005" cy="0.738685" rx="2.91005" ry="0.738685" transform="matrix(0.993913 -0.110164 0.121897 0.992543 46.0483 18.6096)" fill="#D7AA4C"/>
<ellipse cx="3.19023" cy="0.558698" rx="3.19023" ry="0.558698" transform="matrix(0.993913 -0.110164 0.121897 0.992543 45.9136 18.5679)" fill="#FFF2B5"/>
<ellipse cx="3.3721" cy="0.764808" rx="3.3721" ry="0.764808" transform="matrix(0.951034 0.309086 -0.338811 0.940855 45.6372 20.0984)" fill="#D7AA4C"/>
<ellipse cx="3.82593" cy="0.569954" rx="3.82593" ry="0.569954" transform="matrix(0.951034 0.309086 -0.338811 0.940855 45.4067 20.0254)" fill="#FFF2B5"/>
<ellipse cx="3.17385" cy="0.738865" rx="3.17385" ry="0.738865" transform="matrix(0.677147 0.735848 -0.769289 0.638901 45.2212 21.4841)" fill="#D7AA4C"/>
<ellipse cx="3.73785" cy="0.58385" rx="3.73785" ry="0.58385" transform="matrix(0.677147 0.735848 -0.769289 0.638901 44.9736 21.2148)" fill="#FFF2B5"/>
<path d="M49.3422 4.73589L52.2806 6.96905C52.2806 6.96905 44.6632 15.0738 43.4879 16.7487C42.3125 18.4236 38.1762 27.6259 38.1762 27.6259L35.2379 27.6259C35.2379 27.6259 39.3739 17.5768 40.5493 15.902C41.7246 14.2271 49.3422 4.73589 49.3422 4.73589Z" fill="#70934D"/>
<path d="M49.3438 4.73675L52.2822 6.96991C52.2822 6.96991 50.5175 8.37429 48.777 10.0494C47.0365 11.7245 45.8398 12.8417 45.8398 12.8417L44.6637 12.8414C44.6637 12.8414 45.2509 10.6077 46.4263 8.93282C47.6016 7.25794 49.3438 4.73675 49.3438 4.73675Z" fill="#3B7B08"/>
<path d="M47.5987 7.25571L49.9491 8.93072C49.9491 8.93072 42.8232 16.1944 41.8526 17.7098C40.882 19.2253 42.897 16.4093 42.897 16.4093L40.2433 17.4612C40.2433 17.4612 39.2729 19.9391 40.2435 18.4237C41.2141 16.9082 47.5987 7.25571 47.5987 7.25571Z" fill="#577737"/>
<path d="M44.0758 13.3997L51.1273 6.69963C51.1273 6.69963 42.2581 17.0771 41.3705 18.4816C40.483 19.8861 37.6107 27.6977 37.6107 27.6977L35.2907 27.6977C35.2907 27.6977 39.1234 19.7203 40.0109 18.3158C40.8985 16.9114 44.0758 13.3997 44.0758 13.3997Z" fill="#ADC984"/>
<rect x="40.5498" y="27.9146" width="11.7535" height="2.23317" fill="#FFCB62"/>
<ellipse cx="12.9285" cy="15.0739" rx="0.587676" ry="0.558293" fill="#AD6032"/>
<ellipse cx="12.9285" cy="19.5402" rx="0.587676" ry="0.558293" fill="#AD6032"/>
<ellipse cx="10.5784" cy="22.8901" rx="0.587676" ry="0.558293" fill="#B19159"/>
<ellipse cx="16.4554" cy="15.0739" rx="0.587676" ry="0.558293" fill="#B19159"/>
<ellipse cx="8.22781" cy="20.6569" rx="0.587676" ry="0.558293" fill="#B19159"/>
<ellipse cx="18.8059" cy="24.0065" rx="0.587676" ry="0.558293" fill="#B19159"/>
<ellipse cx="15.2801" cy="25.1232" rx="0.587676" ry="0.558293" fill="#AD6032"/>
<ellipse cx="17.6302" cy="19.5402" rx="0.587676" ry="0.558293" fill="#AD6032"/>
<path d="M10.9719 16.134C12.8677 17.9341 12.0346 19.571 10.8367 19.8482C9.63872 20.1254 8.45653 20.0528 7.94987 18.0766C7.44321 16.1004 6.97746 12.1637 8.17541 11.8866C9.37335 11.6094 8.89276 14.1599 10.9719 16.134Z" fill="#BD9354"/>
<path d="M10.5781 16.1906C12.1402 17.8654 11.5242 19.3214 10.5781 19.5403C9.6321 19.7592 8.68847 19.6628 8.22763 17.8654C7.76679 16.0679 7.28168 12.5015 8.22771 12.2826C9.17375 12.0637 8.86497 14.3538 10.5781 16.1906Z" fill="#D2A760"/>
<path d="M10.0143 16.0801C11.3438 17.6984 10.8904 19.0458 10.1266 19.2225C9.3628 19.3992 8.59038 19.2802 8.15449 17.5801C7.7186 15.8799 7.20363 12.5195 7.96744 12.3428C8.73125 12.166 8.55631 14.3052 10.0143 16.0801Z" fill="#DCBD80"/>
<path d="M9.29536 15.8753C10.0043 17.0189 9.86568 17.8946 9.51843 17.9749C9.17117 18.0553 8.80383 17.9381 8.50788 16.7837C8.21192 15.6294 7.78888 13.3648 8.13613 13.2844C8.48339 13.2041 8.5178 14.621 9.29536 15.8753Z" fill="#E4C88A"/>
<ellipse cx="30.5594" cy="29.5895" rx="0.587676" ry="0.558293" fill="#B3A039"/>
<ellipse cx="30.5594" cy="20.6569" rx="0.587676" ry="0.558293" fill="#B3A039"/>
<ellipse cx="27.033" cy="27.3564" rx="0.587676" ry="0.558293" fill="#B3A039"/>
<ellipse cx="24.6819" cy="31.8227" rx="0.587676" ry="0.558293" fill="#F4A44A"/>
<ellipse cx="25.8582" cy="20.6569" rx="0.587676" ry="0.558293" fill="#F4A44A"/>
<ellipse cx="29.3836" cy="24.0065" rx="0.587676" ry="0.558293" fill="#F4A44A"/>
<ellipse cx="47.0139" cy="34.0559" rx="0.587676" ry="0.558293" fill="#F4A44A"/>
<ellipse cx="32.9095" cy="26.2397" rx="0.587676" ry="0.558293" fill="#B3A039"/>
<path d="M26.6891 28.5055C25.5916 30.0337 26.2544 31.5369 25.7182 31.1894C25.182 30.8418 24.6207 29.4044 25.7182 27.8762C26.8157 26.3479 29.2266 26.9337 29.7628 27.2813C30.299 27.6288 27.7867 26.9772 26.6891 28.5055Z" fill="#686E2E"/>
<ellipse cx="19.3936" cy="32.9392" rx="1.17535" ry="0.558293" fill="#778651"/>
<path d="M37.6109 27.9146C37.0119 30.7037 36.2609 28.1393 36.2587 28.6976C35.0878 27.5766 35.8368 28.1367 36.4356 25.3476C37.6202 23.119 42.7232 14.1818 44.486 13.6235C40.9605 18.0899 38.7862 25.1232 37.6109 27.9146Z" fill="#D9D9D9"/>
<path d="M34.6729 26.7981H39.3743V29.0313L37.0236 29.5896L34.6729 29.0313V26.7981Z" fill="#FFCB62"/>
</svg>
