<svg width="96" height="92" viewBox="0 0 96 92" fill="none" xmlns="http://www.w3.org/2000/svg">
<g filter="url(#filter0_d_177_76)">
<mask id="path-1-outside-1_177_76" maskUnits="userSpaceOnUse" x="4" y="0" width="88" height="84" fill="black">
<rect fill="white" x="4" width="88" height="84"/>
<path fill-rule="evenodd" clip-rule="evenodd" d="M76.9272 3H18.9612V8.52057H16C11.0294 8.52057 7 12.55 7 17.5206V41.8449C7 46.8155 11.0294 50.8449 16 50.8449H18.9612V65.5664L9.76028 65.5664V80.2879H86.1281V65.5664L76.9272 65.5664V50.8449H79.8884C84.859 50.8449 88.8884 46.8155 88.8884 41.8449V17.5206C88.8884 12.55 84.859 8.52057 79.8884 8.52057H76.9272V3ZM70.4865 65.5664H25.4019V50.8449H30.0024V54.5253H65.8861V50.8449H70.4865V65.5664Z"/>
</mask>
<path fill-rule="evenodd" clip-rule="evenodd" d="M76.9272 3H18.9612V8.52057H16C11.0294 8.52057 7 12.55 7 17.5206V41.8449C7 46.8155 11.0294 50.8449 16 50.8449H18.9612V65.5664L9.76028 65.5664V80.2879H86.1281V65.5664L76.9272 65.5664V50.8449H79.8884C84.859 50.8449 88.8884 46.8155 88.8884 41.8449V17.5206C88.8884 12.55 84.859 8.52057 79.8884 8.52057H76.9272V3ZM70.4865 65.5664H25.4019V50.8449H30.0024V54.5253H65.8861V50.8449H70.4865V65.5664Z" fill="#75959F"/>
<path d="M18.9612 3V0H15.9612V3H18.9612ZM76.9272 3H79.9272V0H76.9272V3ZM18.9612 8.52057V11.5206H21.9612V8.52057H18.9612ZM18.9612 50.8449H21.9612V47.8449H18.9612V50.8449ZM18.9612 65.5664L18.9612 68.5664H21.9612V65.5664H18.9612ZM9.76028 65.5664L9.76028 62.5664H6.76028V65.5664H9.76028ZM9.76028 80.2879H6.76028V83.2879H9.76028V80.2879ZM86.1281 80.2879V83.2879H89.1281V80.2879H86.1281ZM86.1281 65.5664H89.1281V62.5664H86.1281V65.5664ZM76.9272 65.5664H73.9272V68.5664H76.9272V65.5664ZM76.9272 50.8449V47.8449H73.9272V50.8449H76.9272ZM76.9272 8.52057H73.9272V11.5206H76.9272V8.52057ZM25.4019 65.5664H22.4019V68.5664H25.4019V65.5664ZM70.4865 65.5664V68.5664H73.4865V65.5664H70.4865ZM25.4019 50.8449V47.8449H22.4019V50.8449H25.4019ZM30.0024 50.8449H33.0024V47.8449H30.0024V50.8449ZM30.0024 54.5253H27.0024V57.5253H30.0024V54.5253ZM65.8861 54.5253V57.5253H68.8861V54.5253H65.8861ZM65.8861 50.8449V47.8449H62.8861V50.8449H65.8861ZM70.4865 50.8449H73.4865V47.8449H70.4865V50.8449ZM18.9612 6H76.9272V0H18.9612V6ZM21.9612 8.52057V3H15.9612V8.52057H21.9612ZM16 11.5206H18.9612V5.52057H16V11.5206ZM10 17.5206C10 14.2069 12.6863 11.5206 16 11.5206V5.52057C9.37258 5.52057 4 10.8932 4 17.5206H10ZM10 41.8449V17.5206H4V41.8449H10ZM16 47.8449C12.6863 47.8449 10 45.1586 10 41.8449H4C4 48.4723 9.37258 53.8449 16 53.8449V47.8449ZM18.9612 47.8449H16V53.8449H18.9612V47.8449ZM21.9612 65.5664V50.8449H15.9612V65.5664H21.9612ZM9.76028 68.5664H18.9612L18.9612 62.5664L9.76028 62.5664L9.76028 68.5664ZM12.7603 80.2879V65.5664H6.76028V80.2879H12.7603ZM86.1281 77.2879H9.76028V83.2879H86.1281V77.2879ZM83.1281 65.5664V80.2879H89.1281V65.5664H83.1281ZM76.9272 68.5664H86.1281V62.5664L76.9272 62.5664V68.5664ZM73.9272 50.8449V65.5664H79.9272V50.8449H73.9272ZM79.8884 47.8449H76.9272V53.8449H79.8884V47.8449ZM85.8884 41.8449C85.8884 45.1586 83.2021 47.8449 79.8884 47.8449V53.8449C86.5158 53.8449 91.8884 48.4723 91.8884 41.8449H85.8884ZM85.8884 17.5206V41.8449H91.8884V17.5206H85.8884ZM79.8884 11.5206C83.2021 11.5206 85.8884 14.2069 85.8884 17.5206H91.8884C91.8884 10.8932 86.5158 5.52057 79.8884 5.52057V11.5206ZM76.9272 11.5206H79.8884V5.52057H76.9272V11.5206ZM73.9272 3V8.52057H79.9272V3H73.9272ZM25.4019 68.5664H70.4865V62.5664H25.4019V68.5664ZM22.4019 50.8449V65.5664H28.4019V50.8449H22.4019ZM30.0024 47.8449H25.4019V53.8449H30.0024V47.8449ZM33.0024 54.5253V50.8449H27.0024V54.5253H33.0024ZM65.8861 51.5253H30.0024V57.5253H65.8861V51.5253ZM62.8861 50.8449V54.5253H68.8861V50.8449H62.8861ZM70.4865 47.8449H65.8861V53.8449H70.4865V47.8449ZM73.4865 65.5664V50.8449H67.4865V65.5664H73.4865Z" fill="#333432" mask="url(#path-1-outside-1_177_76)"/>
<rect x="7" y="8.52051" width="81.8884" height="42.3243" rx="9" fill="#FA5C01"/>
<rect x="30.0024" y="8.52051" width="35.8837" height="46.0047" fill="#E7DAB9"/>
<rect x="18.9609" y="49.9248" width="6.44066" height="15.6416" fill="white"/>
<rect x="70.4863" y="49.9248" width="6.44066" height="15.6416" fill="white"/>
<rect x="9.76025" y="65.5664" width="76.3679" height="14.7215" fill="white"/>
<rect x="18.9609" y="3" width="57.966" height="5.52057" fill="#75959F"/>
</g>
<defs>
<filter id="filter0_d_177_76" x="0" y="0" width="95.8882" height="91.2878" filterUnits="userSpaceOnUse" color-interpolation-filters="sRGB">
<feFlood flood-opacity="0" result="BackgroundImageFix"/>
<feColorMatrix in="SourceAlpha" type="matrix" values="0 0 0 0 0 0 0 0 0 0 0 0 0 0 0 0 0 0 127 0" result="hardAlpha"/>
<feOffset dy="4"/>
<feGaussianBlur stdDeviation="2"/>
<feComposite in2="hardAlpha" operator="out"/>
<feColorMatrix type="matrix" values="0 0 0 0 0 0 0 0 0 0 0 0 0 0 0 0 0 0 0.25 0"/>
<feBlend mode="normal" in2="BackgroundImageFix" result="effect1_dropShadow_177_76"/>
<feBlend mode="normal" in="SourceGraphic" in2="effect1_dropShadow_177_76" result="shape"/>
</filter>
</defs>
</svg>
