<svg width="29" height="24" viewBox="0 0 29 24" fill="none" xmlns="http://www.w3.org/2000/svg">
<path d="M10.8262 2.7526L6.34677 7.19989H1.20833C0.540729 7.19989 0 7.73687 0 8.39984V15.5995C0 16.262 0.540729 16.7994 1.20833 16.7994H6.34677L10.8262 21.2467C11.5829 21.9982 12.8889 21.4702 12.8889 20.3983V3.60106C12.8889 2.52811 11.5819 2.00214 10.8262 2.7526ZM22.5732 0.198722C22.0108 -0.16776 21.2551 -0.0132676 20.886 0.546206C20.5165 1.10468 20.6736 1.85514 21.236 2.22163C24.5725 4.39603 26.5637 8.05135 26.5637 12.0002C26.5637 15.949 24.5725 19.6043 21.236 21.7787C20.6736 22.1447 20.5165 22.8957 20.886 23.4536C21.2405 23.9891 21.9902 24.1816 22.5732 23.8011C26.5969 21.1782 29 16.7659 29 11.9997C29 7.23339 26.5969 2.8216 22.5732 0.198722ZM24.1667 11.9997C24.1667 8.82332 22.5525 5.90295 19.8484 4.18804C19.285 3.83105 18.5378 3.99704 18.1809 4.56102C17.8239 5.12499 17.9906 5.87146 18.554 6.22894C20.5553 7.49838 21.75 9.65528 21.75 11.9997C21.75 14.3441 20.5553 16.501 18.554 17.7704C17.9906 18.1274 17.8239 18.8738 18.1809 19.4383C18.5086 19.9563 19.2442 20.1953 19.8484 19.8113C22.5525 18.0964 24.1667 15.1765 24.1667 11.9997ZM17.0289 8.15635C16.4459 7.83986 15.7103 8.04835 15.3871 8.62883C15.0654 9.2093 15.2784 9.93876 15.8629 10.2592C16.5129 10.6137 16.9167 11.2812 16.9167 11.9997C16.9167 12.7186 16.5129 13.3856 15.8634 13.7401C15.2789 14.0606 15.0659 14.79 15.3876 15.3705C15.7114 15.9535 16.4474 16.1605 17.0294 15.843C18.4507 15.0655 19.3338 13.5931 19.3338 11.9992C19.3338 10.4052 18.4507 8.93331 17.0289 8.15635Z" fill="white"/>
</svg>
