<svg width="149" height="147" viewBox="0 0 149 147" fill="none" xmlns="http://www.w3.org/2000/svg">
<mask id="path-1-inside-1_738_5" fill="white">
<path d="M0 74.5C0 33.3548 33.3548 0 74.5 0V0C115.645 0 149 33.3548 149 74.5V147H0V74.5Z"/>
</mask>
<path d="M0 74.5C0 33.3548 33.3548 0 74.5 0V0C115.645 0 149 33.3548 149 74.5V147H0V74.5Z" fill="#FFA800"/>
<path d="M-3 74.5C-3 31.6979 31.6979 -3 74.5 -3C117.302 -3 152 31.6979 152 74.5H146C146 35.0116 113.988 3 74.5 3C35.0116 3 3 35.0116 3 74.5H-3ZM149 147H0H149ZM-3 147V74.5C-3 31.6979 31.6979 -3 74.5 -3V3C35.0116 3 3 35.0116 3 74.5V147H-3ZM74.5 -3C117.302 -3 152 31.6979 152 74.5V147H146V74.5C146 35.0116 113.988 3 74.5 3V-3Z" fill="#FFDC24" mask="url(#path-1-inside-1_738_5)"/>
</svg>
