<svg width="42" height="47" viewBox="0 0 42 47" fill="none" xmlns="http://www.w3.org/2000/svg">
<g filter="url(#filter0_d_362_2)">
<mask id="path-1-outside-1_362_2" maskUnits="userSpaceOnUse" x="2" y="0" width="38" height="43" fill="black">
<rect fill="white" x="2" width="38" height="43"/>
<path fill-rule="evenodd" clip-rule="evenodd" d="M13.6717 14.3371C15.7953 13.2782 18.1941 12.6819 20.7333 12.6819C23.2728 12.6819 25.6717 13.2782 27.7954 14.3374C27.4137 10.7746 24.3977 8 20.7335 8C17.0695 8 14.0535 10.7745 13.6717 14.3371ZM8.9627 17.9286C6.49726 20.6818 5 24.306 5 28.2769C5 36.8898 12.0441 39.3075 20.7333 39.3075C29.4226 39.3075 36.4667 36.8898 36.4667 28.2769C36.4667 24.3062 34.9695 20.6821 32.5043 17.929C32.7212 17.0222 32.8361 16.0758 32.8361 15.1026C32.8361 8.4185 27.4176 3 20.7335 3C14.0495 3 8.63098 8.4185 8.63098 15.1026C8.63098 16.0757 8.74583 17.0219 8.9627 17.9286Z"/>
</mask>
<path fill-rule="evenodd" clip-rule="evenodd" d="M13.6717 14.3371C15.7953 13.2782 18.1941 12.6819 20.7333 12.6819C23.2728 12.6819 25.6717 13.2782 27.7954 14.3374C27.4137 10.7746 24.3977 8 20.7335 8C17.0695 8 14.0535 10.7745 13.6717 14.3371ZM8.9627 17.9286C6.49726 20.6818 5 24.306 5 28.2769C5 36.8898 12.0441 39.3075 20.7333 39.3075C29.4226 39.3075 36.4667 36.8898 36.4667 28.2769C36.4667 24.3062 34.9695 20.6821 32.5043 17.929C32.7212 17.0222 32.8361 16.0758 32.8361 15.1026C32.8361 8.4185 27.4176 3 20.7335 3C14.0495 3 8.63098 8.4185 8.63098 15.1026C8.63098 16.0757 8.74583 17.0219 8.9627 17.9286Z" fill="#FFDC24"/>
<path d="M13.6717 14.3371L10.6888 14.0175L10.1048 19.4683L15.0106 17.0218L13.6717 14.3371ZM27.7954 14.3374L26.4565 17.022L31.3622 19.4686L30.7783 14.0178L27.7954 14.3374ZM8.9627 17.9286L11.1976 19.9299L12.246 18.7591L11.8804 17.2307L8.9627 17.9286ZM32.5043 17.929L29.5866 17.2309L29.221 18.7594L30.2693 19.9302L32.5043 17.929ZM15.0106 17.0218C16.727 16.1659 18.6683 15.6819 20.7333 15.6819V9.68188C17.7198 9.68188 14.8636 10.3904 12.3329 11.6524L15.0106 17.0218ZM20.7333 15.6819C22.7985 15.6819 24.74 16.1659 26.4565 17.022L29.1343 11.6527C26.6035 10.3905 23.7471 9.68188 20.7333 9.68188V15.6819ZM30.7783 14.0178C30.2351 8.947 25.9473 5 20.7335 5V11C22.848 11 24.5923 12.6022 24.8124 14.6569L30.7783 14.0178ZM20.7335 5C15.5199 5 11.2322 8.94684 10.6888 14.0175L16.6547 14.6568C16.8748 12.6021 18.6191 11 20.7335 11V5ZM8 28.2769C8 25.0758 9.2036 22.1566 11.1976 19.9299L6.72781 15.9273C3.79091 19.207 2 23.5363 2 28.2769H8ZM20.7333 36.3075C16.5609 36.3075 13.2825 35.7076 11.1334 34.4387C9.25133 33.3275 8 31.5827 8 28.2769H2C2 33.584 4.2707 37.3545 8.08292 39.6054C11.6282 41.6986 16.2165 42.3075 20.7333 42.3075V36.3075ZM33.4667 28.2769C33.4667 31.5827 32.2153 33.3275 30.3332 34.4387C28.1842 35.7076 24.9057 36.3075 20.7333 36.3075V42.3075C25.2502 42.3075 29.8384 41.6986 33.3837 39.6054C37.196 37.3545 39.4667 33.584 39.4667 28.2769H33.4667ZM30.2693 19.9302C32.2632 22.1569 33.4667 25.0759 33.4667 28.2769H39.4667C39.4667 23.5365 37.6759 19.2073 34.7393 15.9277L30.2693 19.9302ZM35.422 18.627C35.6932 17.4933 35.8361 16.3126 35.8361 15.1026H29.8361C29.8361 15.839 29.7493 16.5511 29.5866 17.2309L35.422 18.627ZM35.8361 15.1026C35.8361 6.76165 29.0745 0 20.7335 0V6C25.7607 6 29.8361 10.0754 29.8361 15.1026H35.8361ZM20.7335 0C12.3926 0 5.63098 6.76165 5.63098 15.1026H11.631C11.631 10.0754 15.7063 6 20.7335 6V0ZM5.63098 15.1026C5.63098 16.3125 5.77386 17.493 6.04502 18.6265L11.8804 17.2307C11.7178 16.5509 11.631 15.8389 11.631 15.1026H5.63098Z" fill="#8C5828" mask="url(#path-1-outside-1_362_2)"/>
<mask id="path-3-outside-2_362_2" maskUnits="userSpaceOnUse" x="14" y="20.1538" width="16" height="13" fill="black">
<rect fill="white" x="14" y="20.1538" width="16" height="13"/>
<path d="M21.2292 29.3338C22.1912 29.6978 21.7752 31.2448 20.8002 30.8808C19.8772 30.5168 19.0062 29.8538 18.1742 29.3208C17.7582 29.0478 17.1992 28.7878 16.7052 28.4628C16.7182 29.0608 16.7182 29.6458 16.7182 30.2438C16.7182 31.2708 15.1062 31.2708 15.1062 30.2438C15.1062 27.7348 15.0672 25.2258 15.1582 22.7168C15.1972 21.6898 16.7962 21.6898 16.7572 22.7168C16.7182 23.7178 16.7052 24.7188 16.7052 25.7198C17.0562 25.3428 17.4332 24.9788 17.7452 24.5888C18.3952 23.7828 19.1492 23.0288 19.8902 22.3008C20.6312 21.5728 21.7622 22.7038 21.0342 23.4318C20.2932 24.1598 19.5652 24.8878 18.9022 25.6808C18.4992 26.1748 17.9792 26.6428 17.5632 27.1498C18.0312 27.4748 18.7982 27.8128 19.1492 28.0468C19.7862 28.4498 20.5272 29.0608 21.2292 29.3338ZM27.631 21.8068C28.658 21.8068 28.658 23.4058 27.631 23.4058C26.903 23.4058 25.629 23.1848 24.81 23.3798C24.771 24.3288 24.849 25.3168 24.875 26.2528C24.914 27.7088 24.849 29.1648 24.836 30.6078C24.836 31.6478 23.224 31.6478 23.237 30.6078C23.263 28.1248 23.146 25.6158 23.237 23.1328C23.302 21.2088 26.305 21.8068 27.631 21.8068Z"/>
</mask>
<path d="M21.2292 29.3338C22.1912 29.6978 21.7752 31.2448 20.8002 30.8808C19.8772 30.5168 19.0062 29.8538 18.1742 29.3208C17.7582 29.0478 17.1992 28.7878 16.7052 28.4628C16.7182 29.0608 16.7182 29.6458 16.7182 30.2438C16.7182 31.2708 15.1062 31.2708 15.1062 30.2438C15.1062 27.7348 15.0672 25.2258 15.1582 22.7168C15.1972 21.6898 16.7962 21.6898 16.7572 22.7168C16.7182 23.7178 16.7052 24.7188 16.7052 25.7198C17.0562 25.3428 17.4332 24.9788 17.7452 24.5888C18.3952 23.7828 19.1492 23.0288 19.8902 22.3008C20.6312 21.5728 21.7622 22.7038 21.0342 23.4318C20.2932 24.1598 19.5652 24.8878 18.9022 25.6808C18.4992 26.1748 17.9792 26.6428 17.5632 27.1498C18.0312 27.4748 18.7982 27.8128 19.1492 28.0468C19.7862 28.4498 20.5272 29.0608 21.2292 29.3338ZM27.631 21.8068C28.658 21.8068 28.658 23.4058 27.631 23.4058C26.903 23.4058 25.629 23.1848 24.81 23.3798C24.771 24.3288 24.849 25.3168 24.875 26.2528C24.914 27.7088 24.849 29.1648 24.836 30.6078C24.836 31.6478 23.224 31.6478 23.237 30.6078C23.263 28.1248 23.146 25.6158 23.237 23.1328C23.302 21.2088 26.305 21.8068 27.631 21.8068Z" fill="#FFB800"/>
<path d="M21.2292 29.3338L20.8668 30.2659L20.8753 30.2691L21.2292 29.3338ZM20.8002 30.8808L20.4334 31.8111L20.4419 31.8144L20.4505 31.8176L20.8002 30.8808ZM18.1742 29.3208L17.6255 30.1569L17.6348 30.1628L18.1742 29.3208ZM16.7052 28.4628L17.2549 27.6274L15.6641 26.5808L15.7055 28.4845L16.7052 28.4628ZM15.1582 22.7168L14.159 22.6789L14.1589 22.6806L15.1582 22.7168ZM16.7572 22.7168L17.7565 22.7557L17.7565 22.7548L16.7572 22.7168ZM16.7052 25.7198H15.7052V28.2614L17.4371 26.4012L16.7052 25.7198ZM17.7452 24.5888L16.9668 23.9611L16.9644 23.9641L17.7452 24.5888ZM19.8902 22.3008L19.1894 21.5875L19.1894 21.5875L19.8902 22.3008ZM21.0342 23.4318L21.7351 24.1452L21.7413 24.1389L21.0342 23.4318ZM18.9022 25.6808L18.135 25.0393L18.1274 25.0487L18.9022 25.6808ZM17.5632 27.1498L16.7902 26.5155L16.1029 27.3531L16.9928 27.9712L17.5632 27.1498ZM19.1492 28.0468L18.5945 28.8789L18.6045 28.8855L18.6146 28.8919L19.1492 28.0468ZM20.8753 30.2691C20.8724 30.268 20.8535 30.2596 20.8307 30.2375C20.8087 30.2161 20.7937 30.1922 20.785 30.1717C20.7702 30.1369 20.7754 30.1206 20.7764 30.1168C20.7766 30.1161 20.7934 30.0517 20.8882 29.9931C20.9389 29.9618 20.9988 29.9417 21.0588 29.9369C21.1175 29.9322 21.1507 29.9442 21.15 29.944L20.4505 31.8176C20.9571 32.0068 21.4924 31.9708 21.9395 31.6945C22.3565 31.4369 22.6 31.0312 22.7058 30.6438C22.9132 29.8842 22.6581 28.8053 21.5831 28.3985L20.8753 30.2691ZM21.1671 29.9505C20.3648 29.6341 19.6472 29.0768 18.7137 28.4788L17.6348 30.1628C18.3653 30.6308 19.3897 31.3995 20.4334 31.8111L21.1671 29.9505ZM18.7229 28.4848C18.4756 28.3225 18.1932 28.1687 17.9518 28.0356C17.6953 27.8942 17.4647 27.7654 17.2549 27.6274L16.1556 29.2982C16.4398 29.4852 16.7357 29.6489 16.9862 29.7871C17.2517 29.9334 17.4569 30.0462 17.6256 30.1569L18.7229 28.4848ZM15.7055 28.4845C15.7182 29.0699 15.7182 29.6441 15.7182 30.2438H17.7182C17.7182 29.6475 17.7183 29.0517 17.705 28.4411L15.7055 28.4845ZM15.7182 30.2438C15.7182 30.2389 15.7198 30.208 15.7397 30.1645C15.7595 30.1214 15.7884 30.0853 15.819 30.0594C15.8479 30.0348 15.8728 30.0237 15.8865 30.0191C15.8999 30.0145 15.9081 30.0141 15.9122 30.0141C15.9163 30.0141 15.9246 30.0145 15.938 30.0191C15.9517 30.0237 15.9766 30.0348 16.0055 30.0594C16.036 30.0853 16.065 30.1214 16.0847 30.1645C16.1046 30.208 16.1062 30.2389 16.1062 30.2438H14.1062C14.1062 30.7882 14.3315 31.2615 14.7107 31.5836C15.0683 31.8874 15.5096 32.0141 15.9122 32.0141C16.3149 32.0141 16.7562 31.8874 17.1138 31.5836C17.493 31.2615 17.7182 30.7882 17.7182 30.2438H15.7182ZM16.1062 30.2438C16.1062 27.714 16.0675 25.238 16.1576 22.7531L14.1589 22.6806C14.067 25.2137 14.1062 27.7556 14.1062 30.2438H16.1062ZM16.1575 22.7548C16.1574 22.7584 16.1551 22.7846 16.137 22.8213C16.1192 22.8576 16.0941 22.8875 16.0684 22.9088C16.0224 22.947 15.9909 22.9466 15.987 22.9466C15.9844 22.9466 15.9334 22.9471 15.8665 22.8879C15.8303 22.8559 15.7984 22.8129 15.7781 22.764C15.7578 22.7153 15.7578 22.6821 15.758 22.6789L17.7565 22.7548C17.7771 22.2132 17.5722 21.7268 17.1921 21.3903C16.8352 21.0744 16.3893 20.9466 15.987 20.9466C15.1918 20.9466 14.2038 21.4967 14.159 22.6789L16.1575 22.7548ZM15.758 22.6779C15.7183 23.6958 15.7052 24.7105 15.7052 25.7198H17.7052C17.7052 24.7271 17.7181 23.7398 17.7565 22.7557L15.758 22.6779ZM17.4371 26.4012C17.7369 26.0793 18.1838 25.6414 18.5261 25.2135L16.9644 23.9641C16.6827 24.3162 16.3756 24.6064 15.9733 25.0384L17.4371 26.4012ZM18.5237 25.2166C19.1331 24.4609 19.8488 23.7434 20.5911 23.0141L19.1894 21.5875C18.4497 22.3142 17.6574 23.1048 16.9668 23.9611L18.5237 25.2166ZM20.5911 23.0141C20.5915 23.0138 20.5866 23.0185 20.5758 23.0255C20.5649 23.0326 20.5497 23.0407 20.5304 23.0479C20.4899 23.0629 20.447 23.0681 20.4086 23.0652C20.3385 23.0599 20.3109 23.0323 20.308 23.0294C20.3054 23.0268 20.2756 22.9975 20.2698 22.9227C20.2666 22.8818 20.2721 22.8359 20.2885 22.7923C20.3049 22.7486 20.3249 22.7269 20.3271 22.7247L21.7413 24.1389C22.124 23.7563 22.3022 23.2649 22.2638 22.7685C22.2276 22.2996 22.0052 21.8966 21.7182 21.6112C21.4309 21.3255 21.0272 21.1062 20.5593 21.0709C20.0652 21.0335 19.5748 21.2089 19.1894 21.5875L20.5911 23.0141ZM20.3334 22.7185C19.5921 23.4467 18.8326 24.205 18.135 25.0394L19.6694 26.3222C20.2978 25.5706 20.9943 24.8729 21.7351 24.1451L20.3334 22.7185ZM18.1274 25.0487C17.9559 25.2589 17.7541 25.4701 17.5161 25.718C17.2889 25.9547 17.0271 26.2267 16.7902 26.5155L18.3363 27.7841C18.5153 27.5659 18.7216 27.3504 18.9591 27.1029C19.1859 26.8665 19.4456 26.5967 19.6771 26.3129L18.1274 25.0487ZM16.9928 27.9712C17.2857 28.1746 17.6491 28.3676 17.9354 28.5179C18.2621 28.6893 18.4753 28.7994 18.5945 28.8789L19.7039 27.2148C19.4722 27.0603 19.1264 26.8843 18.8649 26.747C18.5629 26.5885 18.3087 26.45 18.1336 26.3284L16.9928 27.9712ZM18.6146 28.8919C18.9267 29.0893 19.1952 29.2919 19.6066 29.5687C19.9706 29.8136 20.4073 30.0871 20.8668 30.2658L21.5917 28.4018C21.3492 28.3075 21.0644 28.139 20.7231 27.9094C20.4292 27.7117 20.0088 27.4073 19.6839 27.2017L18.6146 28.8919ZM24.81 23.3798L24.5784 22.407L23.842 22.5823L23.8109 23.3387L24.81 23.3798ZM24.875 26.2528L25.8747 26.226L25.8746 26.225L24.875 26.2528ZM24.836 30.6078L23.836 30.5988V30.6078H24.836ZM23.237 30.6078L24.237 30.6203L24.237 30.6183L23.237 30.6078ZM23.237 23.1328L24.2364 23.1694L24.2365 23.1666L23.237 23.1328ZM27.631 22.8068C27.6273 22.8068 27.5974 22.8055 27.5545 22.786C27.512 22.7667 27.4757 22.738 27.4492 22.7071C27.4009 22.6507 27.4013 22.6097 27.4013 22.6063C27.4013 22.603 27.4009 22.5619 27.4492 22.5055C27.4757 22.4746 27.512 22.4459 27.5545 22.4266C27.5974 22.4071 27.6273 22.4058 27.631 22.4058V24.4058C28.1724 24.4058 28.6451 24.1838 28.9683 23.8064C29.2733 23.4502 29.4013 23.0094 29.4013 22.6063C29.4013 22.2032 29.2733 21.7624 28.9683 21.4062C28.6451 21.0289 28.1724 20.8068 27.631 20.8068V22.8068ZM27.631 22.4058C27.3023 22.4058 26.9115 22.3575 26.3149 22.3215C25.8011 22.2905 25.1457 22.2719 24.5784 22.407L25.0417 24.3526C25.2933 24.2927 25.6845 24.2871 26.1945 24.3179C26.6215 24.3436 27.2318 24.4058 27.631 24.4058V22.4058ZM23.8109 23.3387C23.7701 24.332 23.8514 25.4168 23.8754 26.2806L25.8746 26.225C25.8466 25.2168 25.772 24.3257 25.8092 23.4209L23.8109 23.3387ZM23.8754 26.2796C23.9138 27.7147 23.8495 29.1053 23.8361 30.5988L25.836 30.6168C25.8485 29.2243 25.9142 27.7029 25.8747 26.226L23.8754 26.2796ZM23.836 30.6078C23.836 30.608 23.836 30.6007 23.8388 30.5874C23.8416 30.574 23.8467 30.5568 23.8555 30.5373C23.874 30.4964 23.9016 30.4611 23.9317 30.4351C23.9867 30.3878 24.0271 30.3878 24.0317 30.3878C24.036 30.3878 24.0797 30.3878 24.1381 30.4386C24.1699 30.4664 24.1987 30.5038 24.2176 30.5468C24.2265 30.5673 24.2316 30.5853 24.2344 30.5992C24.237 30.613 24.237 30.6205 24.237 30.6203L22.2371 30.5953C22.2303 31.1385 22.4463 31.6175 22.8247 31.947C23.1817 32.2578 23.6259 32.3878 24.0317 32.3878C24.4376 32.3878 24.8802 32.2578 25.237 31.9505C25.6145 31.6253 25.836 31.1508 25.836 30.6078H23.836ZM24.237 30.6183C24.264 28.0336 24.1451 25.6601 24.2364 23.1694L22.2377 23.0962C22.147 25.5715 22.262 28.216 22.2371 30.5973L24.237 30.6183ZM24.2365 23.1666C24.2422 22.9964 24.2865 22.9687 24.3318 22.9375C24.4374 22.8648 24.6607 22.7827 25.0591 22.7435C25.4414 22.7059 25.8796 22.7164 26.3389 22.7419C26.7578 22.7651 27.2632 22.8068 27.631 22.8068V20.8068C27.3359 20.8068 26.9687 20.7737 26.4496 20.745C25.9707 20.7184 25.4056 20.6997 24.8632 20.7531C24.337 20.8049 23.7145 20.9341 23.1973 21.2904C22.6198 21.6882 22.2644 22.3073 22.2376 23.099L24.2365 23.1666Z" fill="#F19710" mask="url(#path-3-outside-2_362_2)"/>
</g>
<path d="M14.6005 35.6535C17.1006 33.5044 16.6006 35.0044 23.256 34.3957C32.8634 33.5171 31.2034 24.365 33.5709 27.2646C34.1324 28.7428 34.6005 36.0043 25.0096 37.2711C17.1005 38.0043 12.9103 37.1065 14.6005 35.6535Z" fill="#FFF9D7"/>
<defs>
<filter id="filter0_d_362_2" x="0" y="0" width="41.4668" height="46.3075" filterUnits="userSpaceOnUse" color-interpolation-filters="sRGB">
<feFlood flood-opacity="0" result="BackgroundImageFix"/>
<feColorMatrix in="SourceAlpha" type="matrix" values="0 0 0 0 0 0 0 0 0 0 0 0 0 0 0 0 0 0 127 0" result="hardAlpha"/>
<feOffset dy="2"/>
<feGaussianBlur stdDeviation="1"/>
<feComposite in2="hardAlpha" operator="out"/>
<feColorMatrix type="matrix" values="0 0 0 0 0 0 0 0 0 0 0 0 0 0 0 0 0 0 0.25 0"/>
<feBlend mode="normal" in2="BackgroundImageFix" result="effect1_dropShadow_362_2"/>
<feBlend mode="normal" in="SourceGraphic" in2="effect1_dropShadow_362_2" result="shape"/>
</filter>
</defs>
</svg>
