<svg width="115" height="115" viewBox="0 0 115 115" fill="none" xmlns="http://www.w3.org/2000/svg">
<circle cx="57.309" cy="57.309" r="52.309" fill="url(#paint0_linear_352_271)" stroke="#923209" stroke-width="10"/>
<circle cx="57.3088" cy="57.3091" r="31.7785" fill="#F4F1E4" stroke="url(#paint1_linear_352_271)" stroke-width="8"/>
<mask id="path-3-outside-1_352_271" maskUnits="userSpaceOnUse" x="24.959" y="33.0676" width="64" height="54" fill="black">
<rect fill="white" x="24.959" y="33.0676" width="64" height="54"/>
<path fill-rule="evenodd" clip-rule="evenodd" d="M60.4787 39.9109C61.3779 39.6075 62.4112 39.8142 63.1277 40.5307C63.7106 41.1135 63.9561 41.9061 63.8641 42.6655C64.8741 41.9047 66.316 41.9842 67.2358 42.904C68.2336 43.9019 68.2425 45.5141 67.2626 46.5229C68.2715 45.5434 69.8833 45.5525 70.8809 46.5502C71.8878 47.557 71.8878 49.1894 70.8809 50.1962L67.4924 53.5847L67.4925 53.5852L69.6185 51.4592C70.3646 50.7131 71.5742 50.7131 72.3203 51.4592C73.0663 52.2052 73.0663 53.4148 72.3203 54.1609L69.5894 56.8917L84.5253 71.8275L75.2076 81.1452L59.6696 65.6072C58.3873 66.1088 57.0162 66.3156 55.6607 66.2276L39.2766 82.6116L29.959 73.2939L45.2349 58.018C44.6544 57.512 44.2876 56.767 44.2876 55.9365C44.2876 54.4193 45.5116 53.1879 47.026 53.1761H45.821C44.2965 53.1761 43.0606 51.9402 43.0606 50.4157C43.0606 48.8911 44.2965 47.6553 45.821 47.6553H52.4335L52.4335 47.6552H44.5941C43.0695 47.6552 41.8336 46.4193 41.8336 44.8948C41.8336 43.3703 43.0695 42.1344 44.5941 42.1344H50.9078C51.0211 41.3945 51.4331 40.7029 52.1049 40.2548L56.1876 37.5319C57.4559 36.6859 59.1699 37.0283 60.0158 38.2967C60.3467 38.7928 60.4957 39.357 60.4787 39.9109Z"/>
</mask>
<path fill-rule="evenodd" clip-rule="evenodd" d="M60.4787 39.9109C61.3779 39.6075 62.4112 39.8142 63.1277 40.5307C63.7106 41.1135 63.9561 41.9061 63.8641 42.6655C64.8741 41.9047 66.316 41.9842 67.2358 42.904C68.2336 43.9019 68.2425 45.5141 67.2626 46.5229C68.2715 45.5434 69.8833 45.5525 70.8809 46.5502C71.8878 47.557 71.8878 49.1894 70.8809 50.1962L67.4924 53.5847L67.4925 53.5852L69.6185 51.4592C70.3646 50.7131 71.5742 50.7131 72.3203 51.4592C73.0663 52.2052 73.0663 53.4148 72.3203 54.1609L69.5894 56.8917L84.5253 71.8275L75.2076 81.1452L59.6696 65.6072C58.3873 66.1088 57.0162 66.3156 55.6607 66.2276L39.2766 82.6116L29.959 73.2939L45.2349 58.018C44.6544 57.512 44.2876 56.767 44.2876 55.9365C44.2876 54.4193 45.5116 53.1879 47.026 53.1761H45.821C44.2965 53.1761 43.0606 51.9402 43.0606 50.4157C43.0606 48.8911 44.2965 47.6553 45.821 47.6553H52.4335L52.4335 47.6552H44.5941C43.0695 47.6552 41.8336 46.4193 41.8336 44.8948C41.8336 43.3703 43.0695 42.1344 44.5941 42.1344H50.9078C51.0211 41.3945 51.4331 40.7029 52.1049 40.2548L56.1876 37.5319C57.4559 36.6859 59.1699 37.0283 60.0158 38.2967C60.3467 38.7928 60.4957 39.357 60.4787 39.9109Z" fill="#D0897A"/>
<path d="M60.4787 39.9109L57.4801 39.8186L57.3474 44.1331L61.4375 42.7535L60.4787 39.9109ZM63.1277 40.5307L61.0064 42.652L61.0064 42.652L63.1277 40.5307ZM63.8641 42.6655L60.8858 42.3047L60.0379 49.3032L65.669 45.0618L63.8641 42.6655ZM67.2358 42.904L69.3571 40.7827L69.3571 40.7827L67.2358 42.904ZM67.2626 46.5229L65.1107 44.4326L69.3523 48.6753L67.2626 46.5229ZM70.8809 46.5502L68.7596 48.6715L68.7596 48.6715L70.8809 46.5502ZM70.8809 50.1962L68.7596 48.0749L68.7596 48.0749L70.8809 50.1962ZM67.4924 53.5847L65.3711 51.4634L64.3067 52.5278L64.5238 54.0174L67.4924 53.5847ZM67.4925 53.5852L64.5239 54.0179L65.3862 59.9342L69.6138 55.7065L67.4925 53.5852ZM72.3203 54.1609L70.1989 52.0396L70.1989 52.0396L72.3203 54.1609ZM69.5894 56.8917L67.4681 54.7704L65.3468 56.8917L67.4681 59.013L69.5894 56.8917ZM84.5253 71.8275L86.6466 73.9488L88.7679 71.8275L86.6466 69.7062L84.5253 71.8275ZM75.2076 81.1452L73.0863 83.2665L75.2076 85.3878L77.3289 83.2665L75.2076 81.1452ZM59.6696 65.6072L61.791 63.4859L60.4038 62.0987L58.5768 62.8134L59.6696 65.6072ZM55.6607 66.2276L55.8551 63.2339L54.4998 63.1458L53.5394 64.1062L55.6607 66.2276ZM39.2766 82.6116L37.1553 84.7329L39.2766 86.8542L41.398 84.7329L39.2766 82.6116ZM29.959 73.2939L27.8377 71.1726L25.7163 73.2939L27.8377 75.4153L29.959 73.2939ZM45.2349 58.018L47.3562 60.1393L49.6279 57.8677L47.2063 55.7567L45.2349 58.018ZM47.026 53.1761L47.0494 56.176L47.026 50.1761V53.1761ZM52.4335 47.6553V50.6553H53.4665L54.2804 50.0193L52.4335 47.6553ZM52.4335 47.6552L54.2805 50.0193L61.1465 44.6552H52.4335V47.6552ZM50.9078 42.1344V45.1344H53.4835L53.8733 42.5884L50.9078 42.1344ZM52.1049 40.2548L53.7695 42.7507L53.7696 42.7507L52.1049 40.2548ZM56.1876 37.5319L54.523 35.036L54.523 35.036L56.1876 37.5319ZM60.0158 38.2967L62.5116 36.632L62.5116 36.632L60.0158 38.2967ZM61.4375 42.7535C61.2981 42.8005 61.1268 42.7723 61.0064 42.652L65.2491 38.4093C63.6957 36.856 61.4578 36.4146 59.5199 37.0682L61.4375 42.7535ZM61.0064 42.652C60.91 42.5555 60.8717 42.4209 60.8858 42.3047L66.8423 43.0264C67.0404 41.3912 66.5113 39.6716 65.2491 38.4093L61.0064 42.652ZM65.669 45.0618C65.5014 45.188 65.2668 45.1777 65.1145 45.0254L69.3571 40.7827C67.3652 38.7908 64.2468 38.6214 62.0591 40.2692L65.669 45.0618ZM65.1145 45.0254C64.951 44.8619 64.9497 44.5983 65.1107 44.4326L69.4145 48.6132C71.5354 46.4298 71.5162 42.9418 69.3571 40.7827L65.1145 45.0254ZM69.3523 48.6753C69.1866 48.8363 68.923 48.8349 68.7596 48.6715L73.0023 44.4289C70.8436 42.2702 67.3564 42.2506 65.1729 44.3704L69.3523 48.6753ZM68.7596 48.6715C68.5949 48.5068 68.5949 48.2397 68.7596 48.0749L73.0022 52.3176C75.1807 50.1392 75.1807 46.6073 73.0022 44.4289L68.7596 48.6715ZM68.7596 48.0749L65.3711 51.4634L69.6137 55.7061L73.0022 52.3176L68.7596 48.0749ZM64.5238 54.0174L64.5239 54.0179L70.4611 53.1525L70.4611 53.1521L64.5238 54.0174ZM69.6138 55.7065L71.7399 53.5805L67.4972 49.3378L65.3712 51.4639L69.6138 55.7065ZM71.7399 53.5805C71.3143 54.006 70.6244 54.006 70.1989 53.5805L74.4416 49.3378C72.5239 47.4202 69.4148 47.4202 67.4972 49.3378L71.7399 53.5805ZM70.1989 53.5805C69.7734 53.155 69.7734 52.4651 70.1989 52.0396L74.4416 56.2822C76.3592 54.3646 76.3592 51.2555 74.4416 49.3378L70.1989 53.5805ZM70.1989 52.0396L67.4681 54.7704L71.7108 59.013L74.4416 56.2822L70.1989 52.0396ZM67.4681 59.013L82.4039 73.9488L86.6466 69.7062L71.7108 54.7704L67.4681 59.013ZM82.4039 69.7062L73.0863 79.0239L77.3289 83.2665L86.6466 73.9488L82.4039 69.7062ZM77.3289 79.0239L61.791 63.4859L57.5483 67.7285L73.0863 83.2665L77.3289 79.0239ZM58.5768 62.8134C57.7092 63.1527 56.778 63.2938 55.8551 63.2339L55.4662 69.2213C57.2543 69.3374 59.0653 69.065 60.7625 68.4011L58.5768 62.8134ZM53.5394 64.1062L37.1553 80.4903L41.398 84.7329L57.782 68.3489L53.5394 64.1062ZM41.398 80.4903L32.0803 71.1726L27.8377 75.4153L37.1553 84.7329L41.398 80.4903ZM32.0803 75.4153L47.3562 60.1393L43.1136 55.8967L27.8377 71.1726L32.0803 75.4153ZM47.2063 55.7567C47.2289 55.7764 47.2489 55.8019 47.2639 55.8341C47.28 55.8689 47.2876 55.9059 47.2876 55.9365H41.2876C41.2876 57.6703 42.0573 59.2278 43.2635 60.2794L47.2063 55.7567ZM47.2876 55.9365C47.2876 56.0683 47.1814 56.175 47.0494 56.176L47.0026 50.1762C43.8418 50.2009 41.2876 52.7702 41.2876 55.9365H47.2876ZM47.026 50.1761H45.821V56.1761H47.026V50.1761ZM45.821 50.1761C45.9533 50.1761 46.0606 50.2834 46.0606 50.4157H40.0606C40.0606 53.5971 42.6396 56.1761 45.821 56.1761V50.1761ZM46.0606 50.4157C46.0606 50.548 45.9533 50.6553 45.821 50.6553V44.6553C42.6396 44.6553 40.0606 47.2343 40.0606 50.4157H46.0606ZM45.821 50.6553H52.4335V44.6553H45.821V50.6553ZM54.2804 50.0193L54.2805 50.0193L50.5866 45.2912L50.5866 45.2912L54.2804 50.0193ZM52.4335 44.6552H44.5941V50.6552H52.4335V44.6552ZM44.5941 44.6552C44.7264 44.6552 44.8336 44.7625 44.8336 44.8948H38.8336C38.8336 48.0762 41.4127 50.6552 44.5941 50.6552V44.6552ZM44.8336 44.8948C44.8336 45.0271 44.7264 45.1344 44.5941 45.1344V39.1344C41.4127 39.1344 38.8336 41.7134 38.8336 44.8948H44.8336ZM44.5941 45.1344H50.9078V39.1344H44.5941V45.1344ZM53.8733 42.5884C53.8689 42.6171 53.8585 42.6472 53.84 42.6767C53.8201 42.7085 53.7941 42.7343 53.7695 42.7507L50.4403 37.759C49.0384 38.6941 48.1778 40.1425 47.9424 41.6804L53.8733 42.5884ZM53.7696 42.7507L57.8522 40.0277L54.523 35.036L50.4403 37.759L53.7696 42.7507ZM57.8522 40.0277C57.7421 40.1011 57.5934 40.0714 57.52 39.9613L62.5116 36.632C60.7463 33.9853 57.1697 33.2708 54.523 35.036L57.8522 40.0277ZM57.52 39.9613C57.5085 39.9441 57.4972 39.9207 57.4895 39.8935C57.4821 39.8672 57.4794 39.8418 57.4801 39.8186L63.4773 40.0031C63.5129 38.8462 63.1999 37.6641 62.5116 36.632L57.52 39.9613Z" fill="#333432" mask="url(#path-3-outside-1_352_271)"/>
<path d="M60.3417 66.2792L59.281 67.3398L60.3417 68.4005L74.6451 82.7039L75.7553 83.8141L76.8137 82.6543L85.9446 72.6485L86.9281 71.5707L85.8779 70.5577L71.7613 56.9425L70.701 55.9199L69.6593 56.9615L60.3417 66.2792Z" fill="#D0897A" stroke="#333432" stroke-width="3"/>
<rect x="58.2666" y="41.7439" width="18.6434" height="21.47" rx="9.32172" transform="rotate(45 58.2666 41.7439)" fill="#F3C9A6"/>
<rect x="61.3037" y="38.7075" width="5.15628" height="14.1089" rx="2.57814" transform="rotate(45 61.3037 38.7075)" fill="#F3C9A6"/>
<rect x="65.4121" y="41.0808" width="5.15628" height="14.1089" rx="2.57814" transform="rotate(45 65.4121 41.0808)" fill="#F3C9A6"/>
<rect x="69.0576" y="44.7271" width="5.15628" height="14.1089" rx="2.57814" transform="rotate(45 69.0576 44.7271)" fill="#F3C9A6"/>
<rect x="70.9688" y="50.1082" width="3.82081" height="14.1089" rx="1.91041" transform="rotate(45 70.9688 50.1082)" fill="#F3C9A6"/>
<rect x="48.6104" y="54.6421" width="13.1772" height="26.3774" transform="rotate(45 48.6104 54.6421)" fill="#F3C9A6"/>
<rect x="41.334" y="41.6343" width="16.3357" height="6.52085" rx="3.26043" fill="#D0897A" stroke="#333432"/>
<rect x="42.5605" y="47.155" width="13.2686" height="6.52085" rx="3.26043" fill="#D0897A" stroke="#333432"/>
<rect x="43.7881" y="52.6758" width="11.4283" height="6.52085" rx="3.26043" fill="#D0897A" stroke="#333432"/>
<rect x="49.1152" y="41.6478" width="11.4283" height="6.52085" rx="3.26043" transform="rotate(-33.7019 49.1152 41.6478)" fill="#D0897A" stroke="#333432"/>
<circle cx="57.3098" cy="57.3091" r="31.7785" stroke="url(#paint2_linear_352_271)" stroke-width="8"/>
<defs>
<linearGradient id="paint0_linear_352_271" x1="57.309" y1="0" x2="57.309" y2="114.618" gradientUnits="userSpaceOnUse">
<stop offset="0.22" stop-color="#FD7D26"/>
<stop offset="1" stop-color="#B74200"/>
</linearGradient>
<linearGradient id="paint1_linear_352_271" x1="57.3088" y1="21.5305" x2="57.3088" y2="93.0876" gradientUnits="userSpaceOnUse">
<stop stop-color="#D75922"/>
<stop offset="1" stop-color="#C3450E"/>
</linearGradient>
<linearGradient id="paint2_linear_352_271" x1="57.3098" y1="21.5305" x2="57.3098" y2="93.0876" gradientUnits="userSpaceOnUse">
<stop stop-color="#D75922"/>
<stop offset="1" stop-color="#C3450E"/>
</linearGradient>
</defs>
</svg>
