<svg width="230" height="230" viewBox="0 0 230 230" fill="none" xmlns="http://www.w3.org/2000/svg">
<rect x="2.5" y="2.5" width="225" height="225" rx="112.5" fill="url(#paint0_linear_208_185)"/>
<rect x="2.5" y="2.5" width="225" height="225" rx="112.5" stroke="url(#paint1_linear_208_185)" stroke-width="5"/>
<circle cx="115.5" cy="115.5" r="85.5" fill="url(#paint2_linear_208_185)" stroke="#B73801" stroke-width="10"/>
<circle cx="115.5" cy="115.5" r="52.5" fill="#F4F1E4" stroke="#B93800" stroke-width="8"/>
<mask id="path-4-outside-1_208_185" maskUnits="userSpaceOnUse" x="63.7964" y="71.5469" width="104" height="88" fill="black">
<rect fill="white" x="63.7964" y="71.5469" width="104" height="88"/>
<path fill-rule="evenodd" clip-rule="evenodd" d="M121.749 80.4947C123.11 80.0916 124.643 80.4272 125.717 81.5013L126.352 82.1364C127.213 82.9967 127.599 84.1515 127.512 85.2763C129.082 84.0436 131.361 84.1505 132.807 85.5971L133.442 86.2323C135.004 87.7944 135.004 90.327 133.442 91.8891L129.534 95.7975L133.443 91.8891C135.005 90.327 137.537 90.327 139.099 91.8891L139.735 92.5243C141.297 94.0863 141.297 96.619 139.735 98.1811L137.253 100.662C138.542 99.3905 140.618 99.3958 141.9 100.678C143.187 101.965 143.187 104.053 141.9 105.34L137.187 110.053L162.962 135.828L146.883 151.907L120.96 125.984C118.191 128.147 114.625 128.798 111.376 127.938L84.8759 154.438L68.7964 138.358L94.9361 112.219C94.0719 111.485 93.5235 110.39 93.5235 109.168V107.641C93.5235 105.432 95.3144 103.641 97.5235 103.641H95.4063C93.1972 103.641 91.4063 101.85 91.4063 99.6407V98.1133C91.4063 95.9042 93.1972 94.1133 95.4063 94.1133H93.2891C91.08 94.1133 89.2891 92.3225 89.2891 90.1133V88.586C89.2891 86.3768 91.08 84.586 93.2891 84.586H104.63C104.773 83.4777 105.376 82.4348 106.379 81.7661L114.695 76.2196C116.533 74.9938 119.016 75.4899 120.242 77.3278L121.089 78.5985C121.481 79.1854 121.697 79.8381 121.749 80.4947Z"/>
</mask>
<path fill-rule="evenodd" clip-rule="evenodd" d="M121.749 80.4947C123.11 80.0916 124.643 80.4272 125.717 81.5013L126.352 82.1364C127.213 82.9967 127.599 84.1515 127.512 85.2763C129.082 84.0436 131.361 84.1505 132.807 85.5971L133.442 86.2323C135.004 87.7944 135.004 90.327 133.442 91.8891L129.534 95.7975L133.443 91.8891C135.005 90.327 137.537 90.327 139.099 91.8891L139.735 92.5243C141.297 94.0863 141.297 96.619 139.735 98.1811L137.253 100.662C138.542 99.3905 140.618 99.3958 141.9 100.678C143.187 101.965 143.187 104.053 141.9 105.34L137.187 110.053L162.962 135.828L146.883 151.907L120.96 125.984C118.191 128.147 114.625 128.798 111.376 127.938L84.8759 154.438L68.7964 138.358L94.9361 112.219C94.0719 111.485 93.5235 110.39 93.5235 109.168V107.641C93.5235 105.432 95.3144 103.641 97.5235 103.641H95.4063C93.1972 103.641 91.4063 101.85 91.4063 99.6407V98.1133C91.4063 95.9042 93.1972 94.1133 95.4063 94.1133H93.2891C91.08 94.1133 89.2891 92.3225 89.2891 90.1133V88.586C89.2891 86.3768 91.08 84.586 93.2891 84.586H104.63C104.773 83.4777 105.376 82.4348 106.379 81.7661L114.695 76.2196C116.533 74.9938 119.016 75.4899 120.242 77.3278L121.089 78.5985C121.481 79.1854 121.697 79.8381 121.749 80.4947Z" fill="#D0897A"/>
<path d="M121.749 80.4947L118.759 80.7344L119.054 84.4217L122.601 83.3712L121.749 80.4947ZM125.717 81.5013L123.596 83.6226L123.596 83.6226L125.717 81.5013ZM126.352 82.1364L124.231 84.2577L124.231 84.2577L126.352 82.1364ZM127.512 85.2763L124.521 85.0441L123.992 91.8552L129.365 87.6357L127.512 85.2763ZM132.807 85.5971L130.686 87.7185L130.686 87.7185L132.807 85.5971ZM133.442 86.2323L135.564 84.1109L135.564 84.1109L133.442 86.2323ZM133.442 91.8891L135.564 94.0104L135.564 94.0104L133.442 91.8891ZM129.534 95.7975L127.413 93.6762L131.655 97.9189L129.534 95.7975ZM133.443 91.8891L135.564 94.0105L135.564 94.0104L133.443 91.8891ZM139.099 91.8891L136.978 94.0104L136.978 94.0105L139.099 91.8891ZM139.735 92.5243L141.856 90.4029L141.856 90.4029L139.735 92.5243ZM139.735 98.1811L141.856 100.302L141.856 100.302L139.735 98.1811ZM137.253 100.662L135.132 98.5409L139.361 102.798L137.253 100.662ZM141.9 100.678L139.779 102.799L139.779 102.799L141.9 100.678ZM141.9 105.34L139.779 103.219L139.779 103.219L141.9 105.34ZM137.187 110.053L135.066 107.932L132.945 110.053L135.066 112.174L137.187 110.053ZM162.962 135.828L165.083 137.949L167.205 135.828L165.083 133.706L162.962 135.828ZM146.883 151.907L144.761 154.029L146.883 156.15L149.004 154.029L146.883 151.907ZM120.96 125.984L123.081 123.863L121.205 121.987L119.113 123.62L120.96 125.984ZM111.376 127.938L112.143 125.038L110.475 124.596L109.254 125.817L111.376 127.938ZM84.8759 154.438L82.7546 156.559L84.8759 158.68L86.9972 156.559L84.8759 154.438ZM68.7964 138.358L66.6751 136.237L64.5537 138.358L66.6751 140.48L68.7964 138.358ZM94.9361 112.219L97.0574 114.34L99.359 112.038L96.8777 109.932L94.9361 112.219ZM104.63 84.586V87.586H107.27L107.606 84.9681L104.63 84.586ZM106.379 81.7661L104.714 79.2703L104.714 79.2703L106.379 81.7661ZM114.695 76.2196L116.359 78.7154L116.359 78.7154L114.695 76.2196ZM120.242 77.3278L117.746 78.9924L117.746 78.9924L120.242 77.3278ZM121.089 78.5985L118.594 80.2631L118.594 80.2631L121.089 78.5985ZM122.601 83.3712C122.95 83.2679 123.33 83.357 123.596 83.6226L127.839 79.38C125.956 77.4974 123.27 76.9153 120.897 77.6182L122.601 83.3712ZM123.596 83.6226L124.231 84.2577L128.474 80.0151L127.839 79.38L123.596 83.6226ZM124.231 84.2577C124.446 84.4723 124.543 84.7559 124.521 85.0441L130.503 85.5086C130.655 83.5471 129.98 81.5212 128.474 80.0151L124.231 84.2577ZM129.365 87.6357C129.755 87.3295 130.326 87.3584 130.686 87.7185L134.929 83.4758C132.395 80.9427 128.408 80.7577 125.659 82.917L129.365 87.6357ZM130.686 87.7185L131.321 88.3536L135.564 84.1109L134.929 83.4758L130.686 87.7185ZM131.321 88.3536C131.712 88.7441 131.712 89.3773 131.321 89.7678L135.564 94.0104C138.297 91.2768 138.297 86.8446 135.564 84.1109L131.321 88.3536ZM131.321 89.7678L127.413 93.6762L131.655 97.9188L135.564 94.0104L131.321 89.7678ZM131.655 97.9189L135.564 94.0105L131.321 89.7678L127.413 93.6762L131.655 97.9189ZM135.564 94.0104C135.954 93.6199 136.588 93.6199 136.978 94.0104L141.221 89.7678C138.487 87.0341 134.055 87.0341 131.321 89.7678L135.564 94.0104ZM136.978 94.0105L137.613 94.6456L141.856 90.4029L141.221 89.7678L136.978 94.0105ZM137.613 94.6456C138.004 95.0361 138.004 95.6693 137.613 96.0598L141.856 100.302C144.589 97.5688 144.589 93.1366 141.856 90.4029L137.613 94.6456ZM137.613 96.0598L135.132 98.5409L139.375 102.784L141.856 100.302L137.613 96.0598ZM139.361 102.798C139.476 102.683 139.663 102.684 139.779 102.799L144.021 98.5566C141.572 96.1076 137.608 96.0976 135.146 98.5269L139.361 102.798ZM139.779 102.799C139.894 102.915 139.894 103.103 139.779 103.219L144.021 107.462C146.48 105.003 146.48 101.016 144.021 98.5566L139.779 102.799ZM139.779 103.219L135.066 107.932L139.309 112.174L144.021 107.462L139.779 103.219ZM135.066 112.174L160.841 137.949L165.083 133.706L139.309 107.932L135.066 112.174ZM160.841 133.706L144.761 149.786L149.004 154.029L165.083 137.949L160.841 133.706ZM149.004 149.786L123.081 123.863L118.838 128.106L144.761 154.029L149.004 149.786ZM119.113 123.62C117.107 125.187 114.514 125.665 112.143 125.038L110.608 130.838C114.736 131.93 119.274 131.107 122.806 128.349L119.113 123.62ZM109.254 125.817L82.7546 152.316L86.9972 156.559L113.497 130.059L109.254 125.817ZM86.9972 152.316L70.9177 136.237L66.6751 140.48L82.7546 156.559L86.9972 152.316ZM70.9177 140.48L97.0574 114.34L92.8148 110.097L66.6751 136.237L70.9177 140.48ZM96.8777 109.932C96.6562 109.744 96.5235 109.473 96.5235 109.168H90.5235C90.5235 111.308 91.4876 113.226 92.9944 114.505L96.8777 109.932ZM96.5235 109.168V107.641H90.5235V109.168H96.5235ZM96.5235 107.641C96.5235 107.088 96.9712 106.641 97.5235 106.641V100.641C93.6575 100.641 90.5235 103.775 90.5235 107.641H96.5235ZM97.5235 100.641H95.4063V106.641H97.5235V100.641ZM95.4063 100.641C94.854 100.641 94.4063 100.193 94.4063 99.6407H88.4063C88.4063 103.507 91.5403 106.641 95.4063 106.641V100.641ZM94.4063 99.6407V98.1133H88.4063V99.6407H94.4063ZM94.4063 98.1133C94.4063 97.561 94.854 97.1133 95.4063 97.1133V91.1133C91.5403 91.1133 88.4063 94.2473 88.4063 98.1133H94.4063ZM95.4063 91.1133H93.2891V97.1133H95.4063V91.1133ZM93.2891 91.1133C92.7369 91.1133 92.2891 90.6656 92.2891 90.1133H86.2891C86.2891 93.9793 89.4231 97.1133 93.2891 97.1133V91.1133ZM92.2891 90.1133V88.586H86.2891V90.1133H92.2891ZM92.2891 88.586C92.2891 88.0337 92.7369 87.586 93.2891 87.586V81.586C89.4231 81.586 86.2891 84.72 86.2891 88.586H92.2891ZM93.2891 87.586H104.63V81.586H93.2891V87.586ZM107.606 84.9681C107.642 84.6843 107.793 84.4288 108.043 84.2619L104.714 79.2703C102.959 80.4408 101.903 82.2712 101.655 84.2038L107.606 84.9681ZM108.043 84.2619L116.359 78.7154L113.03 73.7238L104.714 79.2703L108.043 84.2619ZM116.359 78.7154C116.819 78.4089 117.44 78.533 117.746 78.9924L122.738 75.6632C120.593 72.4469 116.246 71.5786 113.03 73.7238L116.359 78.7154ZM117.746 78.9924L118.594 80.2631L123.585 76.9338L122.738 75.6632L117.746 78.9924ZM118.594 80.2631C118.694 80.4141 118.746 80.574 118.759 80.7344L124.74 80.255C124.647 79.1022 124.267 77.9566 123.585 76.9338L118.594 80.2631Z" fill="#333432" mask="url(#path-4-outside-1_208_185)"/>
<path d="M121.999 127.023L120.938 128.084L121.999 129.144L146.682 153.828L147.793 154.938L148.851 153.778L164.608 136.511L165.592 135.433L164.541 134.42L140.18 110.925L139.12 109.902L138.078 110.944L121.999 127.023Z" fill="#D0897A" stroke="#333432" stroke-width="3"/>
<rect x="117.649" y="83.9126" width="32.173" height="37.0508" rx="11" transform="rotate(45 117.649 83.9126)" fill="#F3C9A6"/>
<rect x="122.889" y="78.6729" width="8.8982" height="24.3477" rx="4" transform="rotate(45 122.889 78.6729)" fill="#F3C9A6"/>
<rect x="129.979" y="82.7686" width="8.8982" height="24.3477" rx="4" transform="rotate(45 129.979 82.7686)" fill="#F3C9A6"/>
<rect x="136.271" y="89.0605" width="8.8982" height="24.3477" rx="4" transform="rotate(45 136.271 89.0605)" fill="#F3C9A6"/>
<rect x="139.569" y="98.3467" width="6.59357" height="24.3477" rx="3.29679" transform="rotate(45 139.569 98.3467)" fill="#F3C9A6"/>
<rect x="100.984" y="106.171" width="22.7398" height="45.5195" transform="rotate(45 100.984 106.171)" fill="#F3C9A6"/>
<rect x="89.7891" y="85.0859" width="25.4648" height="8.52734" rx="3.5" fill="#D0897A" stroke="#333432"/>
<rect x="91.9062" y="94.6133" width="20.1719" height="8.52734" rx="3.5" fill="#D0897A" stroke="#333432"/>
<rect x="94.0234" y="104.141" width="16.9961" height="8.52734" rx="3.5" fill="#D0897A" stroke="#333432"/>
<rect x="103.744" y="84.1241" width="16.9961" height="8.52734" rx="3.5" transform="rotate(-33.7019 103.744 84.1241)" fill="#D0897A" stroke="#333432"/>
<circle cx="115.5" cy="115.5" r="52.5" stroke="#B93800" stroke-width="8"/>
<defs>
<linearGradient id="paint0_linear_208_185" x1="115" y1="0" x2="115" y2="230" gradientUnits="userSpaceOnUse">
<stop stop-color="#7E9999"/>
<stop offset="0.63" stop-color="#7E9999"/>
<stop offset="0.63404" stop-color="#7E9999" stop-opacity="0"/>
<stop offset="1" stop-color="#7E9999" stop-opacity="0"/>
</linearGradient>
<linearGradient id="paint1_linear_208_185" x1="115" y1="0" x2="115" y2="230" gradientUnits="userSpaceOnUse">
<stop stop-color="#F4F1E4"/>
<stop offset="0.63" stop-color="#F4F1E4"/>
<stop offset="0.63" stop-color="#7E9999" stop-opacity="0"/>
<stop offset="1" stop-color="#7E9999" stop-opacity="0"/>
</linearGradient>
<linearGradient id="paint2_linear_208_185" x1="115.5" y1="25" x2="115.5" y2="206" gradientUnits="userSpaceOnUse">
<stop offset="0.22" stop-color="#FB6600"/>
<stop offset="1" stop-color="#F64C01"/>
</linearGradient>
</defs>
</svg>
