<svg width="23" height="25" viewBox="0 0 23 25" fill="none" xmlns="http://www.w3.org/2000/svg">
<path d="M21.1304 0.072282L6.7567 4.68632C6.46493 4.78595 6.20999 4.98413 6.02894 5.25206C5.8479 5.52 5.75018 5.84371 5.75 6.17615V18.9411C5.27929 18.8169 4.79688 18.7526 4.3125 18.7496C1.93164 18.7496 0 20.1491 0 21.8748C0 23.6005 1.93164 25 4.3125 25C6.69336 25 8.625 23.6005 8.625 21.8748V10.464L20.125 6.80168V15.8164C19.6543 15.6917 19.1719 15.6273 18.6875 15.6245C16.3066 15.6245 14.375 17.0239 14.375 18.7496C14.375 20.4753 16.3066 21.8748 18.6875 21.8748C21.0684 21.8748 23 20.4758 23 18.7496V1.56114C22.9998 1.31583 22.9465 1.07402 22.8443 0.855286C22.7422 0.636549 22.5941 0.447026 22.412 0.302058C22.23 0.157089 22.0191 0.0607465 21.7964 0.0208281C21.5738 -0.0190903 21.3456 -0.0014635 21.1304 0.072282Z" fill="white"/>
</svg>
