<svg width="118" height="102" viewBox="0 0 118 102" fill="none" xmlns="http://www.w3.org/2000/svg">
<mask id="path-1-inside-1_362_62" fill="white">
<path d="M0 0H67C95.1665 0 118 22.8335 118 51V51C118 79.1665 95.1665 102 67 102H0V0Z"/>
</mask>
<path d="M0 0H67C95.1665 0 118 22.8335 118 51V51C118 79.1665 95.1665 102 67 102H0V0Z" fill="#3E3E3E"/>
<path d="M0 -3H67C96.8234 -3 121 21.1766 121 51H115C115 24.4903 93.5097 3 67 3H0V-3ZM121 51C121 80.8234 96.8234 105 67 105H0V99H67C93.5097 99 115 77.5097 115 51H121ZM0 102V0V102ZM67 -3C96.8234 -3 121 21.1766 121 51C121 80.8234 96.8234 105 67 105V99C93.5097 99 115 77.5097 115 51C115 24.4903 93.5097 3 67 3V-3Z" fill="#8F8F8F" mask="url(#path-1-inside-1_362_62)"/>
</svg>
